<svg id="Capa_1" data-name="Capa 1" xmlns="http://www.w3.org/2000/svg" viewBox="0 0 347.74 78.18"><defs><style>.cls-1{fill:#3531FF;}.cls-2{fill:#323131;}</style></defs><title>logo</title><path class="cls-1" d="M191.71,381.41h-57a10.61,10.61,0,0,0-10.6,10.6v57a10.6,10.6,0,0,0,10.6,10.6h57a10.6,10.6,0,0,0,10.6-10.6V392A10.61,10.61,0,0,0,191.71,381.41Zm-3,26a8.69,8.69,0,0,1-2.78,1.89,52.54,52.54,0,0,1-7.64,28.48A9,9,0,1,1,162,442.21a44.93,44.93,0,0,1-11.77-8.85l-.84-.82a45.64,45.64,0,0,1-8.21-11.19,9,9,0,1,1,4.32-16.28,45.19,45.19,0,0,1,16.31-6.41l.24,0,.13,0a44.5,44.5,0,0,1,11.75-1,9,9,0,1,1,14.72,9.87Zm-45.43,1.91a4.3,4.3,0,1,0-6.08,6.08,4.26,4.26,0,0,0,1.92,1.11,4.3,4.3,0,0,0,4.16-1.11,4,4,0,0,0,.34-.38,4.3,4.3,0,0,0-.34-5.7ZM174,440.13a4.24,4.24,0,0,0-2.46-1.22,4.3,4.3,0,0,0-3.28.92l-.33.3a4.28,4.28,0,0,0-1.09,4.22A4.14,4.14,0,0,0,168,446.2a4.29,4.29,0,0,0,7.18-4.17A4.25,4.25,0,0,0,174,440.13Zm1.86-32.71a9,9,0,0,1-2.55-5.16,39.63,39.63,0,0,0-10.14,1h-.07l-.24,0-.18,0a40.58,40.58,0,0,0-14.21,5.48,9.07,9.07,0,0,1-1.91,10,8.4,8.4,0,0,1-1,.83A40.94,40.94,0,0,0,153.56,430l.09.09a40.35,40.35,0,0,0,10.12,7.71,8.64,8.64,0,0,1,.85-1,9,9,0,0,1,9.9-1.93,40.44,40.44,0,0,0,5-11.91c0-.07,0-.13.05-.18A40.52,40.52,0,0,0,181.19,410,9,9,0,0,1,175.9,407.42Zm3.35-9.43-.1.11a4.3,4.3,0,0,0,6.17,6h0a4.3,4.3,0,1,0-6.08-6.08Z" transform="translate(-124.13 -381.41)"/></svg>
