<?xml version="1.0" encoding="UTF-8" standalone="no"?><svg xmlns="http://www.w3.org/2000/svg" xmlns:xlink="http://www.w3.org/1999/xlink" contentScriptType="application/ecmascript" contentStyleType="text/css" height="1210px" preserveAspectRatio="none" style="width:1089px;height:1210px;" version="1.1" viewBox="0 0 1089 1210" width="1089px" zoomAndPan="magnify"><defs><filter height="300%" id="f196a23zo9c4r8" width="300%" x="-1" y="-1"><feGaussianBlur result="blurOut" stdDeviation="2.0"/><feColorMatrix in="blurOut" result="blurOut2" type="matrix" values="0 0 0 0 0 0 0 0 0 0 0 0 0 0 0 0 0 0 .4 0"/><feOffset dx="4.0" dy="4.0" in="blurOut2" result="blurOut3"/><feBlend in="SourceGraphic" in2="blurOut3" mode="normal"/></filter></defs><g><!--MD5=[2be9f19ea80e3cb29961ec82185bfc87]
cluster Setup--><polygon fill="#F8F8F8" filter="url(#f196a23zo9c4r8)" points="366.5,24,366.5,24.2102,376.5,23.5857,386.5,24.1933,396.5,24.3997,406.5,23.2866,416.5,23.9223,426.5,23.5735,436.5,23.6165,446.5,23.9318,456.5,23.3086,466.5,24.5536,476.5,23.3697,486.5,23.8022,496.5,24.4319,506.5,23.9142,516.5,24.0682,526.5,23.9681,536.5,24.1785,546.5,24.2391,556.5,24,556.5747,24.1804,558.3534,24.9389,560.1222,25.6737,561.8358,26.2751,563.6302,27.0717,565.3388,27.6612,565.5551,27.7507,565.849,29.3369,567.0123,31.2833,567.4442,32.9266,568.4322,34.8003,569,36.5,568.505,36.5,568.9315,46.55,569.7416,56.6,568.9513,66.65,569.1053,76.7,569.3386,86.75,569.4162,96.8,568.9961,106.85,569.2872,116.9,568.4276,126.95,569.2844,137,569.5482,147.05,569.4445,157.1,569.613,167.15,568.5169,177.2,568.3478,187.25,568.3786,197.3,568.9411,207.35,568.8035,217.4,569.6814,227.45,568.8253,237.5,568.6569,247.55,569.2283,257.6,568.3332,267.65,568.4809,277.7,569.649,287.75,569.4357,297.8,569.7345,307.85,568.6782,317.9,569.3192,327.95,569.5904,338,568.5276,348.05,568.9041,358.1,569.126,368.15,569.6518,378.2,568.9958,388.25,569.4626,398.3,568.4462,408.35,568.3227,418.4,569.5036,428.45,569,438.5,568.7792,438.4085,568.4245,440.3327,567.5992,442.0619,566.7208,443.7691,565.9621,445.5259,565.3388,447.3388,565.3974,447.4801,563.5329,447.9789,561.8788,448.9856,559.965,449.3653,558.3465,450.4579,556.5,451,556.5,451.4843,546.5,451.245,536.5,451.0472,526.5,451.7266,516.5,451.6136,506.5,451.1693,496.5,451.2682,486.5,450.8697,476.5,451.7165,466.5,451.1549,456.5,451.1726,446.5,450.3916,436.5,450.5948,426.5,451.5307,416.5,451.4298,406.5,450.9571,396.5,450.6778,386.5,450.7811,376.5,450.3138,366.5,451,366.5529,451.1277,364.8266,450.4955,363.0316,449.6976,361.2853,449.0173,359.4115,448.029,357.6612,447.3388,357.688,447.35,356.8096,445.5216,356.2842,443.8395,355.5405,442.067,354.9023,440.3382,354,438.5,353.7703,438.5,353.8656,428.45,354.4435,418.4,354.5673,408.35,353.4875,398.3,353.8061,388.25,354.1493,378.2,353.3892,368.15,354.3534,358.1,354.258,348.05,353.8992,338,354.1422,327.95,354.7287,317.9,353.6871,307.85,354.315,297.8,354.2856,287.75,354.1158,277.7,354.1409,267.65,354.1135,257.6,353.3758,247.55,353.5992,237.5,353.5385,227.45,354.0638,217.4,354.0881,207.35,354.1617,197.3,353.709,187.25,353.9325,177.2,353.8798,167.15,354.5769,157.1,354.4266,147.05,353.5145,137,353.9271,126.95,353.4228,116.9,354.2884,106.85,354.6085,96.8,354.5446,86.75,353.5644,76.7,354.464,66.65,353.2572,56.6,354.2002,46.55,354,36.5,353.9078,36.4618,354.762,34.7446,355.5385,32.9951,356.3421,31.2569,356.7072,29.3371,357.6612,27.6612,357.7218,27.8076,359.4517,26.9838,361.242,26.3061,363.0599,25.6948,364.7329,24.7339,366.5,24" style="stroke: #383838; stroke-width: 1.5;"/><polygon fill="#FFFFFF" points="369.5,53.2969,369.5,53.5071,379.7222,52.8826,389.9444,53.4902,400.1667,53.6966,410.3889,52.5835,420.6111,53.2192,430.8333,52.8704,441.0556,52.9134,451.2778,53.2287,461.5,52.6055,471.7222,53.8505,481.9444,52.6666,492.1667,53.0991,502.3889,53.7288,512.6111,53.2111,522.8333,53.3651,533.0556,53.2649,543.2778,53.4754,553.5,53.2969,553.5305,53.3705,555.3425,54.2095,557.1211,54.968,558.8899,55.7028,560.6035,56.3042,562.3388,56.958,562.4816,57.0172,563.2873,58.8154,563.5812,60.4016,564.7445,62.3479,565.1765,63.9913,566,65.7969,566.5338,65.7969,565.505,75.7889,565.9315,85.7808,566.7416,95.7728,565.9513,105.7648,566.1053,115.7568,566.3386,125.7487,566.4162,135.7407,565.9961,145.7327,566.2872,155.7247,565.4276,165.7166,566.2844,175.7086,566.5482,185.7006,566.4445,195.6926,566.613,205.6845,565.5169,215.6765,565.3478,225.6685,565.3786,235.6605,565.9411,245.6524,565.8035,255.6444,566.6814,265.6364,565.8253,275.6284,565.6569,285.6204,566.2283,295.6123,565.3332,305.6043,565.4809,315.5963,566.649,325.5883,566.4357,335.5802,566.7345,345.5722,565.6782,355.5642,566.3192,365.5562,566.5904,375.5481,565.5276,385.5401,565.9041,395.5321,566.126,405.5241,566.6518,415.516,565.9958,425.508,566,435.5,566.1425,435.559,565.0972,437.1971,564.327,438.9491,563.9584,440.8675,562.8503,442.4796,562.3388,444.3388,562.4038,444.4956,560.5974,445.1347,558.7691,445.7208,556.9904,446.4266,555.3263,447.409,553.5,448,553.5,447.7007,543.2778,448.5919,533.0556,447.4473,522.8333,448.6174,512.6111,448.4843,502.3889,448.245,492.1667,448.0472,481.9444,448.7266,471.7222,448.6136,461.5,448.1693,451.2778,448.2682,441.0556,447.8697,430.8333,448.7165,420.6111,448.1549,410.3889,448.1726,400.1667,447.3916,389.9444,447.5948,379.7222,448.5307,369.5,448,369.5548,448.1323,367.7268,447.2545,365.9234,446.4363,364.1688,445.7359,362.3414,444.8598,360.6612,444.3388,360.7889,444.3917,360.1567,442.6654,359.3588,440.8704,358.6785,439.1242,357.6901,437.2503,357,435.5,357.0872,435.5,356.6124,425.508,357.284,415.516,357.2468,405.5241,357.5524,395.5321,356.7703,385.5401,356.8656,375.5481,357.4435,365.5562,357.5673,355.5642,356.4875,345.5722,356.8061,335.5802,357.1493,325.5883,356.3892,315.5963,357.3534,305.6043,357.258,295.6123,356.8992,285.6204,357.1422,275.6284,357.7287,265.6364,356.6871,255.6444,357.315,245.6524,357.2856,235.6605,357.1158,225.6685,357.1409,215.6765,357.1135,205.6845,356.3758,195.6926,356.5992,185.7006,356.5385,175.7086,357.0638,165.7166,357.0881,155.7247,357.1617,145.7327,356.709,135.7407,356.9325,125.7487,356.8798,115.7568,357.5769,105.7648,357.4266,95.7728,356.5145,85.7808,356.9271,75.7889,357,65.7969,356.8222,65.7232,357.821,64.0659,358.6519,62.339,359.3644,60.563,359.7948,58.6702,360.6612,56.958,360.7203,57.1009,362.3342,55.9971,364.2222,55.5552,365.9263,54.6692,367.7446,54.0589,369.5,53.2969" style="stroke: #FFFFFF; stroke-width: 1.0;"/><path d="M354,50.2969 L354,50.5771 L363.7727,49.7444 L373.5455,50.5546 L383.3182,50.8298 L393.0909,49.3457 L402.8636,50.1933 L412.6364,49.7282 L422.4091,49.7855 L432.1818,50.206 L441.9545,49.375 L451.7273,51.0351 L461.5,49.4565 L471.2727,50.0332 L481.0455,50.8728 L490.8182,50.1825 L500.5909,50.3879 L510.3636,50.2543 L520.1364,50.5349 L529.9091,50.6157 L539.6818,51.0778 L549.4545,51.1916 L559.2273,51.2026 L569,50.2969 " fill="#FFFFFF" style="stroke: #383838; stroke-width: 1.5;"/><text fill="#000000" font-family="sans-serif" font-size="14" lengthAdjust="spacingAndGlyphs" textLength="41" x="441" y="40.9951">Setup</text><!--MD5=[a4aaaf72ecace49da99b428c561694dc]
cluster PlayerA--><polygon fill="#F8F8F8" filter="url(#f196a23zo9c4r8)" points="739.5,500,739.5,500.2102,749.3485,499.5857,759.197,500.1933,769.0455,500.3997,778.8939,499.2866,788.7424,499.9223,798.5909,499.5735,808.4394,499.6165,818.2879,499.9318,828.1364,499.3086,837.9848,500.5536,847.8333,499.3697,857.6818,499.8022,867.5303,500.4319,877.3788,499.9142,887.2273,500.0682,897.0758,499.9681,906.9242,500.1785,916.7727,500.2391,926.6212,500.5857,936.4697,500.6711,946.3182,500.6793,956.1667,500.2546,966.0152,500.4636,975.8636,500.7022,985.7121,499.2788,995.5606,500.6785,1005.4091,499.7035,1015.2576,500.5338,1025.1061,499.505,1034.9545,499.9315,1044.803,500.7416,1054.6515,499.9513,1064.5,500,1064.5134,500.0324,1066.311,500.8365,1068.0886,501.5926,1069.8028,502.1955,1071.6077,503.0174,1073.3388,503.6612,1073.1626,503.5881,1074.1586,505.4652,1074.9721,507.2666,1075.6724,509.0212,1076.4566,510.8104,1077,512.5,1076.5169,512.5,1076.3478,522.5597,1076.3786,532.6194,1076.9411,542.6791,1076.8035,552.7388,1077.6814,562.7985,1076.8253,572.8582,1076.6569,582.9179,1077.2283,592.9776,1076.3332,603.0373,1076.4809,613.097,1077.649,623.1567,1077.4357,633.2164,1077.7345,643.2761,1076.6782,653.3358,1077.3192,663.3955,1077.5904,673.4552,1076.5276,683.5149,1076.9041,693.5746,1077.126,703.6343,1077.6518,713.694,1076.9958,723.7537,1077.4626,733.8134,1076.4462,743.8731,1076.3227,753.9328,1077.5036,763.9925,1076.2831,774.0522,1077.509,784.1119,1077.2066,794.1716,1076.7321,804.2313,1076.6462,814.291,1077.4588,824.3507,1076.7007,834.4104,1077.5919,844.4701,1076.4473,854.5299,1077.6174,864.5896,1077.4843,874.6493,1077.245,884.709,1077.0472,894.7687,1077.7266,904.8284,1077.6136,914.8881,1077.1693,924.9478,1077.2682,935.0075,1076.8697,945.0672,1077.7165,955.1269,1077.1549,965.1866,1077.1726,975.2463,1076.3916,985.306,1076.5948,995.3657,1077.5307,1005.4254,1077.4298,1015.4851,1076.9571,1025.5448,1076.6778,1035.6045,1076.7811,1045.6642,1076.3138,1055.7239,1077.4147,1065.7836,1077.7396,1075.8433,1077.5264,1085.903,1077.6949,1095.9627,1076.8633,1106.0224,1077.0872,1116.0821,1076.6124,1126.1418,1077.284,1136.2015,1077.2468,1146.2612,1077.5524,1156.3209,1076.7703,1166.3806,1076.8656,1176.4403,1077,1186.5,1077.1366,1186.5566,1076.4425,1188.3401,1075.3777,1189.9702,1074.7436,1191.7786,1074.117,1193.5901,1073.3388,1195.3388,1073.2609,1195.1507,1071.6161,1196.1799,1069.8362,1196.8828,1068.0227,1197.5045,1066.2859,1198.3116,1064.5,1199,1064.5,1199.7287,1054.6515,1198.6871,1044.803,1199.315,1034.9545,1199.2856,1025.1061,1199.1158,1015.2576,1199.1409,1005.4091,1199.1135,995.5606,1198.3758,985.7121,1198.5992,975.8636,1198.5385,966.0152,1199.0638,956.1667,1199.0881,946.3182,1199.1617,936.4697,1198.709,926.6212,1198.9325,916.7727,1198.8798,906.9242,1199.5769,897.0758,1199.4266,887.2273,1198.5145,877.3788,1198.9271,867.5303,1198.4228,857.6818,1199.2884,847.8333,1199.6085,837.9848,1199.5446,828.1364,1198.5644,818.2879,1199.464,808.4394,1198.2572,798.5909,1199.2002,788.7424,1198.7007,778.8939,1199.0967,769.0455,1199.2403,759.197,1199.4721,749.3485,1198.2801,739.5,1199,739.5607,1199.1464,737.755,1198.3226,736.0098,1197.645,734.2921,1197.0336,732.4296,1196.0728,730.6612,1195.3388,730.7151,1195.3612,729.9947,1193.5983,729.2574,1191.8285,728.4642,1190.0354,727.9511,1188.3584,727,1186.5,726.3903,1186.5,727.5653,1176.4403,726.376,1166.3806,726.4597,1156.3209,727.04,1146.2612,727.0283,1136.2015,726.5072,1126.1418,727.4137,1116.0821,727.1089,1106.0224,727.7267,1095.9627,727.6671,1085.903,726.5517,1075.8433,726.6021,1065.7836,726.8708,1055.7239,727.3555,1045.6642,727.403,1035.6045,727.3012,1025.5448,726.658,1015.4851,727.6364,1005.4254,727.6338,995.3657,726.9527,985.306,726.7609,975.2463,726.5986,965.1866,726.7854,955.1269,727.1374,945.0672,726.9316,935.0075,726.5822,924.9478,727.4874,914.8881,726.5411,904.8284,727.5024,894.7687,727.4272,884.709,727.3719,874.6493,727.6925,864.5896,726.7541,854.5299,726.6994,844.4701,727.5189,834.4104,726.4031,824.3507,726.766,814.291,727.1155,804.2313,727.0687,794.1716,726.6415,784.1119,726.957,774.0522,727.7446,763.9925,727.6485,753.9328,726.4037,743.8731,727.0785,733.8134,726.4861,723.7537,726.9737,713.694,727.293,703.6343,727.4199,693.5746,726.3353,683.5149,727.4005,673.4552,727.0084,663.3955,726.4447,653.3358,726.5289,643.2761,727.3266,633.2164,727.2499,623.1567,726.9836,613.097,726.3279,603.0373,727.6581,592.9776,726.6882,582.9179,726.4719,572.8582,726.9327,562.7985,727.5897,552.7388,727.6154,542.6791,727.0351,532.6194,726.8488,522.5597,727,512.5,727.0523,512.5217,727.7896,510.756,728.3081,508.8997,729.3242,507.2495,730.101,505.5002,730.6612,503.6612,730.6336,503.5947,732.3742,502.7968,734.2828,502.4045,735.9671,501.4709,737.7322,500.7322,739.5,500" style="stroke: #383838; stroke-width: 1.5;"/><polygon fill="#FFFFFF" points="742.5,529.2969,742.5,529.5071,752.4688,528.8826,762.4375,529.4902,772.4063,529.6966,782.375,528.5835,792.3438,529.2192,802.3125,528.8704,812.2813,528.9134,822.25,529.2287,832.2188,528.6055,842.1875,529.8505,852.1563,528.6666,862.125,529.0991,872.0938,529.7288,882.0625,529.2111,892.0313,529.3651,902,529.2649,911.9688,529.4754,921.9375,529.536,931.9063,529.8826,941.875,529.9679,951.8438,529.9761,961.8125,529.5515,971.7813,529.7605,981.75,529.9991,991.7188,528.5757,1001.6875,529.9754,1011.6563,529.0004,1021.625,529.8307,1031.5938,528.8019,1041.5625,529.2284,1051.5313,530.0385,1061.5,529.2969,1061.4938,529.2819,1063.2812,530.0615,1065.0787,530.8656,1066.8564,531.6218,1068.5706,532.2246,1070.3388,532.958,1070.4273,532.9947,1070.8948,534.6528,1071.8909,536.5299,1072.7044,538.3313,1073.4047,540.0858,1074,541.7969,1074.613,541.7969,1073.5169,551.8235,1073.3478,561.8501,1073.3786,571.8767,1073.9411,581.9033,1073.8035,591.9299,1074.6814,601.9565,1073.8253,611.9832,1073.6569,622.0098,1074.2283,632.0364,1073.3332,642.063,1073.4809,652.0896,1074.649,662.1162,1074.4357,672.1428,1074.7345,682.1694,1073.6782,692.196,1074.3192,702.2227,1074.5904,712.2493,1073.5276,722.2759,1073.9041,732.3025,1074.126,742.3291,1074.6518,752.3557,1073.9958,762.3823,1074.4626,772.4089,1073.4462,782.4355,1073.3227,792.4622,1074.5036,802.4888,1073.2831,812.5154,1074.509,822.542,1074.2066,832.5686,1073.7321,842.5952,1073.6462,852.6218,1074.4588,862.6484,1073.7007,872.675,1074.5919,882.7017,1073.4473,892.7283,1074.6174,902.7549,1074.4843,912.7815,1074.245,922.8081,1074.0472,932.8347,1074.7266,942.8613,1074.6136,952.8879,1074.1693,962.9146,1074.2682,972.9412,1073.8697,982.9678,1074.7165,992.9944,1074.1549,1003.021,1074.1726,1013.0476,1073.3916,1023.0742,1073.5948,1033.1008,1074.5307,1043.1274,1074.4298,1053.1541,1073.9571,1063.1807,1073.6778,1073.2073,1073.7811,1083.2339,1073.3138,1093.2605,1074.4147,1103.2871,1074.7396,1113.3137,1074.5264,1123.3403,1074.6949,1133.3669,1073.8633,1143.3936,1074.0872,1153.4202,1073.6124,1163.4468,1074.284,1173.4734,1074,1183.5,1074.076,1183.5315,1073.4379,1185.3382,1072.4648,1187.0062,1071.7619,1188.7862,1071.2076,1190.6276,1070.3388,1192.3388,1070.4112,1192.5136,1068.5057,1192.9132,1066.7786,1193.7436,1065.0546,1194.5815,1063.1898,1195.0797,1061.5,1196,1061.5,1196.3534,1051.5313,1196.258,1041.5625,1195.8992,1031.5938,1196.1422,1021.625,1196.7287,1011.6563,1195.6871,1001.6875,1196.315,991.7188,1196.2856,981.75,1196.1158,971.7813,1196.1409,961.8125,1196.1135,951.8438,1195.3758,941.875,1195.5992,931.9063,1195.5385,921.9375,1196.0638,911.9688,1196.0881,902,1196.1617,892.0313,1195.709,882.0625,1195.9325,872.0938,1195.8798,862.125,1196.5769,852.1563,1196.4266,842.1875,1195.5145,832.2188,1195.9271,822.25,1195.4228,812.2813,1196.2884,802.3125,1196.6085,792.3438,1196.5446,782.375,1195.5644,772.4063,1196.464,762.4375,1195.2572,752.4688,1196.2002,742.5,1196,742.4618,1195.9078,740.7446,1195.2976,738.9951,1194.6095,737.2569,1193.9487,735.3371,1192.8494,733.6612,1192.3388,733.8076,1192.3995,732.9838,1190.5938,732.3061,1188.8486,731.6948,1187.1309,730.7339,1185.2685,730,1183.5,730.1753,1183.5,730.2134,1173.4734,730.1972,1163.4468,729.9992,1153.4202,730.7107,1143.3936,729.3903,1133.3669,730.5653,1123.3403,729.376,1113.3137,729.4597,1103.2871,730.04,1093.2605,730.0283,1083.2339,729.5072,1073.2073,730.4137,1063.1807,730.1089,1053.1541,730.7267,1043.1274,730.6671,1033.1008,729.5517,1023.0742,729.6021,1013.0476,729.8708,1003.021,730.3555,992.9944,730.403,982.9678,730.3012,972.9412,729.658,962.9146,730.6364,952.8879,730.6338,942.8613,729.9527,932.8347,729.7609,922.8081,729.5986,912.7815,729.7854,902.7549,730.1374,892.7283,729.9316,882.7017,729.5822,872.675,730.4874,862.6484,729.5411,852.6218,730.5024,842.5952,730.4272,832.5686,730.3719,822.542,730.6925,812.5154,729.7541,802.4888,729.6994,792.4622,730.5189,782.4355,729.4031,772.4089,729.766,762.3823,730.1155,752.3557,730.0687,742.3291,729.6415,732.3025,729.957,722.2759,730.7446,712.2493,730.6485,702.2227,729.4037,692.196,730.0785,682.1694,729.4861,672.1428,729.9737,662.1162,730.293,652.0896,730.4199,642.063,729.3353,632.0364,730.4005,622.0098,730.0084,611.9832,729.4447,601.9565,729.5289,591.9299,730.3266,581.9033,730.2499,571.8767,729.9836,561.8501,729.3279,551.8235,730,541.7969,730.2027,541.8808,730.6362,539.9893,731.3018,538.194,732.176,536.485,733.1105,534.801,733.6612,532.958,733.7397,533.1476,735.4334,532.2366,737.1774,531.447,738.9861,530.8136,740.756,530.0865,742.5,529.2969" style="stroke: #FFFFFF; stroke-width: 1.0;"/><path d="M727,526.2969 L727,526.5771 L737,525.7444 L747,526.5546 L757,526.8298 L767,525.3457 L777,526.1933 L787,525.7282 L797,525.7855 L807,526.206 L817,525.375 L827,527.0351 L837,525.4565 L847,526.0332 L857,526.8728 L867,526.1825 L877,526.3879 L887,526.2543 L897,526.5349 L907,526.6157 L917,527.0778 L927,527.1916 L937,527.2026 L947,526.6364 L957,526.915 L967,527.2332 L977,525.3353 L987,527.2016 L997,525.9015 L1007,527.0086 L1017,525.6368 L1027,526.2055 L1037,527.2857 L1047,526.2319 L1057,526.4373 L1067,526.7484 L1077,526.2969 " fill="#FFFFFF" style="stroke: #383838; stroke-width: 1.5;"/><text fill="#000000" font-family="sans-serif" font-size="14" lengthAdjust="spacingAndGlyphs" textLength="50" x="877" y="516.9951">PlayerA</text><!--MD5=[33426a63bd9c68ac63565883f0b53944]
cluster PlayerB--><polygon fill="#F8F8F8" filter="url(#f196a23zo9c4r8)" points="34.5,360,34.5,360.2102,44.6071,359.5857,54.7143,360.1933,64.8214,360.3997,74.9286,359.2866,85.0357,359.9223,95.1429,359.5735,105.25,359.6165,115.3571,359.9318,125.4643,359.3086,135.5714,360.5536,145.6786,359.3697,155.7857,359.8022,165.8929,360.4319,176,359.9142,186.1071,360.0682,196.2143,359.9681,206.3214,360.1785,216.4286,360.2391,226.5357,360.5857,236.6429,360.6711,246.75,360.6793,256.8571,360.2546,266.9643,360.4636,277.0714,360.7022,287.1786,359.2788,297.2857,360.6785,307.3929,359.7035,317.5,360,317.5681,360.1644,319.2046,360.5798,321.0268,361.4434,322.8979,362.4251,324.5649,362.9139,326.3388,363.6612,326.3713,363.6746,327.1754,365.4721,327.9315,367.2498,328.5343,368.964,329.3562,370.7689,330,372.5,329.4276,372.5,330.2844,382.4286,330.5482,392.3571,330.4445,402.2857,330.613,412.2143,329.5169,422.1429,329.3478,432.0714,329.3786,442,329.9411,451.9286,329.8035,461.8571,330.6814,471.7857,329.8253,481.7143,329.6569,491.6429,330.2283,501.5714,329.3332,511.5,329.4809,521.4286,330.649,531.3571,330.4357,541.2857,330.7345,551.2143,329.6782,561.1429,330.3192,571.0714,330.5904,581,329.5276,590.9286,329.9041,600.8571,330.126,610.7857,330.6518,620.7143,329.9958,630.6429,330.4626,640.5714,329.4462,650.5,329.3227,660.4286,330.5036,670.3571,329.2831,680.2857,330.509,690.2143,330.2066,700.1429,329.7321,710.0714,329.6462,720,330.4588,729.9286,329.7007,739.8571,330.5919,749.7857,329.4473,759.7143,330.6174,769.6429,330.4843,779.5714,330.245,789.5,330.0472,799.4286,330.7266,809.3571,330.6136,819.2857,330.1693,829.2143,330.2682,839.1429,329.8697,849.0714,330.7165,859,330.1549,868.9286,330.1726,878.8571,329.3916,888.7857,329.5948,898.7143,330.5307,908.6429,330.4298,918.5714,329.9571,928.5,329.6778,938.4286,329.7811,948.3571,329.3138,958.2857,330.4147,968.2143,330.7396,978.1429,330.5264,988.0714,330.6949,998,329.8633,1007.9286,330.0872,1017.8571,329.6124,1027.7857,330.284,1037.7143,330.2468,1047.6429,330.5524,1057.5714,330,1067.5,329.9293,1067.4707,329.2264,1069.2506,328.6721,1071.0921,327.978,1072.8757,326.9132,1074.5057,326.3388,1076.3388,326.3141,1076.2791,324.5901,1077.117,322.7254,1077.6152,321.0806,1078.6444,319.3007,1079.3472,317.5,1080,317.5,1079.8992,307.3929,1080.1422,297.2857,1080.7287,287.1786,1079.6871,277.0714,1080.315,266.9643,1080.2856,256.8571,1080.1158,246.75,1080.1409,236.6429,1080.1135,226.5357,1079.3758,216.4286,1079.5992,206.3214,1079.5385,196.2143,1080.0638,186.1071,1080.0881,176,1080.1617,165.8929,1079.709,155.7857,1079.9325,145.6786,1079.8798,135.5714,1080.5769,125.4643,1080.4266,115.3571,1079.5145,105.25,1079.9271,95.1429,1079.4228,85.0357,1080.2884,74.9286,1080.6085,64.8214,1080.5446,54.7143,1079.5644,44.6071,1080.464,34.5,1080,34.4052,1079.7712,32.7578,1079.3294,30.9263,1078.4434,29.209,1077.8331,27.4596,1077.1451,25.6612,1076.3388,25.8066,1076.3991,24.7072,1074.4792,24.3431,1072.864,23.5193,1071.0583,22.8417,1069.3131,22,1067.5,22.7478,1067.5,22.0055,1057.5714,22.1753,1047.6429,22.2134,1037.7143,22.1972,1027.7857,21.9992,1017.8571,22.7107,1007.9286,21.3903,998,22.5653,988.0714,21.376,978.1429,21.4597,968.2143,22.04,958.2857,22.0283,948.3571,21.5072,938.4286,22.4137,928.5,22.1089,918.5714,22.7267,908.6429,22.6671,898.7143,21.5517,888.7857,21.6021,878.8571,21.8708,868.9286,22.3555,859,22.403,849.0714,22.3012,839.1429,21.658,829.2143,22.6364,819.2857,22.6338,809.3571,21.9527,799.4286,21.7609,789.5,21.5986,779.5714,21.7854,769.6429,22.1374,759.7143,21.9316,749.7857,21.5822,739.8571,22.4874,729.9286,21.5411,720,22.5024,710.0714,22.4272,700.1429,22.3719,690.2143,22.6925,680.2857,21.7541,670.3571,21.6994,660.4286,22.5189,650.5,21.4031,640.5714,21.766,630.6429,22.1155,620.7143,22.0687,610.7857,21.6415,600.8571,21.957,590.9286,22.7446,581,22.6485,571.0714,21.4037,561.1429,22.0785,551.2143,21.4861,541.2857,21.9737,531.3571,22.293,521.4286,22.4199,511.5,21.3353,501.5714,22.4005,491.6429,22.0084,481.7143,21.4447,471.7857,21.5289,461.8571,22.3266,451.9286,22.2499,442,21.9836,432.0714,21.3279,422.1429,22.6581,412.2143,21.6882,402.2857,21.4719,392.3571,21.9327,382.4286,22,372.5,22.1816,372.5752,22.9218,370.8107,23.4753,368.9689,24.1501,367.1774,24.9812,365.4506,25.6612,363.6612,25.6849,363.7185,27.3642,362.7726,29.2495,362.3242,31.0357,361.6366,32.7047,360.6658,34.5,360" style="stroke: #383838; stroke-width: 1.5;"/><polygon fill="#FFFFFF" points="37.5,389.2969,37.5,389.5071,47.3929,388.8826,57.2857,389.4902,67.1786,389.6966,77.0714,388.5835,86.9643,389.2192,96.8571,388.8704,106.75,388.9134,116.6429,389.2287,126.5357,388.6055,136.4286,389.8505,146.3214,388.6666,156.2143,389.0991,166.1071,389.7288,176,389.2111,185.8929,389.3651,195.7857,389.2649,205.6786,389.4754,215.5714,389.536,225.4643,389.8826,235.3571,389.9679,245.25,389.9761,255.1429,389.5515,265.0357,389.7605,274.9286,389.9991,284.8214,388.5757,294.7143,389.9754,304.6071,389.0004,314.5,389.2969,314.5681,389.4613,316.2046,389.8767,318.0268,390.7402,319.8979,391.722,321.5649,392.2108,323.3388,392.958,323.3713,392.9715,324.1754,394.769,324.9315,396.5467,325.5343,398.2608,326.3562,400.0657,327,401.7969,326.4276,401.7969,327.2844,411.8378,327.5482,421.8788,327.4445,431.9197,327.613,441.9607,326.5169,452.0017,326.3478,462.0426,326.3786,472.0836,326.9411,482.1245,326.8035,492.1655,327.6814,502.2064,326.8253,512.2474,326.6569,522.2884,327.2283,532.3293,326.3332,542.3703,326.4809,552.4112,327.649,562.4522,327.4357,572.4931,327.7345,582.5341,326.6782,592.575,327.3192,602.616,327.5904,612.657,326.5276,622.6979,326.9041,632.7389,327.126,642.7798,327.6518,652.8208,326.9958,662.8617,327.4626,672.9027,326.4462,682.9437,326.3227,692.9846,327.5036,703.0256,326.2831,713.0665,327.509,723.1075,327.2066,733.1484,326.7321,743.1894,326.6462,753.2304,327.4588,763.2713,326.7007,773.3123,327.5919,783.3532,326.4473,793.3942,327.6174,803.4351,327.4843,813.4761,327.245,823.517,327.0472,833.558,327.7266,843.599,327.6136,853.6399,327.1693,863.6809,327.2682,873.7218,326.8697,883.7628,327.7165,893.8037,327.1549,903.8447,327.1726,913.8857,326.3916,923.9266,326.5948,933.9676,327.5307,944.0085,327.4298,954.0495,326.9571,964.0904,326.6778,974.1314,326.7811,984.1723,326.3138,994.2133,327.4147,1004.2543,327.7396,1014.2952,327.5264,1024.3362,327.6949,1034.3771,326.8633,1044.4181,327.0872,1054.459,327,1064.5,326.8806,1064.4506,326.3552,1066.304,325.6115,1068.067,324.9734,1069.8738,324.0003,1071.5418,323.3388,1073.3388,323.3217,1073.2974,321.6276,1074.2076,319.8757,1074.978,317.9702,1075.3777,316.243,1076.2081,314.5,1077,314.5,1077.1493,304.6071,1076.3892,294.7143,1077.3534,284.8214,1077.258,274.9286,1076.8992,265.0357,1077.1422,255.1429,1077.7287,245.25,1076.6871,235.3571,1077.315,225.4643,1077.2856,215.5714,1077.1158,205.6786,1077.1409,195.7857,1077.1135,185.8929,1076.3758,176,1076.5992,166.1071,1076.5385,156.2143,1077.0638,146.3214,1077.0881,136.4286,1077.1617,126.5357,1076.709,116.6429,1076.9325,106.75,1076.8798,96.8571,1077.5769,86.9643,1077.4266,77.0714,1076.5145,67.1786,1076.9271,57.2857,1076.4228,47.3929,1077.2884,37.5,1077,37.5776,1077.1874,35.8017,1076.4355,33.9089,1075.4014,32.2559,1074.9462,30.3342,1073.8423,28.6612,1073.3388,28.7228,1073.3644,27.8368,1071.5329,27.2265,1069.8156,26.5385,1068.0662,25.8776,1066.328,25,1064.5,24.2801,1064.5,25.4755,1054.459,25.1782,1044.4181,25.3553,1034.3771,25.7478,1024.3362,25.0055,1014.2952,25.1753,1004.2543,25.2134,994.2133,25.1972,984.1723,24.9992,974.1314,25.7107,964.0904,24.3903,954.0495,25.5653,944.0085,24.376,933.9676,24.4597,923.9266,25.04,913.8857,25.0283,903.8447,24.5072,893.8037,25.4137,883.7628,25.1089,873.7218,25.7267,863.6809,25.6671,853.6399,24.5517,843.599,24.6021,833.558,24.8708,823.517,25.3555,813.4761,25.403,803.4351,25.3012,793.3942,24.658,783.3532,25.6364,773.3123,25.6338,763.2713,24.9527,753.2304,24.7609,743.1894,24.5986,733.1484,24.7854,723.1075,25.1374,713.0665,24.9316,703.0256,24.5822,692.9846,25.4874,682.9437,24.5411,672.9027,25.5024,662.8617,25.4272,652.8208,25.3719,642.7798,25.6925,632.7389,24.7541,622.6979,24.6994,612.657,25.5189,602.616,24.4031,592.575,24.766,582.5341,25.1155,572.4931,25.0687,562.4522,24.6415,552.4112,24.957,542.3703,25.7446,532.3293,25.6485,522.2884,24.4037,512.2474,25.0785,502.2064,24.4861,492.1655,24.9737,482.1245,25.293,472.0836,25.4199,462.0426,24.3353,452.0017,25.4005,441.9607,25.0084,431.9197,24.4447,421.8788,24.5289,411.8378,25,401.7969,25.1006,401.8385,25.8092,400.061,26.4594,398.2592,26.9897,396.4078,28.1316,394.8098,28.6612,392.958,28.6214,392.862,30.3616,392.0632,32.1881,391.4728,34.0397,390.9429,35.8107,390.2186,37.5,389.2969" style="stroke: #FFFFFF; stroke-width: 1.0;"/><path d="M22,386.2969 L22,386.5771 L31.9355,385.7444 L41.871,386.5546 L51.8065,386.8298 L61.7419,385.3457 L71.6774,386.1933 L81.6129,385.7282 L91.5484,385.7855 L101.4839,386.206 L111.4194,385.375 L121.3548,387.0351 L131.2903,385.4565 L141.2258,386.0332 L151.1613,386.8728 L161.0968,386.1825 L171.0323,386.3879 L180.9677,386.2543 L190.9032,386.5349 L200.8387,386.6157 L210.7742,387.0778 L220.7097,387.1916 L230.6452,387.2026 L240.5806,386.6364 L250.5161,386.915 L260.4516,387.2332 L270.3871,385.3353 L280.3226,387.2016 L290.2581,385.9015 L300.1935,387.0086 L310.129,385.6368 L320.0645,386.2055 L330,386.2969 " fill="#FFFFFF" style="stroke: #383838; stroke-width: 1.5;"/><text fill="#000000" font-family="sans-serif" font-size="14" lengthAdjust="spacingAndGlyphs" textLength="51" x="150.5" y="376.9951">PlayerB</text><!--MD5=[73fd065489371c82ecf3a42b1d3f17e1]
cluster EndGame--><polygon fill="#F8F8F8" filter="url(#f196a23zo9c4r8)" points="444.5,989,444.5,989.2102,454.34,988.5857,464.18,989.1933,474.02,989.3997,483.86,988.2866,493.7,988.9223,503.54,988.5735,513.38,988.6165,523.22,988.9318,533.06,988.3086,542.9,989.5536,552.74,988.3697,562.58,988.8022,572.42,989.4319,582.26,988.9142,592.1,989.0682,601.94,988.9681,611.78,989.1785,621.62,989.2391,631.46,989.5857,641.3,989.6711,651.14,989.6793,660.98,989.2546,670.82,989.4636,680.66,989.7022,690.5,989,690.408,988.7779,692.3543,989.9412,693.9977,990.3732,695.8714,991.3611,697.5079,991.7765,699.3388,992.6612,699.3177,992.6524,700.2995,994.5235,700.7883,996.1905,701.568,997.9779,702.3721,999.7754,703,1001.5,703.4162,1001.5,702.9961,1011.2368,703.2872,1020.9737,702.4276,1030.7105,703.2844,1040.4474,703.5482,1050.1842,703.4445,1059.9211,703.613,1069.6579,702.5169,1079.3947,702.3478,1089.1316,702.3786,1098.8684,702.9411,1108.6053,702.8035,1118.3421,703.6814,1128.0789,702.8253,1137.8158,702.6569,1147.5526,703.2283,1157.2895,702.3332,1167.0263,702.4809,1176.7632,703,1186.5,703.1999,1186.5828,702.4019,1188.3233,701.7617,1190.1292,700.7042,1191.7623,700.1694,1193.6118,699.3388,1195.3388,699.4141,1195.5207,697.5108,1195.9256,695.7911,1196.7738,694.0516,1197.5743,692.3509,1198.4685,690.5,1199,690.5,1198.9958,680.66,1199.4626,670.82,1198.4462,660.98,1198.3227,651.14,1199.5036,641.3,1198.2831,631.46,1199.509,621.62,1199.2066,611.78,1198.7321,601.94,1198.6462,592.1,1199.4588,582.26,1198.7007,572.42,1199.5919,562.58,1198.4473,552.74,1199.6174,542.9,1199.4843,533.06,1199.245,523.22,1199.0472,513.38,1199.7266,503.54,1199.6136,493.7,1199.1693,483.86,1199.2682,474.02,1198.8697,464.18,1199.7165,454.34,1199.1549,444.5,1199,444.522,1199.0531,442.6546,1198.0804,440.9128,1197.4107,439.2644,1196.9667,437.4838,1196.2034,435.6612,1195.3388,435.6479,1195.3334,434.8297,1193.53,434.1293,1191.7754,433.2532,1189.948,432.86,1188.3207,432,1186.5,432.7396,1186.5,432.5264,1176.7632,432.6949,1167.0263,431.8633,1157.2895,432.0872,1147.5526,431.6124,1137.8158,432.284,1128.0789,432.2468,1118.3421,432.5524,1108.6053,431.7703,1098.8684,431.8656,1089.1316,432.4435,1079.3947,432.5673,1069.6579,431.4875,1059.9211,431.8061,1050.1842,432.1493,1040.4474,431.3892,1030.7105,432.3534,1020.9737,432.258,1011.2368,432,1001.5,431.969,1001.4871,432.776,999.7504,433.6889,998.0574,434.1003,996.1568,435.0259,994.4691,435.6612,992.6612,435.6976,992.7491,437.4437,991.9646,439.2147,991.2401,440.9789,990.4994,442.6526,989.54,444.5,989" style="stroke: #383838; stroke-width: 1.5;"/><polygon fill="#FFFFFF" points="447.5,1018.2969,447.5,1018.5071,457.5,1017.8826,467.5,1018.4902,477.5,1018.6966,487.5,1017.5835,497.5,1018.2192,507.5,1017.8704,517.5,1017.9134,527.5,1018.2287,537.5,1017.6055,547.5,1018.8505,557.5,1017.6666,567.5,1018.0991,577.5,1018.7288,587.5,1018.2111,597.5,1018.3651,607.5,1018.2649,617.5,1018.4754,627.5,1018.536,637.5,1018.8826,647.5,1018.9679,657.5,1018.9761,667.5,1018.5515,677.5,1018.7605,687.5,1018.2969,687.5896,1018.5131,689.1758,1018.807,691.1221,1019.9703,692.7655,1020.4023,694.6392,1021.3902,696.3388,1021.958,696.1864,1021.8949,697.05,1023.7171,698.0317,1025.5882,698.5205,1027.2551,699.3002,1029.0425,700,1030.7969,700.3386,1030.7969,700.4162,1040.9771,699.9961,1051.1573,700.2872,1061.3375,699.4276,1071.5177,700.2844,1081.6979,700.5482,1091.8781,700.4445,1102.0583,700.613,1112.2385,699.5169,1122.4188,699.3478,1132.599,699.3786,1142.7792,699.9411,1152.9594,699.8035,1163.1396,700.6814,1173.3198,700,1183.5,699.9462,1183.4777,699.1621,1185.224,698.6058,1187.0647,697.5979,1188.7182,696.9112,1190.5048,696.3388,1192.3388,696.4216,1192.5387,694.6266,1193.2052,692.897,1194.0295,690.9945,1194.4364,689.3085,1195.3661,687.5,1196,687.5,1196.5904,677.5,1195.5276,667.5,1195.9041,657.5,1196.126,647.5,1196.6518,637.5,1195.9958,627.5,1196.4626,617.5,1195.4462,607.5,1195.3227,597.5,1196.5036,587.5,1195.2831,577.5,1196.509,567.5,1196.2066,557.5,1195.7321,547.5,1195.6462,537.5,1196.4588,527.5,1195.7007,517.5,1196.5919,507.5,1195.4473,497.5,1196.6174,487.5,1196.4843,477.5,1196.245,467.5,1196.0472,457.5,1196.7266,447.5,1196,447.5783,1196.189,445.7538,1195.3199,443.9987,1194.6181,442.1801,1193.7632,440.5203,1193.2917,438.6612,1192.3388,438.7089,1192.3586,437.9821,1190.5931,437.0094,1188.7257,436.3397,1186.9838,435.8957,1185.3355,435,1183.5,435.4298,1183.5,434.9571,1173.3198,434.6778,1163.1396,434.7811,1152.9594,434.3138,1142.7792,435.4147,1132.599,435.7396,1122.4188,435.5264,1112.2385,435.6949,1102.0583,434.8633,1091.8781,435.0872,1081.6979,434.6124,1071.5177,435.284,1061.3375,435.2468,1051.1573,435.5524,1040.9771,435,1030.7969,434.9293,1030.7676,435.6908,1029.012,436.601,1027.3179,437.3714,1025.5659,437.7711,1023.6604,438.6612,1021.958,438.6364,1021.8983,440.448,1021.2718,442.1188,1020.3055,444.0095,1019.8702,445.7651,1019.1086,447.5,1018.2969" style="stroke: #FFFFFF; stroke-width: 1.0;"/><path d="M432,1015.2969 L432,1015.5771 L442.037,1014.7444 L452.0741,1015.5546 L462.1111,1015.8298 L472.1481,1014.3457 L482.1852,1015.1933 L492.2222,1014.7282 L502.2593,1014.7855 L512.2963,1015.206 L522.3333,1014.375 L532.3704,1016.0351 L542.4074,1014.4565 L552.4444,1015.0332 L562.4815,1015.8728 L572.5185,1015.1825 L582.5556,1015.3879 L592.5926,1015.2543 L602.6296,1015.5349 L612.6667,1015.6157 L622.7037,1016.0778 L632.7407,1016.1916 L642.7778,1016.2026 L652.8148,1015.6364 L662.8519,1015.915 L672.8889,1016.2332 L682.9259,1014.3353 L692.963,1016.2016 L703,1015.2969 " fill="#FFFFFF" style="stroke: #383838; stroke-width: 1.5;"/><text fill="#000000" font-family="sans-serif" font-size="14" lengthAdjust="spacingAndGlyphs" textLength="68" x="533.5" y="1005.9951">EndGame</text><polygon fill="#000000" filter="url(#f196a23zo9c4r8)" points="432.0552,71.4324,430.5894,73.4353,428.8556,76.3688,426.376,78.3458,423.7703,79.4269,421.6927,79.5207,419.0224,78.1687,416.5029,77.2854,414.5905,75.492,413.5873,73.4389,412.9924,71.8041,412.4096,69.6688,411.4636,67.8313,412.1906,66.0373,412.8275,64.072,415.2175,62.5177,416.8991,60.501,418.9804,59.8313,421.4547,59.2546,424.6276,59.5972,426.3655,60.4168,428.3861,60.7884,430.8429,63.3054,431.6993,65.9627,432.0714,67.7758,431.65,70.7635" style="stroke: none; stroke-width: 1.0;"/><polygon fill="#F8F8F8" filter="url(#f196a23zo9c4r8)" points="408,140,408,140.0701,413.6,139.8619,419.2,140.0644,424.8,140.1332,430.4,139.7622,436,140,435.9901,139.9761,437.7134,140.6009,439.4866,141.3464,441.2946,142.1757,442.9829,142.716,444.8388,143.6612,445.0093,143.7318,445.377,145.3485,446.2424,147.1715,447.1686,149.0196,447.7414,150.7213,448.5,152.5,448.5227,152.5,448.4894,155.5,448.5595,158.5,448.5797,161.5,448.6952,164.5,448.5,167.5,448.7067,167.5856,447.977,169.3544,447.1139,171.068,446.4461,172.8624,445.7873,174.6606,444.8388,176.3388,444.7468,176.1167,443.1576,177.28,441.2655,177.712,439.6036,178.6999,437.7046,179.1153,436,180,436,179.9772,430.4,180.2472,424.8,179.9838,419.2,180.0351,413.6,180.1129,408,180,408.0531,180.1282,406.2317,179.2666,404.5011,178.624,402.6237,177.627,400.9652,177.1586,399.1612,176.3388,399.33,176.4088,398.5658,174.6278,397.8855,172.8815,396.8157,170.9739,396.0314,169.1846,395.5,167.5,395.2929,167.5,395.4804,164.5,395.4345,161.5,395.7271,158.5,395.4418,155.5,395.5,152.5,395.3944,152.4562,396.3025,150.7614,396.7591,148.8794,397.5368,147.1305,398.6288,145.5117,399.1612,143.6612,399.2167,143.7953,401.0226,143.1551,402.6557,142.0976,404.5052,141.5628,406.3075,140.9141,408,140" style="stroke: #383838; stroke-width: 1.5;"/><text fill="#000000" font-family="sans-serif" font-size="14" lengthAdjust="spacingAndGlyphs" textLength="43" x="400.5" y="164.8467">Empty</text><polygon fill="#F8F8F8" filter="url(#f196a23zo9c4r8)" points="382.5,257,382.5,257.2102,392.375,256.5857,402.25,257.1933,412.125,257.3997,422,256.2866,431.875,256.9223,441.75,256.5735,451.625,256.6165,461.5,257,461.4913,256.979,463.1796,257.5193,465.1062,258.635,466.7229,259.0026,468.5458,259.868,470.3388,260.6612,470.4719,260.7163,471.0447,262.418,471.8243,264.2054,472.5257,265.9604,473.3227,267.755,474,269.5,474.0797,269.5,474.1952,272.5,474.2237,275.5,474.2264,278.5,474.0849,281.5,474,284.5,474.1428,284.5591,473.484,286.3573,472.3134,287.9435,472.0123,289.8899,470.9798,291.5332,470.3388,293.3388,470.4069,293.5032,468.5079,293.9186,466.7946,294.7822,465.1301,295.7639,463.2616,296.2528,461.5,297,461.5,297.1053,451.625,297.3386,441.75,297.4162,431.875,296.9961,422,297.2872,412.125,296.4276,402.25,297.2844,392.375,297.5482,382.5,297,382.5567,297.1369,380.8104,296.4566,378.9028,295.3868,377.1135,294.6025,375.3497,293.8797,373.6612,293.3388,373.643,293.3313,372.8684,291.546,372.4065,289.8902,371.4107,288.0133,370.6266,286.224,370,284.5,370.0761,284.5,369.7777,281.5,369.827,278.5,370.2163,275.5,370.1452,272.5,370,269.5,370.2262,269.5937,370.6331,267.6912,371.5628,266.0052,372.3785,264.272,372.7835,262.3687,373.6612,260.6612,373.6489,260.6316,375.445,259.9677,377.2798,259.3974,378.9639,258.4632,380.7912,257.8747,382.5,257" style="stroke: #383838; stroke-width: 1.5;"/><text fill="#000000" font-family="sans-serif" font-size="14" lengthAdjust="spacingAndGlyphs" textLength="94" x="375" y="281.8467">NeedAddress</text><polygon fill="#F8F8F8" filter="url(#f196a23zo9c4r8)" points="387,395,387,395.0701,392.2,394.8619,397.4,395.0644,402.6,395.1332,407.8,394.7622,413,395,412.9901,394.9761,414.7134,395.6009,416.4866,396.3464,418.2946,397.1757,419.9829,397.716,421.8388,398.6612,422.0093,398.7318,422.377,400.3485,423.2424,402.1715,424.1686,404.0196,424.7414,405.7213,425.5,407.5,425.5227,407.5,425.4894,410.5,425.5595,413.5,425.5797,416.5,425.6952,419.5,425.5,422.5,425.7067,422.5856,424.977,424.3544,424.1139,426.068,423.4461,427.8624,422.7873,429.6606,421.8388,431.3388,421.7468,431.1167,420.1576,432.28,418.2655,432.712,416.6036,433.6999,414.7046,434.1153,413,435,413,434.9772,407.8,435.2472,402.6,434.9838,397.4,435.0351,392.2,435.1129,387,435,387.0531,435.1282,385.2317,434.2666,383.5011,433.624,381.6237,432.627,379.9652,432.1586,378.1612,431.3388,378.33,431.4088,377.5658,429.6278,376.8855,427.8815,375.8157,425.9739,375.0314,424.1846,374.5,422.5,374.2929,422.5,374.4804,419.5,374.4345,416.5,374.7271,413.5,374.4418,410.5,374.5,407.5,374.3944,407.4562,375.3025,405.7614,375.7591,403.8794,376.5368,402.1305,377.6288,400.5117,378.1612,398.6612,378.2167,398.7953,380.0226,398.1551,381.6557,397.0976,383.5052,396.5628,385.3075,395.9141,387,395" style="stroke: #383838; stroke-width: 1.5;"/><text fill="#000000" font-family="sans-serif" font-size="14" lengthAdjust="spacingAndGlyphs" textLength="41" x="379.5" y="419.8467">Lobby</text><polygon fill="#F8F8F8" filter="url(#f196a23zo9c4r8)" points="773,535,773,535.2102,783,534.5857,793,535.1933,803,535.3997,813,534.2866,823,534.9223,833,534.5735,843,534.6165,853,535,852.9913,534.979,854.6796,535.5193,856.6062,536.635,858.2229,537.0026,860.0458,537.868,861.8388,538.6612,861.9719,538.7163,862.5447,540.418,863.3243,542.2054,864.0257,543.9604,864.8227,545.755,865.5,547.5,865.5797,547.5,865.6952,550.5,865.7237,553.5,865.7264,556.5,865.5849,559.5,865.5,562.5,865.6428,562.5591,864.984,564.3573,863.8134,565.9435,863.5123,567.8899,862.4798,569.5332,861.8388,571.3388,861.9069,571.5032,860.0079,571.9186,858.2946,572.7822,856.6301,573.7639,854.7616,574.2528,853,575,853,575.1053,843,575.3386,833,575.4162,823,574.9961,813,575.2872,803,574.4276,793,575.2844,783,575.5482,773,575,773.0567,575.1369,771.3104,574.4566,769.4028,573.3868,767.6135,572.6025,765.8497,571.8797,764.1612,571.3388,764.143,571.3313,763.3684,569.546,762.9065,567.8902,761.9107,566.0133,761.1266,564.224,760.5,562.5,760.5761,562.5,760.2777,559.5,760.327,556.5,760.7163,553.5,760.6452,550.5,760.5,547.5,760.7262,547.5937,761.1331,545.6912,762.0628,544.0052,762.8785,542.272,763.2835,540.3687,764.1612,538.6612,764.1489,538.6316,765.945,537.9677,767.7798,537.3974,769.4639,536.4632,771.2912,535.8747,773,535" style="stroke: #383838; stroke-width: 1.5;"/><text fill="#000000" font-family="sans-serif" font-size="14" lengthAdjust="spacingAndGlyphs" textLength="95" x="765.5" y="559.8467">GameChosen</text><polygon fill="#F8F8F8" filter="url(#f196a23zo9c4r8)" points="782,652,782,652.2102,791.6,651.5857,801.2,652.1933,810.8,652.3997,820.4,651.2866,830,651.9223,839.6,651.5735,849.2,651.6165,858.8,651.9318,868.4,651.3086,878,652,878.0706,652.1705,879.6874,652.5381,881.5103,653.4036,883.3584,654.3297,885.0601,654.9025,886.8388,655.6612,886.8598,655.6699,887.5612,657.4249,888.3583,659.2195,889.1092,660.995,889.9481,662.8069,890.5,664.5,890.7237,664.5,890.7264,667.5,890.5849,670.5,890.6545,673.5,890.7341,676.5,890.5,679.5,890.2779,679.408,889.9767,681.3543,888.9442,682.9977,888.4677,684.8714,887.4186,686.5079,886.8388,688.3388,886.8301,688.3177,885.1657,689.2995,883.2971,689.7883,881.549,690.568,879.811,691.3721,878,692,878,692.4162,868.4,691.9961,858.8,692.2872,849.2,691.4276,839.6,692.2844,830,692.5482,820.4,692.4445,810.8,692.613,801.2,691.5169,791.6,691.3478,782,692,781.9207,691.8086,780.2247,691.2496,778.4394,690.475,776.7836,690.0131,774.9067,689.0173,773.1612,688.3388,773.0555,688.2951,772.4992,686.6002,771.4913,684.7182,770.8046,682.9693,770.4321,681.3505,769.5,679.5,769.6452,679.5,769.7448,676.5,769.3927,673.5,769.6064,670.5,769.6968,667.5,769.5,664.5,769.3545,664.4397,770.2027,662.72,771.0033,660.9805,771.8974,659.2798,772.4276,657.4284,773.1612,655.6612,773.2202,655.8036,774.8583,654.7584,776.6103,653.9881,778.5287,653.6196,780.1408,652.5114,782,652" style="stroke: #383838; stroke-width: 1.5;"/><text fill="#000000" font-family="sans-serif" font-size="14" lengthAdjust="spacingAndGlyphs" textLength="111" x="774.5" y="676.8467">ChooseWeapon</text><polygon fill="#F8F8F8" filter="url(#f196a23zo9c4r8)" points="782,769,782,769.2102,791.6,768.5857,801.2,769.1933,810.8,769.3997,820.4,768.2866,830,768.9223,839.6,768.5735,849.2,768.6165,858.8,768.9318,868.4,768.3086,878,769,878.0706,769.1705,879.6874,769.5381,881.5103,770.4036,883.3584,771.3297,885.0601,771.9025,886.8388,772.6612,886.8598,772.6699,887.5612,774.4249,888.3583,776.2195,889.1092,777.995,889.9481,779.8069,890.5,781.5,890.7237,781.5,890.7264,784.5,890.5849,787.5,890.6545,790.5,890.7341,793.5,890.5,796.5,890.2779,796.408,889.9767,798.3543,888.9442,799.9977,888.4677,801.8714,887.4186,803.5079,886.8388,805.3388,886.8301,805.3177,885.1657,806.2995,883.2971,806.7883,881.549,807.568,879.811,808.3721,878,809,878,809.4162,868.4,808.9961,858.8,809.2872,849.2,808.4276,839.6,809.2844,830,809.5482,820.4,809.4445,810.8,809.613,801.2,808.5169,791.6,808.3478,782,809,781.9207,808.8086,780.2247,808.2496,778.4394,807.475,776.7836,807.0131,774.9067,806.0173,773.1612,805.3388,773.0555,805.2951,772.4992,803.6002,771.4913,801.7182,770.8046,799.9693,770.4321,798.3505,769.5,796.5,769.6452,796.5,769.7448,793.5,769.3927,790.5,769.6064,787.5,769.6968,784.5,769.5,781.5,769.3545,781.4397,770.2027,779.72,771.0033,777.9805,771.8974,776.2798,772.4276,774.4284,773.1612,772.6612,773.2202,772.8036,774.8583,771.7584,776.6103,770.9881,778.5287,770.6196,780.1408,769.5114,782,769" style="stroke: #383838; stroke-width: 1.5;"/><text fill="#000000" font-family="sans-serif" font-size="14" lengthAdjust="spacingAndGlyphs" textLength="111" x="774.5" y="793.8467">WeaponChosen</text><polygon fill="#F8F8F8" filter="url(#f196a23zo9c4r8)" points="756,886,756,886.2102,765.8667,885.5857,775.7333,886.1933,785.6,886.3997,795.4667,885.2866,805.3333,885.9223,815.2,885.5735,825.0667,885.6165,834.9333,885.9318,844.8,885.3086,854.6667,886.5536,864.5333,885.3697,874.4,885.8022,884.2667,886.4319,894.1333,885.9142,904,886,904.0087,886.021,905.7637,886.7224,907.5583,887.5194,909.3338,888.2703,911.1458,889.1093,912.8388,889.6612,913.0455,889.7468,913.7803,891.5156,914.3817,893.2292,915.1783,895.0236,915.984,896.8218,916.5,898.5,916.2596,898.5,916.7262,901.5,916.4012,904.5,916.6779,907.5,916.335,910.5,916.5,913.5,916.4789,913.4913,915.9962,915.3624,915.0205,917.0293,914.3357,918.8167,913.6754,920.6143,912.8388,922.3388,912.8919,922.467,911.0706,923.0699,909.3399,923.8918,907.4625,924.3593,905.804,925.3553,904,926,904,926.5482,894.1333,926.4445,884.2667,926.613,874.4,925.5169,864.5333,925.3478,854.6667,925.3786,844.8,925.9411,834.9333,925.8035,825.0667,926.6814,815.2,925.8253,805.3333,925.6569,795.4667,926.2283,785.6,925.3332,775.7333,925.4809,765.8667,926.649,756,926,756.0556,926.1342,754.3259,925.494,752.4234,924.4364,750.7374,923.9016,749.0042,923.2529,747.1612,922.3388,747.0157,922.2786,746.3994,920.5588,745.7355,918.8194,745.1652,917.1187,744.2309,915.2672,743.5,913.5,743.6542,913.5,743.3154,910.5,743.2742,907.5,743.6679,904.5,743.261,901.5,743.5,898.5,743.6567,898.5649,744.2959,896.7586,744.882,894.9303,745.5878,893.1516,746.5702,891.4875,747.1612,889.6612,747.123,889.569,749.0044,889.1112,750.6262,888.0265,752.5432,887.6546,754.294,886.8814,756,886" style="stroke: #383838; stroke-width: 1.5;"/><text fill="#000000" font-family="sans-serif" font-size="14" lengthAdjust="spacingAndGlyphs" textLength="163" x="748.5" y="910.8467">WeaponAndSaltChosen</text><polygon fill="#F8F8F8" filter="url(#f196a23zo9c4r8)" points="829,1024,829,1024.2102,839.4444,1023.5857,849.8889,1024.1933,860.3333,1024.3997,870.7778,1023.2866,881.2222,1023.9223,891.6667,1023.5735,902.1111,1023.6165,912.5556,1023.9318,923,1024,922.9118,1023.7871,924.8384,1024.9027,926.4551,1025.2704,928.2781,1026.1358,930.1262,1027.062,931.8388,1027.6612,931.8124,1027.6502,932.5921,1029.4376,933.2935,1031.1926,934.0905,1032.9872,934.8414,1034.7627,935.5,1036.5,935.6952,1036.5,935.7237,1039.5,935.7264,1042.5,935.5849,1045.5,935.6545,1048.5,935.5,1051.5,935.7163,1051.5896,934.5457,1053.1758,934.2445,1055.1221,933.212,1056.7655,932.7355,1058.6392,931.8388,1060.3388,931.7757,1060.1864,930.0623,1061.05,928.3979,1062.0317,926.5293,1062.5205,924.7812,1063.3002,923,1064,923,1064.3386,912.5556,1064.4162,902.1111,1063.9961,891.6667,1064.2872,881.2222,1063.4276,870.7778,1064.2844,860.3333,1064.5482,849.8889,1064.4445,839.4444,1064.613,829,1064,828.9384,1063.8512,827.149,1063.0669,825.3852,1062.3442,823.6892,1061.7852,821.9039,1061.0105,820.1612,1060.3388,820.371,1060.4258,819.3751,1058.5488,818.5911,1056.7595,818.0348,1055.0647,817.0269,1053.1827,816.5,1051.5,816.327,1051.5,816.7163,1048.5,816.6452,1045.5,816.7448,1042.5,816.3927,1039.5,816.5,1036.5,816.5983,1036.5407,817.4141,1034.8075,817.819,1032.9042,818.6672,1031.1845,819.4677,1029.445,820.1612,1027.6612,820.2443,1027.8619,821.9284,1026.9276,823.7557,1026.3392,825.3938,1025.2939,827.1458,1024.5237,829,1024" style="stroke: #383838; stroke-width: 1.5;"/><text fill="#000000" font-family="sans-serif" font-size="14" lengthAdjust="spacingAndGlyphs" textLength="109" x="821.5" y="1048.8467">ResultPlayAgain</text><polygon fill="#F8F8F8" filter="url(#f196a23zo9c4r8)" points="908,1143,908,1143.2102,917.5556,1142.5857,927.1111,1143.1933,936.6667,1143.3997,946.2222,1142.2866,955.7778,1142.9223,965.3333,1142.5735,974.8889,1142.6165,984.4444,1142.9318,994,1143,993.9118,1142.7871,995.8384,1143.9027,997.4551,1144.2704,999.2781,1145.1358,1001.1262,1146.062,1002.8388,1146.6612,1002.8124,1146.6502,1003.5921,1148.4376,1004.2935,1150.1926,1005.0905,1151.9872,1005.8414,1153.7627,1006.5,1155.5,1006.6952,1155.5,1006.7237,1158.5,1006.7264,1161.5,1006.5849,1164.5,1006.6545,1167.5,1006.5,1170.5,1006.7163,1170.5896,1005.5457,1172.1758,1005.2445,1174.1221,1004.212,1175.7655,1003.7355,1177.6392,1002.8388,1179.3388,1002.7757,1179.1864,1001.0623,1180.05,999.3979,1181.0317,997.5293,1181.5205,995.7812,1182.3002,994,1183,994,1183.3386,984.4444,1183.4162,974.8889,1182.9961,965.3333,1183.2872,955.7778,1182.4276,946.2222,1183.2844,936.6667,1183.5482,927.1111,1183.4445,917.5556,1183.613,908,1183,907.9384,1182.8512,906.149,1182.0669,904.3852,1181.3442,902.6892,1180.7852,900.9039,1180.0105,899.1612,1179.3388,899.371,1179.4258,898.3751,1177.5488,897.5911,1175.7595,897.0348,1174.0647,896.0269,1172.1827,895.5,1170.5,895.327,1170.5,895.7163,1167.5,895.6452,1164.5,895.7448,1161.5,895.3927,1158.5,895.5,1155.5,895.5983,1155.5407,896.4141,1153.8075,896.819,1151.9042,897.6672,1150.1845,898.4677,1148.445,899.1612,1146.6612,899.2443,1146.8619,900.9284,1145.9276,902.7557,1145.3392,904.3938,1144.2939,906.1458,1143.5237,908,1143" style="stroke: #383838; stroke-width: 1.5;"/><text fill="#000000" font-family="sans-serif" font-size="14" lengthAdjust="spacingAndGlyphs" textLength="101" x="900.5" y="1167.8467">WaitForRestart</text><polygon fill="#F8F8F8" filter="url(#f196a23zo9c4r8)" points="103,395,103,395.2102,113.1667,394.5857,123.3333,395.1933,133.5,395.3997,143.6667,394.2866,153.8333,394.9223,164,394.5735,174.1667,394.6165,184.3333,394.9318,194.5,394.3086,204.6667,395.5536,214.8333,394.3697,225,395,224.9748,394.9391,226.8229,395.8653,228.5246,396.4381,230.312,397.2177,232.067,397.9191,233.8388,398.6612,233.8938,398.6839,234.6447,400.4594,235.4837,402.2714,236.2422,404.0501,236.977,405.8189,237.5,407.5,237.5849,407.5,237.6545,410.5,237.7341,413.5,237.2596,416.5,237.7262,419.5,237.5,422.5,237.4087,422.4622,236.9322,424.3359,235.8831,425.9724,235.2822,427.7946,234.7995,429.6657,233.8388,431.3388,233.8326,431.3238,232.0845,432.1035,230.3465,432.9076,228.5886,433.6637,226.7673,434.2666,225,435,225,435.2872,214.8333,434.4276,204.6667,435.2844,194.5,435.5482,184.3333,435.4445,174.1667,435.613,164,434.5169,153.8333,434.3478,143.6667,434.3786,133.5,434.9411,123.3333,434.8035,113.1667,435.6814,103,435,102.9777,434.9462,101.1885,434.1621,99.4936,433.6058,97.6116,432.5979,95.8627,431.9112,94.1612,431.3388,94.361,431.4216,93.5631,429.6266,92.9229,427.897,91.8654,425.9945,91.3305,424.3085,90.5,422.5,90.6968,422.5,90.3425,419.5,90.468,416.5,90.542,413.5,90.7173,410.5,90.5,407.5,90.4987,407.4995,91.3747,405.7912,91.7939,403.8938,92.4881,402.1103,93.584,400.4932,94.1612,398.6612,94.0697,398.4404,95.9939,398.0857,97.7231,397.2603,99.4303,396.382,101.1871,395.6233,103,395" style="stroke: #383838; stroke-width: 1.5;"/><text fill="#000000" font-family="sans-serif" font-size="14" lengthAdjust="spacingAndGlyphs" textLength="137" x="95.5" y="419.8467">CreatingOpenGame</text><polygon fill="#F8F8F8" filter="url(#f196a23zo9c4r8)" points="138,535,138,535.2102,147.5,534.5857,157,535.1933,166.5,535.3997,176,534.2866,185.5,534.9223,195,534.5735,204.5,534.6165,214,535,213.9913,534.979,215.6796,535.5193,217.6062,536.635,219.2229,537.0026,221.0458,537.868,222.8388,538.6612,222.9719,538.7163,223.5447,540.418,224.3243,542.2054,225.0257,543.9604,225.8227,545.755,226.5,547.5,226.5797,547.5,226.6952,550.5,226.7237,553.5,226.7264,556.5,226.5849,559.5,226.5,562.5,226.6428,562.5591,225.984,564.3573,224.8134,565.9435,224.5123,567.8899,223.4798,569.5332,222.8388,571.3388,222.9069,571.5032,221.0079,571.9186,219.2946,572.7822,217.6301,573.7639,215.7616,574.2528,214,575,214,575.1053,204.5,575.3386,195,575.4162,185.5,574.9961,176,575.2872,166.5,574.4276,157,575.2844,147.5,575.5482,138,575,138.0567,575.1369,136.3104,574.4566,134.4028,573.3868,132.6135,572.6025,130.8497,571.8797,129.1612,571.3388,129.143,571.3313,128.3684,569.546,127.9065,567.8902,126.9107,566.0133,126.1266,564.224,125.5,562.5,125.5761,562.5,125.2777,559.5,125.327,556.5,125.7163,553.5,125.6452,550.5,125.5,547.5,125.7262,547.5937,126.1331,545.6912,127.0628,544.0052,127.8785,542.272,128.2835,540.3687,129.1612,538.6612,129.1489,538.6316,130.945,537.9677,132.7798,537.3974,134.4639,536.4632,136.2912,535.8747,138,535" style="stroke: #383838; stroke-width: 1.5;"/><text fill="#000000" font-family="sans-serif" font-size="14" lengthAdjust="spacingAndGlyphs" textLength="91" x="130.5" y="559.8467">WaitingRoom</text><polygon fill="#F8F8F8" filter="url(#f196a23zo9c4r8)" points="127.5,652,127.5,652.2102,137.2,651.5857,146.9,652.1933,156.6,652.3997,166.3,651.2866,176,651.9223,185.7,651.5735,195.4,651.6165,205.1,651.9318,214.8,651.3086,224.5,652,224.5706,652.1705,226.1874,652.5381,228.0103,653.4036,229.8584,654.3297,231.5601,654.9025,233.3388,655.6612,233.3598,655.6699,234.0612,657.4249,234.8583,659.2195,235.6092,660.995,236.4481,662.8069,237,664.5,237.2237,664.5,237.2264,667.5,237.0849,670.5,237.1545,673.5,237.2341,676.5,237,679.5,236.7779,679.408,236.4767,681.3543,235.4442,682.9977,234.9677,684.8714,233.9186,686.5079,233.3388,688.3388,233.3301,688.3177,231.6657,689.2995,229.7971,689.7883,228.049,690.568,226.311,691.3721,224.5,692,224.5,692.4162,214.8,691.9961,205.1,692.2872,195.4,691.4276,185.7,692.2844,176,692.5482,166.3,692.4445,156.6,692.613,146.9,691.5169,137.2,691.3478,127.5,692,127.4207,691.8086,125.7247,691.2496,123.9394,690.475,122.2836,690.0131,120.4067,689.0173,118.6612,688.3388,118.5555,688.2951,117.9992,686.6002,116.9913,684.7182,116.3046,682.9693,115.9321,681.3505,115,679.5,115.1452,679.5,115.2448,676.5,114.8927,673.5,115.1064,670.5,115.1968,667.5,115,664.5,114.8545,664.4397,115.7027,662.72,116.5033,660.9805,117.3974,659.2798,117.9276,657.4284,118.6612,655.6612,118.7202,655.8036,120.3583,654.7584,122.1103,653.9881,124.0287,653.6196,125.6408,652.5114,127.5,652" style="stroke: #383838; stroke-width: 1.5;"/><text fill="#000000" font-family="sans-serif" font-size="14" lengthAdjust="spacingAndGlyphs" textLength="112" x="120" y="676.8467">OpponentJoined</text><polygon fill="#F8F8F8" filter="url(#f196a23zo9c4r8)" points="123,769,123,769.2102,132.6364,768.5857,142.2727,769.1933,151.9091,769.3997,161.5455,768.2866,171.1818,768.9223,180.8182,768.5735,190.4545,768.6165,200.0909,768.9318,209.7273,768.3086,219.3636,769.5536,229,769,228.9196,768.8059,230.7425,769.6713,232.5906,770.5975,234.2924,771.1703,236.0798,771.9499,237.8388,772.6612,237.829,772.6571,238.626,774.4517,239.3769,776.2272,240.2159,778.0392,240.9744,779.8178,241.5,781.5,241.7264,781.5,241.5849,784.5,241.6545,787.5,241.7341,790.5,241.2596,793.5,241.5,796.5,241.709,796.5866,240.6765,798.2299,240.1999,800.1036,239.1509,801.7402,238.55,803.5623,237.8388,805.3388,237.9334,805.5672,236.0649,806.0561,234.3167,806.8357,232.5787,807.6398,230.8209,808.3959,229,809,229,808.9961,219.3636,809.2872,209.7273,808.4276,200.0909,809.2844,190.4545,809.5482,180.8182,809.4445,171.1818,809.613,161.5455,808.5169,151.9091,808.3478,142.2727,808.3786,132.6364,808.9411,123,809,122.9749,808.9395,121.3192,808.4776,119.4422,807.4817,117.6529,806.6977,115.9581,806.1414,114.1612,805.3388,113.9558,805.2538,113.2691,803.5048,112.8965,801.8861,112.0986,800.0911,111.4584,798.3615,110.5,796.5,110.3927,796.5,110.6064,793.5,110.6968,790.5,110.3425,787.5,110.468,784.5,110.5,781.5,110.5388,781.5161,111.4329,779.8154,111.9632,777.9639,112.8392,776.2557,113.2584,774.3583,114.1612,772.6612,114.0748,772.4526,115.9932,772.084,117.6052,770.9759,119.5294,770.6212,121.2586,769.7959,123,769" style="stroke: #383838; stroke-width: 1.5;"/><text fill="#000000" font-family="sans-serif" font-size="14" lengthAdjust="spacingAndGlyphs" textLength="121" x="115.5" y="793.8467">ChooseWeaponB</text><polygon fill="#F8F8F8" filter="url(#f196a23zo9c4r8)" points="195,886,195,886.2102,204.6364,885.5857,214.2727,886.1933,223.9091,886.3997,233.5455,885.2866,243.1818,885.9223,252.8182,885.5735,262.4545,885.6165,272.0909,885.9318,281.7273,885.3086,291.3636,886.5536,301,886,300.9196,885.8059,302.7425,886.6713,304.5906,887.5975,306.2924,888.1703,308.0798,888.9499,309.8388,889.6612,309.829,889.6571,310.626,891.4517,311.3769,893.2272,312.2159,895.0392,312.9744,896.8178,313.5,898.5,313.7264,898.5,313.5849,901.5,313.6545,904.5,313.7341,907.5,313.2596,910.5,313.5,913.5,313.709,913.5866,312.6765,915.2299,312.1999,917.1036,311.1509,918.7402,310.55,920.5623,309.8388,922.3388,309.9334,922.5672,308.0649,923.0561,306.3167,923.8357,304.5787,924.6398,302.8209,925.3959,301,926,301,925.9961,291.3636,926.2872,281.7273,925.4276,272.0909,926.2844,262.4545,926.5482,252.8182,926.4445,243.1818,926.613,233.5455,925.5169,223.9091,925.3478,214.2727,925.3786,204.6364,925.9411,195,926,194.9749,925.9395,193.3192,925.4776,191.4422,924.4817,189.6529,923.6977,187.9581,923.1414,186.1612,922.3388,185.9558,922.2538,185.2691,920.5048,184.8965,918.8861,184.0986,917.0911,183.4584,915.3615,182.5,913.5,182.3927,913.5,182.6064,910.5,182.6968,907.5,182.3425,904.5,182.468,901.5,182.5,898.5,182.5388,898.5161,183.4329,896.8154,183.9632,894.9639,184.8392,893.2557,185.2584,891.3583,186.1612,889.6612,186.0748,889.4526,187.9932,889.084,189.6052,887.9759,191.5294,887.6212,193.2586,886.7959,195,886" style="stroke: #383838; stroke-width: 1.5;"/><text fill="#000000" font-family="sans-serif" font-size="14" lengthAdjust="spacingAndGlyphs" textLength="121" x="187.5" y="910.8467">WeaponChosenB</text><polygon fill="#F8F8F8" filter="url(#f196a23zo9c4r8)" points="88,1024,88,1024.2102,98.4,1023.5857,108.8,1024.1933,119.2,1024.3997,129.6,1023.2866,140,1023.9223,150.4,1023.5735,160.8,1023.6165,171.2,1023.9318,181.6,1023.3086,192,1024,192.0706,1024.1705,193.6874,1024.5381,195.5103,1025.4036,197.3584,1026.3297,199.0601,1026.9025,200.8388,1027.6612,200.8598,1027.6699,201.5612,1029.4249,202.3583,1031.2195,203.1092,1032.995,203.9481,1034.8069,204.5,1036.5,204.7237,1036.5,204.7264,1039.5,204.5849,1042.5,204.6545,1045.5,204.7341,1048.5,204.5,1051.5,204.2779,1051.408,203.9767,1053.3543,202.9442,1054.9977,202.4677,1056.8714,201.4186,1058.5079,200.8388,1060.3388,200.8301,1060.3177,199.1657,1061.2995,197.2971,1061.7883,195.549,1062.568,193.811,1063.3721,192,1064,192,1064.4162,181.6,1063.9961,171.2,1064.2872,160.8,1063.4276,150.4,1064.2844,140,1064.5482,129.6,1064.4445,119.2,1064.613,108.8,1063.5169,98.4,1063.3478,88,1064,87.9207,1063.8086,86.2247,1063.2496,84.4394,1062.475,82.7836,1062.0131,80.9067,1061.0173,79.1612,1060.3388,79.0555,1060.2951,78.4992,1058.6002,77.4913,1056.7182,76.8046,1054.9693,76.4321,1053.3505,75.5,1051.5,75.6452,1051.5,75.7448,1048.5,75.3927,1045.5,75.6064,1042.5,75.6968,1039.5,75.5,1036.5,75.3545,1036.4397,76.2027,1034.72,77.0033,1032.9805,77.8974,1031.2798,78.4276,1029.4284,79.1612,1027.6612,79.2202,1027.8036,80.8583,1026.7584,82.6103,1025.9881,84.5287,1025.6196,86.1408,1024.5114,88,1024" style="stroke: #383838; stroke-width: 1.5;"/><text fill="#000000" font-family="sans-serif" font-size="14" lengthAdjust="spacingAndGlyphs" textLength="119" x="80.5" y="1048.8467">ResultPlayAgainB</text><polygon fill="#F8F8F8" filter="url(#f196a23zo9c4r8)" points="572,1024,572,1024.2102,582.2,1023.5857,592.4,1024.1933,602.6,1024.3997,612.8,1023.2866,623,1023.9223,633.2,1023.5735,643.4,1023.6165,653.6,1023.9318,663.8,1023.3086,674,1024,674.0706,1024.1705,675.6874,1024.5381,677.5103,1025.4036,679.3584,1026.3297,681.0601,1026.9025,682.8388,1027.6612,682.8598,1027.6699,683.5612,1029.4249,684.3583,1031.2195,685.1092,1032.995,685.9481,1034.8069,686.5,1036.5,686.7237,1036.5,686.7264,1039.5,686.5849,1042.5,686.6545,1045.5,686.7341,1048.5,686.5,1051.5,686.2779,1051.408,685.9767,1053.3543,684.9442,1054.9977,684.4677,1056.8714,683.4186,1058.5079,682.8388,1060.3388,682.8301,1060.3177,681.1657,1061.2995,679.2971,1061.7883,677.549,1062.568,675.811,1063.3721,674,1064,674,1064.4162,663.8,1063.9961,653.6,1064.2872,643.4,1063.4276,633.2,1064.2844,623,1064.5482,612.8,1064.4445,602.6,1064.613,592.4,1063.5169,582.2,1063.3478,572,1064,571.9207,1063.8086,570.2247,1063.2496,568.4394,1062.475,566.7836,1062.0131,564.9067,1061.0173,563.1612,1060.3388,563.0555,1060.2951,562.4992,1058.6002,561.4913,1056.7182,560.8046,1054.9693,560.4321,1053.3505,559.5,1051.5,559.6452,1051.5,559.7448,1048.5,559.3927,1045.5,559.6064,1042.5,559.6968,1039.5,559.5,1036.5,559.3545,1036.4397,560.2027,1034.72,561.0033,1032.9805,561.8974,1031.2798,562.4276,1029.4284,563.1612,1027.6612,563.2202,1027.8036,564.8583,1026.7584,566.6103,1025.9881,568.5287,1025.6196,570.1408,1024.5114,572,1024" style="stroke: #383838; stroke-width: 1.5;"/><text fill="#000000" font-family="sans-serif" font-size="14" lengthAdjust="spacingAndGlyphs" textLength="117" x="564.5" y="1048.8467">InsufficientFunds</text><polygon fill="#F8F8F8" filter="url(#f196a23zo9c4r8)" points="461,1143,461,1143.2102,470.6667,1142.5857,480.3333,1143.1933,490,1143.3997,499.6667,1142.2866,509.3333,1142.9223,519,1143,518.9456,1142.8687,520.7188,1143.6141,522.5268,1144.4435,524.2151,1144.9838,526.1417,1146.0994,527.8388,1146.6612,527.6447,1146.5808,528.5102,1148.4037,529.4363,1150.2518,530.0091,1151.9535,530.7888,1153.7409,531.5,1155.5,531.4894,1155.5,531.5595,1158.5,531.5797,1161.5,531.6952,1164.5,531.7237,1167.5,531.5,1170.5,531.7092,1170.5866,530.8462,1172.3002,530.1783,1174.0947,529.5196,1175.8929,528.349,1177.4791,527.8388,1179.3388,527.9254,1179.5478,526.0332,1179.9798,524.3714,1180.9677,522.4724,1181.3831,520.759,1182.2467,519,1183,519,1183.7416,509.3333,1182.9513,499.6667,1183.1053,490,1183.3386,480.3333,1183.4162,470.6667,1182.9961,461,1183,461.0366,1183.0885,459.1592,1182.0915,457.5007,1181.6231,455.7666,1180.9721,453.9856,1180.208,452.1612,1179.3388,452.35,1179.417,451.2802,1177.5094,450.4959,1175.7201,449.7731,1173.9563,449.2141,1172.2603,448.5,1170.5,448.4345,1170.5,448.7271,1167.5,448.4418,1164.5,448.3856,1161.5,448.5761,1158.5,448.5,1155.5,448.2946,1155.4149,449.0724,1153.666,450.1643,1152.0472,450.8309,1150.2523,451.6551,1148.5226,452.1612,1146.6612,452.1201,1146.5621,453.9696,1146.0272,455.772,1145.3785,457.4042,1144.319,459.22,1143.7027,461,1143" style="stroke: #383838; stroke-width: 1.5;"/><text fill="#000000" font-family="sans-serif" font-size="14" lengthAdjust="spacingAndGlyphs" textLength="73" x="453.5" y="1167.8467">GameOver</text><polygon fill="#F8F8F8" filter="url(#f196a23zo9c4r8)" points="460.5,1024,460.5,1024.2102,470.7,1023.5857,480.9,1024.1933,491.1,1024.3997,501.3,1023.2866,511.5,1024,511.4901,1023.9761,513.2134,1024.6009,514.9866,1025.3464,516.7946,1026.1757,518.4829,1026.716,520.3388,1027.6612,520.5093,1027.7318,520.877,1029.3485,521.7424,1031.1715,522.6686,1033.0196,523.2414,1034.7213,524,1036.5,524.0227,1036.5,523.9894,1039.5,524.0595,1042.5,524.0797,1045.5,524.1952,1048.5,524,1051.5,524.2067,1051.5856,523.477,1053.3544,522.6139,1055.068,521.9461,1056.8624,521.2873,1058.6606,520.3388,1060.3388,520.2468,1060.1167,518.6576,1061.28,516.7655,1061.712,515.1036,1062.6999,513.2046,1063.1153,511.5,1064,511.5,1063.9315,501.3,1064.7416,491.1,1063.9513,480.9,1064.1053,470.7,1064.3386,460.5,1064,460.5531,1064.1282,458.7317,1063.2666,457.0011,1062.624,455.1237,1061.627,453.4652,1061.1586,451.6612,1060.3388,451.83,1060.4088,451.0658,1058.6278,450.3855,1056.8815,449.3157,1054.9739,448.5314,1053.1846,448,1051.5,447.7929,1051.5,447.9804,1048.5,447.9345,1045.5,448.2271,1042.5,447.9418,1039.5,448,1036.5,447.8944,1036.4562,448.8025,1034.7614,449.2591,1032.8794,450.0368,1031.1305,451.1288,1029.5117,451.6612,1027.6612,451.7167,1027.7953,453.5226,1027.1551,455.1557,1026.0976,457.0052,1025.5628,458.8075,1024.9141,460.5,1024" style="stroke: #383838; stroke-width: 1.5;"/><text fill="#000000" font-family="sans-serif" font-size="14" lengthAdjust="spacingAndGlyphs" textLength="66" x="453" y="1048.8467">Resigned</text><!--MD5=[6c65d0b1ba4f40204161f7437d318c6c]
link *start*Setup to Empty--><path d="M422,79.19 L422.2802,79.19 L421.4476,88.4467 L422.2577,97.7033 L422.5329,106.96 L421.0488,116.2167 L421.8964,125.4733 L422,134.73 " fill="none" style="stroke: #383838; stroke-width: 1.0;"/><polygon fill="#383838" points="422,139.74,422.064,139.7685,422.6738,137.8839,423.6589,136.1662,424.5217,134.3941,424.9827,132.4434,426,130.74,425.9817,130.7217,425.0995,131.4395,424.3096,132.2496,423.5839,133.1239,422.637,133.777,422,134.74,422.1305,134.8705,421.0514,133.7914,420.3534,133.0934,419.7018,132.4418,418.7798,131.5198,418,130.74,418.0208,130.7492,418.7903,132.5357,419.6544,134.3642,420.4728,136.1724,421.3784,138.0193,422,139.74" style="stroke: #383838; stroke-width: 1.0;"/><!--MD5=[3c9cf78ab2c9e3f4d03b4876df47bf19]
link Empty to NeedAddress--><path d="M422,180.25 L422.2802,180.25 L421.4476,190.4267 L422.2577,200.6034 L422.5329,210.7801 L421.0488,220.9569 L421.8964,231.1336 L421.4313,241.3103 L422,251.487 " fill="none" style="stroke: #383838; stroke-width: 1.0;"/><polygon fill="#383838" points="422,256.689,422.064,256.7175,422.6738,254.8329,423.6589,253.1152,424.5217,251.3431,424.9827,249.3924,426,247.689,425.9817,247.6707,425.0995,248.3885,424.3096,249.1986,423.5839,250.0729,422.637,250.726,422,251.689,422.1305,251.8195,421.0514,250.7404,420.3534,250.0424,419.7018,249.3908,418.7798,248.4688,418,247.689,418.0208,247.6982,418.7903,249.4847,419.6544,251.3132,420.4728,253.1214,421.3784,254.9683,422,256.689" style="stroke: #383838; stroke-width: 1.0;"/><text fill="#000000" font-family="sans-serif" font-size="13" lengthAdjust="spacingAndGlyphs" textLength="86" x="423" y="223.0669">UpdateProfile</text><!--MD5=[74a474aef93cd04bac22401783638a9f]
link NeedAddress to Lobby--><path d="M418.895,297.197 L419.1716,297.2418 L416.6848,307.4008 L415.8196,317.8222 L414.4264,328.1581 L411.2965,338.2131 L410.4683,348.6405 L408.3443,358.8582 L406.736,369.1593 L405.4862,379.5185 L403.911,389.825 " fill="none" style="stroke: #383838; stroke-width: 1.0;"/><polygon fill="#383838" points="403.09,394.901,403.1487,394.9393,404.0516,393.1764,405.2984,391.638,406.4332,390.0265,407.1998,388.1745,408.4761,386.6554,408.461,386.6344,407.4754,387.2021,406.5663,387.8756,405.7103,388.6228,404.6713,389.1163,403.8886,389.9652,404.0382,390.0732,403.0563,388.9248,402.5112,388.0916,402.0195,387.2969,401.2176,386.2784,400.5788,385.3777,400.6008,385.3835,401.0707,387.2796,401.6408,389.2022,402.1626,391.112,402.7765,393.0461,403.09,394.901" style="stroke: #383838; stroke-width: 1.0;"/><text fill="#000000" font-family="sans-serif" font-size="13" lengthAdjust="spacingAndGlyphs" textLength="146" x="415" y="340.0669">GotAddressFromWallet</text><!--MD5=[bda278459530c2517ef83c25998ec2c9]
link Lobby to GameChosen--><path d="M425.523,424.528 L425.6118,424.7938 L434.7733,427.1534 L444.4554,431.0712 L453.9679,434.4816 L462.9229,436.2234 L472.6169,440.1767 L481.8948,442.8851 L491.3383,446.0888 L500.8969,449.637 L510.0589,451.9983 L520.0104,456.7221 L528.9354,458.3743 L538.5435,462.0707 L548.235,466.0164 L557.4416,468.5111 L566.932,471.8553 L576.315,474.878 L585.8293,478.2936 L595.2802,481.5196 L604.852,485.1073 L614.3134,488.3646 L623.7422,491.5244 L632.9881,494.1368 L642.5018,497.5505 L652.028,501.0016 L660.8518,502.351 L670.8686,507.2704 L679.882,509.1868 L689.6582,513.3863 L698.6488,515.2346 L708.2543,518.9234 L718.022,523.0972 L727.1134,525.2472 L736.6038,528.5914 L746.1277,532.0358 L755.41,534.757 " fill="none" style="stroke: #383838; stroke-width: 1.0;"/><polygon fill="#383838" points="760.219,536.364,760.2663,536.4157,758.672,534.933,757.3549,533.7534,755.9475,532.4751,754.2433,530.8722,752.95,529.7186,752.9268,529.707,753.3281,530.6674,753.8462,531.686,754.4456,532.7452,754.7651,533.6647,755.4766,534.7799,755.559,534.945,754.3705,535.0972,753.4226,535.7315,752.5041,536.4247,751.4148,536.7756,750.4153,537.3065,750.4175,537.3291,752.3751,537.1074,754.3425,536.9887,756.3052,536.8203,758.277,536.7468,760.219,536.364" style="stroke: #383838; stroke-width: 1.0;"/><text fill="#000000" font-family="sans-serif" font-size="13" lengthAdjust="spacingAndGlyphs" textLength="95" x="596" y="480.0669">JoinOpenGame</text><!--MD5=[2ba03f2adc2c54022e537f9f88ebaef9]
link GameChosen to ChooseWeapon--><path d="M815.845,575.248 L816.1222,575.289 L816.8029,585.3442 L819.1088,595.6397 L820.8855,605.8569 L820.9217,615.8169 L823.2646,626.1178 L824.309,636.2268 L826.376,646.487 " fill="none" style="stroke: #383838; stroke-width: 1.0;"/><polygon fill="#383838" points="827.145,651.689,827.2125,651.7078,827.5405,649.7544,828.2642,647.9112,828.8591,646.0322,829.0303,644.0351,829.7879,642.2014,829.7671,642.1859,828.9992,643.0249,828.3361,643.9416,827.7459,644.9126,826.9045,645.6969,826.4149,646.7426,826.5249,646.8907,825.3814,645.8993,824.5591,645.3405,823.776,644.8344,822.7649,644.0212,821.8737,643.3695,821.8929,643.3817,822.919,645.0277,824.0325,646.7292,825.1038,648.4039,826.2557,650.1296,827.145,651.689" style="stroke: #383838; stroke-width: 1.0;"/><text fill="#000000" font-family="sans-serif" font-size="13" lengthAdjust="spacingAndGlyphs" textLength="72" x="824" y="618.0669">StartRound</text><!--MD5=[7685935bbad1cb62f655519949a59553]
link ChooseWeapon to WeaponChosen--><path d="M830,692.248 L830.2802,692.248 L829.4476,702.425 L830.2577,712.602 L830.5329,722.779 L829.0488,732.956 L829.8964,743.133 L829.4313,753.31 L830,763.487 " fill="none" style="stroke: #383838; stroke-width: 1.0;"/><polygon fill="#383838" points="830,768.689,830.064,768.7175,830.6738,766.8329,831.6589,765.1152,832.5217,763.3431,832.9827,761.3924,834,759.689,833.9817,759.6707,833.0995,760.3885,832.3096,761.1986,831.5839,762.0729,830.637,762.726,830,763.689,830.1305,763.8195,829.0514,762.7404,828.3534,762.0424,827.7018,761.3908,826.7798,760.4688,826,759.689,826.0208,759.6982,826.7903,761.4847,827.6544,763.3132,828.4728,765.1214,829.3784,766.9683,830,768.689" style="stroke: #383838; stroke-width: 1.0;"/><text fill="#000000" font-family="sans-serif" font-size="13" lengthAdjust="spacingAndGlyphs" textLength="99" x="831" y="735.0669">ChooseWeapon</text><!--MD5=[11321a9f394e4df1ec094fc11941be84]
link WeaponChosen to WeaponAndSaltChosen--><path d="M830,809.248 L830.2802,809.248 L829.4476,819.425 L830.2577,829.602 L830.5329,839.779 L829.0488,849.956 L829.8964,860.133 L829.4313,870.31 L830,880.487 " fill="none" style="stroke: #383838; stroke-width: 1.0;"/><polygon fill="#383838" points="830,885.689,830.064,885.7175,830.6738,883.8329,831.6589,882.1152,832.5217,880.3431,832.9827,878.3924,834,876.689,833.9817,876.6707,833.0995,877.3885,832.3096,878.1986,831.5839,879.0729,830.637,879.726,830,880.689,830.1305,880.8195,829.0514,879.7404,828.3534,879.0424,827.7018,878.3908,826.7798,877.4688,826,876.689,826.0208,876.6982,826.7903,878.4847,827.6544,880.3132,828.4728,882.1214,829.3784,883.9683,830,885.689" style="stroke: #383838; stroke-width: 1.0;"/><text fill="#000000" font-family="sans-serif" font-size="13" lengthAdjust="spacingAndGlyphs" textLength="73" x="831" y="852.0669">ChooseSalt</text><!--MD5=[9fafb8130b54d1ee6535b1d1dd47e6ce]
link WeaponAndSaltChosen to ResultPlayAgain--><path d="M836.493,926.197 L836.7585,926.2868 L839.1139,935.3158 L843.0255,944.8712 L846.4304,954.2551 L848.1688,963.0754 L852.1158,972.6428 L854.8195,981.7896 L858.018,991.1038 L861.5605,1000.5343 L863.9176,1009.5638 L867.935,1019.155 " fill="none" style="stroke: #383838; stroke-width: 1.0;"/><polygon fill="#383838" points="869.54,1023.901,869.6098,1023.9074,869.5834,1021.9269,869.9659,1019.984,870.2153,1018.0289,870.0267,1016.0334,870.4444,1014.0938,870.4212,1014.0823,869.8156,1015.045,869.327,1016.0655,868.9199,1017.1263,868.2323,1018.0484,867.9375,1019.1648,868.0192,1019.3302,866.8301,1018.475,865.8798,1018.1029,864.9587,1017.7897,863.868,1017.1336,862.8664,1016.6578,862.8832,1016.6732,864.1933,1018.0992,865.5796,1019.5954,866.9292,1021.0577,868.3489,1022.5847,869.54,1023.901" style="stroke: #383838; stroke-width: 1.0;"/><text fill="#000000" font-family="sans-serif" font-size="13" lengthAdjust="spacingAndGlyphs" textLength="84" x="853" y="969.0669">ResultArrived</text><!--MD5=[0fa7fd01f617b8919ad048f2666156d1]
link ResultPlayAgain to WaitForRestart--><path d="M885.807,1064.17 L885.8893,1064.2141 L886.8488,1066.3287 L888.291,1068.7021 L889.5759,1070.9912 L890.3441,1073.0031 L891.8277,1075.3987 L891.7975,1075.3819 L893.0434,1077.7851 L894.4414,1080.273 L895.9452,1082.8199 L897.0845,1085.1637 L898.7343,1087.7919 L898.9466,1087.9162 L899.9908,1090.2082 L901.6549,1092.8633 L903.3946,1095.5627 L904.6943,1098.0044 L906.2255,1100.5816 L906.2512,1100.5977 L907.7683,1103.0578 L909.4025,1105.5911 L910.9803,1108.089 L912.6657,1110.6545 L914,1113 L914.2457,1113.1691 L916.0428,1115.7779 L917.6815,1118.2776 L919.5521,1120.937 L921.4336,1123.6039 L922.9706,1126.0337 L922.7133,1125.8426 L925.0778,1128.7254 L926.595,1130.979 L928.7563,1133.711 L930.2543,1135.9504 L932.296,1138.5935 " fill="none" style="stroke: #383838; stroke-width: 1.0;"/><polygon fill="#383838" points="935.607,1142.8902,935.6751,1142.9067,935.0077,1140.9435,934.7395,1139.0772,934.3413,1137.1794,933.5157,1135.1777,933.2817,1133.3198,933.256,1133.3165,932.9953,1134.4235,932.8642,1135.5474,932.8231,1136.6829,932.4717,1137.7782,932.555,1138.9298,932.5787,1139.1128,931.406,1138.5761,930.3025,1138.5737,929.2075,1138.6365,928.0633,1138.32,926.945,1138.2031,926.9558,1138.2231,928.6723,1139.1311,930.4381,1140.1303,932.1801,1141.0855,933.9675,1142.1245,935.607,1142.8902" style="stroke: #383838; stroke-width: 1.0;"/><text fill="#000000" font-family="sans-serif" font-size="13" lengthAdjust="spacingAndGlyphs" textLength="62" x="915" y="1109.0669">PlayAgain</text><!--MD5=[ef87f6fd6bf5c33650403d0be357d3a4]
link WaitForRestart to ChooseWeapon--><path d="M966.362,1142.6267 L966.4414,1142.676 L967.9558,1139.7116 L969.9355,1137.0361 L971.7636,1134.2666 L973.0937,1131.1876 L975.1132,1128.537 L975.0817,1128.523 L976.3173,1125.3528 L977.7121,1122.2531 L979.2176,1119.2025 L980.3417,1115.9829 L982,1113 L982.2382,1113.0616 L982.6863,1109.2291 L983.8299,1105.5765 L985.0583,1101.9458 L985.793,1098.1874 L986.7874,1094.4962 L986.8176,1094.4988 L987.028,1091.5103 L987.3759,1088.5335 L987.6574,1085.5511 L988.0656,1082.5795 L988.061,1079.5726 L988.3591,1079.5826 L988.2613,1076.5407 L987.9714,1073.4924 L987.9628,1070.4536 L987.9674,1067.4151 L987.5541,1064.3627 L987.2337,1064.3536 L987.7447,1060.4988 L987.2007,1056.6139 L987.4588,1052.7519 L986.8909,1048.8663 L987,1045 L986.9087,1045 L987.9888,1035.1154 L986.935,1025.2308 L987.1404,1015.3462 L987.4515,1005.4615 L987.555,995.5769 L986.9948,985.6923 L987.383,975.8077 L986.2368,965.9231 L987.3792,956.0385 L987.7309,946.1538 L987.5927,936.2692 L987.8174,926.3846 L986.3559,916.5 L986.1304,906.6154 L986.1715,896.7308 L986.9215,886.8462 L986.738,876.9615 L987.9085,867.0769 L986.7671,857.1923 L986.5426,847.3077 L987.3044,837.4231 L986.1109,827.5385 L986.3078,817.6538 L987.8653,807.7692 L987.5809,797.8846 L987,788 L987.3239,788.0408 L986.4243,784.5418 L986.2731,781.1372 L985.9589,777.712 L985.0565,774.2127 L984.831,770.7987 L984.7913,770.7832 L983.666,767.703 L982.6666,764.6719 L981.1779,761.4497 L980.154,758.4091 L978.7454,755.2182 L978.5408,755.0814 L976.6212,752.2471 L975.1835,749.735 L972.8585,746.6297 L971.4375,744.1286 L969.3755,741.1991 L969.4417,741.2628 L966.8852,738.6133 L964.4532,736.0834 L962.3093,733.8302 L959.6618,731.0934 L957.3534,728.6821 L957.5163,728.8887 L954.3928,726.2744 L951.9065,724.4679 L949.0614,722.2065 L946.1871,719.9081 L943.3113,717.6078 L943.3224,717.6256 L940.3971,715.943 L937.2844,713.9623 L934.0934,711.8569 L931.0308,709.9559 L927.8814,707.9167 L927.8548,707.8653 L924.7905,706.5262 L921.4388,704.631 L918.2053,702.9646 L914.8088,700.9828 L911.6959,699.5496 L911.624,699.3845 L908.5283,698.3453 L905.2486,696.8837 L901.9029,695.2705 L898.5916,693.7362 L895.387,692.447 " fill="none" style="stroke: #383838; stroke-width: 1.0;"/><polygon fill="#383838" points="890.7,690.606,890.7499,690.6552,891.9844,691.9118,893.5115,693.4568,894.9433,694.9079,896.0619,696.0503,897.614,697.62,897.5903,697.6097,897.0316,696.5261,896.5927,695.4947,896.237,694.4995,895.5945,693.3794,895.3537,692.4344,895.4275,692.6035,896.3069,691.7897,897.4016,691.4698,898.5226,691.2102,899.4908,690.5999,900.5394,690.1741,900.5404,690.1968,898.571,690.2498,896.6062,690.4063,894.6392,690.5129,892.6764,690.7147,890.7,690.606" style="stroke: #383838; stroke-width: 1.0;"/><text fill="#000000" font-family="sans-serif" font-size="13" lengthAdjust="spacingAndGlyphs" textLength="72" x="988" y="910.5669">StartRound</text><!--MD5=[268ede5af837bfbce6f584528fa5e4e3]
link Lobby to CreatingOpenGame--><path d="M374.356,415 L374.356,415.2802 L364.2469,414.4476 L354.1378,415.2577 L344.0288,415.5329 L333.9197,414.0488 L323.8106,414.8964 L313.7015,414.4313 L303.5925,414.4887 L293.4834,414.9091 L283.3743,414.0782 L273.2652,415.7382 L263.1562,414.1596 L253.0471,414.7363 L242.938,415 " fill="none" style="stroke: #383838; stroke-width: 1.0;"/><polygon fill="#383838" points="237.701,415,237.7295,415.064,239.4449,415.6738,241.3272,416.6589,243.1551,417.5217,244.8044,417.9827,246.701,419,246.6827,418.9817,245.8005,418.0995,245.0106,417.3096,244.2849,416.5839,243.338,415.637,242.701,415,242.8315,415.1305,243.3524,414.0514,244.2544,413.3534,245.2028,412.7018,245.8808,411.7798,246.701,411,246.7102,411.0208,244.8967,411.7903,243.1252,412.6544,241.3334,413.4728,239.5803,414.3784,237.701,415" style="stroke: #383838; stroke-width: 1.0;"/><text fill="#000000" font-family="sans-serif" font-size="13" lengthAdjust="spacingAndGlyphs" textLength="100" x="256" y="408.0669">NewOpenGame</text><!--MD5=[66f9d1f2857280eb52b88b2aa6bcae5c]
link CreatingOpenGame to WaitingRoom--><path d="M162.593,435.362 L162.6863,435.3675 L162.2261,438.4446 L162.3126,441.5541 L162.2211,444.6531 L161.5442,447.7174 L161.6776,450.8296 L161.6431,450.8282 L161.3527,454.0558 L161.2363,457.2906 L161.2408,460.5306 L160.8285,463.7531 L161,467 L161.2461,467 L160.7199,470.4 L160.9121,473.8 L161.192,477.2 L160.9619,480.6 L161,484 L161.0301,484.004 L161.2968,486.3492 L161.7004,488.7126 L162.038,491.0673 L162.5016,493.4386 L162.5544,495.7555 L162.8482,495.8069 L163.2667,498.1806 L163.4958,500.5212 L164.0023,502.9102 L164.5217,505.3016 L164.6293,507.6209 L164.3154,507.5558 L165.4006,509.9799 L165.4524,512.1899 L166.2899,514.5626 L166.3182,516.7678 L167.0098,519.1103 L166.9801,519.1034 L167.825,521.3105 L167.9772,523.3565 L168.5381,525.4975 L169.1333,527.6465 L169.481,529.738 " fill="none" style="stroke: #383838; stroke-width: 1.0;"/><polygon fill="#383838" points="170.756,534.864,170.825,534.8762,170.9617,532.9001,171.5029,530.9954,171.9123,529.0674,171.8886,527.0631,172.4645,525.1645,172.4423,525.1511,171.7595,526.0607,171.1886,527.0376,170.6956,528.0612,169.9344,528.9237,169.5487,530.0119,169.6438,530.1701,168.4709,529.2488,167.5757,528.7891,166.7144,528.3858,165.656,527.6548,164.7012,527.0961,164.7192,527.1101,165.9038,528.6432,167.1701,530.2399,168.397,531.8059,169.699,533.4304,170.756,534.864" style="stroke: #383838; stroke-width: 1.0;"/><text fill="#000000" font-family="sans-serif" font-size="13" lengthAdjust="spacingAndGlyphs" textLength="82" x="162" y="480.0669">CreateGame</text><!--MD5=[c26f6955c761d17064ad000e6a950fb5]
link WaitingRoom to Lobby--><path d="M194.096,534.708 L194.1614,534.7747 L195.6095,532.9666 L197.4409,531.5496 L199.1475,530.0052 L200.4436,528.042 L202.308,526.6585 L202.2844,526.6332 L204.0611,524.7663 L205.9564,523.0267 L207.9343,521.3757 L209.6278,519.4195 L211.7196,517.8908 L211.882,518.0757 L213.6271,515.8431 L215.8463,514.1503 L218.1232,512.5234 L220.0637,510.5133 L222.1812,508.7048 L222.2004,508.7282 L224.4446,506.8329 L226.7763,505.0445 L229.0657,503.2044 L231.4357,501.4628 L233.5431,499.4005 L233.7226,499.6387 L236.1472,497.8171 L238.4562,495.8419 L240.9346,494.0915 L243.4209,492.3517 L245.6556,490.2779 L245.4755,490.0128 L248.3678,488.7991 L250.6669,486.7125 L253.4171,485.2896 L255.7027,483.1832 L258.3691,481.637 L258.3535,481.6108 L261.171,480.3481 L263.6238,478.4747 L266.2919,476.9616 L268.978,475.4788 L271.5338,473.7777 L271.6169,473.9429 L274.2262,472.4206 L276.9776,471.1806 L279.4991,469.4838 L282.3636,468.4684 L285,467 L285.072,467.2327 L287.4923,466.4354 L289.9483,465.7537 L292.2381,464.535 L294.6497,463.7099 L297.1693,463.2335 L297.1512,462.9579 L299.1978,463.0744 L301.224,462.8803 L303.2797,463.1366 L305.2851,462.6239 L307.3204,462.5684 L307.3137,462.4161 L309.373,462.5799 L311.4038,462.0926 L313.4548,462.0683 L315.5258,462.4971 L317.5613,462.119 L317.6084,462.3069 L320.1284,461.8119 L322.502,460.7327 L325.059,460.3852 L327.5761,459.8783 L330,459 L329.9178,458.8068 L332.0699,458.0724 L334.1951,457.2747 L336.3733,456.6013 L338.3456,455.4447 L340.433,454.558 L340.5256,454.7415 L342.3828,453.2976 L344.4188,452.208 L346.7161,451.6358 L348.5324,450.111 L350.7368,449.3548 L350.8488,449.5512 L352.7696,448.3011 L354.6524,446.9845 L356.6208,445.8179 L358.7871,444.9982 L360.6734,443.6876 L360.6029,443.5748 L362.6792,442.744 L364.2758,441.1459 L366.4178,440.4201 L368.2528,439.2032 L370.005,437.854 " fill="none" style="stroke: #383838; stroke-width: 1.0;"/><polygon fill="#383838" points="374.294,435.019,374.3056,435.0881,372.3285,435.2079,370.4191,435.7328,368.4877,436.1258,366.4837,436.085,364.5802,436.6446,364.575,436.6192,365.6603,436.7316,366.7717,436.9719,367.9012,437.3012,368.9682,437.3239,370.1228,437.776,370.3036,437.8129,369.6907,438.8425,369.6057,439.9798,369.585,441.1303,369.1897,442.2043,368.9914,443.3186,369.0106,443.3308,370.043,441.6529,371.1626,440.0308,372.2401,438.3817,373.398,436.784,374.294,435.019" style="stroke: #383838; stroke-width: 1.0;"/><text fill="#000000" font-family="sans-serif" font-size="13" lengthAdjust="spacingAndGlyphs" textLength="82" x="286" y="480.0669">CancelGame</text><!--MD5=[1c128c5f96a0b75f5612869b3e5de11d]
link WaitingRoom to OpponentJoined--><path d="M176,575.248 L176.2802,575.248 L175.4476,585.425 L176.2577,595.602 L176.5329,605.779 L175.0488,615.956 L175.8964,626.133 L175.4313,636.31 L176,646.487 " fill="none" style="stroke: #383838; stroke-width: 1.0;"/><polygon fill="#383838" points="176,651.689,176.064,651.7175,176.6738,649.8329,177.6589,648.1152,178.5217,646.3431,178.9827,644.3924,180,642.689,179.9817,642.6707,179.0995,643.3885,178.3096,644.1986,177.5839,645.0729,176.637,645.726,176,646.689,176.1305,646.8195,175.0514,645.7404,174.3534,645.0424,173.7018,644.3908,172.7798,643.4688,172,642.689,172.0208,642.6982,172.7903,644.4847,173.6544,646.3132,174.4728,648.1214,175.3784,649.9683,176,651.689" style="stroke: #383838; stroke-width: 1.0;"/><text fill="#000000" font-family="sans-serif" font-size="13" lengthAdjust="spacingAndGlyphs" textLength="77" x="177" y="618.0669">GameJoined</text><!--MD5=[c2b484231147ecc441b351005d8d9012]
link OpponentJoined to ChooseWeaponB--><path d="M176,692.248 L176.2802,692.248 L175.4476,702.425 L176.2577,712.602 L176.5329,722.779 L175.0488,732.956 L175.8964,743.133 L175.4313,753.31 L176,763.487 " fill="none" style="stroke: #383838; stroke-width: 1.0;"/><polygon fill="#383838" points="176,768.689,176.064,768.7175,176.6738,766.8329,177.6589,765.1152,178.5217,763.3431,178.9827,761.3924,180,759.689,179.9817,759.6707,179.0995,760.3885,178.3096,761.1986,177.5839,762.0729,176.637,762.726,176,763.689,176.1305,763.8195,175.0514,762.7404,174.3534,762.0424,173.7018,761.3908,172.7798,760.4688,172,759.689,172.0208,759.6982,172.7903,761.4847,173.6544,763.3132,174.4728,765.1214,175.3784,766.9683,176,768.689" style="stroke: #383838; stroke-width: 1.0;"/><text fill="#000000" font-family="sans-serif" font-size="13" lengthAdjust="spacingAndGlyphs" textLength="72" x="177" y="735.0669">StartRound</text><!--MD5=[caea18490962acaada92fe5478f1276d]
link ChooseWeaponB to WeaponChosenB--><path d="M188.051,809.248 L188.2885,809.3967 L192.5947,816.96 L198.2932,825.395 L203.5383,833.5461 L207.2923,840.7637 L213.0226,849.2186 L217.6403,856.9769 L222.7008,865.0124 L228.0691,873.2407 L233.158,881.294 " fill="none" style="stroke: #383838; stroke-width: 1.0;"/><polygon fill="#383838" points="235.91,885.689,235.9794,885.6989,235.4957,883.7194,235.4186,881.7979,235.2091,879.8574,234.5641,877.855,234.522,875.9384,234.4967,875.9326,234.1301,877.0093,233.8908,878.1151,233.74,879.2413,233.2843,880.2975,233.2556,881.4517,233.297,881.6316,232.106,880.9937,231.0356,880.881,229.9799,880.8323,228.8386,880.4108,227.7423,880.1854,227.7551,880.2043,229.3699,881.2773,231.0427,882.4362,232.6875,883.5537,234.3856,884.7502,235.91,885.689" style="stroke: #383838; stroke-width: 1.0;"/><text fill="#000000" font-family="sans-serif" font-size="13" lengthAdjust="spacingAndGlyphs" textLength="99" x="218" y="852.0669">ChooseWeapon</text><!--MD5=[116e95cff8f03d3a6b63dbff8f2ac040]
link WeaponChosenB to ResultPlayAgainB--><path d="M218.984,926.009 L219.041,926.083 L217.1583,927.1831 L215.6099,928.7169 L213.9525,930.1095 L211.9373,931.0376 L210.4176,932.6087 L210.3953,932.5823 L208.573,933.9191 L206.8631,935.3889 L205.2314,936.9512 L203.3304,938.1948 L201.8065,939.8848 L201.9758,940.0634 L199.9601,941.2486 L198.4387,942.9553 L196.9776,944.7256 L195.1656,946.1258 L193.5382,947.7207 L193.5606,947.7411 L192.0201,949.367 L190.5816,951.0858 L189.0939,952.7598 L187.7001,954.5194 L186,956 L186.24,956.1771 L183.9851,959.2391 L181.5754,962.1869 L179.3922,965.3018 L177.2197,968.4246 L174.7108,971.2992 L174.4365,971.1332 L172.9794,974.742 L170.6193,977.8043 L168.9457,981.282 L166.5651,984.3319 L164.764,987.7325 L164.737,987.7185 L163.3633,991.1469 L161.3583,994.2476 L159.7258,997.5416 L158.1246,1000.8519 L156.2978,1004.0451 L156.4659,1004.1222 L154.9266,1007.0318 L153.6747,1010.0731 L151.9578,1012.9012 L150.9344,1016.0473 L149.45,1018.982 " fill="none" style="stroke: #383838; stroke-width: 1.0;"/><polygon fill="#383838" points="147.322,1023.987,147.3698,1024.0382,148.6683,1022.5425,150.2469,1021.3471,151.7344,1020.0539,152.9218,1018.4391,154.5245,1017.2695,154.5148,1017.2455,153.4221,1017.5609,152.3782,1017.9974,151.3683,1018.5181,150.2413,1018.7487,149.2783,1019.3856,149.4495,1019.4546,148.6603,1018.2578,148.3707,1017.2625,148.1422,1016.2918,147.5589,1015.178,147.1622,1014.1394,147.185,1014.1398,147.1835,1016.1088,147.2856,1018.0794,147.3378,1020.0493,147.4853,1022.0207,147.322,1023.987" style="stroke: #383838; stroke-width: 1.0;"/><text fill="#000000" font-family="sans-serif" font-size="13" lengthAdjust="spacingAndGlyphs" textLength="84" x="187" y="969.0669">ResultArrived</text><!--MD5=[6d070bf3b9dc0b6f0a580771d84af7b9]
link ResultPlayAgainB to ChooseWeaponB--><path d="M125.801,1023.901 L125.8794,1023.9518 L124.0284,1021.3049 L122.6368,1018.9559 L121.0956,1016.5099 L119.0624,1013.7449 L117.7103,1011.4214 L117.6804,1011.4042 L115.8409,1008.3723 L114.1521,1005.4275 L112.5682,1002.5432 L110.623,999.4504 L109.1839,996.6497 L109.4044,996.7588 L107.2908,993.2059 L105.8211,989.9716 L104.4299,986.7762 L102.5817,983.3547 L100.9739,980.0521 L101.0021,980.0633 L99.5324,976.4554 L98.1911,972.8986 L96.7879,969.3171 L95.5027,965.7826 L93.8326,962.095 L94.1196,962.176 L93.0591,958.407 L91.8134,954.5857 L90.8387,950.8409 L89.8768,947.0997 L88.5123,943.2449 L88.195,943.1997 L88.2615,939.4321 L87.2831,935.5156 L87.099,931.7123 L86.0969,927.7924 L85.7653,923.9681 L85.7349,923.9672 L86.2104,920.1306 L85.975,916.2726 L86.1592,912.4272 L86.3785,908.5829 L86.3438,904.731 L86.5233,904.7756 L87.2733,900.9844 L88.3301,897.2694 L88.8906,893.431 L90.1914,889.7767 L91,886 L91.223,886.0981 L92.1392,883.902 L93.1662,881.7546 L93.6787,879.3808 L94.5684,877.1729 L95.7921,875.1121 L95.5508,874.9778 L96.94,872.9951 L98.0573,870.8612 L99.569,868.9467 L100.4073,866.6575 L101.6459,864.591 L101.5189,864.5067 L103.0702,862.629 L104.0786,860.3909 L105.473,858.4091 L107.2453,856.6782 L108.3448,854.5005 L108.4987,854.618 L110.0696,852.7794 L111.1619,850.5752 L112.8538,848.8289 L114.415,846.9828 L115.6718,844.9043 L115.5123,844.7677 L117.1871,843.0689 L118.8097,841.3253 L120.5349,839.6696 L121.8611,837.6723 L123.4102,835.8659 L123.5598,836.0069 L124.8177,834.0137 L126.3644,832.2927 L128.3329,830.9693 L129.5248,828.9139 L131.3433,827.4491 L131.5014,827.6109 L132.9896,825.9685 L134.4244,824.2713 L135.9799,822.6977 L137.8145,821.4097 L139.2541,819.7176 L139.1646,819.6192 L140.9656,818.5156 L142.1575,816.7429 L144.042,815.731 L145.5365,814.2907 L146.926,812.735 " fill="none" style="stroke: #383838; stroke-width: 1.0;"/><polygon fill="#383838" points="150.845,809.339,150.8654,809.406,148.9205,809.7811,147.0953,810.549,145.2312,811.189,143.2388,811.4083,141.4239,812.2099,141.422,812.1841,142.5422,812.1488,143.6717,812.2438,144.8077,812.4293,145.9214,812.3028,147.0663,812.6134,147.2504,812.6265,146.7761,813.7269,146.8392,814.8657,146.9679,816.0091,146.715,817.1253,146.6629,818.2558,146.6835,818.2655,147.4897,816.4679,148.3896,814.7144,149.2443,812.9396,150.1853,811.2053,150.845,809.339" style="stroke: #383838; stroke-width: 1.0;"/><text fill="#000000" font-family="sans-serif" font-size="13" lengthAdjust="spacingAndGlyphs" textLength="72" x="92" y="910.5669">StartRound</text><!--MD5=[676a89239a873aca99658b9e79776feb]
link WeaponChosenB to InsufficientFunds--><path d="M313.712,915.893 L313.728,915.985 L318.5398,916.557 L323.4454,917.6685 L328.3205,918.6042 L333.095,918.9623 L338.0087,920.12 L338.0023,920.0861 L340.5868,920.429 L343.2037,920.943 L345.8431,921.576 L348.4049,921.7991 L351.0755,922.5962 L351.124,922.8375 L353.7365,922.8675 L356.4906,923.6018 L359.2619,924.4221 L361.9328,924.7424 L364.6565,925.3257 L364.6629,925.3554 L367.4579,925.9101 L370.2818,926.5999 L373.0918,927.2246 L375.9283,927.9735 L378.6784,928.3172 L378.7444,928.6081 L381.623,929.2641 L384.4591,929.7325 L387.3575,930.4755 L390.2588,931.2314 L393.0676,931.5795 L392.9925,931.2679 L396.075,932.5809 L398.91,932.868 L401.9331,933.9351 L404.7625,934.1989 L407.7507,935.1211 L407.7432,935.0916 L410.8135,936.2062 L413.7068,936.632 L416.7045,937.4642 L419.711,938.3306 L422.6543,938.9508 L422.7032,939.1292 L425.6639,939.7744 L428.7082,940.7244 L431.6172,941.1812 L434.728,942.3738 L437.7047,943.0772 L437.7732,943.311 L440.785,944.1531 L443.8309,945.1114 L446.7186,945.5302 L449.7223,946.3445 L452.8286,947.509 L452.7459,947.2455 L455.8455,948.4332 L458.852,949.324 L461.9936,950.6455 L464.9044,951.2317 L467.9525,952.2549 L467.9038,952.1104 L470.9949,953.3648 L473.878,954.0016 L476.9091,955.0775 L480.0848,956.5832 L483.0028,957.3237 L483.0688,957.5057 L486.0947,958.7106 L488.9155,959.3493 L491.9932,960.6971 L495.015,961.8905 L497.9063,962.7238 L497.8298,962.5283 L500.8273,963.8322 L503.7998,965.0721 L506.8215,966.4378 L509.652,967.3144 L512.5892,968.4642 L512.6694,968.6535 L515.3711,969.4553 L518.2276,970.6226 L521.3099,972.3238 L523.9763,973.0421 L526.9783,974.5533 L527.0728,974.7589 L529.821,975.9261 L532.5372,977.0238 L535.3256,978.2785 L538.2808,979.8959 L541,981 L540.9363,980.8832 L544.2866,982.9535 L547.2039,984.2294 L550.6135,986.4086 L553.7459,988.0792 L556.8036,989.6127 L556.8634,989.7037 L559.8648,991.6341 L563.0802,993.8902 L566.1022,995.852 L569.0433,997.6907 L572.0516,999.6316 L572.123,999.7271 L574.8519,1001.7046 L577.9122,1004.1253 L580.5978,1006.0447 L583.4375,1008.1703 L586.2265,1010.2282 L586.0548,1010.0193 L588.6291,1012.1582 L591.4101,1014.5487 L593.8985,1016.5832 L596.282,1018.4901 L598.811,1020.574 " fill="none" style="stroke: #383838; stroke-width: 1.0;"/><polygon fill="#383838" points="602.624,1023.878,602.6874,1023.9078,601.6622,1022.0361,601.0088,1020.339,600.2343,1018.585,599.0617,1016.6441,598.4402,1014.962,598.4144,1014.9601,598.3793,1016.0803,598.4745,1017.2098,598.6602,1018.3458,598.5339,1019.4594,598.8447,1020.6043,598.8579,1020.7884,597.7012,1020.4757,596.583,1020.7004,595.4696,1020.9906,594.3288,1020.8994,593.2023,1021.0088,593.209,1021.0306,595.0836,1021.5725,596.9883,1022.2134,598.8786,1022.8066,600.7965,1023.4909,602.624,1023.878" style="stroke: #383838; stroke-width: 1.0;"/><!--MD5=[66655008612536375f18d44ba5eccddd]
link WeaponAndSaltChosen to InsufficientFunds--><path d="M800.781,926.197 L800.9349,926.4312 L791.9808,931.3178 L783.9287,937.5774 L775.583,943.39 L766.2712,947.7322 L758.2397,954.023 L749.4875,959.2169 L741.0221,964.8474 L732.756,970.7813 L723.8029,975.6693 L716.2175,982.6392 L706.8538,986.9025 L698.6736,992.967 L690.6378,999.2512 L681.7618,1004.2568 L673.3777,1010.011 L664.8075,1015.4819 L656.334,1021.1 " fill="none" style="stroke: #383838; stroke-width: 1.0;"/><polygon fill="#383838" points="652.07,1023.901,652.0814,1023.9701,653.9912,1023.4448,655.9677,1023.3248,657.9225,1023.0728,659.8059,1022.3868,661.7881,1022.3016,661.7829,1022.2762,660.6514,1021.9331,659.5464,1021.7179,658.4598,1021.5915,657.3098,1021.1588,656.2486,1021.1553,656.4293,1021.1926,656.2721,1020.0048,656.6426,1018.9261,657.0774,1017.8607,657.1377,1016.7179,657.3949,1015.6158,657.4141,1015.6281,656.321,1017.267,655.315,1018.962,654.267,1020.63,653.2992,1022.3495,652.07,1023.901" style="stroke: #383838; stroke-width: 1.0;"/><!--MD5=[09c1e1ed681798f7ff466812604e828f]
link InsufficientFunds to GameOver--><path d="M610.234,1064.024 L610.3092,1064.0794 L608.3593,1066.2567 L606.8502,1068.7588 L605.1976,1071.1552 L603.0729,1073.2036 L601.6016,1075.7337 L601.5747,1075.7121 L599.4186,1078.1616 L597.3985,1080.7198 L595.473,1083.3536 L593.2216,1085.727 L591.4266,1088.4651 L591.6106,1088.6285 L588.9512,1090.8301 L586.829,1093.5087 L584.7723,1096.2456 L582.3343,1098.6437 L580.0968,1101.22 L580.118,1101.2417 L577.6675,1103.5658 L575.3134,1105.9889 L572.9129,1108.3641 L570.601,1110.8305 L568,1113 L568.1908,1113.2292 L566.4239,1114.7053 L564.5339,1116.0335 L562.8241,1117.5781 L561.1228,1119.1329 L559.1538,1120.3663 L558.9621,1120.1094 L557.4543,1122.0112 L555.3152,1123.0672 L553.6561,1124.7661 L551.5027,1125.8029 L549.7544,1127.3825 L549.7372,1127.3573 L548.01,1128.9724 L545.8818,1130 L543.9902,1131.3743 L542.1185,1132.7776 L540.1035,1133.971 L540.2025,1134.1273 L538.1825,1135.1863 L536.3316,1136.5122 L534.207,1137.4062 L532.4908,1138.9446 L530.503,1140.0545 " fill="none" style="stroke: #383838; stroke-width: 1.0;"/><polygon fill="#383838" points="525.896,1142.8343,525.9047,1142.9038,527.8332,1142.4519,529.8129,1142.4075,531.7759,1142.2303,533.6841,1141.6168,535.6681,1141.6074,535.6619,1141.5822,534.5357,1141.1979,533.4408,1140.9404,532.3677,1140.771,531.2195,1140.2979,530.1765,1140.2502,530.3556,1140.2945,530.244,1139.1015,530.6554,1138.0378,531.1306,1136.9898,531.2344,1135.8501,531.5336,1134.7586,531.5523,1134.7716,530.3974,1136.3676,529.3274,1138.0229,528.2164,1139.6496,527.1836,1141.3309,525.896,1142.8343" style="stroke: #383838; stroke-width: 1.0;"/><text fill="#000000" font-family="sans-serif" font-size="13" lengthAdjust="spacingAndGlyphs" textLength="69" x="586" y="1109.0669">GameOver</text><!--MD5=[363f2d028d0228766aa4e1f832ec9c24]
link GameOver to Lobby--><path d="M460.202,1142.8341 L460.2592,1142.9079 L457.9291,1141.0144 L455.9344,1139.5537 L453.8305,1137.9521 L451.3674,1135.8869 L449.4015,1134.4634 L449.3789,1134.4373 L447.0491,1132.3874 L444.8335,1130.469 L442.6972,1128.6421 L440.2875,1126.5001 L438.2608,1124.7994 L438.4342,1124.9739 L435.8769,1122.4282 L433.8259,1120.3922 L431.8367,1118.4184 L429.4881,1116.0827 L427.3285,1113.9374 L427.3516,1113.957 L425.2827,1111.5353 L423.319,1109.203 L421.3045,1106.8276 L419.3868,1104.5345 L417.1535,1101.973 L417.3997,1102.1413 L415.6289,1099.5491 L413.6993,1096.8483 L412.0021,1094.3064 L410.3159,1091.772 L408.2844,1089.0016 L407.9983,1088.857 L407.1507,1086.361 L405.361,1083.389 L404.2875,1080.7788 L402.4765,1077.796 L401.27,1075.1186 L401.241,1075.1095 L400.6623,1072.2775 L399.4049,1069.2326 L398.548,1066.3132 L397.7248,1063.4045 L396.659,1060.4196 L396.8429,1060.4394 L396.3254,1057.3355 L396.1223,1054.2654 L395.4106,1051.1406 L395.4575,1048.0974 L395,1045 L395.7309,1045 L395.5927,1034.9796 L395.8174,1024.9592 L394.3559,1014.9388 L394.1304,1004.9184 L394.1715,994.898 L394.9215,984.8776 L394.738,974.8571 L395.9085,964.8367 L394.7671,954.8163 L394.5426,944.7959 L395.3044,934.7755 L394.1109,924.7551 L394.3078,914.7347 L395.8653,904.7143 L395.5809,894.6939 L395.9793,884.6735 L394.5709,874.6531 L395.4256,864.6327 L395.7872,854.6122 L394.3701,844.5918 L394.8722,834.5714 L395.168,824.551 L395.869,814.5306 L394.9944,804.5102 L395.6168,794.4898 L394.2616,784.4694 L394.097,774.449 L395.6715,764.4286 L394.0441,754.4082 L395.6786,744.3878 L395.2755,734.3673 L394.6428,724.3469 L394.5283,714.3265 L395.6117,704.3061 L394.6009,694.2857 L395.7891,684.2653 L394.263,674.2449 L395.8232,664.2245 L395.6457,654.2041 L395.3266,644.1837 L395.063,634.1633 L395.9688,624.1429 L395.8181,614.1224 L395.2257,604.102 L395.3576,594.0816 L394.8263,584.0612 L395.9553,574.0408 L395.2065,564.0204 L395,554 L395.0767,554.0005 L394.7483,550.9644 L394.8572,547.931 L395.2918,544.8996 L395.2655,541.8654 L395.0932,538.8302 L395.0741,538.8299 L395.0016,535.7324 L395.0992,532.6377 L394.9432,529.5388 L395.484,526.4515 L395.3514,523.353 L395.6799,523.3624 L395.762,517.2188 L396.0137,511.0801 L395.821,504.9286 L396.0972,498.7906 L396.2353,492.6486 L396.0631,492.6416 L396.5936,486.9706 L396.8092,481.2867 L397.1772,475.6091 L397.0621,469.9117 L397.3963,464.2327 L397.3366,464.2298 L397.8297,459.4862 L398.1212,454.7326 L397.8784,449.9524 L398.2564,445.2031 L398.579,440.451 " fill="none" style="stroke: #383838; stroke-width: 1.0;"/><polygon fill="#383838" points="398.865,435.191,398.9274,435.2229,397.8455,436.8821,397.1293,438.7282,396.294,440.5134,395.0671,442.0984,394.3823,443.9606,394.3651,443.9413,395.1297,443.0994,395.9815,442.3546,396.8939,441.6775,397.5975,440.7675,398.5936,440.1836,398.731,440.3068,399.1926,440.8856,400.0553,441.8241,400.967,442.8065,401.5939,443.5335,402.3706,444.3949,402.3918,444.403,401.6595,442.5503,401.0239,440.7345,400.3417,438.9009,399.7486,437.1013,398.865,435.191" style="stroke: #383838; stroke-width: 1.0;"/><text fill="#000000" font-family="sans-serif" font-size="13" lengthAdjust="spacingAndGlyphs" textLength="76" x="396" y="793.5669">ExitToLobby</text><!--MD5=[e1d9eb6c55e94a860b7f4fd22ca164c6]
link Resigned to GameOver--><path d="M486.652,1064.058 L486.9321,1064.0676 L486.4605,1074.5869 L487.6307,1085.1623 L488.2663,1095.7194 L487.1436,1106.2164 L488.3513,1116.7931 L488.2471,1127.3249 L489.176,1137.8921 " fill="none" style="stroke: #383838; stroke-width: 1.0;"/><polygon fill="#383838" points="489.349,1142.9497,489.414,1142.976,489.959,1141.0717,490.8848,1139.3213,491.6866,1137.5208,492.0806,1135.5555,493.0391,1133.8183,493.0202,1133.8006,492.163,1134.5481,491.4013,1135.3848,490.7059,1136.2834,489.7819,1136.9685,489.1781,1137.9526,489.3041,1138.0875,488.2079,1137.0269,487.4794,1136.36,486.7958,1135.7413,485.8512,1134.8429,485.0438,1134.0916,485.0643,1134.1016,485.8953,1135.8586,486.8194,1137.6609,487.6986,1139.4413,488.6635,1141.2634,489.349,1142.9497" style="stroke: #383838; stroke-width: 1.0;"/><text fill="#000000" font-family="sans-serif" font-size="13" lengthAdjust="spacingAndGlyphs" textLength="69" x="490" y="1109.0669">GameOver</text><!--MD5=[d81e2e0bec8826edd7c6a76d0d100184]
@startuml
skinparam monochrome true
skinparam handwritten true
hide empty description
state Setup{
    [*] - -> Empty
    Empty - -> NeedAddress : UpdateProfile
    NeedAddress - -> Lobby : GotAddressFromWallet
}

    state PlayerA {
    Lobby - -> GameChosen : JoinOpenGame
    GameChosen - -> ChooseWeapon : StartRound
    ChooseWeapon - -> WeaponChosen : ChooseWeapon
    WeaponChosen - -> WeaponAndSaltChosen : ChooseSalt
    WeaponAndSaltChosen - -> ResultPlayAgain : ResultArrived
    ResultPlayAgain - -> WaitForRestart : PlayAgain
    WaitForRestart - -> ChooseWeapon : StartRound
    }

    state PlayerB {
    Lobby - -> CreatingOpenGame : NewOpenGame
    CreatingOpenGame - -> WaitingRoom : CreateGame
    WaitingRoom - -> Lobby: CancelGame
    WaitingRoom - -> OpponentJoined : GameJoined
    OpponentJoined - ->ChooseWeaponB : StartRound
    ChooseWeaponB - -> WeaponChosenB : ChooseWeapon
    WeaponChosenB - -> ResultPlayAgainB : ResultArrived
    ResultPlayAgainB - -> ChooseWeaponB : StartRound
    }

state EndGame {
    WeaponChosenB - -> InsufficientFunds
    WeaponAndSaltChosen - -> InsufficientFunds
    InsufficientFunds - -> GameOver : GameOver
    GameOver - -> Lobby : ExitToLobby
    Resigned - -> GameOver : GameOver
}

@enduml

PlantUML version 1.2019.12(Sun Nov 03 10:24:54 UTC 2019)
(GPL source distribution)
Java Runtime: Java(TM) SE Runtime Environment
JVM: Java HotSpot(TM) 64-Bit Server VM
Java Version: 1.7.0_25-b15
Operating System: Linux
Default Encoding: UTF-8
Language: en
Country: US
--></g></svg>