<?xml version="1.0" encoding="UTF-8"?>
<svg width="1038px" height="943px" viewBox="0 0 1038 943" version="1.1" xmlns="http://www.w3.org/2000/svg" xmlns:xlink="http://www.w3.org/1999/xlink">
    <!-- Generator: Sketch 53 (72520) - https://sketchapp.com -->
    <title>Slice</title>
    <desc>Created with Sketch.</desc>
    <g id="Page-1" stroke="none" stroke-width="1" fill="none" fill-rule="evenodd">
        <path id="Path-4" d="M293.175386,480.182739 L298.605643,468.778265 L301.314266,470.067979 L293.422261,486.642546 L292.275848,489.050211 L290.813578,486.820216 L280.747185,471.468742 L283.255929,469.823688 L290.183342,480.388148 L289.487498,470.141988 C289.270272,432.630776 308.004171,406.56875 345.462817,392.20105 C353.521572,389.110021 368.362958,387.598844 391.412579,387.174884 C408.830488,386.85451 422.020499,387.018999 467.370782,387.894146 C508.535551,388.688522 531.694156,388.932463 557.650119,388.622294 C593.283428,388.196483 623.907276,386.611164 650.828335,383.509855 C668.702072,381.450799 695.184985,368.209342 730.140519,343.770654 L731.859481,346.229346 C696.52427,370.933481 669.67385,384.358691 651.171665,386.490145 C624.134848,389.604788 593.413804,391.195139 557.685966,391.62208 C531.689806,391.932729 508.507418,391.688538 467.3129,390.893587 C422.009437,390.019344 408.831279,389.855003 391.46775,390.174377 C368.773525,390.5918 354.154601,392.080325 346.537183,395.002075 C310.218742,408.932435 292.277624,433.891569 292.484006,470.031377 L293.175386,480.182739 Z" fill="#C3C535" fill-rule="nonzero"></path>
        <path d="M199,26.5 C195.410149,26.5 192.5,29.4101491 192.5,33 L192.5,137 C192.5,140.589851 195.410149,143.5 199,143.5 L463,143.5 C466.589851,143.5 469.5,140.589851 469.5,137 L469.5,33 C469.5,29.4101491 466.589851,26.5 463,26.5 L199,26.5 Z" id="Rectangle" stroke="#000000" stroke-width="3" fill="#F8F5F5"></path>
        <text id="XPickMove" font-family="CourierNewPS-BoldMT, Courier New" font-size="40" font-weight="bold" fill="#000000">
            <tspan x="223" y="78">XPickMove</tspan>
        </text>
        <g id="Group" transform="translate(194.000000, 102.000000)">
            <rect id="Rectangle" fill="#35C537" x="0" y="0" width="80" height="40"></rect>
            <text id="Win" fill="#000000" font-family="CourierNewPS-BoldMT, Courier New" font-size="27" font-weight="bold">
                <tspan x="16" y="28">Win</tspan>
            </text>
        </g>
        <g id="Group-2" transform="translate(288.000000, 102.000000)">
            <rect id="Rectangle" fill="#C3C535" x="0" y="0" width="80" height="40"></rect>
            <text id="Draw" fill="#000000" font-family="CourierNewPS-BoldMT, Courier New" font-size="25" font-weight="bold">
                <tspan x="10" y="28">Draw</tspan>
            </text>
        </g>
        <g id="Group-3" transform="translate(388.000000, 102.000000)">
            <rect id="Rectangle" fill="#3581C5" x="0" y="0" width="80" height="40"></rect>
            <text id="Inc" fill="#000000" font-family="CourierNewPS-BoldMT, Courier New" font-size="27" font-weight="bold">
                <tspan x="16" y="28">Inc</tspan>
            </text>
        </g>
        <path d="M636,26.5 C632.410149,26.5 629.5,29.4101491 629.5,33 L629.5,137 C629.5,140.589851 632.410149,143.5 636,143.5 L900,143.5 C903.589851,143.5 906.5,140.589851 906.5,137 L906.5,33 C906.5,29.4101491 903.589851,26.5 900,26.5 L636,26.5 Z" id="Rectangle" stroke="#000000" stroke-width="3" fill="#F8F5F5"></path>
        <text id="OPickMove" font-family="CourierNewPS-BoldMT, Courier New" font-size="40" font-weight="bold" fill="#000000">
            <tspan x="660" y="78">OPickMove</tspan>
        </text>
        <g id="Group" transform="translate(826.000000, 102.000000)">
            <rect id="Rectangle" fill="#35C537" x="0" y="0" width="80" height="40"></rect>
            <text id="Win" fill="#000000" font-family="CourierNewPS-BoldMT, Courier New" font-size="27" font-weight="bold">
                <tspan x="16" y="28">Win</tspan>
            </text>
        </g>
        <g id="Group-3" transform="translate(630.000000, 102.000000)">
            <rect id="Rectangle" fill="#3581C5" x="0" y="0" width="80" height="40"></rect>
            <text id="Inc" fill="#000000" font-family="CourierNewPS-BoldMT, Courier New" font-size="27" font-weight="bold">
                <tspan x="16" y="28">Inc</tspan>
            </text>
        </g>
        <path d="M279,226.5 C275.410149,226.5 272.5,229.410149 272.5,233 L272.5,337 C272.5,340.589851 275.410149,343.5 279,343.5 L486,343.5 C489.589851,343.5 492.5,340.589851 492.5,337 L492.5,233 C492.5,229.410149 489.589851,226.5 486,226.5 L279,226.5 Z" id="Rectangle" stroke="#000000" stroke-width="3" fill="#F8F5F5"></path>
        <text id="XWait" font-family="CourierNewPS-BoldMT, Courier New" font-size="40" font-weight="bold" fill="#000000">
            <tspan x="323" y="278">XWait</tspan>
        </text>
        <g id="Group-4" transform="translate(191.000000, 485.000000)">
            <path d="M8,1.5 C4.41014913,1.5 1.5,4.41014913 1.5,8 L1.5,112 C1.5,115.589851 4.41014913,118.5 8,118.5 L215,118.5 C218.589851,118.5 221.5,115.589851 221.5,112 L221.5,8 C221.5,4.41014913 218.589851,1.5 215,1.5 L8,1.5 Z" id="Rectangle" stroke="#000000" stroke-width="3" fill="#F8F5F5"></path>
            <text id="They-finalized" font-family="CourierNewPS-BoldMT, Courier New" font-size="28" font-weight="bold" fill="#000000">
                <tspan x="67.3945312" y="52">They</tspan>
                <tspan x="25.3876953" y="83">finalized</tspan>
            </text>
            <path d="M228,31.5 C224.410149,31.5 221.5,34.4101491 221.5,38 L221.5,82 C221.5,85.5898509 224.410149,88.5 228,88.5 L492,88.5 C495.589851,88.5 498.5,85.5898509 498.5,82 L498.5,38 C498.5,34.4101491 495.589851,31.5 492,31.5 L228,31.5 Z" id="Rectangle" stroke="#000000" stroke-width="3" fill="#F8F5F5"></path>
            <text id="PlayAgain" font-family="CourierNewPS-BoldMT, Courier New" font-size="34" font-weight="bold" fill="#000000">
                <tspan x="270" y="69">PlayAgain</tspan>
            </text>
            <path d="M503,1.5 C499.410149,1.5 496.5,4.41014913 496.5,8 L496.5,112 C496.5,115.589851 499.410149,118.5 503,118.5 L710,118.5 C713.589851,118.5 716.5,115.589851 716.5,112 L716.5,8 C716.5,4.41014913 713.589851,1.5 710,1.5 L503,1.5 Z" id="Rectangle" stroke="#000000" stroke-width="3" fill="#F8F5F5"></path>
            <text id="I-finalized" font-family="CourierNewPS-BoldMT, Courier New" font-size="28" font-weight="bold" fill="#000000">
                <tspan x="587.598633" y="52">I</tspan>
                <tspan x="520.387695" y="83">finalized</tspan>
            </text>
        </g>
        <g id="Group-4" transform="translate(191.000000, 655.000000)">
            <path d="M8,1.5 C4.41014913,1.5 1.5,4.41014913 1.5,8 L1.5,112 C1.5,115.589851 4.41014913,118.5 8,118.5 L215,118.5 C218.589851,118.5 221.5,115.589851 221.5,112 L221.5,8 C221.5,4.41014913 218.589851,1.5 215,1.5 L8,1.5 Z" id="Rectangle" stroke="#000000" stroke-width="3" fill="#F8F5F5"></path>
            <text id="They-finalized" font-family="CourierNewPS-BoldMT, Courier New" font-size="28" font-weight="bold" fill="#000000">
                <tspan x="74.3945312" y="43">They</tspan>
                <tspan x="32.3876953" y="74">finalized</tspan>
            </text>
            <path d="M228,31.5 C224.410149,31.5 221.5,34.4101491 221.5,38 L221.5,82 C221.5,85.5898509 224.410149,88.5 228,88.5 L492,88.5 C495.589851,88.5 498.5,85.5898509 498.5,82 L498.5,38 C498.5,34.4101491 495.589851,31.5 492,31.5 L228,31.5 Z" id="Rectangle" stroke="#000000" stroke-width="3" fill="#F8F5F5"></path>
            <text id="WaitToPlayAgain" font-family="CourierNewPS-BoldMT, Courier New" font-size="27" font-weight="bold" fill="#000000">
                <tspan x="240" y="69">WaitToPlayAgain</tspan>
            </text>
            <path d="M503,1.5 C499.410149,1.5 496.5,4.41014913 496.5,8 L496.5,112 C496.5,115.589851 499.410149,118.5 503,118.5 L710,118.5 C713.589851,118.5 716.5,115.589851 716.5,112 L716.5,8 C716.5,4.41014913 713.589851,1.5 710,1.5 L503,1.5 Z" id="Rectangle" stroke="#000000" stroke-width="3" fill="#F8F5F5"></path>
            <text id="I-finalized" font-family="CourierNewPS-BoldMT, Courier New" font-size="28" font-weight="bold" fill="#000000">
                <tspan x="587.598633" y="52">I</tspan>
                <tspan x="520.387695" y="83">finalized</tspan>
            </text>
        </g>
        <g id="Group" transform="translate(273.000000, 302.000000)">
            <rect id="Rectangle" fill="#C54235" x="0" y="0" width="80" height="40"></rect>
            <text id="Lose" fill="#000000" font-family="CourierNewPS-BoldMT, Courier New" font-size="27" font-weight="bold">
                <tspan x="8" y="28">Lose</tspan>
            </text>
        </g>
        <g id="Group-5" transform="translate(193.000000, 739.000000)">
            <g id="Group" fill="#000000">
                <rect id="Rectangle" x="0" y="0" width="99" height="33"></rect>
            </g>
            <text id="Enough$" fill="#FFFFFF" font-family="CourierNewPS-BoldMT, Courier New" font-size="21" font-weight="bold">
                <tspan x="6" y="22">Enough$</tspan>
            </text>
        </g>
        <g id="Group-3" transform="translate(412.000000, 302.000000)">
            <rect id="Rectangle" fill="#3581C5" x="0" y="0" width="80" height="40"></rect>
            <text id="Inc" fill="#000000" font-family="CourierNewPS-BoldMT, Courier New" font-size="27" font-weight="bold">
                <tspan x="16" y="28">Inc</tspan>
            </text>
        </g>
        <path d="M619,226.5 C615.410149,226.5 612.5,229.410149 612.5,233 L612.5,337 C612.5,340.589851 615.410149,343.5 619,343.5 L838,343.5 C841.589851,343.5 844.5,340.589851 844.5,337 L844.5,233 C844.5,229.410149 841.589851,226.5 838,226.5 L619,226.5 Z" id="Rectangle" stroke="#000000" stroke-width="3" fill="#F8F5F5"></path>
        <text id="OWait" font-family="CourierNewPS-BoldMT, Courier New" font-size="40" font-weight="bold" fill="#000000">
            <tspan x="663" y="278">OWait</tspan>
        </text>
        <g id="Group" transform="translate(613.000000, 302.000000)">
            <rect id="Rectangle" fill="#C54235" x="0" y="0" width="80" height="40"></rect>
            <text id="Lose" fill="#000000" font-family="CourierNewPS-BoldMT, Courier New" font-size="27" font-weight="bold">
                <tspan x="8" y="28">Lose</tspan>
            </text>
        </g>
        <g id="Group-3" transform="translate(763.000000, 302.000000)">
            <rect id="Rectangle" fill="#3581C5" x="0" y="0" width="80" height="40"></rect>
            <text id="Inc" fill="#000000" font-family="CourierNewPS-BoldMT, Courier New" font-size="27" font-weight="bold">
                <tspan x="16" y="28">Inc</tspan>
            </text>
        </g>
        <g id="Group-2" transform="translate(691.000000, 302.000000)">
            <rect id="Rectangle" fill="#C3C535" x="0" y="0" width="80" height="40"></rect>
            <text id="Draw" fill="#000000" font-family="CourierNewPS-BoldMT, Courier New" font-size="25" font-weight="bold">
                <tspan x="10" y="28">Draw</tspan>
            </text>
        </g>
        <path id="Path" d="M475.850964,68.5274641 L487.416225,73.6062903 C488.174735,73.9393864 488.519602,74.8243086 488.186506,75.5828193 C487.85341,76.34133 486.968488,76.6861966 486.209977,76.3531004 L469.401733,68.9718445 L469.144341,66.3698176 L484.180674,55.8384987 C484.859223,55.3632487 485.794562,55.5280553 486.269812,56.2066044 C486.745062,56.8851535 486.580256,57.8204926 485.901707,58.2957425 L475.555474,65.5421552 L485.690579,64.5398141 C537.439579,60.5054552 564.870535,70.7816174 567.235551,95.8395221 C568.822248,112.650961 544.955079,188.34209 495.408986,324.014546 C495.12481,324.792708 494.263615,325.193162 493.485454,324.908986 C492.707292,324.62481 492.306838,323.763615 492.591014,322.985454 C541.807855,188.21459 565.76881,112.226032 564.248824,96.1214154 C562.09449,73.2957329 536.235431,63.6084336 485.954825,67.527991 L475.850964,68.5274641 Z" fill="#3581C5" fill-rule="nonzero"></path>
        <path id="Path" d="M186.217054,66.1919639 L174.966969,60.4486775 C174.22913,60.0720026 173.936348,59.1685099 174.313023,58.4306702 C174.689698,57.6928304 175.59319,57.4000485 176.33103,57.7767235 L192.681216,66.1236651 L192.78674,68.7362615 L177.162997,78.374655 C176.457939,78.8096097 175.533777,78.5906482 175.098822,77.8855908 C174.663868,77.1805334 174.882829,76.2563711 175.587886,75.8214164 L186.338286,69.1894216 L176.169278,69.5999584 C79.8278878,75.3868023 32.1456537,116.877182 32.4999843,194.335623 C32.8750838,276.334244 86.8513342,463.970856 194.40813,756.983114 C194.693598,757.760803 194.294574,758.622661 193.516886,758.90813 C192.739197,759.193598 191.877339,758.794574 191.59187,758.016886 C83.901106,464.639662 29.8773565,276.83793 29.5000157,194.349346 C29.1377222,115.15018 78.1750491,72.4806747 176.018804,66.6038791 L186.217054,66.1919639 Z" fill="#000000" fill-rule="nonzero"></path>
        <path id="Path" d="M864.092447,260.876734 C907.141759,256.175889 930.215852,265.728275 932.493363,289.859053 C934.086521,306.738937 908.128497,371.738838 854.357122,485.953951 C854.004257,486.703469 853.110598,487.025019 852.36108,486.672153 C851.611562,486.319287 851.290012,485.425629 851.642878,484.676111 C904.978187,371.387238 931.020163,306.177118 929.506637,290.140947 C927.435847,268.200435 906.049673,259.327689 864.529597,263.846745 L865.686089,271.705066 L845.505329,265.072802 L862.919595,252.907552 L864.092447,260.876734 Z" fill="#000000" fill-rule="nonzero"></path>
        <path id="Path" d="M290.125069,636.534231 L289.485939,605.030425 C289.469135,604.202168 290.126948,603.517112 290.955205,603.500309 C291.783462,603.483505 292.468518,604.141318 292.485321,604.969575 L293.124452,636.473381 L301.122806,636.311115 L292.010142,655.499897 L282.126715,636.696497 L290.125069,636.534231 Z" fill="#000000" fill-rule="nonzero"></path>
        <path id="Path" d="M792.5,867 L750.5,867 C749.671573,867 749,866.328427 749,865.5 C749,864.671573 749.671573,864 750.5,864 L792.5,864 L792.5,856 L811.5,865.5 L792.5,875 L792.5,867 Z" fill="#000000" fill-rule="nonzero"></path>
        <path id="Path" d="M789.581802,609.755712 L783.61374,620.888186 C783.222323,621.618312 782.313133,621.892891 781.583007,621.501474 C780.852881,621.110057 780.578303,620.200866 780.969719,619.47074 L789.643336,603.291483 L792.257525,603.238448 L801.580205,619.052607 C802.000912,619.766257 801.763435,620.685836 801.049785,621.106543 C800.336135,621.527251 799.416556,621.289774 798.995849,620.576123 L792.581185,609.694863 L792.788822,619.929619 L793.499691,654.969575 C793.516495,655.797832 792.858682,656.482888 792.030425,656.499691 C791.202168,656.516495 790.517112,655.858682 790.500309,655.030425 L789.789439,619.990468 L789.581802,609.755712 Z" fill="#000000" fill-rule="nonzero"></path>
        <path id="Path" d="M923.25937,864 L912.250238,857.807363 C911.528201,857.401218 911.272121,856.486645 911.678267,855.764608 C912.084412,855.042571 912.998985,854.786491 913.721022,855.192637 L929.721022,864.192637 L929.721022,866.807363 L913.721022,875.807363 C912.998985,876.213509 912.084412,875.957429 911.678267,875.235392 C911.272121,874.513355 911.528201,873.598782 912.250238,873.192637 L923.25937,867 L912.98563,867 L871.5,867 C870.671573,867 870,866.328427 870,865.5 C870,864.671573 870.671573,864 871.5,864 L912.98563,864 L923.25937,864 Z" fill="#000000" fill-rule="nonzero"></path>
        <path id="Path" d="M674.059695,784.507404 C345.316494,944.760536 143.7783,961.697091 69.7038842,834.539374 C39.7228986,783.073377 30.8804053,705.298628 45.4306147,614.223283 C61.0041349,516.742643 102.367509,408.7218 167.494608,301.222755 C192.758908,259.521402 244.271515,207.081058 322.053689,143.836172 C322.696453,143.313539 323.641194,143.410924 324.163828,144.053689 C324.686461,144.696453 324.589076,145.641194 323.946311,146.163828 C246.408992,209.209622 195.106619,261.435946 170.060453,302.777245 C105.127255,409.956236 63.9030129,517.613734 48.3930474,614.696561 C33.9431632,705.143932 42.708291,782.238207 72.2961158,833.029296 C145.23786,958.242645 345.298046,941.430594 672.735433,781.815481 L669.20645,774.641862 L690.448651,774.779291 L677.593387,791.690594 L674.059695,784.507404 Z" fill="#C3C535" fill-rule="nonzero"></path>
        <path id="Path" d="M674.059695,784.507404 C345.316494,944.760536 143.7783,961.697091 69.7038842,834.539374 C-5.39536291,705.62241 49.3746014,475.593792 233.689178,144.270791 C234.091909,143.546844 235.005262,143.286447 235.729209,143.689178 C236.453156,144.091909 236.713553,145.005262 236.310822,145.729209 C52.4787655,476.184834 -2.08460362,705.345772 72.2961158,833.029296 C145.23786,958.242645 345.298046,941.430594 672.735433,781.815481 L669.20645,774.641862 L690.448651,774.779291 L677.593387,791.690594 L674.059695,784.507404 Z" fill="#35C537" fill-rule="nonzero"></path>
        <path id="Path" d="M926.912023,697.097849 C948.084103,691.529367 969.147784,680.443248 990.103995,663.824702 C1026.3743,635.061879 998.67509,461.599929 906.559873,145.419563 C906.328154,144.624203 906.785076,143.791591 907.580437,143.559873 C908.375797,143.328154 909.208409,143.785076 909.440127,144.580437 C1002.1881,462.932691 1029.84623,636.137408 991.968048,666.175298 C970.627712,683.098461 949.121453,694.397717 927.45021,700.058124 L928.900917,708.037673 L908.508064,702.089436 L925.502366,689.344095 L926.912023,697.097849 Z" fill="#35C537" fill-rule="nonzero"></path>
        <path id="Path" d="M912.864967,68.4589708 L924.500682,73.37424 C925.263814,73.6966092 925.621122,74.5765813 925.298753,75.3397128 C924.976384,76.1028442 924.096412,76.4601526 923.33328,76.1377834 L906.422643,68.9942314 L906.128591,66.3960918 L921.014955,55.6538306 C921.686736,55.1690613 922.624306,55.3206646 923.109075,55.992446 C923.593844,56.6642275 923.442241,57.601797 922.77046,58.0865663 L912.527279,65.4782253 L922.652978,64.3326287 C966.616958,60.6028127 990.16572,70.923676 992.493363,95.5856158 C994.103035,112.640475 945.627307,189.07205 846.161618,326.888504 C845.676801,327.560251 844.73922,327.711788 844.067474,327.226971 C843.395727,326.742154 843.24419,325.804573 843.729007,325.132826 C942.109586,188.819866 991.003648,111.728705 989.506637,95.8675092 C987.37901,73.3247988 965.447625,63.7127934 922.948469,67.317744 L912.864967,68.4589708 Z" fill="#3581C5" fill-rule="nonzero"></path>
        <path id="Path-2" d="M429.5,206.5 L429.5,145 L432.5,145 L432.5,206.5 L440.5,206.5 L431,225.5 L421.5,206.5 L429.5,206.5 Z" fill="#3581C5" fill-rule="nonzero"></path>
        <path id="Path-2" d="M673,206.5 L673,145 L676,145 L676,206.5 L684,206.5 L674.5,225.5 L665,206.5 L673,206.5 Z" fill="#3581C5" fill-rule="nonzero"></path>
        <path id="Path-3" d="M293.5,480.27374 L299.692637,469.264608 L302.307363,470.735392 L293.307363,486.735392 L292,489.059593 L290.692637,486.735392 L281.692637,470.735392 L284.307363,469.264608 L290.5,480.27374 L290.5,470 L290.5,345 L293.5,345 L293.5,470 L293.5,480.27374 Z" fill="#C54235" fill-rule="nonzero"></path>
        <path id="Path-4" d="M293.175386,480.182739 L298.605643,468.778265 L301.314266,470.067979 L293.422261,486.642546 L292.275848,489.050211 L290.813578,486.820216 L280.747185,471.468742 L283.255929,469.823688 L290.183342,480.388148 L289.487498,470.141988 C289.270272,432.630776 308.004171,406.56875 345.462817,392.20105 C353.522539,389.10965 367.316091,387.598503 388.311617,387.174936 C404.18213,386.854761 415.797074,387.014153 457.444863,387.894201 C507.972231,388.961881 536.385637,389.113175 568.511493,387.969217 C590.943236,387.170454 611.610146,385.723792 630.828335,383.509855 C648.139794,381.515574 656.330853,368.913944 655.500906,345.052141 L658.499094,344.947859 C659.378402,370.22888 650.236128,384.293917 631.171665,386.490145 C611.869042,388.713809 591.124602,390.165897 568.618251,390.967317 C536.419298,392.113878 507.962981,391.962356 457.381485,390.893532 C415.785422,390.014576 404.182928,389.855356 388.372127,390.174325 C367.717352,390.591018 354.167175,392.075502 346.537183,395.002075 C310.218742,408.932435 292.277624,433.891569 292.484006,470.031377 L293.175386,480.182739 Z" fill="#C54235" fill-rule="nonzero"></path>
        <g id="Group-5" transform="translate(807.000000, 488.000000)">
            <g id="Group" fill="#000000">
                <rect id="Rectangle" x="0" y="0" width="99" height="33"></rect>
            </g>
            <text id="Enough$" fill="#FFFFFF" font-family="CourierNewPS-BoldMT, Courier New" font-size="21" font-weight="bold">
                <tspan x="6" y="22">Enough$</tspan>
            </text>
        </g>
        <text id="Send" fill="#000000" font-family="Verdana" font-size="24" font-weight="normal" line-spacing="36">
            <tspan x="750" y="901">Send</tspan>
        </text>
        <text id="Key:" fill="#000000" font-family="Verdana" font-size="24" font-weight="normal" line-spacing="36">
            <tspan x="670" y="901">Key:</tspan>
        </text>
        <text id="Receive" stroke="#000000" stroke-width="3" fill="#FFFFFF" font-family="Verdana-Italic, Verdana" font-size="24" font-style="italic" font-weight="normal" line-spacing="36">
            <tspan x="838" y="901">Receive</tspan>
        </text>
        <text id="0" fill="#3581C5" font-family="Arial-BoldMT, Arial" font-size="28" font-weight="bold">
            <tspan x="404.213867" y="173">0</tspan>
        </text>
        <text id="4" fill="#000000" font-family="Arial-BoldMT, Arial" font-size="28" font-weight="bold">
            <tspan x="264.213867" y="633">4</tspan>
        </text>
        <text id="4" stroke="#000000" stroke-width="3" fill="#FFFFFF" font-family="Arial-BoldMT, Arial" font-size="28" font-weight="bold">
            <tspan x="758.213867" y="645">4</tspan>
        </text>
        <text id="5" fill="#000000" font-family="Arial-BoldMT, Arial" font-size="28" font-weight="bold">
            <tspan x="834.213867" y="473">5</tspan>
        </text>
        <text id="5" stroke="#000000" stroke-width="3" fill="#FFFFFF" font-family="Arial-BoldMT, Arial" font-size="28" font-weight="bold">
            <tspan x="164.213867" y="763">5</tspan>
        </text>
        <text id="2" fill="#35C537" font-family="Arial-BoldMT, Arial" font-size="28" font-weight="bold">
            <tspan x="194.213867" y="173">2</tspan>
        </text>
        <text id="2" fill="#35C537" font-family="Arial-BoldMT, Arial" font-size="28" font-weight="bold">
            <tspan x="884.213867" y="173">2</tspan>
        </text>
        <text id="2" fill="#C3C535" font-family="Arial-BoldMT, Arial" font-size="28" font-weight="bold">
            <tspan x="264.213867" y="173">2</tspan>
        </text>
        <text id="1" fill="#3581C5" font-family="Arial-BoldMT, Arial" font-size="28" font-weight="bold">
            <tspan x="649.213867" y="173">1</tspan>
        </text>
        <text id="2" stroke="#C54235" stroke-width="3" fill="#FFFFFF" font-family="Arial-BoldMT, Arial" font-size="28" font-weight="bold">
            <tspan x="624.213867" y="374">2</tspan>
        </text>
        <text id="2" stroke="#C54235" stroke-width="3" fill="#FFFFFF" font-family="Arial-BoldMT, Arial" font-size="28" font-weight="bold">
            <tspan x="264.213867" y="374">2</tspan>
        </text>
        <text id="1" stroke="#3581C5" stroke-width="3" fill="#FFFFFF" font-family="Arial-BoldMT, Arial" font-size="28" font-weight="bold">
            <tspan x="514.213867" y="324">1</tspan>
        </text>
        <text id="0" stroke="#3581C5" stroke-width="3" fill="#FFFFFF" font-family="Arial-BoldMT, Arial" font-size="28" font-weight="bold">
            <tspan x="874.213867" y="324">0</tspan>
        </text>
        <text id="2" stroke="#C54235" stroke-width="3" fill="#FFFFFF" font-family="Arial-BoldMT, Arial" font-size="28" font-weight="bold">
            <tspan x="624.213867" y="374">2</tspan>
        </text>
        <text id="3" stroke="#C3C535" stroke-width="3" fill="#FFFFFF" font-family="Arial-BoldMT, Arial" font-size="28" font-weight="bold">
            <tspan x="734.213867" y="374">3</tspan>
        </text>
    </g>
</svg>