<?xml version="1.0" encoding="UTF-8"?>
<svg width="150px" height="150px" viewBox="0 0 150 150" version="1.1" xmlns="http://www.w3.org/2000/svg" xmlns:xlink="http://www.w3.org/1999/xlink">
    <!-- Generator: Sketch 57.1 (83088) - https://sketch.com -->
    <title>Slice</title>
    <desc>Created with Sketch.</desc>
    <g id="Page-1" stroke="none" stroke-width="1" fill="none" fill-rule="evenodd">
        <g id="gas" transform="translate(0.000000, 9.000000)">
            <path d="M44.3507812,19.4109375 C39.7757812,19.4109375 36.0782812,22.4704688 36.0782812,26.2558594 L36.0782812,33.6546094 L36.0782812,105.980391 L36.0782812,127.068984 L102.197812,127.068984 L102.197812,105.980391 L102.197812,33.6546094 L102.197812,26.2558594 C102.197812,22.4702344 98.5003125,19.4109375 93.9253125,19.4109375 L44.3503125,19.4109375 L44.3507812,19.4109375 Z" id="rect3606" fill="#000000"></path>
            <rect id="rect3611" fill="#000000" x="25.78125" y="123.499219" width="86.0226563" height="14.7829687"></rect>
            <rect id="rect3613" fill="#EEEEEE" x="43.6734375" y="35.9835937" width="48.1734375" height="20.1049219"></rect>
            <path d="M101.416406,68.6226563 L112.597031,68.6226563 C112.442438,68.6226563 111.96593,99.2976562 112.597031,110.953125 C112.992094,118.249219 129.367969,115.883906 129.367969,110.32132 L129.367969,55.9861641" id="path3615" stroke="#3A3737" stroke-width="1.4032"></path>
            <path d="M116.484375,40.659375 C136.561406,44.825625 127.733672,57.1000781 131.244609,62.9071875" id="path3619" stroke="#000000" stroke-width="2.007"></path>
            <path d="M133.087972,56.6074559 C133.087972,61.5886323 130.336717,65.6285281 126.939933,65.6352532 C123.54315,65.6419615 120.78451,61.6129606 120.775291,56.6318025 C120.766119,51.6506445 123.509843,47.5998004 126.906602,47.579472 C130.303361,47.559296 133.069456,51.5772893 133.087972,56.5583923 L126.931611,56.6074559 L133.087972,56.6074559 Z" id="path3621" stroke="#000000" stroke-width="1.01015391" fill="#EEEEEE" stroke-linecap="round" stroke-linejoin="round" transform="translate(126.931632, 56.607363) rotate(-21.290033) translate(-126.931632, -56.607363) "></path>
            <rect id="rect3604" fill="#000000" fill-rule="nonzero" opacity="0" x="0" y="0" width="150" height="150"></rect>
        </g>
    </g>
</svg>