<?xml version="1.0" encoding="utf-8" standalone="no"?>
<!DOCTYPE svg PUBLIC "-//W3C//DTD SVG 1.1//EN"
  "http://www.w3.org/Graphics/SVG/1.1/DTD/svg11.dtd">
<!-- Created with matplotlib (http://matplotlib.org/) -->
<svg height="432pt" version="1.1" viewBox="0 0 576 432" width="576pt" xmlns="http://www.w3.org/2000/svg" xmlns:xlink="http://www.w3.org/1999/xlink">
 <defs>
  <style type="text/css">
*{stroke-linecap:butt;stroke-linejoin:round;}
  </style>
 </defs>
 <g id="figure_1">
  <g id="patch_1">
   <path d="
M0 432
L576 432
L576 0
L0 0
z
" style="fill:#ffffff;"/>
  </g>
  <g id="axes_1">
   <g id="patch_2">
    <path d="
M48.0741 402.44
L563.04 402.44
L563.04 19.26
L48.0741 19.26
z
" style="fill:#ffffff;"/>
   </g>
   <g id="line2d_1">
    <path clip-path="url(#pd083398c92)" d="
M133.902 367.715
L133.902 368.265" style="fill:none;stroke:#0000ff;stroke-dasharray:6.000000,6.000000;stroke-dashoffset:0.0;"/>
   </g>
   <g id="line2d_2">
    <path clip-path="url(#pd083398c92)" d="
M133.902 363.262
L133.902 356.783" style="fill:none;stroke:#0000ff;stroke-dasharray:6.000000,6.000000;stroke-dashoffset:0.0;"/>
   </g>
   <g id="line2d_3">
    <path clip-path="url(#pd083398c92)" d="
M121.028 356.783
L146.776 356.783" style="fill:none;stroke:#000000;stroke-linecap:square;"/>
   </g>
   <g id="line2d_4">
    <path clip-path="url(#pd083398c92)" d="
M121.028 368.265
L146.776 368.265" style="fill:none;stroke:#000000;stroke-linecap:square;"/>
   </g>
   <g id="line2d_5">
    <path clip-path="url(#pd083398c92)" d="
M108.153 367.715
L159.65 367.715
L159.65 363.262
L108.153 363.262
L108.153 367.715" style="fill:none;stroke:#0000ff;stroke-linecap:square;"/>
   </g>
   <g id="line2d_6">
    <path clip-path="url(#pd083398c92)" d="
M108.153 366.559
L159.65 366.559" style="fill:none;stroke:#ff0000;stroke-linecap:square;"/>
   </g>
   <g id="line2d_7">
    <defs>
     <path d="
M-3 0
L3 0
M0 3
L0 -3" id="md4acab13e0" style="stroke:#0000ff;stroke-width:0.5;"/>
    </defs>
    <g clip-path="url(#pd083398c92)">
     <use style="fill:#0000ff;stroke:#0000ff;stroke-width:0.5;" x="133.90171875" xlink:href="#md4acab13e0" y="352.582297093"/>
     <use style="fill:#0000ff;stroke:#0000ff;stroke-width:0.5;" x="133.90171875" xlink:href="#md4acab13e0" y="356.465643927"/>
     <use style="fill:#0000ff;stroke:#0000ff;stroke-width:0.5;" x="133.90171875" xlink:href="#md4acab13e0" y="356.35444874"/>
     <use style="fill:#0000ff;stroke:#0000ff;stroke-width:0.5;" x="133.90171875" xlink:href="#md4acab13e0" y="350.380855007"/>
     <use style="fill:#0000ff;stroke:#0000ff;stroke-width:0.5;" x="133.90171875" xlink:href="#md4acab13e0" y="348.833738387"/>
     <use style="fill:#0000ff;stroke:#0000ff;stroke-width:0.5;" x="133.90171875" xlink:href="#md4acab13e0" y="354.30706326"/>
     <use style="fill:#0000ff;stroke:#0000ff;stroke-width:0.5;" x="133.90171875" xlink:href="#md4acab13e0" y="355.195201513"/>
     <use style="fill:#0000ff;stroke:#0000ff;stroke-width:0.5;" x="133.90171875" xlink:href="#md4acab13e0" y="356.341493607"/>
     <use style="fill:#0000ff;stroke:#0000ff;stroke-width:0.5;" x="133.90171875" xlink:href="#md4acab13e0" y="348.620252387"/>
     <use style="fill:#0000ff;stroke:#0000ff;stroke-width:0.5;" x="133.90171875" xlink:href="#md4acab13e0" y="346.30703122"/>
     <use style="fill:#0000ff;stroke:#0000ff;stroke-width:0.5;" x="133.90171875" xlink:href="#md4acab13e0" y="342.528803433"/>
     <use style="fill:#0000ff;stroke:#0000ff;stroke-width:0.5;" x="133.90171875" xlink:href="#md4acab13e0" y="356.173843233"/>
     <use style="fill:#0000ff;stroke:#0000ff;stroke-width:0.5;" x="133.90171875" xlink:href="#md4acab13e0" y="328.089905907"/>
     <use style="fill:#0000ff;stroke:#0000ff;stroke-width:0.5;" x="133.90171875" xlink:href="#md4acab13e0" y="344.80846898"/>
     <use style="fill:#0000ff;stroke:#0000ff;stroke-width:0.5;" x="133.90171875" xlink:href="#md4acab13e0" y="335.252379453"/>
     <use style="fill:#0000ff;stroke:#0000ff;stroke-width:0.5;" x="133.90171875" xlink:href="#md4acab13e0" y="302.54048532"/>
     <use style="fill:#0000ff;stroke:#0000ff;stroke-width:0.5;" x="133.90171875" xlink:href="#md4acab13e0" y="351.055562"/>
     <use style="fill:#0000ff;stroke:#0000ff;stroke-width:0.5;" x="133.90171875" xlink:href="#md4acab13e0" y="353.480945427"/>
     <use style="fill:#0000ff;stroke:#0000ff;stroke-width:0.5;" x="133.90171875" xlink:href="#md4acab13e0" y="355.44554578"/>
     <use style="fill:#0000ff;stroke:#0000ff;stroke-width:0.5;" x="133.90171875" xlink:href="#md4acab13e0" y="351.3322727"/>
     <use style="fill:#0000ff;stroke:#0000ff;stroke-width:0.5;" x="133.90171875" xlink:href="#md4acab13e0" y="355.489246547"/>
     <use style="fill:#0000ff;stroke:#0000ff;stroke-width:0.5;" x="133.90171875" xlink:href="#md4acab13e0" y="354.94604328"/>
     <use style="fill:#0000ff;stroke:#0000ff;stroke-width:0.5;" x="133.90171875" xlink:href="#md4acab13e0" y="356.043160607"/>
     <use style="fill:#0000ff;stroke:#0000ff;stroke-width:0.5;" x="133.90171875" xlink:href="#md4acab13e0" y="346.52982302"/>
     <use style="fill:#0000ff;stroke:#0000ff;stroke-width:0.5;" x="133.90171875" xlink:href="#md4acab13e0" y="347.183655827"/>
     <use style="fill:#0000ff;stroke:#0000ff;stroke-width:0.5;" x="133.90171875" xlink:href="#md4acab13e0" y="354.06823264"/>
     <use style="fill:#0000ff;stroke:#0000ff;stroke-width:0.5;" x="133.90171875" xlink:href="#md4acab13e0" y="356.45013426"/>
     <use style="fill:#0000ff;stroke:#0000ff;stroke-width:0.5;" x="133.90171875" xlink:href="#md4acab13e0" y="337.403424247"/>
     <use style="fill:#0000ff;stroke:#0000ff;stroke-width:0.5;" x="133.90171875" xlink:href="#md4acab13e0" y="353.749791813"/>
     <use style="fill:#0000ff;stroke:#0000ff;stroke-width:0.5;" x="133.90171875" xlink:href="#md4acab13e0" y="355.874853353"/>
     <use style="fill:#0000ff;stroke:#0000ff;stroke-width:0.5;" x="133.90171875" xlink:href="#md4acab13e0" y="354.455645867"/>
     <use style="fill:#0000ff;stroke:#0000ff;stroke-width:0.5;" x="133.90171875" xlink:href="#md4acab13e0" y="354.137843673"/>
     <use style="fill:#0000ff;stroke:#0000ff;stroke-width:0.5;" x="133.90171875" xlink:href="#md4acab13e0" y="355.98528218"/>
     <use style="fill:#0000ff;stroke:#0000ff;stroke-width:0.5;" x="133.90171875" xlink:href="#md4acab13e0" y="334.55079512"/>
     <use style="fill:#0000ff;stroke:#0000ff;stroke-width:0.5;" x="133.90171875" xlink:href="#md4acab13e0" y="328.238816953"/>
     <use style="fill:#0000ff;stroke:#0000ff;stroke-width:0.5;" x="133.90171875" xlink:href="#md4acab13e0" y="355.354257707"/>
     <use style="fill:#0000ff;stroke:#0000ff;stroke-width:0.5;" x="133.90171875" xlink:href="#md4acab13e0" y="354.506991987"/>
     <use style="fill:#0000ff;stroke:#0000ff;stroke-width:0.5;" x="133.90171875" xlink:href="#md4acab13e0" y="356.288906713"/>
     <use style="fill:#0000ff;stroke:#0000ff;stroke-width:0.5;" x="133.90171875" xlink:href="#md4acab13e0" y="354.567826373"/>
     <use style="fill:#0000ff;stroke:#0000ff;stroke-width:0.5;" x="133.90171875" xlink:href="#md4acab13e0" y="353.086069313"/>
     <use style="fill:#0000ff;stroke:#0000ff;stroke-width:0.5;" x="133.90171875" xlink:href="#md4acab13e0" y="355.984150887"/>
     <use style="fill:#0000ff;stroke:#0000ff;stroke-width:0.5;" x="133.90171875" xlink:href="#md4acab13e0" y="354.994907853"/>
     <use style="fill:#0000ff;stroke:#0000ff;stroke-width:0.5;" x="133.90171875" xlink:href="#md4acab13e0" y="355.992088187"/>
     <use style="fill:#0000ff;stroke:#0000ff;stroke-width:0.5;" x="133.90171875" xlink:href="#md4acab13e0" y="352.3019918"/>
     <use style="fill:#0000ff;stroke:#0000ff;stroke-width:0.5;" x="133.90171875" xlink:href="#md4acab13e0" y="356.56065432"/>
    </g>
   </g>
   <g id="line2d_8">
    <g clip-path="url(#pd083398c92)">
     <use style="fill:#0000ff;stroke:#0000ff;stroke-width:0.5;" x="133.90171875" xlink:href="#md4acab13e0" y="18612.8096127"/>
    </g>
   </g>
   <g id="line2d_9">
    <path clip-path="url(#pd083398c92)" d="
M305.557 368.176
L305.557 368.908" style="fill:none;stroke:#0000ff;stroke-dasharray:6.000000,6.000000;stroke-dashoffset:0.0;"/>
   </g>
   <g id="line2d_10">
    <path clip-path="url(#pd083398c92)" d="
M305.557 362.575
L305.557 354.351" style="fill:none;stroke:#0000ff;stroke-dasharray:6.000000,6.000000;stroke-dashoffset:0.0;"/>
   </g>
   <g id="line2d_11">
    <path clip-path="url(#pd083398c92)" d="
M292.683 354.351
L318.431 354.351" style="fill:none;stroke:#000000;stroke-linecap:square;"/>
   </g>
   <g id="line2d_12">
    <path clip-path="url(#pd083398c92)" d="
M292.683 368.908
L318.431 368.908" style="fill:none;stroke:#000000;stroke-linecap:square;"/>
   </g>
   <g id="line2d_13">
    <path clip-path="url(#pd083398c92)" d="
M279.809 368.176
L331.305 368.176
L331.305 362.575
L279.809 362.575
L279.809 368.176" style="fill:none;stroke:#0000ff;stroke-linecap:square;"/>
   </g>
   <g id="line2d_14">
    <path clip-path="url(#pd083398c92)" d="
M279.809 366.998
L331.305 366.998" style="fill:none;stroke:#ff0000;stroke-linecap:square;"/>
   </g>
   <g id="line2d_15">
    <g clip-path="url(#pd083398c92)">
     <use style="fill:#0000ff;stroke:#0000ff;stroke-width:0.5;" x="305.55703125" xlink:href="#md4acab13e0" y="238.0152724"/>
     <use style="fill:#0000ff;stroke:#0000ff;stroke-width:0.5;" x="305.55703125" xlink:href="#md4acab13e0" y="341.140469307"/>
     <use style="fill:#0000ff;stroke:#0000ff;stroke-width:0.5;" x="305.55703125" xlink:href="#md4acab13e0" y="353.137196473"/>
     <use style="fill:#0000ff;stroke:#0000ff;stroke-width:0.5;" x="305.55703125" xlink:href="#md4acab13e0" y="351.132435207"/>
     <use style="fill:#0000ff;stroke:#0000ff;stroke-width:0.5;" x="305.55703125" xlink:href="#md4acab13e0" y="342.02652744"/>
     <use style="fill:#0000ff;stroke:#0000ff;stroke-width:0.5;" x="305.55703125" xlink:href="#md4acab13e0" y="344.82226346"/>
     <use style="fill:#0000ff;stroke:#0000ff;stroke-width:0.5;" x="305.55703125" xlink:href="#md4acab13e0" y="327.78602592"/>
     <use style="fill:#0000ff;stroke:#0000ff;stroke-width:0.5;" x="305.55703125" xlink:href="#md4acab13e0" y="348.649009133"/>
     <use style="fill:#0000ff;stroke:#0000ff;stroke-width:0.5;" x="305.55703125" xlink:href="#md4acab13e0" y="295.646876407"/>
     <use style="fill:#0000ff;stroke:#0000ff;stroke-width:0.5;" x="305.55703125" xlink:href="#md4acab13e0" y="315.542895767"/>
     <use style="fill:#0000ff;stroke:#0000ff;stroke-width:0.5;" x="305.55703125" xlink:href="#md4acab13e0" y="328.4602585"/>
     <use style="fill:#0000ff;stroke:#0000ff;stroke-width:0.5;" x="305.55703125" xlink:href="#md4acab13e0" y="342.04880662"/>
     <use style="fill:#0000ff;stroke:#0000ff;stroke-width:0.5;" x="305.55703125" xlink:href="#md4acab13e0" y="306.835075527"/>
     <use style="fill:#0000ff;stroke:#0000ff;stroke-width:0.5;" x="305.55703125" xlink:href="#md4acab13e0" y="214.58501968"/>
     <use style="fill:#0000ff;stroke:#0000ff;stroke-width:0.5;" x="305.55703125" xlink:href="#md4acab13e0" y="339.753594913"/>
     <use style="fill:#0000ff;stroke:#0000ff;stroke-width:0.5;" x="305.55703125" xlink:href="#md4acab13e0" y="338.125061667"/>
     <use style="fill:#0000ff;stroke:#0000ff;stroke-width:0.5;" x="305.55703125" xlink:href="#md4acab13e0" y="347.052608267"/>
     <use style="fill:#0000ff;stroke:#0000ff;stroke-width:0.5;" x="305.55703125" xlink:href="#md4acab13e0" y="299.030921453"/>
     <use style="fill:#0000ff;stroke:#0000ff;stroke-width:0.5;" x="305.55703125" xlink:href="#md4acab13e0" y="349.964575553"/>
     <use style="fill:#0000ff;stroke:#0000ff;stroke-width:0.5;" x="305.55703125" xlink:href="#md4acab13e0" y="349.4221204"/>
     <use style="fill:#0000ff;stroke:#0000ff;stroke-width:0.5;" x="305.55703125" xlink:href="#md4acab13e0" y="353.933608733"/>
     <use style="fill:#0000ff;stroke:#0000ff;stroke-width:0.5;" x="305.55703125" xlink:href="#md4acab13e0" y="347.10212972"/>
     <use style="fill:#0000ff;stroke:#0000ff;stroke-width:0.5;" x="305.55703125" xlink:href="#md4acab13e0" y="268.577344267"/>
     <use style="fill:#0000ff;stroke:#0000ff;stroke-width:0.5;" x="305.55703125" xlink:href="#md4acab13e0" y="351.259596227"/>
     <use style="fill:#0000ff;stroke:#0000ff;stroke-width:0.5;" x="305.55703125" xlink:href="#md4acab13e0" y="350.387150107"/>
     <use style="fill:#0000ff;stroke:#0000ff;stroke-width:0.5;" x="305.55703125" xlink:href="#md4acab13e0" y="333.53854304"/>
     <use style="fill:#0000ff;stroke:#0000ff;stroke-width:0.5;" x="305.55703125" xlink:href="#md4acab13e0" y="348.497653033"/>
     <use style="fill:#0000ff;stroke:#0000ff;stroke-width:0.5;" x="305.55703125" xlink:href="#md4acab13e0" y="337.10485404"/>
     <use style="fill:#0000ff;stroke:#0000ff;stroke-width:0.5;" x="305.55703125" xlink:href="#md4acab13e0" y="353.474595587"/>
     <use style="fill:#0000ff;stroke:#0000ff;stroke-width:0.5;" x="305.55703125" xlink:href="#md4acab13e0" y="352.496118087"/>
     <use style="fill:#0000ff;stroke:#0000ff;stroke-width:0.5;" x="305.55703125" xlink:href="#md4acab13e0" y="342.899977127"/>
     <use style="fill:#0000ff;stroke:#0000ff;stroke-width:0.5;" x="305.55703125" xlink:href="#md4acab13e0" y="345.80621496"/>
     <use style="fill:#0000ff;stroke:#0000ff;stroke-width:0.5;" x="305.55703125" xlink:href="#md4acab13e0" y="350.433314173"/>
     <use style="fill:#0000ff;stroke:#0000ff;stroke-width:0.5;" x="305.55703125" xlink:href="#md4acab13e0" y="334.84934708"/>
     <use style="fill:#0000ff;stroke:#0000ff;stroke-width:0.5;" x="305.55703125" xlink:href="#md4acab13e0" y="343.32988684"/>
     <use style="fill:#0000ff;stroke:#0000ff;stroke-width:0.5;" x="305.55703125" xlink:href="#md4acab13e0" y="344.56837934"/>
     <use style="fill:#0000ff;stroke:#0000ff;stroke-width:0.5;" x="305.55703125" xlink:href="#md4acab13e0" y="348.406456193"/>
     <use style="fill:#0000ff;stroke:#0000ff;stroke-width:0.5;" x="305.55703125" xlink:href="#md4acab13e0" y="350.987939853"/>
     <use style="fill:#0000ff;stroke:#0000ff;stroke-width:0.5;" x="305.55703125" xlink:href="#md4acab13e0" y="309.212762167"/>
     <use style="fill:#0000ff;stroke:#0000ff;stroke-width:0.5;" x="305.55703125" xlink:href="#md4acab13e0" y="354.130161827"/>
     <use style="fill:#0000ff;stroke:#0000ff;stroke-width:0.5;" x="305.55703125" xlink:href="#md4acab13e0" y="348.002675707"/>
     <use style="fill:#0000ff;stroke:#0000ff;stroke-width:0.5;" x="305.55703125" xlink:href="#md4acab13e0" y="352.461431173"/>
     <use style="fill:#0000ff;stroke:#0000ff;stroke-width:0.5;" x="305.55703125" xlink:href="#md4acab13e0" y="350.185560933"/>
     <use style="fill:#0000ff;stroke:#0000ff;stroke-width:0.5;" x="305.55703125" xlink:href="#md4acab13e0" y="353.015217507"/>
     <use style="fill:#0000ff;stroke:#0000ff;stroke-width:0.5;" x="305.55703125" xlink:href="#md4acab13e0" y="350.396017987"/>
     <use style="fill:#0000ff;stroke:#0000ff;stroke-width:0.5;" x="305.55703125" xlink:href="#md4acab13e0" y="302.42027628"/>
     <use style="fill:#0000ff;stroke:#0000ff;stroke-width:0.5;" x="305.55703125" xlink:href="#md4acab13e0" y="351.992637813"/>
     <use style="fill:#0000ff;stroke:#0000ff;stroke-width:0.5;" x="305.55703125" xlink:href="#md4acab13e0" y="350.261102133"/>
     <use style="fill:#0000ff;stroke:#0000ff;stroke-width:0.5;" x="305.55703125" xlink:href="#md4acab13e0" y="348.612534047"/>
     <use style="fill:#0000ff;stroke:#0000ff;stroke-width:0.5;" x="305.55703125" xlink:href="#md4acab13e0" y="351.57099384"/>
     <use style="fill:#0000ff;stroke:#0000ff;stroke-width:0.5;" x="305.55703125" xlink:href="#md4acab13e0" y="349.388163353"/>
     <use style="fill:#0000ff;stroke:#0000ff;stroke-width:0.5;" x="305.55703125" xlink:href="#md4acab13e0" y="327.077179413"/>
     <use style="fill:#0000ff;stroke:#0000ff;stroke-width:0.5;" x="305.55703125" xlink:href="#md4acab13e0" y="352.038272727"/>
     <use style="fill:#0000ff;stroke:#0000ff;stroke-width:0.5;" x="305.55703125" xlink:href="#md4acab13e0" y="174.946325947"/>
     <use style="fill:#0000ff;stroke:#0000ff;stroke-width:0.5;" x="305.55703125" xlink:href="#md4acab13e0" y="304.66144136"/>
     <use style="fill:#0000ff;stroke:#0000ff;stroke-width:0.5;" x="305.55703125" xlink:href="#md4acab13e0" y="349.18060752"/>
     <use style="fill:#0000ff;stroke:#0000ff;stroke-width:0.5;" x="305.55703125" xlink:href="#md4acab13e0" y="340.690232807"/>
     <use style="fill:#0000ff;stroke:#0000ff;stroke-width:0.5;" x="305.55703125" xlink:href="#md4acab13e0" y="341.36483032"/>
     <use style="fill:#0000ff;stroke:#0000ff;stroke-width:0.5;" x="305.55703125" xlink:href="#md4acab13e0" y="308.691856327"/>
     <use style="fill:#0000ff;stroke:#0000ff;stroke-width:0.5;" x="305.55703125" xlink:href="#md4acab13e0" y="336.83843446"/>
     <use style="fill:#0000ff;stroke:#0000ff;stroke-width:0.5;" x="305.55703125" xlink:href="#md4acab13e0" y="348.889974613"/>
     <use style="fill:#0000ff;stroke:#0000ff;stroke-width:0.5;" x="305.55703125" xlink:href="#md4acab13e0" y="344.773581353"/>
     <use style="fill:#0000ff;stroke:#0000ff;stroke-width:0.5;" x="305.55703125" xlink:href="#md4acab13e0" y="315.812818707"/>
     <use style="fill:#0000ff;stroke:#0000ff;stroke-width:0.5;" x="305.55703125" xlink:href="#md4acab13e0" y="348.799142707"/>
     <use style="fill:#0000ff;stroke:#0000ff;stroke-width:0.5;" x="305.55703125" xlink:href="#md4acab13e0" y="327.170164427"/>
     <use style="fill:#0000ff;stroke:#0000ff;stroke-width:0.5;" x="305.55703125" xlink:href="#md4acab13e0" y="346.762103087"/>
     <use style="fill:#0000ff;stroke:#0000ff;stroke-width:0.5;" x="305.55703125" xlink:href="#md4acab13e0" y="351.32745558"/>
    </g>
   </g>
   <g id="line2d_16">
    <g clip-path="url(#pd083398c92)">
     <use style="fill:#0000ff;stroke:#0000ff;stroke-width:0.5;" x="305.55703125" xlink:href="#md4acab13e0" y="18608.9138947"/>
    </g>
   </g>
   <g id="line2d_17">
    <path clip-path="url(#pd083398c92)" d="
M477.212 328.817
L477.212 331.623" style="fill:none;stroke:#0000ff;stroke-dasharray:6.000000,6.000000;stroke-dashoffset:0.0;"/>
   </g>
   <g id="line2d_18">
    <path clip-path="url(#pd083398c92)" d="
M477.212 317.117
L477.212 299.662" style="fill:none;stroke:#0000ff;stroke-dasharray:6.000000,6.000000;stroke-dashoffset:0.0;"/>
   </g>
   <g id="line2d_19">
    <path clip-path="url(#pd083398c92)" d="
M464.338 299.662
L490.086 299.662" style="fill:none;stroke:#000000;stroke-linecap:square;"/>
   </g>
   <g id="line2d_20">
    <path clip-path="url(#pd083398c92)" d="
M464.338 331.623
L490.086 331.623" style="fill:none;stroke:#000000;stroke-linecap:square;"/>
   </g>
   <g id="line2d_21">
    <path clip-path="url(#pd083398c92)" d="
M451.464 328.817
L502.961 328.817
L502.961 317.117
L451.464 317.117
L451.464 328.817" style="fill:none;stroke:#0000ff;stroke-linecap:square;"/>
   </g>
   <g id="line2d_22">
    <path clip-path="url(#pd083398c92)" d="
M451.464 323.795
L502.961 323.795" style="fill:none;stroke:#ff0000;stroke-linecap:square;"/>
   </g>
   <g id="line2d_23">
    <g clip-path="url(#pd083398c92)">
     <use style="fill:#0000ff;stroke:#0000ff;stroke-width:0.5;" x="477.21234375" xlink:href="#md4acab13e0" y="222.20986376"/>
     <use style="fill:#0000ff;stroke:#0000ff;stroke-width:0.5;" x="477.21234375" xlink:href="#md4acab13e0" y="276.273405087"/>
     <use style="fill:#0000ff;stroke:#0000ff;stroke-width:0.5;" x="477.21234375" xlink:href="#md4acab13e0" y="248.713585013"/>
     <use style="fill:#0000ff;stroke:#0000ff;stroke-width:0.5;" x="477.21234375" xlink:href="#md4acab13e0" y="279.100799073"/>
     <use style="fill:#0000ff;stroke:#0000ff;stroke-width:0.5;" x="477.21234375" xlink:href="#md4acab13e0" y="295.26422556"/>
     <use style="fill:#0000ff;stroke:#0000ff;stroke-width:0.5;" x="477.21234375" xlink:href="#md4acab13e0" y="293.546028193"/>
     <use style="fill:#0000ff;stroke:#0000ff;stroke-width:0.5;" x="477.21234375" xlink:href="#md4acab13e0" y="293.638776"/>
     <use style="fill:#0000ff;stroke:#0000ff;stroke-width:0.5;" x="477.21234375" xlink:href="#md4acab13e0" y="295.46605194"/>
     <use style="fill:#0000ff;stroke:#0000ff;stroke-width:0.5;" x="477.21234375" xlink:href="#md4acab13e0" y="292.056041887"/>
     <use style="fill:#0000ff;stroke:#0000ff;stroke-width:0.5;" x="477.21234375" xlink:href="#md4acab13e0" y="292.803133407"/>
     <use style="fill:#0000ff;stroke:#0000ff;stroke-width:0.5;" x="477.21234375" xlink:href="#md4acab13e0" y="288.853697147"/>
     <use style="fill:#0000ff;stroke:#0000ff;stroke-width:0.5;" x="477.21234375" xlink:href="#md4acab13e0" y="281.3698998"/>
     <use style="fill:#0000ff;stroke:#0000ff;stroke-width:0.5;" x="477.21234375" xlink:href="#md4acab13e0" y="298.690767093"/>
     <use style="fill:#0000ff;stroke:#0000ff;stroke-width:0.5;" x="477.21234375" xlink:href="#md4acab13e0" y="296.111892707"/>
     <use style="fill:#0000ff;stroke:#0000ff;stroke-width:0.5;" x="477.21234375" xlink:href="#md4acab13e0" y="294.258998447"/>
     <use style="fill:#0000ff;stroke:#0000ff;stroke-width:0.5;" x="477.21234375" xlink:href="#md4acab13e0" y="297.801935467"/>
     <use style="fill:#0000ff;stroke:#0000ff;stroke-width:0.5;" x="477.21234375" xlink:href="#md4acab13e0" y="293.32303568"/>
     <use style="fill:#0000ff;stroke:#0000ff;stroke-width:0.5;" x="477.21234375" xlink:href="#md4acab13e0" y="294.3033196"/>
     <use style="fill:#0000ff;stroke:#0000ff;stroke-width:0.5;" x="477.21234375" xlink:href="#md4acab13e0" y="299.062269227"/>
     <use style="fill:#0000ff;stroke:#0000ff;stroke-width:0.5;" x="477.21234375" xlink:href="#md4acab13e0" y="296.661445813"/>
     <use style="fill:#0000ff;stroke:#0000ff;stroke-width:0.5;" x="477.21234375" xlink:href="#md4acab13e0" y="256.814594107"/>
     <use style="fill:#0000ff;stroke:#0000ff;stroke-width:0.5;" x="477.21234375" xlink:href="#md4acab13e0" y="296.88589806"/>
     <use style="fill:#0000ff;stroke:#0000ff;stroke-width:0.5;" x="477.21234375" xlink:href="#md4acab13e0" y="279.951221467"/>
     <use style="fill:#0000ff;stroke:#0000ff;stroke-width:0.5;" x="477.21234375" xlink:href="#md4acab13e0" y="297.639795587"/>
     <use style="fill:#0000ff;stroke:#0000ff;stroke-width:0.5;" x="477.21234375" xlink:href="#md4acab13e0" y="299.4691334"/>
     <use style="fill:#0000ff;stroke:#0000ff;stroke-width:0.5;" x="477.21234375" xlink:href="#md4acab13e0" y="298.959485753"/>
     <use style="fill:#0000ff;stroke:#0000ff;stroke-width:0.5;" x="477.21234375" xlink:href="#md4acab13e0" y="297.922162753"/>
     <use style="fill:#0000ff;stroke:#0000ff;stroke-width:0.5;" x="477.21234375" xlink:href="#md4acab13e0" y="270.213869553"/>
     <use style="fill:#0000ff;stroke:#0000ff;stroke-width:0.5;" x="477.21234375" xlink:href="#md4acab13e0" y="269.242927927"/>
     <use style="fill:#0000ff;stroke:#0000ff;stroke-width:0.5;" x="477.21234375" xlink:href="#md4acab13e0" y="296.259927913"/>
     <use style="fill:#0000ff;stroke:#0000ff;stroke-width:0.5;" x="477.21234375" xlink:href="#md4acab13e0" y="285.078352333"/>
     <use style="fill:#0000ff;stroke:#0000ff;stroke-width:0.5;" x="477.21234375" xlink:href="#md4acab13e0" y="295.481671087"/>
     <use style="fill:#0000ff;stroke:#0000ff;stroke-width:0.5;" x="477.21234375" xlink:href="#md4acab13e0" y="231.02557654"/>
     <use style="fill:#0000ff;stroke:#0000ff;stroke-width:0.5;" x="477.21234375" xlink:href="#md4acab13e0" y="286.23332984"/>
     <use style="fill:#0000ff;stroke:#0000ff;stroke-width:0.5;" x="477.21234375" xlink:href="#md4acab13e0" y="295.666874753"/>
     <use style="fill:#0000ff;stroke:#0000ff;stroke-width:0.5;" x="477.21234375" xlink:href="#md4acab13e0" y="297.737342267"/>
     <use style="fill:#0000ff;stroke:#0000ff;stroke-width:0.5;" x="477.21234375" xlink:href="#md4acab13e0" y="288.867290913"/>
     <use style="fill:#0000ff;stroke:#0000ff;stroke-width:0.5;" x="477.21234375" xlink:href="#md4acab13e0" y="232.837105607"/>
     <use style="fill:#0000ff;stroke:#0000ff;stroke-width:0.5;" x="477.21234375" xlink:href="#md4acab13e0" y="262.313081133"/>
     <use style="fill:#0000ff;stroke:#0000ff;stroke-width:0.5;" x="477.21234375" xlink:href="#md4acab13e0" y="277.047282713"/>
     <use style="fill:#0000ff;stroke:#0000ff;stroke-width:0.5;" x="477.21234375" xlink:href="#md4acab13e0" y="175.23593704"/>
     <use style="fill:#0000ff;stroke:#0000ff;stroke-width:0.5;" x="477.21234375" xlink:href="#md4acab13e0" y="271.8205068"/>
     <use style="fill:#0000ff;stroke:#0000ff;stroke-width:0.5;" x="477.21234375" xlink:href="#md4acab13e0" y="298.4153884"/>
     <use style="fill:#0000ff;stroke:#0000ff;stroke-width:0.5;" x="477.21234375" xlink:href="#md4acab13e0" y="297.229190847"/>
     <use style="fill:#0000ff;stroke:#0000ff;stroke-width:0.5;" x="477.21234375" xlink:href="#md4acab13e0" y="295.174652673"/>
     <use style="fill:#0000ff;stroke:#0000ff;stroke-width:0.5;" x="477.21234375" xlink:href="#md4acab13e0" y="295.677202367"/>
     <use style="fill:#0000ff;stroke:#0000ff;stroke-width:0.5;" x="477.21234375" xlink:href="#md4acab13e0" y="283.577819453"/>
    </g>
   </g>
   <g id="line2d_24">
    <g clip-path="url(#pd083398c92)">
     <use style="fill:#0000ff;stroke:#0000ff;stroke-width:0.5;" x="477.21234375" xlink:href="#md4acab13e0" y="18571.3301588"/>
     <use style="fill:#0000ff;stroke:#0000ff;stroke-width:0.5;" x="477.21234375" xlink:href="#md4acab13e0" y="18556.7423137"/>
     <use style="fill:#0000ff;stroke:#0000ff;stroke-width:0.5;" x="477.21234375" xlink:href="#md4acab13e0" y="18576.5656018"/>
     <use style="fill:#0000ff;stroke:#0000ff;stroke-width:0.5;" x="477.21234375" xlink:href="#md4acab13e0" y="18576.8966876"/>
    </g>
   </g>
   <g id="matplotlib.axis_1">
    <g id="xtick_1">
     <g id="line2d_25">
      <defs>
       <path d="
M0 0
L0 -4" id="m93b0483c22" style="stroke:#000000;stroke-width:0.5;"/>
      </defs>
      <g>
       <use style="stroke:#000000;stroke-width:0.5;" x="133.90171875" xlink:href="#m93b0483c22" y="402.44"/>
      </g>
     </g>
     <g id="line2d_26">
      <defs>
       <path d="
M0 0
L0 4" id="m741efc42ff" style="stroke:#000000;stroke-width:0.5;"/>
      </defs>
      <g>
       <use style="stroke:#000000;stroke-width:0.5;" x="133.90171875" xlink:href="#m741efc42ff" y="19.26"/>
      </g>
     </g>
     <g id="text_1">
      <!-- ethers.signMessage2 -->
      <defs>
       <path d="
M19.1875 8.29688
L53.6094 8.29688
L53.6094 0
L7.32812 0
L7.32812 8.29688
Q12.9375 14.1094 22.625 23.8906
Q32.3281 33.6875 34.8125 36.5312
Q39.5469 41.8438 41.4219 45.5312
Q43.3125 49.2188 43.3125 52.7812
Q43.3125 58.5938 39.2344 62.25
Q35.1562 65.9219 28.6094 65.9219
Q23.9688 65.9219 18.8125 64.3125
Q13.6719 62.7031 7.8125 59.4219
L7.8125 69.3906
Q13.7656 71.7812 18.9375 73
Q24.125 74.2188 28.4219 74.2188
Q39.75 74.2188 46.4844 68.5469
Q53.2188 62.8906 53.2188 53.4219
Q53.2188 48.9219 51.5312 44.8906
Q49.8594 40.875 45.4062 35.4062
Q44.1875 33.9844 37.6406 27.2188
Q31.1094 20.4531 19.1875 8.29688" id="BitstreamVeraSans-Roman-32"/>
       <path d="
M9.8125 72.9062
L24.5156 72.9062
L43.1094 23.2969
L61.8125 72.9062
L76.5156 72.9062
L76.5156 0
L66.8906 0
L66.8906 64.0156
L48.0938 14.0156
L38.1875 14.0156
L19.3906 64.0156
L19.3906 0
L9.8125 0
z
" id="BitstreamVeraSans-Roman-4d"/>
       <path d="
M54.8906 33.0156
L54.8906 0
L45.9062 0
L45.9062 32.7188
Q45.9062 40.4844 42.875 44.3281
Q39.8438 48.1875 33.7969 48.1875
Q26.5156 48.1875 22.3125 43.5469
Q18.1094 38.9219 18.1094 30.9062
L18.1094 0
L9.07812 0
L9.07812 54.6875
L18.1094 54.6875
L18.1094 46.1875
Q21.3438 51.125 25.7031 53.5625
Q30.0781 56 35.7969 56
Q45.2188 56 50.0469 50.1719
Q54.8906 44.3438 54.8906 33.0156" id="BitstreamVeraSans-Roman-6e"/>
       <path d="
M34.2812 27.4844
Q23.3906 27.4844 19.1875 25
Q14.9844 22.5156 14.9844 16.5
Q14.9844 11.7188 18.1406 8.90625
Q21.2969 6.10938 26.7031 6.10938
Q34.1875 6.10938 38.7031 11.4062
Q43.2188 16.7031 43.2188 25.4844
L43.2188 27.4844
z

M52.2031 31.2031
L52.2031 0
L43.2188 0
L43.2188 8.29688
Q40.1406 3.32812 35.5469 0.953125
Q30.9531 -1.42188 24.3125 -1.42188
Q15.9219 -1.42188 10.9531 3.29688
Q6 8.01562 6 15.9219
Q6 25.1406 12.1719 29.8281
Q18.3594 34.5156 30.6094 34.5156
L43.2188 34.5156
L43.2188 35.4062
Q43.2188 41.6094 39.1406 45
Q35.0625 48.3906 27.6875 48.3906
Q23 48.3906 18.5469 47.2656
Q14.1094 46.1406 10.0156 43.8906
L10.0156 52.2031
Q14.9375 54.1094 19.5781 55.0469
Q24.2188 56 28.6094 56
Q40.4844 56 46.3438 49.8438
Q52.2031 43.7031 52.2031 31.2031" id="BitstreamVeraSans-Roman-61"/>
       <path d="
M10.6875 12.4062
L21 12.4062
L21 0
L10.6875 0
z
" id="BitstreamVeraSans-Roman-2e"/>
       <path d="
M54.8906 33.0156
L54.8906 0
L45.9062 0
L45.9062 32.7188
Q45.9062 40.4844 42.875 44.3281
Q39.8438 48.1875 33.7969 48.1875
Q26.5156 48.1875 22.3125 43.5469
Q18.1094 38.9219 18.1094 30.9062
L18.1094 0
L9.07812 0
L9.07812 75.9844
L18.1094 75.9844
L18.1094 46.1875
Q21.3438 51.125 25.7031 53.5625
Q30.0781 56 35.7969 56
Q45.2188 56 50.0469 50.1719
Q54.8906 44.3438 54.8906 33.0156" id="BitstreamVeraSans-Roman-68"/>
       <path d="
M56.2031 29.5938
L56.2031 25.2031
L14.8906 25.2031
Q15.4844 15.9219 20.4844 11.0625
Q25.4844 6.20312 34.4219 6.20312
Q39.5938 6.20312 44.4531 7.46875
Q49.3125 8.73438 54.1094 11.2812
L54.1094 2.78125
Q49.2656 0.734375 44.1875 -0.34375
Q39.1094 -1.42188 33.8906 -1.42188
Q20.7969 -1.42188 13.1562 6.1875
Q5.51562 13.8125 5.51562 26.8125
Q5.51562 40.2344 12.7656 48.1094
Q20.0156 56 32.3281 56
Q43.3594 56 49.7812 48.8906
Q56.2031 41.7969 56.2031 29.5938
M47.2188 32.2344
Q47.125 39.5938 43.0938 43.9844
Q39.0625 48.3906 32.4219 48.3906
Q24.9062 48.3906 20.3906 44.1406
Q15.875 39.8906 15.1875 32.1719
z
" id="BitstreamVeraSans-Roman-65"/>
       <path d="
M9.42188 54.6875
L18.4062 54.6875
L18.4062 0
L9.42188 0
z

M9.42188 75.9844
L18.4062 75.9844
L18.4062 64.5938
L9.42188 64.5938
z
" id="BitstreamVeraSans-Roman-69"/>
       <path d="
M18.3125 70.2188
L18.3125 54.6875
L36.8125 54.6875
L36.8125 47.7031
L18.3125 47.7031
L18.3125 18.0156
Q18.3125 11.3281 20.1406 9.42188
Q21.9688 7.51562 27.5938 7.51562
L36.8125 7.51562
L36.8125 0
L27.5938 0
Q17.1875 0 13.2344 3.875
Q9.28125 7.76562 9.28125 18.0156
L9.28125 47.7031
L2.6875 47.7031
L2.6875 54.6875
L9.28125 54.6875
L9.28125 70.2188
z
" id="BitstreamVeraSans-Roman-74"/>
       <path d="
M41.1094 46.2969
Q39.5938 47.1719 37.8125 47.5781
Q36.0312 48 33.8906 48
Q26.2656 48 22.1875 43.0469
Q18.1094 38.0938 18.1094 28.8125
L18.1094 0
L9.07812 0
L9.07812 54.6875
L18.1094 54.6875
L18.1094 46.1875
Q20.9531 51.1719 25.4844 53.5781
Q30.0312 56 36.5312 56
Q37.4531 56 38.5781 55.875
Q39.7031 55.7656 41.0625 55.5156
z
" id="BitstreamVeraSans-Roman-72"/>
       <path d="
M44.2812 53.0781
L44.2812 44.5781
Q40.4844 46.5312 36.375 47.5
Q32.2812 48.4844 27.875 48.4844
Q21.1875 48.4844 17.8438 46.4375
Q14.5 44.3906 14.5 40.2812
Q14.5 37.1562 16.8906 35.375
Q19.2812 33.5938 26.5156 31.9844
L29.5938 31.2969
Q39.1562 29.25 43.1875 25.5156
Q47.2188 21.7812 47.2188 15.0938
Q47.2188 7.46875 41.1875 3.01562
Q35.1562 -1.42188 24.6094 -1.42188
Q20.2188 -1.42188 15.4531 -0.5625
Q10.6875 0.296875 5.42188 2
L5.42188 11.2812
Q10.4062 8.6875 15.2344 7.39062
Q20.0625 6.10938 24.8125 6.10938
Q31.1562 6.10938 34.5625 8.28125
Q37.9844 10.4531 37.9844 14.4062
Q37.9844 18.0625 35.5156 20.0156
Q33.0625 21.9688 24.7031 23.7812
L21.5781 24.5156
Q13.2344 26.2656 9.51562 29.9062
Q5.8125 33.5469 5.8125 39.8906
Q5.8125 47.6094 11.2812 51.7969
Q16.75 56 26.8125 56
Q31.7812 56 36.1719 55.2656
Q40.5781 54.5469 44.2812 53.0781" id="BitstreamVeraSans-Roman-73"/>
       <path d="
M45.4062 27.9844
Q45.4062 37.75 41.375 43.1094
Q37.3594 48.4844 30.0781 48.4844
Q22.8594 48.4844 18.8281 43.1094
Q14.7969 37.75 14.7969 27.9844
Q14.7969 18.2656 18.8281 12.8906
Q22.8594 7.51562 30.0781 7.51562
Q37.3594 7.51562 41.375 12.8906
Q45.4062 18.2656 45.4062 27.9844
M54.3906 6.78125
Q54.3906 -7.17188 48.1875 -13.9844
Q42 -20.7969 29.2031 -20.7969
Q24.4688 -20.7969 20.2656 -20.0938
Q16.0625 -19.3906 12.1094 -17.9219
L12.1094 -9.1875
Q16.0625 -11.3281 19.9219 -12.3438
Q23.7812 -13.375 27.7812 -13.375
Q36.625 -13.375 41.0156 -8.76562
Q45.4062 -4.15625 45.4062 5.17188
L45.4062 9.625
Q42.625 4.78125 38.2812 2.39062
Q33.9375 0 27.875 0
Q17.8281 0 11.6719 7.65625
Q5.51562 15.3281 5.51562 27.9844
Q5.51562 40.6719 11.6719 48.3281
Q17.8281 56 27.875 56
Q33.9375 56 38.2812 53.6094
Q42.625 51.2188 45.4062 46.3906
L45.4062 54.6875
L54.3906 54.6875
z
" id="BitstreamVeraSans-Roman-67"/>
      </defs>
      <g transform="translate(71.27671875 415.558125)scale(0.12 -0.12)">
       <use xlink:href="#BitstreamVeraSans-Roman-65"/>
       <use x="61.5234375" xlink:href="#BitstreamVeraSans-Roman-74"/>
       <use x="100.732421875" xlink:href="#BitstreamVeraSans-Roman-68"/>
       <use x="164.111328125" xlink:href="#BitstreamVeraSans-Roman-65"/>
       <use x="225.634765625" xlink:href="#BitstreamVeraSans-Roman-72"/>
       <use x="266.748046875" xlink:href="#BitstreamVeraSans-Roman-73"/>
       <use x="318.84765625" xlink:href="#BitstreamVeraSans-Roman-2e"/>
       <use x="350.634765625" xlink:href="#BitstreamVeraSans-Roman-73"/>
       <use x="402.734375" xlink:href="#BitstreamVeraSans-Roman-69"/>
       <use x="430.517578125" xlink:href="#BitstreamVeraSans-Roman-67"/>
       <use x="493.994140625" xlink:href="#BitstreamVeraSans-Roman-6e"/>
       <use x="557.373046875" xlink:href="#BitstreamVeraSans-Roman-4d"/>
       <use x="643.65234375" xlink:href="#BitstreamVeraSans-Roman-65"/>
       <use x="705.17578125" xlink:href="#BitstreamVeraSans-Roman-73"/>
       <use x="757.275390625" xlink:href="#BitstreamVeraSans-Roman-73"/>
       <use x="809.375" xlink:href="#BitstreamVeraSans-Roman-61"/>
       <use x="870.654296875" xlink:href="#BitstreamVeraSans-Roman-67"/>
       <use x="934.130859375" xlink:href="#BitstreamVeraSans-Roman-65"/>
       <use x="995.654296875" xlink:href="#BitstreamVeraSans-Roman-32"/>
      </g>
     </g>
    </g>
    <g id="xtick_2">
     <g id="line2d_27">
      <g>
       <use style="stroke:#000000;stroke-width:0.5;" x="305.55703125" xlink:href="#m93b0483c22" y="402.44"/>
      </g>
     </g>
     <g id="line2d_28">
      <g>
       <use style="stroke:#000000;stroke-width:0.5;" x="305.55703125" xlink:href="#m741efc42ff" y="19.26"/>
      </g>
     </g>
     <g id="text_2">
      <!-- ethers.signMessage -->
      <g transform="translate(246.46828125 415.558125)scale(0.12 -0.12)">
       <use xlink:href="#BitstreamVeraSans-Roman-65"/>
       <use x="61.5234375" xlink:href="#BitstreamVeraSans-Roman-74"/>
       <use x="100.732421875" xlink:href="#BitstreamVeraSans-Roman-68"/>
       <use x="164.111328125" xlink:href="#BitstreamVeraSans-Roman-65"/>
       <use x="225.634765625" xlink:href="#BitstreamVeraSans-Roman-72"/>
       <use x="266.748046875" xlink:href="#BitstreamVeraSans-Roman-73"/>
       <use x="318.84765625" xlink:href="#BitstreamVeraSans-Roman-2e"/>
       <use x="350.634765625" xlink:href="#BitstreamVeraSans-Roman-73"/>
       <use x="402.734375" xlink:href="#BitstreamVeraSans-Roman-69"/>
       <use x="430.517578125" xlink:href="#BitstreamVeraSans-Roman-67"/>
       <use x="493.994140625" xlink:href="#BitstreamVeraSans-Roman-6e"/>
       <use x="557.373046875" xlink:href="#BitstreamVeraSans-Roman-4d"/>
       <use x="643.65234375" xlink:href="#BitstreamVeraSans-Roman-65"/>
       <use x="705.17578125" xlink:href="#BitstreamVeraSans-Roman-73"/>
       <use x="757.275390625" xlink:href="#BitstreamVeraSans-Roman-73"/>
       <use x="809.375" xlink:href="#BitstreamVeraSans-Roman-61"/>
       <use x="870.654296875" xlink:href="#BitstreamVeraSans-Roman-67"/>
       <use x="934.130859375" xlink:href="#BitstreamVeraSans-Roman-65"/>
      </g>
     </g>
    </g>
    <g id="xtick_3">
     <g id="line2d_29">
      <g>
       <use style="stroke:#000000;stroke-width:0.5;" x="477.21234375" xlink:href="#m93b0483c22" y="402.44"/>
      </g>
     </g>
     <g id="line2d_30">
      <g>
       <use style="stroke:#000000;stroke-width:0.5;" x="477.21234375" xlink:href="#m741efc42ff" y="19.26"/>
      </g>
     </g>
     <g id="text_3">
      <!-- nitro.signState -->
      <defs>
       <path d="
M30.6094 48.3906
Q23.3906 48.3906 19.1875 42.75
Q14.9844 37.1094 14.9844 27.2969
Q14.9844 17.4844 19.1562 11.8438
Q23.3438 6.20312 30.6094 6.20312
Q37.7969 6.20312 41.9844 11.8594
Q46.1875 17.5312 46.1875 27.2969
Q46.1875 37.0156 41.9844 42.7031
Q37.7969 48.3906 30.6094 48.3906
M30.6094 56
Q42.3281 56 49.0156 48.375
Q55.7188 40.7656 55.7188 27.2969
Q55.7188 13.875 49.0156 6.21875
Q42.3281 -1.42188 30.6094 -1.42188
Q18.8438 -1.42188 12.1719 6.21875
Q5.51562 13.875 5.51562 27.2969
Q5.51562 40.7656 12.1719 48.375
Q18.8438 56 30.6094 56" id="BitstreamVeraSans-Roman-6f"/>
       <path d="
M53.5156 70.5156
L53.5156 60.8906
Q47.9062 63.5781 42.9219 64.8906
Q37.9375 66.2188 33.2969 66.2188
Q25.25 66.2188 20.875 63.0938
Q16.5 59.9688 16.5 54.2031
Q16.5 49.3594 19.4062 46.8906
Q22.3125 44.4375 30.4219 42.9219
L36.375 41.7031
Q47.4062 39.5938 52.6562 34.2969
Q57.9062 29 57.9062 20.125
Q57.9062 9.51562 50.7969 4.04688
Q43.7031 -1.42188 29.9844 -1.42188
Q24.8125 -1.42188 18.9688 -0.25
Q13.1406 0.921875 6.89062 3.21875
L6.89062 13.375
Q12.8906 10.0156 18.6562 8.29688
Q24.4219 6.59375 29.9844 6.59375
Q38.4219 6.59375 43.0156 9.90625
Q47.6094 13.2344 47.6094 19.3906
Q47.6094 24.75 44.3125 27.7812
Q41.0156 30.8125 33.5 32.3281
L27.4844 33.5
Q16.4531 35.6875 11.5156 40.375
Q6.59375 45.0625 6.59375 53.4219
Q6.59375 63.0938 13.4062 68.6562
Q20.2188 74.2188 32.1719 74.2188
Q37.3125 74.2188 42.625 73.2812
Q47.9531 72.3594 53.5156 70.5156" id="BitstreamVeraSans-Roman-53"/>
      </defs>
      <g transform="translate(434.16421875 415.558125)scale(0.12 -0.12)">
       <use xlink:href="#BitstreamVeraSans-Roman-6e"/>
       <use x="63.37890625" xlink:href="#BitstreamVeraSans-Roman-69"/>
       <use x="91.162109375" xlink:href="#BitstreamVeraSans-Roman-74"/>
       <use x="130.37109375" xlink:href="#BitstreamVeraSans-Roman-72"/>
       <use x="169.234375" xlink:href="#BitstreamVeraSans-Roman-6f"/>
       <use x="228.666015625" xlink:href="#BitstreamVeraSans-Roman-2e"/>
       <use x="260.453125" xlink:href="#BitstreamVeraSans-Roman-73"/>
       <use x="312.552734375" xlink:href="#BitstreamVeraSans-Roman-69"/>
       <use x="340.3359375" xlink:href="#BitstreamVeraSans-Roman-67"/>
       <use x="403.8125" xlink:href="#BitstreamVeraSans-Roman-6e"/>
       <use x="467.19140625" xlink:href="#BitstreamVeraSans-Roman-53"/>
       <use x="530.66796875" xlink:href="#BitstreamVeraSans-Roman-74"/>
       <use x="569.876953125" xlink:href="#BitstreamVeraSans-Roman-61"/>
       <use x="631.15625" xlink:href="#BitstreamVeraSans-Roman-74"/>
       <use x="670.365234375" xlink:href="#BitstreamVeraSans-Roman-65"/>
      </g>
     </g>
    </g>
   </g>
   <g id="matplotlib.axis_2">
    <g id="ytick_1">
     <g id="line2d_31">
      <defs>
       <path d="
M0 0
L4 0" id="m728421d6d4" style="stroke:#000000;stroke-width:0.5;"/>
      </defs>
      <g>
       <use style="stroke:#000000;stroke-width:0.5;" x="48.0740625" xlink:href="#m728421d6d4" y="384.193333333"/>
      </g>
     </g>
     <g id="line2d_32">
      <defs>
       <path d="
M0 0
L-4 0" id="mcb0005524f" style="stroke:#000000;stroke-width:0.5;"/>
      </defs>
      <g>
       <use style="stroke:#000000;stroke-width:0.5;" x="563.04" xlink:href="#mcb0005524f" y="384.193333333"/>
      </g>
     </g>
     <g id="text_4">
      <!-- 0 -->
      <defs>
       <path d="
M31.7812 66.4062
Q24.1719 66.4062 20.3281 58.9062
Q16.5 51.4219 16.5 36.375
Q16.5 21.3906 20.3281 13.8906
Q24.1719 6.39062 31.7812 6.39062
Q39.4531 6.39062 43.2812 13.8906
Q47.125 21.3906 47.125 36.375
Q47.125 51.4219 43.2812 58.9062
Q39.4531 66.4062 31.7812 66.4062
M31.7812 74.2188
Q44.0469 74.2188 50.5156 64.5156
Q56.9844 54.8281 56.9844 36.375
Q56.9844 17.9688 50.5156 8.26562
Q44.0469 -1.42188 31.7812 -1.42188
Q19.5312 -1.42188 13.0625 8.26562
Q6.59375 17.9688 6.59375 36.375
Q6.59375 54.8281 13.0625 64.5156
Q19.5312 74.2188 31.7812 74.2188" id="BitstreamVeraSans-Roman-30"/>
      </defs>
      <g transform="translate(38.0271875 387.504583333)scale(0.12 -0.12)">
       <use xlink:href="#BitstreamVeraSans-Roman-30"/>
      </g>
     </g>
    </g>
    <g id="ytick_2">
     <g id="line2d_33">
      <g>
       <use style="stroke:#000000;stroke-width:0.5;" x="48.0740625" xlink:href="#m728421d6d4" y="292.96"/>
      </g>
     </g>
     <g id="line2d_34">
      <g>
       <use style="stroke:#000000;stroke-width:0.5;" x="563.04" xlink:href="#mcb0005524f" y="292.96"/>
      </g>
     </g>
     <g id="text_5">
      <!-- 5 -->
      <defs>
       <path d="
M10.7969 72.9062
L49.5156 72.9062
L49.5156 64.5938
L19.8281 64.5938
L19.8281 46.7344
Q21.9688 47.4688 24.1094 47.8281
Q26.2656 48.1875 28.4219 48.1875
Q40.625 48.1875 47.75 41.5
Q54.8906 34.8125 54.8906 23.3906
Q54.8906 11.625 47.5625 5.09375
Q40.2344 -1.42188 26.9062 -1.42188
Q22.3125 -1.42188 17.5469 -0.640625
Q12.7969 0.140625 7.71875 1.70312
L7.71875 11.625
Q12.1094 9.23438 16.7969 8.0625
Q21.4844 6.89062 26.7031 6.89062
Q35.1562 6.89062 40.0781 11.3281
Q45.0156 15.7656 45.0156 23.3906
Q45.0156 31 40.0781 35.4375
Q35.1562 39.8906 26.7031 39.8906
Q22.75 39.8906 18.8125 39.0156
Q14.8906 38.1406 10.7969 36.2812
z
" id="BitstreamVeraSans-Roman-35"/>
      </defs>
      <g transform="translate(38.4134375 296.27125)scale(0.12 -0.12)">
       <use xlink:href="#BitstreamVeraSans-Roman-35"/>
      </g>
     </g>
    </g>
    <g id="ytick_3">
     <g id="line2d_35">
      <g>
       <use style="stroke:#000000;stroke-width:0.5;" x="48.0740625" xlink:href="#m728421d6d4" y="201.726666667"/>
      </g>
     </g>
     <g id="line2d_36">
      <g>
       <use style="stroke:#000000;stroke-width:0.5;" x="563.04" xlink:href="#mcb0005524f" y="201.726666667"/>
      </g>
     </g>
     <g id="text_6">
      <!-- 10 -->
      <defs>
       <path d="
M12.4062 8.29688
L28.5156 8.29688
L28.5156 63.9219
L10.9844 60.4062
L10.9844 69.3906
L28.4219 72.9062
L38.2812 72.9062
L38.2812 8.29688
L54.3906 8.29688
L54.3906 0
L12.4062 0
z
" id="BitstreamVeraSans-Roman-31"/>
      </defs>
      <g transform="translate(30.9190625 205.037916667)scale(0.12 -0.12)">
       <use xlink:href="#BitstreamVeraSans-Roman-31"/>
       <use x="63.623046875" xlink:href="#BitstreamVeraSans-Roman-30"/>
      </g>
     </g>
    </g>
    <g id="ytick_4">
     <g id="line2d_37">
      <g>
       <use style="stroke:#000000;stroke-width:0.5;" x="48.0740625" xlink:href="#m728421d6d4" y="110.493333333"/>
      </g>
     </g>
     <g id="line2d_38">
      <g>
       <use style="stroke:#000000;stroke-width:0.5;" x="563.04" xlink:href="#mcb0005524f" y="110.493333333"/>
      </g>
     </g>
     <g id="text_7">
      <!-- 15 -->
      <g transform="translate(31.1703125 113.804583333)scale(0.12 -0.12)">
       <use xlink:href="#BitstreamVeraSans-Roman-31"/>
       <use x="63.623046875" xlink:href="#BitstreamVeraSans-Roman-35"/>
      </g>
     </g>
    </g>
    <g id="ytick_5">
     <g id="line2d_39">
      <g>
       <use style="stroke:#000000;stroke-width:0.5;" x="48.0740625" xlink:href="#m728421d6d4" y="19.26"/>
      </g>
     </g>
     <g id="line2d_40">
      <g>
       <use style="stroke:#000000;stroke-width:0.5;" x="563.04" xlink:href="#mcb0005524f" y="19.26"/>
      </g>
     </g>
     <g id="text_8">
      <!-- 20 -->
      <g transform="translate(30.4803125 22.57125)scale(0.12 -0.12)">
       <use xlink:href="#BitstreamVeraSans-Roman-32"/>
       <use x="63.623046875" xlink:href="#BitstreamVeraSans-Roman-30"/>
      </g>
     </g>
    </g>
    <g id="text_9">
     <!-- ms -->
     <defs>
      <path d="
M52 44.1875
Q55.375 50.25 60.0625 53.125
Q64.75 56 71.0938 56
Q79.6406 56 84.2812 50.0156
Q88.9219 44.0469 88.9219 33.0156
L88.9219 0
L79.8906 0
L79.8906 32.7188
Q79.8906 40.5781 77.0938 44.375
Q74.3125 48.1875 68.6094 48.1875
Q61.625 48.1875 57.5625 43.5469
Q53.5156 38.9219 53.5156 30.9062
L53.5156 0
L44.4844 0
L44.4844 32.7188
Q44.4844 40.625 41.7031 44.4062
Q38.9219 48.1875 33.1094 48.1875
Q26.2188 48.1875 22.1562 43.5312
Q18.1094 38.875 18.1094 30.9062
L18.1094 0
L9.07812 0
L9.07812 54.6875
L18.1094 54.6875
L18.1094 46.1875
Q21.1875 51.2188 25.4844 53.6094
Q29.7812 56 35.6875 56
Q41.6562 56 45.8281 52.9688
Q50 49.9531 52 44.1875" id="BitstreamVeraSans-Roman-6d"/>
     </defs>
     <g transform="translate(22.9846875 218.9828125)rotate(-90.0)scale(0.12 -0.12)">
      <use xlink:href="#BitstreamVeraSans-Roman-6d"/>
      <use x="97.412109375" xlink:href="#BitstreamVeraSans-Roman-73"/>
     </g>
    </g>
   </g>
   <g id="patch_3">
    <path d="
M48.0741 19.26
L563.04 19.26" style="fill:none;stroke:#000000;"/>
   </g>
   <g id="patch_4">
    <path d="
M563.04 402.44
L563.04 19.26" style="fill:none;stroke:#000000;"/>
   </g>
   <g id="patch_5">
    <path d="
M48.0741 402.44
L563.04 402.44" style="fill:none;stroke:#000000;"/>
   </g>
   <g id="patch_6">
    <path d="
M48.0741 402.44
L48.0741 19.26" style="fill:none;stroke:#000000;"/>
   </g>
  </g>
 </g>
 <defs>
  <clipPath id="pd083398c92">
   <rect height="383.18" width="514.9659375" x="48.0740625" y="19.26"/>
  </clipPath>
 </defs>
</svg>
