<?xml version="1.0" encoding="UTF-8"?>
<svg width="21px" height="20px" viewBox="0 0 21 20" version="1.1" xmlns="http://www.w3.org/2000/svg" xmlns:xlink="http://www.w3.org/1999/xlink">
    <!-- Generator: Sketch 52.5 (67469) - http://www.bohemiancoding.com/sketch -->
    <title>Untitled</title>
    <desc>Created with Sketch.</desc>
    <g id="Page-1" stroke="none" stroke-width="1" fill="none" fill-rule="evenodd">
        <g id="magmo_logo" transform="translate(0.000000, -17.000000)" fill="#FFFFFF">
            <path d="M17.1643,31.8443 C12.8796,34.9089 10.5076,33.2143 8.51038,36.3055 C8.117,34.8559 10.2878,32.7391 10.8929,31.5273 C7.1678,35.0399 3.86223,33.4621 1.14243,37 C1.96476,30.1387 3.69456,29.3324 4.91839,26.2504 C3.78517,27.3801 2.46719,28.159 0,27.9891 C2.4577,26.5265 3.66053,21.9356 5.0854,20.5395 C5.08791,20.537 5.09043,20.5345 5.09296,20.5321 L5.0901,20.5294 C6.97413,17.9401 10.3502,16.5125 13.8076,17.1519 C18.4707,18.0142 21.516,22.3098 20.6096,26.7463 C20.1721,28.8874 18.8941,30.6701 17.1646,31.8446 L17.1643,31.8443 Z M11.3767,28.8979 C12.55,28.7498 14.3252,27.9484 15.0194,27.0678 C15.2956,26.6934 15.4954,26.2589 15.5931,25.7808 C15.965,23.9607 14.7156,22.1984 12.8026,21.8446 C11.5199,21.6074 10.2646,22.0636 9.46169,22.9438 C8.02943,24.6355 9.49846,26.4206 7.55474,29.58 C9.63384,29.5708 11.6891,27.5679 12.5859,26.7667 C12.5409,27.0979 12.1849,28.2346 11.3767,28.8979 Z" id="Shape"></path>
        </g>
    </g>
</svg>