<?xml version="1.0" encoding="UTF-8"?>
<svg width="154px" height="20px" viewBox="0 0 154 20" version="1.1" xmlns="http://www.w3.org/2000/svg" xmlns:xlink="http://www.w3.org/1999/xlink">
    <!-- Generator: Sketch 52.6 (67491) - http://www.bohemiancoding.com/sketch -->
    <title>magmo_logo</title>
    <desc>Created with Sketch.</desc>
    <g id="Page-1" stroke="none" stroke-width="1" fill="none" fill-rule="evenodd">
        <g id="magmo_logo" fill="#4A4A4A">
            <path d="M4.78,7.49 C4.78,8.17 4.57333,8.72333 4.16,9.15 C3.75333,9.57 3.21,9.78 2.53,9.78 L1.71,9.78 L1.71,12.23 L0,12.23 L0,5.23 L2.52,5.23 C3.22667,5.23 3.78,5.43333 4.18,5.84 C4.58,6.24667 4.78,6.79667 4.78,7.49 Z M2.29,6.7 L1.71,6.7 L1.71,8.31 L2.27,8.31 C2.51667,8.31 2.70333,8.23667 2.83,8.09 C2.96333,7.93667 3.03,7.73667 3.03,7.49 C3.03,7.25 2.96333,7.06 2.83,6.92 C2.70333,6.77333 2.52333,6.7 2.29,6.7 Z M5.97594,11.59 C5.4426,11.07 5.17594,10.41333 5.17594,9.62 C5.17594,8.82667 5.44594,8.16667 5.98594,7.64 C6.5326,7.11333 7.2126,6.85 8.02594,6.85 C8.86594,6.85 9.5559,7.11 10.0959,7.63 C10.6359,8.14333 10.9059,8.8 10.9059,9.6 C10.9059,10.39333 10.6326,11.05333 10.0859,11.58 C9.5393,12.1 8.8526,12.36 8.02594,12.36 C7.1926,12.36 6.50927,12.10333 5.97594,11.59 Z M6.84594,9.62 C6.84594,10 6.95594,10.30667 7.17594,10.54 C7.4026,10.77333 7.68594,10.89 8.02594,10.89 C8.3726,10.89 8.65927,10.77 8.88594,10.53 C9.11927,10.28333 9.23594,9.97333 9.23594,9.6 C9.23594,9.22 9.11927,8.91333 8.88594,8.68 C8.65927,8.44 8.3726,8.32 8.02594,8.32 C7.67927,8.32 7.39594,8.44 7.17594,8.68 C6.95594,8.92 6.84594,9.23333 6.84594,9.62 Z M16.0383,12.23 L15.2883,9.26 L14.5383,12.23 L12.6583,12.23 L11.1883,6.98 L13.0083,6.98 L13.7183,10.41 L14.5083,6.98 L16.0683,6.98 L16.8583,10.41 L17.5683,6.98 L19.3883,6.98 L17.9183,12.23 L16.0383,12.23 Z M24.8281,10.04 L21.3881,10.04 C21.4081,10.28 21.5215,10.48667 21.7281,10.66 C21.9415,10.82667 22.1981,10.91 22.4981,10.91 C22.7715,10.91 23.0015,10.85 23.1881,10.73 C23.3815,10.60333 23.5181,10.47667 23.5981,10.35 L24.6981,11.2 C24.5781,11.44667 24.3248,11.70333 23.9381,11.97 C23.5515,12.23 23.0615,12.36 22.4681,12.36 C21.6215,12.36 20.9448,12.10333 20.4381,11.59 C19.9315,11.07 19.6781,10.41333 19.6781,9.62 C19.6781,8.83333 19.9181,8.17667 20.3981,7.65 C20.8781,7.11667 21.4981,6.85 22.2581,6.85 C23.0848,6.85 23.7215,7.10333 24.1681,7.61 C24.6148,8.11 24.8381,8.81 24.8381,9.71 C24.8381,9.85 24.8348,9.96 24.8281,10.04 Z M22.8881,8.43 C22.7415,8.27667 22.5415,8.2 22.2881,8.2 C22.0348,8.2 21.8348,8.28 21.6881,8.44 C21.5415,8.59333 21.4581,8.77333 21.4381,8.98 L23.1381,8.98 C23.1248,8.76 23.0415,8.57667 22.8881,8.43 Z M28.5245,6.85 L28.5245,8.55 C28.4312,8.53667 28.3412,8.53 28.2545,8.53 C27.5345,8.53 27.1745,8.99 27.1745,9.91 L27.1745,12.23 L25.5045,12.23 L25.5045,6.98 L27.1345,6.98 L27.1345,7.68 C27.4079,7.12667 27.8712,6.85 28.5245,6.85 Z M33.8906,10.04 L30.4506,10.04 C30.4706,10.28 30.584,10.48667 30.7906,10.66 C31.004,10.82667 31.2606,10.91 31.5606,10.91 C31.834,10.91 32.064,10.85 32.2506,10.73 C32.444,10.60333 32.5806,10.47667 32.6606,10.35 L33.7606,11.2 C33.6406,11.44667 33.3873,11.70333 33.0006,11.97 C32.614,12.23 32.124,12.36 31.5306,12.36 C30.684,12.36 30.0073,12.10333 29.5006,11.59 C28.994,11.07 28.7406,10.41333 28.7406,9.62 C28.7406,8.83333 28.9806,8.17667 29.4606,7.65 C29.9406,7.11667 30.5606,6.85 31.3206,6.85 C32.1473,6.85 32.784,7.10333 33.2306,7.61 C33.6773,8.11 33.9006,8.81 33.9006,9.71 C33.9006,9.85 33.8973,9.96 33.8906,10.04 Z M31.9506,8.43 C31.804,8.27667 31.604,8.2 31.3506,8.2 C31.0973,8.2 30.8973,8.28 30.7506,8.44 C30.604,8.59333 30.5206,8.77333 30.5006,8.98 L32.2006,8.98 C32.1873,8.76 32.104,8.57667 31.9506,8.43 Z M38.237,9.62 C38.237,9.21333 38.1337,8.89667 37.927,8.67 C37.7204,8.43667 37.447,8.32 37.107,8.32 C36.767,8.32 36.4937,8.44 36.287,8.68 C36.0804,8.92 35.977,9.23333 35.977,9.62 C35.977,10.00667 36.0804,10.31667 36.287,10.55 C36.4937,10.78333 36.767,10.9 37.107,10.9 C37.4537,10.9 37.727,10.78 37.927,10.54 C38.1337,10.29333 38.237,9.98667 38.237,9.62 Z M38.297,12.23 L38.297,11.82 C38.1904,11.94 38.0104,12.06 37.757,12.18 C37.5104,12.3 37.217,12.36 36.877,12.36 C36.1237,12.36 35.507,12.10333 35.027,11.59 C34.547,11.07667 34.307,10.41667 34.307,9.61 C34.307,8.79 34.5304,8.12667 34.977,7.62 C35.4304,7.10667 36.0337,6.85 36.787,6.85 C37.1337,6.85 37.4304,6.91 37.677,7.03 C37.9237,7.15 38.0937,7.26667 38.187,7.38 L38.187,5 L39.857,5 L39.857,12.23 L38.297,12.23 Z M44.3999,9.62 C44.3999,9.98667 44.4999,10.29333 44.6999,10.54 C44.9066,10.78 45.1833,10.9 45.5299,10.9 C45.8699,10.9 46.1433,10.78333 46.3499,10.55 C46.5566,10.31667 46.6599,10.00667 46.6599,9.62 C46.6599,9.23333 46.5566,8.92 46.3499,8.68 C46.1433,8.44 45.8699,8.32 45.5299,8.32 C45.1899,8.32 44.9166,8.43667 44.7099,8.67 C44.5033,8.89667 44.3999,9.21333 44.3999,9.62 Z M44.3399,11.82 L44.3399,12.23 L42.7799,12.23 L42.7799,5 L44.4499,5 L44.4499,7.38 C44.5433,7.26667 44.7133,7.15 44.9599,7.03 C45.2066,6.91 45.5033,6.85 45.8499,6.85 C46.6033,6.85 47.2033,7.10667 47.6499,7.62 C48.1033,8.12667 48.3299,8.79 48.3299,9.61 C48.3299,10.41667 48.0899,11.07667 47.6099,11.59 C47.1299,12.10333 46.5133,12.36 45.7599,12.36 C45.4199,12.36 45.1233,12.3 44.8699,12.18 C44.6233,12.06 44.4466,11.94 44.3399,11.82 Z M54.0399,6.98 L51.4399,14.02 L49.8599,14.02 L50.5699,12.06 L48.6099,6.98 L50.3999,6.98 L51.3299,10 L52.2999,6.98 L54.0399,6.98 Z" id="Shape" fill-rule="nonzero"></path>
            <path d="M84.569,14.5092 L81.0781,14.5092 C81.1798,13.7344 81.2137,13.0269 81.2137,11.9657 L81.2137,6.7776 C81.2137,5.4974 81.1798,4.891 81.0781,4.2341 L84.4334,4.2341 L84.4334,4.9416 C84.4334,5.0089 84.4334,5.0089 84.4164,5.1774 L84.4164,5.3458 C85.2807,4.4025 86.3144,3.9646 87.6531,3.9646 C88.5343,3.9646 89.2629,4.1667 89.8222,4.571 C90.1272,4.79 90.2966,4.9921 90.5169,5.4132 C91.5676,4.3857 92.6013,3.9477 94.0755,3.9477 C96.4988,3.9477 97.7358,5.2616 97.7358,7.8051 L97.7358,11.9826 C97.7358,13.0269 97.7697,13.7175 97.8714,14.5092 L94.3467,14.5092 C94.4484,13.7175 94.4822,13.1111 94.4822,11.9657 L94.4822,8.4958 C94.4822,7.2324 94.1094,6.7439 93.1435,6.7439 C92.2793,6.7439 91.4998,7.4177 91.0761,8.5463 L91.0761,11.9826 C91.0761,12.9932 91.11,13.7007 91.2117,14.5092 L87.687,14.5092 C87.7887,13.7512 87.8226,13.0438 87.8226,11.9657 L87.8226,8.4958 C87.8226,7.7883 87.7548,7.4682 87.5345,7.1819 C87.3481,6.9124 87.0092,6.7608 86.6025,6.7608 C85.6874,6.7608 84.9079,7.4177 84.4334,8.5631 L84.4334,11.9657 C84.4334,13.0269 84.4673,13.6838 84.569,14.5092 Z M106.429,7.8557 L106.429,7.4682 C106.429,6.6597 105.9376,6.2891 104.8192,6.2891 C103.7347,6.2891 103.1585,6.6429 102.9043,7.4682 L99.6677,6.9461 C100.0066,5.9522 100.3794,5.4132 101.0911,4.9079 C102.0062,4.2678 103.2602,3.9477 104.9039,3.9477 C106.1579,3.9477 107.378,4.1836 108.0389,4.5373 C109.1234,5.1269 109.5979,6.0533 109.5979,7.5693 L109.5979,12.1173 C109.5979,13.1448 109.6318,13.7512 109.7165,14.5092 L106.429,14.5092 L106.429,13.7344 C105.4801,14.4587 104.5311,14.7451 103.1415,14.7451 C101.8537,14.7451 100.8878,14.4419 100.2099,13.8186 C99.5999,13.2627 99.2779,12.4542 99.2779,11.5278 C99.2779,10.4666 99.7016,9.6243 100.5149,9.0685 C101.3792,8.4621 102.5146,8.1083 104.0397,7.9736 C104.7006,7.9062 105.2089,7.8894 106.429,7.8557 Z M106.429,10.4834 L106.429,10.0118 C104.9209,10.0454 104.1922,10.1297 103.4974,10.3486 C102.8874,10.5508 102.5146,10.9719 102.5146,11.4604 C102.5146,12.0668 103.0229,12.4205 103.9041,12.4205 C104.5989,12.4205 105.3614,12.1678 105.819,11.7804 C106.2087,11.4435 106.429,10.9887 106.429,10.4834 Z M111.3433,15.8231 L113.7835,14.2229 C114.3766,14.9809 115.2408,15.3683 116.3593,15.3683 C117.2913,15.3683 118.02,15.1156 118.4267,14.6271 C118.7825,14.2229 118.935,13.7175 118.9689,12.8248 C118.1047,13.5996 117.1896,13.9365 115.8848,13.9365 C112.9362,13.9365 111.0722,12.0162 111.0722,8.9506 C111.0722,5.9522 112.9871,3.9814 115.8848,3.9814 C117.1388,3.9814 118.0538,4.2678 118.9689,4.9584 L118.9689,4.2341 L122.2903,4.2341 C122.1886,4.9921 122.1547,5.5817 122.1547,6.5755 L122.1547,12.4879 C122.1547,14.5092 121.5786,15.8736 120.3924,16.699 C119.4773,17.3391 118.0538,17.6928 116.3593,17.6928 C114.0546,17.6928 112.5295,17.1201 111.3433,15.8231 Z M114.2919,8.9674 C114.2919,10.5171 115.1731,11.5109 116.5118,11.5109 C117.9013,11.5109 118.9011,10.4497 118.9011,8.9506 C118.9011,7.4514 117.9013,6.3734 116.5287,6.3734 C115.1731,6.3734 114.2919,7.4009 114.2919,8.9674 Z M127.5774,14.5092 L124.0865,14.5092 C124.1882,13.7344 124.2221,13.0269 124.2221,11.9657 L124.2221,6.7776 C124.2221,5.4974 124.1882,4.891 124.0865,4.2341 L127.4418,4.2341 L127.4418,4.9416 C127.4418,5.0089 127.4418,5.0089 127.4249,5.1774 L127.4249,5.3458 C128.2891,4.4025 129.3228,3.9646 130.6615,3.9646 C131.5427,3.9646 132.2714,4.1667 132.8306,4.571 C133.1356,4.79 133.3051,4.9921 133.5254,5.4132 C134.576,4.3857 135.6097,3.9477 137.084,3.9477 C139.5072,3.9477 140.7443,5.2616 140.7443,7.8051 L140.7443,11.9826 C140.7443,13.0269 140.7782,13.7175 140.8798,14.5092 L137.3551,14.5092 C137.4568,13.7175 137.4907,13.1111 137.4907,11.9657 L137.4907,8.4958 C137.4907,7.2324 137.1179,6.7439 136.152,6.7439 C135.2877,6.7439 134.5082,7.4177 134.0846,8.5463 L134.0846,11.9826 C134.0846,12.9932 134.1185,13.7007 134.2201,14.5092 L130.6954,14.5092 C130.7971,13.7512 130.831,13.0438 130.831,11.9657 L130.831,8.4958 C130.831,7.7883 130.7632,7.4682 130.5429,7.1819 C130.3565,6.9124 130.0176,6.7608 129.6109,6.7608 C128.6958,6.7608 127.9163,7.4177 127.4418,8.5631 L127.4418,11.9657 C127.4418,13.0269 127.4757,13.6838 127.5774,14.5092 Z M147.7768,14.8967 C144.3707,14.8967 142.2016,12.7406 142.2016,9.3548 C142.2016,5.9859 144.3707,3.8467 147.7937,3.8467 C151.2168,3.8467 153.3858,5.9859 153.3858,9.3211 C153.3858,12.6732 151.149,14.8967 147.7768,14.8967 Z M147.8107,6.3734 C146.3194,6.3734 145.4383,7.4851 145.4383,9.338 C145.4383,11.2077 146.3194,12.3363 147.7937,12.3363 C149.268,12.3363 150.1153,11.2414 150.1153,9.3717 C150.1153,7.4851 149.251,6.3734 147.8107,6.3734 Z" id="Shape"></path>
            <path d="M75.1643,14.8443 C70.8796,17.9089 68.5076,16.2143 66.51038,19.3055 C66.117,17.8559 68.2878,15.7391 68.8929,14.5273 C65.1678,18.0399 61.86223,16.4621 59.14243,20 C59.96476,13.1387 61.69456,12.3324 62.91839,9.2504 C61.78517,10.3801 60.46719,11.159 58,10.9891 C60.4577,9.5265 61.66053,4.9356 63.0854,3.5395 C63.08791,3.537 63.09043,3.5345 63.09296,3.5321 L63.0901,3.5294 C64.97413,0.9401 68.3502,-0.4875 71.8076,0.1519 C76.4707,1.0142 79.516,5.3098 78.6096,9.7463 C78.1721,11.8874 76.8941,13.6701 75.1646,14.8446 L75.1643,14.8443 Z M69.3767,11.8979 C70.55,11.7498 72.3252,10.9484 73.0194,10.0678 C73.2956,9.6934 73.4954,9.2589 73.5931,8.7808 C73.965,6.9607 72.7156,5.1984 70.8026,4.8446 C69.5199,4.6074 68.2646,5.0636 67.46169,5.9438 C66.02943,7.6355 67.49846,9.4206 65.55474,12.58 C67.63384,12.5708 69.6891,10.5679 70.5859,9.7667 C70.5409,10.0979 70.1849,11.2346 69.3767,11.8979 Z" id="Shape"></path>
        </g>
    </g>
</svg>