<svg width="74" height="74" viewBox="0 0 74 74" fill="none" xmlns="http://www.w3.org/2000/svg">
  <path
    fill-rule="evenodd"
    clip-rule="evenodd"
    d="M0.5 37C0.5 57.1584 16.8416 73.5 37 73.5C57.1584 73.5 73.5 57.1584 73.5 37C73.5 16.8416 57.1584 0.5 37 0.5C16.8416 0.5 0.5 16.8416 0.5 37ZM66.5 37C66.5 53.2924 53.2924 66.5 37 66.5C20.7076 66.5 7.5 53.2924 7.5 37C7.5 20.7076 20.7076 7.5 37 7.5C53.2924 7.5 66.5 20.7076 66.5 37Z"
    fill="#979797"
  />
  <path
    fill-rule="evenodd"
    clip-rule="evenodd"
    d="M0.5 37C0.5 57.1584 16.8416 73.5 37 73.5C57.1584 73.5 73.5 57.1584 73.5 37C73.5 16.8416 57.1584 0.5 37 0.5C16.8416 0.5 0.5 16.8416 0.5 37ZM66.5 37C66.5 53.2924 53.2924 66.5 37 66.5C20.7076 66.5 7.5 53.2924 7.5 37C7.5 20.7076 20.7076 7.5 37 7.5C53.2924 7.5 66.5 20.7076 66.5 37Z"
    fill="white"
  />
</svg>
