<svg width="73" height="73" viewBox="0 0 73 73" fill="none" xmlns="http://www.w3.org/2000/svg">
  <path
    fill-rule="evenodd"
    clip-rule="evenodd"
    d="M5.55439 0L0 5.55439L30.5491 36.1035L0 66.6526L5.55439 72.207L36.1035 41.6579L66.6526 72.207L72.207 66.6526L41.6579 36.1035L72.207 5.55439L66.6526 0L36.1035 30.5491L5.55439 0Z"
    fill="#979797"
  />
  <mask id="maskX" mask-type="alpha" maskUnits="userSpaceOnUse" x="0" y="0" width="73" height="73">
    <path
      fill-rule="evenodd"
      clip-rule="evenodd"
      d="M5.55439 0L0 5.55439L30.5491 36.1035L0 66.6526L5.55439 72.207L36.1035 41.6579L66.6526 72.207L72.207 66.6526L41.6579 36.1035L72.207 5.55439L66.6526 0L36.1035 30.5491L5.55439 0Z"
      fill="white"
    />
  </mask>
  <g mask="url(#maskX)">
    <rect x="-7" y="-8" width="86" height="86" fill="#4DCDEF" />
  </g>
</svg>
