<?xml version="1.0" standalone="no"?>
<!DOCTYPE svg PUBLIC "-//W3C//DTD SVG 20010904//EN"
 "http://www.w3.org/TR/2001/REC-SVG-20010904/DTD/svg10.dtd">
<svg version="1.0" xmlns="http://www.w3.org/2000/svg"
 width="700.000000pt" height="700.000000pt" viewBox="0 0 700.000000 700.000000"
 preserveAspectRatio="xMidYMid meet">
<metadata>
Created by potrace 1.11, written by Peter Selinger 2001-2013
</metadata>
<g transform="translate(0.000000,700.000000) scale(0.100000,-0.100000)"
fill="#FFFFFF" stroke="none">
<path d="M760 6985 c-346 -71 -618 -322 -727 -672 l-28 -88 0 -2725 0 -2725
28 -88 c83 -265 252 -468 487 -586 86 -44 179 -75 264 -90 83 -15 5349 -15
5432 0 197 34 377 132 520 280 113 119 180 233 231 396 l28 88 0 2725 0 2725
-28 88 c-51 163 -125 289 -239 405 -137 140 -321 238 -512 271 -41 8 -902 11
-2725 10 -2180 -1 -2678 -3 -2731 -14z m4651 -964 c292 -75 522 -318 583 -613
71 -344 -94 -703 -396 -866 l-68 -37 0 -176 c0 -394 -44 -709 -160 -1144 -117
-439 -257 -780 -455 -1114 -36 -61 -65 -115 -65 -121 0 -7 8 -24 19 -38 33
-48 79 -146 103 -222 20 -64 23 -96 23 -220 0 -124 -3 -156 -23 -220 -93 -293
-310 -498 -600 -564 -101 -23 -268 -21 -368 4 -100 25 -243 96 -314 157 -188
161 -288 366 -295 606 l-3 108 -108 61 c-227 125 -478 303 -684 484 -159 139
-503 493 -613 631 -159 199 -291 395 -405 599 l-48 87 -105 3 c-306 8 -570
173 -704 439 -63 125 -86 222 -86 365 0 230 84 426 250 583 87 82 179 137 301
179 91 31 101 32 250 33 149 0 158 -1 247 -32 80 -28 159 -67 213 -105 12 -8
37 2 110 47 409 249 851 415 1377 519 393 78 550 95 863 96 l215 1 33 67 c105
214 341 383 586 421 86 14 238 5 327 -18z"/>
<path d="M5086 5610 c-110 -39 -182 -104 -234 -210 -23 -48 -26 -67 -27 -155
0 -92 3 -105 31 -165 75 -156 241 -247 404 -221 173 28 299 151 330 323 30
162 -69 343 -227 415 -80 37 -194 42 -277 13z"/>
<path d="M4015 5129 c-151 -12 -295 -33 -530 -80 -468 -93 -822 -219 -1170
-418 -143 -82 -140 -78 -121 -127 50 -127 61 -331 26 -470 -40 -155 -125 -297
-244 -406 l-51 -47 39 -73 c55 -105 231 -365 332 -493 109 -137 545 -575 678
-681 55 -43 144 -111 199 -150 96 -69 336 -217 367 -228 9 -3 28 12 50 38 87
105 221 195 365 243 74 25 92 27 245 27 152 0 171 -2 240 -26 41 -14 75 -25
76 -25 79 117 252 469 322 657 71 192 161 514 206 735 47 234 77 573 68 773
-3 67 -5 72 -26 72 -47 0 -146 32 -241 79 -211 104 -359 291 -417 525 l-21 86
-141 -1 c-78 -1 -190 -6 -251 -10z"/>
<path d="M1360 4606 c-200 -43 -338 -244 -302 -438 25 -132 104 -236 222 -292
58 -28 75 -31 160 -31 85 0 102 3 160 31 197 93 281 323 190 517 -51 108 -164
194 -284 216 -70 13 -75 13 -146 -3z"/>
<path d="M4100 1846 c-115 -32 -202 -106 -253 -214 -29 -61 -32 -76 -32 -162
0 -86 3 -101 32 -162 93 -197 321 -280 516 -188 153 72 246 250 217 413 -41
224 -267 372 -480 313z"/>
</g>
</svg>