
<svg class="footer__left__logo" id="Capa_1" data-name="Capa 1" xmlns="http://www.w3.org/2000/svg" viewBox="0 0 313.59 313.59"><defs><style>.cls-1{fill:#3531FF;}</style></defs><title>iso</title><path class="cls-1" d="M217.52,376.15a17.22,17.22,0,1,0,0,24.37,15.07,15.07,0,0,0,1.35-1.53,17.27,17.27,0,0,0-1.36-22.84ZM341.05,499.68a17.25,17.25,0,0,0-23-1.22,15.53,15.53,0,0,0-1.35,1.21,17.24,17.24,0,1,0,28.8,7.65A17.08,17.08,0,0,0,341.05,499.68Zm7.46-131.2a36,36,0,0,1-10.26-20.69,159.31,159.31,0,0,0-40.66,3.84l-.3.05c-.31.07-.64.12-1,.18l-.69.13a163.38,163.38,0,0,0-57,22A36.26,36.26,0,0,1,231,414a37.53,37.53,0,0,1-3.84,3.33,163.46,163.46,0,0,0,31.77,41.61l.34.34a162.38,162.38,0,0,0,40.6,30.95,35.09,35.09,0,0,1,3.41-3.95A36.26,36.26,0,0,1,343,478.5a162.49,162.49,0,0,0,20.09-47.79c.06-.24.13-.48.21-.71a162.35,162.35,0,0,0,6.43-51.2A36.06,36.06,0,0,1,348.51,368.48Zm13.43-37.82-.41.43a17.24,17.24,0,0,0,24.75,24l.05,0a17.24,17.24,0,0,0-24.39-24.38Zm50-66.51H183.34a42.5,42.5,0,0,0-42.5,42.5V535.24a42.5,42.5,0,0,0,42.5,42.5H411.93a42.5,42.5,0,0,0,42.5-42.5V306.65A42.5,42.5,0,0,0,411.93,264.15ZM399.76,368.48a35.79,35.79,0,0,1-11.16,7.59,181.25,181.25,0,0,1-7.16,59.43A181.66,181.66,0,0,1,358,490.29,36.24,36.24,0,1,1,292.85,508a179.16,179.16,0,0,1-47.2-35.48q-1.71-1.62-3.38-3.3a182.36,182.36,0,0,1-32.91-44.9,36.23,36.23,0,1,1,17.31-65.28,181.8,181.8,0,0,1,65.44-25.73l.93-.17.54-.1a177.73,177.73,0,0,1,47.12-4.17,36.24,36.24,0,1,1,59.06,39.6Z" transform="translate(-140.84 -264.15)"></path></svg>