<?xml version="1.0" encoding="UTF-8"?>
<svg width="24px" height="24px" viewBox="0 0 24 24" version="1.1" xmlns="http://www.w3.org/2000/svg" xmlns:xlink="http://www.w3.org/1999/xlink">
    <!-- Generator: Sketch 58 (84663) - https://sketch.com -->
    <title>Check</title>
    <desc>Created with Sketch.</desc>
    <g id="UI" stroke="none" stroke-width="1" fill="none" fill-rule="evenodd" fill-opacity="1">
        <g id="01.02.Deposit-Onboarding" transform="translate(-654.000000, -584.000000)" fill="#3daa3d" fill-rule="nonzero">
            <g id="Modal" transform="translate(650.000000, 421.000000)">
                <g id="#UI-/-Components-/-Icons-/-32x32-/-Check-/-Disabled" transform="translate(0.000000, 159.000000)">
                    <path d="M16.3999714,4.37504917 C18.4937166,4.37504917 20.4312118,4.89848566 22.2124575,5.94535793 C23.9937033,6.9922302 25.4077627,8.40628956 26.4546349,10.1875353 C27.5015072,11.9687811 28.0249437,13.9062762 28.0249437,16.0000215 C28.0249437,18.0937667 27.5015072,20.0312618 26.4546349,21.8125076 C25.4077627,23.5937534 23.9937033,25.0078127 22.2124575,26.054685 C20.4312118,27.1015573 18.4937166,27.6249937 16.3999714,27.6249937 C14.3062261,27.6249937 12.368731,27.1015573 10.5874852,26.054685 C8.80623949,25.0078127 7.39218013,23.5937534 6.34530786,21.8125076 C5.2984356,20.0312618 4.77499911,18.0937667 4.77499911,16.0000215 C4.77499911,13.9062762 5.2984356,11.9687811 6.34530786,10.1875353 C7.39218013,8.40628956 8.80623949,6.9922302 10.5874852,5.94535793 C12.368731,4.89848566 14.3062261,4.37504917 16.3999714,4.37504917 Z M16.3999714,26.1249973 C18.2437168,26.1249973 19.9390255,25.6718732 21.4858968,24.7656256 C23.0327681,23.859378 24.2593279,22.6250054 25.1655755,21.0625094 C26.0718231,19.5000134 26.5249472,17.8047047 26.5249472,15.976584 C26.5249472,14.1484634 26.0718231,12.4609674 25.1655755,10.9140961 C24.2593279,9.36722477 23.0249554,8.14066496 21.4624593,7.23441736 C19.8999633,6.32816976 18.2046546,5.8750456 16.3765339,5.8750456 C14.5484133,5.8750456 12.8609173,6.32816976 11.314046,7.23441736 C9.7671747,8.14066496 8.54061489,9.3750456 7.63436729,10.9375335 C6.72811969,12.5000296 6.27499553,14.1953383 6.27499553,16.0234589 C6.27499553,17.8515795 6.72811969,19.5390755 7.63436729,21.0859468 C8.54061489,22.6328181 9.77499553,23.859378 11.3374835,24.7656256 C12.8999795,25.6718732 14.5874755,26.1249973 16.3999714,26.1249973 Z M14.5718507,21.625008 C14.478101,21.750008 14.353101,21.8125076 14.1968516,21.8125076 C14.0406023,21.8125076 13.8999776,21.750008 13.7749776,21.625008 L9.74373726,17.5468928 C9.64998748,17.453143 9.60311259,17.3281431 9.60311259,17.1718937 C9.60311259,17.0156443 9.64998748,16.8750196 9.74373726,16.7500197 L10.1656113,16.3750206 C10.259361,16.2812708 10.384361,16.2343959 10.5406104,16.2343959 C10.6968597,16.2343959 10.8374844,16.2812708 10.9624844,16.3750206 L14.1968516,19.6562627 L21.8374584,12.015656 C21.9624584,11.9219062 22.103083,11.8750313 22.2593324,11.8750313 C22.4155818,11.8750313 22.5405817,11.9375309 22.6343315,12.0625308 L23.0562055,12.43753 C23.1499553,12.5625299 23.1968302,12.7031546 23.1968302,12.8594039 C23.1968302,13.0156533 23.1499553,13.1406533 23.0562055,13.2344031 L14.5718507,21.625008 Z" id="c"></path>
                </g>
            </g>
        </g>
    </g>
</svg>