<?xml version="1.0" encoding="UTF-8"?>
<svg width="23px" height="21px" viewBox="0 0 23 21" version="1.1" xmlns="http://www.w3.org/2000/svg" xmlns:xlink="http://www.w3.org/1999/xlink">
    <!-- Generator: Sketch 58 (84663) - https://sketch.com -->
    <title>External Link</title>
    <desc>Created with Sketch.</desc>
    <g id="UI" stroke="none" stroke-width="1" fill="none" fill-rule="evenodd">
        <g id="01.01.Deposit-Onboarding" transform="translate(-1020.000000, -544.000000)" fill="#FFFFFF" fill-rule="nonzero">
            <g id="#UI-/-Components-/-Icons-/-24x24-/-External-Link" transform="translate(1019.000000, 543.000000)">
                <path d="M22.3332827,1.50004172 C22.6718237,1.50004172 22.9647918,1.62373954 23.2121868,1.87113459 C23.4595819,2.11852963 23.5832797,2.41149768 23.5832797,2.75003874 L23.5832797,6.5000298 C23.5832797,6.86461207 23.4595819,7.16409072 23.2121868,7.39846516 C22.9647918,7.6328396 22.6718237,7.75002682 22.3332827,7.75002682 C21.9947416,7.75002682 21.6952636,7.6328396 21.4348473,7.39846516 L20.0676631,6.03128092 L8.46612823,17.5937534 C8.36196161,17.69792 8.25128499,17.750003 8.13409777,17.750003 C8.01691055,17.750003 7.90623393,17.69792 7.80206731,17.5937534 L7.48956806,17.2812541 C7.38540144,17.1770875 7.33331843,17.0664109 7.33331843,16.9492236 C7.33331843,16.8320364 7.38540144,16.7213598 7.48956806,16.6171932 L19.0520405,5.01565834 L17.6848563,3.6484741 C17.4504818,3.38805786 17.3332946,3.0885798 17.3332946,2.75003874 C17.3332946,2.41149768 17.4504818,2.11852963 17.6848563,1.87113459 C17.9192307,1.62373954 18.2187093,1.50004172 18.5832916,1.50004172 L22.3332827,1.50004172 Z M22.3332827,6.5000298 L22.3332827,2.75003874 L18.5832916,2.75003874 L22.3332827,6.5000298 Z M18.5832916,19.6249985 C18.5832916,20.1458304 18.4010002,20.5885381 18.0364179,20.9531203 C17.6718356,21.3177026 17.229128,21.499994 16.7082961,21.499994 L2.95832886,21.499994 C2.43749697,21.499994 1.99478929,21.3177026 1.63020703,20.9531203 C1.26562476,20.5885381 1.08333333,20.1458304 1.08333333,19.6249985 L1.08333333,5.87503129 C1.08333333,5.3541994 1.26562476,4.91149172 1.63020703,4.54690946 C1.99478929,4.18232719 2.43749697,4.00003576 2.95832886,4.00003576 L15.6145487,4.00003576 C15.7447565,4.00003576 15.8489231,4.05211877 15.9270479,4.15628539 L16.2395472,4.46878465 C16.3957968,4.59899247 16.4348592,4.7617527 16.3567344,4.95706473 C16.2786096,5.15237677 16.1353806,5.25003278 15.9270479,5.25003278 L2.95832886,5.25003278 C2.77603743,5.25003278 2.6262984,5.30862639 2.50911118,5.42581361 C2.39192396,5.54300083 2.33333035,5.69273986 2.33333035,5.87503129 L2.33333035,19.6249985 C2.33333035,19.8072899 2.39192396,19.957029 2.50911118,20.0742162 C2.6262984,20.1914034 2.77603743,20.249997 2.95832886,20.249997 L16.7082961,20.249997 C16.8905875,20.249997 17.0403265,20.1914034 17.1575138,20.0742162 C17.274701,19.957029 17.3332946,19.8072899 17.3332946,19.6249985 L17.3332946,10.7187697 C17.3332946,10.5885619 17.3853776,10.4713747 17.4895442,10.3672081 L17.8020435,10.0547088 C17.9322513,9.924501 18.0950115,9.8984592 18.2903236,9.97658401 C18.4856356,10.0547088 18.5832916,10.1979379 18.5832916,10.4062705 L18.5832916,19.6249985 Z" id="ï"></path>
            </g>
        </g>
    </g>
</svg>