<?xml version="1.0" encoding="UTF-8"?>
<svg width="19px" height="24px" viewBox="0 0 19 24" version="1.1" xmlns="http://www.w3.org/2000/svg" xmlns:xlink="http://www.w3.org/1999/xlink">
    <!-- Generator: Sketch 58 (84663) - https://sketch.com -->
    <title>Clock</title>
    <desc>Created with Sketch.</desc>
    <g id="UI" stroke="none" stroke-width="1" fill="none" fill-rule="evenodd" fill-opacity="0.3">
        <g id="01.02.Deposit-Onboarding" transform="translate(-657.000000, -533.000000)" fill="#3D3D3D" fill-rule="nonzero">
            <g id="Modal" transform="translate(650.000000, 421.000000)">
                <g id="#UI-/-Components-/-Icons-/-32x32-/-In-Progress" transform="translate(0.000000, 108.000000)">
                    <path d="M24.6499589,5.50005007 C24.6499589,6.96879275 24.4155844,8.40628956 23.9468355,9.81253621 C23.4780867,11.2812825 22.8062135,12.5469045 21.9312154,13.6094022 C20.9937176,14.7343995 19.8687203,15.5312726 18.5562234,16.0000215 C19.8374701,16.4687703 20.9624674,17.2656434 21.9312154,18.3906408 C22.8062135,19.4531385 23.4780867,20.7187604 23.9468355,22.1875067 C24.4155844,23.5937534 24.6499589,25.0312502 24.6499589,26.4999964 L24.8374584,26.4999964 C24.9937078,26.4999964 25.1265205,26.554684 25.235895,26.6640585 C25.3452695,26.773433 25.3999571,26.9062457 25.3999571,27.0624951 L25.3999571,27.4374942 C25.3999571,27.5937436 25.3452695,27.7265562 25.235895,27.8359307 C25.1265205,27.9453052 24.9937078,27.9999928 24.8374584,27.9999928 L7.96249866,27.9999928 C7.80624927,27.9999928 7.67343661,27.9453052 7.56406211,27.8359307 C7.45468761,27.7265562 7.4,27.5937436 7.4,27.4374942 L7.4,27.0624951 C7.4,26.9062457 7.45468761,26.773433 7.56406211,26.6640585 C7.67343661,26.554684 7.80624927,26.4999964 7.96249866,26.4999964 L8.14999821,26.4999964 C8.14999821,25.0312502 8.38437265,23.5937534 8.85312154,22.1875067 C9.32187042,20.7187604 9.99374358,19.4531385 10.8687417,18.3906408 C11.8062395,17.2656434 12.9312368,16.4687703 14.2437337,16.0000215 C12.962487,15.5312726 11.8374897,14.7343995 10.8687417,13.6094022 C9.99374358,12.5469045 9.32187042,11.2812825 8.85312154,9.81253621 C8.38437265,8.40628956 8.14999821,6.96879275 8.14999821,5.50005007 L7.96249866,5.50005007 C7.80624927,5.50005007 7.67343661,5.44535888 7.56406211,5.33598438 C7.45468761,5.22660988 7.4,5.09379722 7.4,4.93754783 L7.4,4.56254873 C7.4,4.40629934 7.45468761,4.27348668 7.56406211,4.16411218 C7.67343661,4.05473768 7.80624927,4.00005007 7.96249866,4.00005007 L24.8374584,4.00005007 C24.9937078,4.00005007 25.1265205,4.05473768 25.235895,4.16411218 C25.3452695,4.27348668 25.3999571,4.40629934 25.3999571,4.56254873 L25.3999571,4.93754783 C25.3999571,5.09379722 25.3452695,5.22660988 25.235895,5.33598438 C25.1265205,5.44535888 24.9937078,5.50005007 24.8374584,5.50005007 L24.6499589,5.50005007 Z M9.64999464,5.50004649 C9.64999464,7.18754247 9.95468141,8.7500385 10.564055,10.1875353 C11.1734285,11.6250321 11.993739,12.7656542 13.0249866,13.6094022 C14.0562341,14.4531501 15.1812314,14.8750241 16.3999785,14.8750241 C17.6187256,14.8750241 18.743723,14.4531501 19.7749705,13.6094022 C20.806218,12.7656542 21.6265286,11.6250321 22.2359021,10.1875353 C22.8452757,8.7500385 23.1499624,7.18754247 23.1499624,5.50004649 L9.64999464,5.50004649 Z M23.1499624,26.4999964 C23.1499624,24.8125004 22.8452757,23.2500044 22.2359021,21.8125076 C21.6265286,20.3750108 20.806218,19.2343887 19.7749705,18.3906408 C18.743723,17.5468928 17.6187256,17.1250188 16.3999785,17.1250188 C15.1812314,17.1250188 14.0562341,17.5468928 13.0249866,18.3906408 C11.993739,19.2343887 11.1734285,20.3750108 10.564055,21.8125076 C9.95468141,23.2500044 9.64999464,24.8125004 9.64999464,26.4999964 L23.1499624,26.4999964 Z M20.0562198,10.8906586 C19.9312199,11.0156586 19.8140327,11.1484705 19.7046582,11.2890952 C19.5952837,11.4297199 19.462471,11.5000358 19.3062216,11.5000358 L13.4937355,11.5000358 C13.3374861,11.5000358 13.1968614,11.4375326 13.0718615,11.3125326 L12.7437373,10.8906586 C12.6187373,10.7031591 12.6109253,10.5078468 12.7202998,10.3047225 C12.8296743,10.1015983 12.9937364,10.0000358 13.2124861,10.0000358 L19.5874709,10.0000358 C19.8062207,10.0000358 19.9702828,10.1015983 20.0796573,10.3047225 C20.1890318,10.5078468 20.1812198,10.7031591 20.0562198,10.8906586 Z M20.806218,23.5000036 C20.931218,23.5000036 21.0405925,23.5390657 21.1343423,23.6171908 C21.228092,23.6953158 21.2905916,23.7968776 21.3218418,23.9218776 L21.4155916,24.2968767 C21.4780912,24.4843762 21.4468414,24.6484383 21.3218418,24.789063 C21.1968419,24.9296877 21.0562172,25.0000036 20.8999678,25.0000036 L11.8999893,25.0000036 C11.7437399,25.0000036 11.6031152,24.9296877 11.4781153,24.789063 C11.3739489,24.6718758 11.3348866,24.5384126 11.3609281,24.3886733 L11.4781153,23.9218776 C11.5093654,23.7968776 11.5718651,23.6953158 11.6656148,23.6171908 C11.7593646,23.5390657 11.8687391,23.5000036 11.993739,23.5000036 L20.806218,23.5000036 Z" id=""></path>
                </g>
            </g>
        </g>
    </g>
</svg>