<?xml version="1.0" encoding="UTF-8"?>
<svg width="21px" height="21px" viewBox="0 0 21 21" version="1.1" xmlns="http://www.w3.org/2000/svg" xmlns:xlink="http://www.w3.org/1999/xlink">
    <!-- Generator: Sketch 58 (84663) - https://sketch.com -->
    <title>Link</title>
    <desc>Created with Sketch.</desc>
    <g id="UI" stroke="none" stroke-width="1" fill="none" fill-rule="evenodd">
        <g id="01.01.Deposit-Onboarding" transform="translate(-626.000000, -423.000000)" fill="#2728E2" fill-rule="nonzero">
            <path d="M635.005188,442.015623 C634.354147,442.666663 633.59243,443.102859 632.720037,443.324213 C631.847643,443.545567 630.975249,443.545567 630.102856,443.324213 C629.230462,443.102859 628.468745,442.666663 627.817705,442.015623 C627.166664,441.364582 626.730468,440.602865 626.509114,439.730472 C626.28776,438.858078 626.28776,437.985684 626.509114,437.113291 C626.730468,436.240897 627.166664,435.47918 627.817705,434.82814 L631.059885,431.58596 C631.190092,431.455752 631.352853,431.42971 631.548165,431.507835 C631.743477,431.58596 631.841133,431.722678 631.841133,431.91799 C631.841133,432.113302 631.854153,432.295594 631.880195,432.464864 C631.906237,432.634134 631.867175,432.770853 631.763008,432.875019 L628.833327,435.843762 C628.104162,436.546886 627.73958,437.406259 627.73958,438.421881 C627.73958,439.437504 628.097652,440.303387 628.813796,441.019531 C629.52994,441.735675 630.395824,442.093747 631.411446,442.093747 C632.348944,442.093747 633.153306,441.783097 633.824532,441.161797 L637.114558,437.91407 C637.817681,437.184905 638.169243,436.319022 638.169243,435.31642 C638.169243,434.313818 637.817681,433.447935 637.114558,432.71877 C636.802058,432.40627 636.437476,432.158875 636.02081,431.976584 C635.812478,431.898459 635.714822,431.75523 635.727842,431.546898 C635.740863,431.338565 635.786436,431.130232 635.864561,430.921899 C635.890602,430.791691 635.968727,430.700545 636.098935,430.648462 C636.229143,430.596379 636.359351,430.596379 636.489559,430.648462 C637.088516,430.908878 637.622369,431.273461 638.091118,431.74221 C638.742158,432.39325 639.184865,433.154967 639.41924,434.02736 C639.653614,434.899754 639.653614,435.772148 639.41924,436.644542 C639.184865,437.516935 638.742158,438.278652 638.091118,438.929692 L635.005188,442.015623 Z M634.575501,435.257826 C633.924461,434.606786 633.481754,433.845069 633.247379,432.972675 C633.013005,432.100282 633.013005,431.227888 633.247379,430.355494 C633.481754,429.483101 633.924461,428.721384 634.575501,428.070343 L637.661431,424.984413 C638.312472,424.333373 639.074189,423.897176 639.946582,423.675823 C640.818976,423.454469 641.69137,423.454469 642.563763,423.675823 C643.436157,423.897176 644.197874,424.333373 644.848914,424.984413 C645.499955,425.635453 645.936151,426.39717 646.157505,427.269564 C646.378859,428.141958 646.378859,429.014352 646.157505,429.886745 C645.936151,430.759139 645.499955,431.520856 644.848914,432.171896 L641.606734,435.414076 C641.476527,435.544284 641.313766,435.570325 641.118454,435.492201 C640.923142,435.414076 640.825486,435.277357 640.825486,435.082045 C640.825486,434.886733 640.812466,434.704442 640.786424,434.535172 C640.760382,434.365901 640.799444,434.229183 640.903611,434.125016 L643.833292,431.156273 C644.562457,430.45315 644.927039,429.593777 644.927039,428.578155 C644.927039,427.562532 644.568967,426.696648 643.852823,425.980505 C643.136679,425.264361 642.270795,424.906288 641.255173,424.906288 C640.317675,424.906288 639.513313,425.216938 638.842087,425.838239 L635.552061,429.085966 C634.848938,429.815131 634.497376,430.681014 634.497376,431.683616 C634.497376,432.686218 634.848938,433.552101 635.552061,434.281266 C635.864561,434.593765 636.229143,434.84116 636.645809,435.023452 C636.854141,435.101577 636.951797,435.244806 636.938777,435.453138 C636.925756,435.661471 636.880183,435.869804 636.802058,436.078137 C636.776017,436.208345 636.697892,436.299491 636.567684,436.351574 C636.437476,436.403657 636.307268,436.403657 636.17706,436.351574 C635.578103,436.091157 635.04425,435.726575 634.575501,435.257826 Z" id="Link"></path>
        </g>
    </g>
</svg>