<svg id="Capa_1" data-name="Capa 1" xmlns="http://www.w3.org/2000/svg" viewBox="0 0 347.74 78.18"><defs><style>.cls-1{fill:#3531FF;}.cls-2{fill:#323131;}</style></defs><title>logo</title><path class="cls-1" d="M191.71,381.41h-57a10.61,10.61,0,0,0-10.6,10.6v57a10.6,10.6,0,0,0,10.6,10.6h57a10.6,10.6,0,0,0,10.6-10.6V392A10.61,10.61,0,0,0,191.71,381.41Zm-3,26a8.69,8.69,0,0,1-2.78,1.89,52.54,52.54,0,0,1-7.64,28.48A9,9,0,1,1,162,442.21a44.93,44.93,0,0,1-11.77-8.85l-.84-.82a45.64,45.64,0,0,1-8.21-11.19,9,9,0,1,1,4.32-16.28,45.19,45.19,0,0,1,16.31-6.41l.24,0,.13,0a44.5,44.5,0,0,1,11.75-1,9,9,0,1,1,14.72,9.87Zm-45.43,1.91a4.3,4.3,0,1,0-6.08,6.08,4.26,4.26,0,0,0,1.92,1.11,4.3,4.3,0,0,0,4.16-1.11,4,4,0,0,0,.34-.38,4.3,4.3,0,0,0-.34-5.7ZM174,440.13a4.24,4.24,0,0,0-2.46-1.22,4.3,4.3,0,0,0-3.28.92l-.33.3a4.28,4.28,0,0,0-1.09,4.22A4.14,4.14,0,0,0,168,446.2a4.29,4.29,0,0,0,7.18-4.17A4.25,4.25,0,0,0,174,440.13Zm1.86-32.71a9,9,0,0,1-2.55-5.16,39.63,39.63,0,0,0-10.14,1h-.07l-.24,0-.18,0a40.58,40.58,0,0,0-14.21,5.48,9.07,9.07,0,0,1-1.91,10,8.4,8.4,0,0,1-1,.83A40.94,40.94,0,0,0,153.56,430l.09.09a40.35,40.35,0,0,0,10.12,7.71,8.64,8.64,0,0,1,.85-1,9,9,0,0,1,9.9-1.93,40.44,40.44,0,0,0,5-11.91c0-.07,0-.13.05-.18A40.52,40.52,0,0,0,181.19,410,9,9,0,0,1,175.9,407.42Zm3.35-9.43-.1.11a4.3,4.3,0,0,0,6.17,6h0a4.3,4.3,0,1,0-6.08-6.08Z" transform="translate(-124.13 -381.41)"/><path class="cls-2" d="M245.23,394.63c-.2-1.32-1.28-3.56-4.72-3.56-2.36,0-3.88,1.48-3.88,3,0,1.36.84,2.36,2.8,2.72l3.8.72c5.4,1,8.2,4.48,8.2,8.52,0,4.44-3.72,9-10.48,9-7.84,0-11.19-5.08-11.59-9.08l5.79-1.4c.24,2.6,2,4.88,5.88,4.88,2.48,0,4-1.2,4-3,0-1.44-1.16-2.48-3-2.84l-3.88-.72c-4.8-.92-7.72-4.12-7.72-8.32,0-5.36,4.72-9.12,10.16-9.12,7.08,0,9.76,4.24,10.36,7.56Z" transform="translate(-124.13 -381.41)"/><path class="cls-2" d="M271.63,392.11v22.32h-6.32V392.11h-8.72v-6h23.8v6Z" transform="translate(-124.13 -381.41)"/><path class="cls-2" d="M301.79,408.67h-11l-2,5.76h-6.63l10.67-28.36h7.32l10.56,28.36h-6.88Zm-8.88-5.76h6.88l-3.4-9.8Z" transform="translate(-124.13 -381.41)"/><path class="cls-2" d="M327.51,392.11v22.32h-6.32V392.11h-8.71v-6h23.79v6Z" transform="translate(-124.13 -381.41)"/><path class="cls-2" d="M343.32,414.43V386.07h17.95v6H349.63v5.4h10.56V403H349.63v5.44h11.68v6Z" transform="translate(-124.13 -381.41)"/><path class="cls-2" d="M229.76,441.35a14.43,14.43,0,0,1,14.63-14.84c8.52,0,12.28,5.48,13.2,9.56l-6,1.88c-.44-2-2.24-5.28-7.24-5.28-3.8,0-8.08,2.72-8.08,8.68a8,8,0,0,0,8.16,8.39,7.24,7.24,0,0,0,7.44-5.32l6,1.72c-.92,3.92-4.68,9.92-13.48,9.92C236.31,456.06,229.76,450.18,229.76,441.35Z" transform="translate(-124.13 -381.41)"/><path class="cls-2" d="M283.11,455.46V444.18H271.79v11.28h-6.32V427.11h6.32v11.12h11.32V427.11h6.36v28.35Z" transform="translate(-124.13 -381.41)"/><path class="cls-2" d="M315.75,449.7h-11l-2,5.76h-6.64l10.68-28.35h7.32l10.56,28.35h-6.88Zm-8.88-5.76h6.88l-3.4-9.79Z" transform="translate(-124.13 -381.41)"/><path class="cls-2" d="M349.31,455.46l-11.68-18.63v18.63h-6.28V427.11H339l10.64,17.23V427.11H356v28.35Z" transform="translate(-124.13 -381.41)"/><path class="cls-2" d="M383.27,455.46l-11.68-18.63v18.63h-6.28V427.11H373l10.64,17.23V427.11H390v28.35Z" transform="translate(-124.13 -381.41)"/><path class="cls-2" d="M399.27,455.46V427.11h18v6H405.59v5.4h10.56V444H405.59v5.44h11.68v6Z" transform="translate(-124.13 -381.41)"/><path class="cls-2" d="M425.79,455.46V427.11h6.32v22.31h12.24v6Z" transform="translate(-124.13 -381.41)"/><path class="cls-2" d="M465.67,435.67c-.2-1.32-1.28-3.56-4.72-3.56-2.36,0-3.88,1.48-3.88,3,0,1.36.84,2.36,2.8,2.72l3.8.72c5.4,1,8.2,4.48,8.2,8.51,0,4.44-3.72,9-10.48,9-7.84,0-11.2-5.08-11.6-9.08l5.8-1.4c.24,2.6,2,4.88,5.88,4.88,2.48,0,4-1.2,4-3,0-1.44-1.16-2.48-3-2.84l-3.88-.72c-4.8-.91-7.72-4.12-7.72-8.31,0-5.36,4.72-9.12,10.16-9.12,7.08,0,9.76,4.24,10.36,7.56Z" transform="translate(-124.13 -381.41)"/></svg>
