<svg xmlns="http://www.w3.org/2000/svg" width="97" height="70" fill="none" viewBox="0 0 97 70">
    <path fill="#FE7439" fill-rule="evenodd" d="M5.602 0A5.6 5.6 0 0 0 0 5.6v58.8A5.6 5.6 0 0 0 5.602 70h85.427a5.6 5.6 0 0 0 5.601-5.6V5.6A5.6 5.6 0 0 0 91.03 0H5.602zM64.47 56.39c9.947-.501 14.012-8.291 15.588-13.158.125-.405.687-2.435-1.037-1.338a7.229 7.229 0 0 1-.594.43c-1.021.663-2.41 1.2-4.27 1.293-2.466.124-4.793-1.75-7.316-3.783-2.984-2.404-6.243-5.028-10.327-4.823-1.933.098-4.596.557-8.2 4.15-3.602-3.593-6.266-4.052-8.199-4.15-4.084-.205-7.342 2.42-10.326 4.823-2.523 2.032-4.85 3.907-7.315 3.783-1.86-.094-3.25-.63-4.271-1.293l-.003-.002a7.229 7.229 0 0 1-.591-.428c-1.724-1.097-1.162.933-1.036 1.338 1.576 4.867 5.64 12.657 15.588 13.158 7.92.399 13.371-3.224 16.154-7.218 2.784 3.994 8.235 7.616 16.155 7.218zm12.164-37.303l-.03-.018L82.906 8.54v.002-.002l6.442 10.53-.03.017.03.013-6.365 3.675-.076.045-6.303-3.72.03-.013zm6.35 4.91l-.078.095v-.094L76.604 20.3l6.302 8.82v-.225l.078.225 6.364-8.82-6.364 3.698z" clip-rule="evenodd"/>
</svg>
