<?xml version="1.0" encoding="UTF-8"?>
<svg width="625px" height="352px" viewBox="0 0 625 352" version="1.1" xmlns="http://www.w3.org/2000/svg" xmlns:xlink="http://www.w3.org/1999/xlink">
    <!-- Generator: Sketch 58 (84663) - https://sketch.com -->
    <title>HERO</title>
    <desc>Created with Sketch.</desc>
    <defs>
        <rect id="path-1" x="0" y="0" width="670" height="352"></rect>
    </defs>
    <g id="Page-1" stroke="none" stroke-width="1" fill="none" fill-rule="evenodd">
        <g id="00.01.Home" transform="translate(0.000000, -845.000000)">
            <g id="HERO" transform="translate(-45.000000, 845.000000)">
                <mask id="mask-2" fill="white">
                    <use xlink:href="#path-1"></use>
                </mask>
                <use id="Mask" fill="#F16721" xlink:href="#path-1"></use>
                <polygon id="W3" stroke="#FFFFFF" mask="url(#mask-2)" points="871 16.8642352 626.995518 -69.9829198 647.243352 -128 589.35624 -128 443.178627 298.807998 297.005533 -127.272584 252.139406 -128 103.792382 298.089618 -40.9389574 -128 -101 -128 77.7368539 382 127.66946 382 273.123936 -35.4012881 418.573892 382 469.229635 382 609.662829 -20.3333835 790.528417 41.036136 604.650586 103.349941 604.650586 144.514462 788.639222 209.09636 604.650586 269.901115 604.650586 329.576343 871 235.156832 871 187.947076 694.568145 125.633271 871 64.0739907"></polygon>
            </g>
        </g>
    </g>
</svg>