<?xml version="1.0" encoding="UTF-8"?>
<svg width="669px" height="93px" viewBox="0 0 669 93" version="1.1" xmlns="http://www.w3.org/2000/svg" xmlns:xlink="http://www.w3.org/1999/xlink">
    <!-- Generator: Sketch 58 (84663) - https://sketch.com -->
    <title>Logo</title>
    <desc>Created with Sketch.</desc>
    <defs>
        <polygon id="path-1" points="0 0.232137931 91.9284505 0.232137931 91.9284505 92.1724138 0 92.1724138"></polygon>
    </defs>
    <g id="Page-1" stroke="none" stroke-width="1" fill="none" fill-rule="evenodd">
        <g id="00.00.Logo" transform="translate(-506.000000, -494.000000)">
            <g id="Logo" transform="translate(506.000000, 491.000000)">
                <g>
                    <g id="Group-28">
                        <g id="Group-3" transform="translate(0.000000, 3.181997)">
                            <mask id="mask-2" fill="white">
                                <use xlink:href="#path-1"></use>
                            </mask>
                            <g id="Clip-2"></g>
                            <path d="M83.9653026,92.1724138 L7.95871071,92.1724138 C3.562425,92.1724138 -0.00102397959,88.6084138 -0.00102397959,84.2114483 L-0.00102397959,8.19310345 C-0.00102397959,3.79613793 3.562425,0.232137931 7.95871071,0.232137931 L83.9653026,0.232137931 C88.3615883,0.232137931 91.9284505,3.79613793 91.9284505,8.19310345 L91.9284505,84.2114483 C91.9284505,88.6084138 88.3615883,92.1724138 83.9653026,92.1724138" id="Fill-1" fill="#F16721" mask="url(#mask-2)"></path>
                        </g>
                        <polygon id="Fill-4" fill="#FEFEFE" points="25.021624 27.6752793 25.021624 19.0861759 65.9296087 33.652831 65.9296087 40.9071414 38.8316954 50.3633483 65.9296087 59.9424517 65.9296087 67.1967621 25.021624 81.7053828 25.021624 72.5359345 53.2800474 63.1923828 25.021624 53.2684862 25.021624 46.9427276 53.570175 37.3670379"></polygon>
                        <polygon id="Fill-6" fill="#231F20" points="212.207824 21.7444966 222.864038 21.7444966 201.292202 82.8309103 192.195849 82.8309103 176.863462 38.8988069 161.438916 82.8309103 152.342564 82.8309103 130.859472 21.7444966 142.119834 21.7444966 157.281559 67.2332897 173.221508 21.7444966 181.106151 21.7444966 196.612615 67.4927379"></polygon>
                        <path d="M237.11408,49.8181655 C235.352835,51.6650276 234.27083,54.3209586 233.868064,57.7893724 L253.446554,57.7893724 C253.330503,54.2663379 252.463534,51.5933379 250.845646,49.7737862 C249.231171,47.9542345 246.978416,47.0461655 244.090794,47.0461655 C241.199758,47.0461655 238.878738,47.9678897 237.11408,49.8181655 L237.11408,49.8181655 Z M262.716983,63.5928207 L233.868064,63.5928207 C234.212804,67.5255103 235.397207,70.4374759 237.41786,72.3457862 C239.441927,74.2506828 242.326136,75.2065448 246.080728,75.2065448 C250.760314,75.2065448 255.033722,73.7010621 258.904365,70.6969241 L262.02409,78.1526483 C260.058049,79.7673724 257.590258,81.0680276 254.617304,82.0477862 C251.640937,83.0309586 248.650916,83.5225448 245.647243,83.5225448 C238.718314,83.5225448 233.243437,81.5596138 229.229437,77.6303379 C225.215437,73.7010621 223.208437,68.3311655 223.208437,61.5138207 C223.208437,57.1817172 224.075406,53.3412 225.809345,49.992269 C227.53987,46.6399241 229.980355,44.0420276 233.130799,42.1917517 C236.27783,40.3448897 239.844692,39.4197517 243.831386,39.4197517 C249.664656,39.4197517 254.269151,41.2973379 257.648284,45.0525103 C261.027416,48.8076828 262.716983,53.9761655 262.716983,60.5579586 L262.716983,63.5928207 Z" id="Fill-8" fill="#231F20"></path>
                        <path d="M301.005969,71.4776586 C302.913984,69.0504517 303.866285,65.6434862 303.866285,61.2533483 C303.866285,56.9212448 302.924224,53.6030379 301.046928,51.2884862 C299.173045,48.9807621 296.500459,47.8234862 293.032581,47.8234862 C289.564704,47.8234862 286.898943,48.9944172 285.018234,51.3328655 C283.147765,53.6713138 282.205704,57.0407276 282.205704,61.4274517 C282.205704,65.8175897 283.147765,69.1972448 285.018234,71.5630034 C286.898943,73.9355897 289.564704,75.1167621 293.032581,75.1167621 C296.43902,75.1167621 299.097954,73.9048655 301.005969,71.4776586 M305.685556,42.1053828 C308.511739,43.8976241 310.720122,46.4374862 312.314117,49.7317966 C313.897872,53.0226931 314.693163,56.8666241 314.693163,61.2533483 C314.693163,65.6434862 313.897872,69.5283828 312.314117,72.9080379 C310.720122,76.2876931 308.498086,78.9026586 305.63777,80.7495207 C302.780867,82.5997966 299.531438,83.5215207 295.892897,83.5215207 C292.831198,83.5215207 290.100586,82.8592448 287.707887,81.5278655 C285.304948,80.2033138 283.472025,78.3530379 282.205704,75.9838655 L282.205704,82.8285207 L271.549489,82.8285207 L271.549489,21.7455207 L282.37978,21.7455207 L282.37978,46.6115897 C283.646102,44.3004517 285.465372,42.5252793 287.841005,41.2792448 C290.206397,40.0400379 292.892637,39.4187276 295.892897,39.4187276 C299.586051,39.4187276 302.852545,40.3165552 305.685556,42.1053828" id="Fill-10" fill="#231F20"></path>
                        <path d="M361.691437,56.7058345 C363.626758,59.2764207 364.596126,62.4649034 364.596126,66.2815241 C364.596126,71.5933862 362.643738,75.7991793 358.749202,78.8852483 C354.84784,81.9781448 349.547039,83.5211793 342.846799,83.5211793 C338.747467,83.5211793 334.805146,82.8862138 331.026661,81.6162828 C327.24135,80.3463517 324.104559,78.6121448 321.626529,76.4170759 L325.350401,68.2751793 C330.661442,72.4912138 336.351355,74.5975241 342.416728,74.5975241 C346.283957,74.5975241 349.174993,73.8328345 351.079595,72.3000414 C352.984197,70.7706621 353.939911,68.445869 353.939911,65.3256621 C353.939911,62.2669034 352.970544,59.996731 351.035222,58.5253862 C349.103314,57.0540414 346.113294,56.3166621 342.068574,56.3166621 L334.013268,56.3166621 L334.013268,47.4783517 L340.597457,47.4783517 C348.509406,47.4783517 352.465381,44.5049379 352.465381,38.5546966 C352.465381,35.7792828 351.612064,33.6422483 349.912258,32.1401793 C348.205626,30.6381103 345.79586,29.8904897 342.676136,29.8904897 C339.96259,29.8904897 337.201258,30.4230414 334.402381,31.4915586 C331.603503,32.5600759 328.872891,34.1338345 326.213957,36.2128345 L322.493498,28.0675241 C324.916916,25.875869 328.019574,24.1416621 331.804886,22.8683172 C335.586784,21.6018 339.44036,20.9634207 343.369029,20.9634207 C349.376376,20.9634207 354.1686,22.4211103 357.752529,25.3399034 C361.333044,28.2552828 363.121595,32.1982138 363.121595,37.1652828 C363.063569,40.5722483 362.182947,43.5354207 360.479728,46.0479724 C358.776508,48.5605241 356.421355,50.3664207 353.417682,51.4622483 C356.998197,52.3873862 359.759529,54.1352483 361.691437,56.7058345" id="Fill-12" fill="#231F20"></path>
                        <polygon id="Fill-14" fill="#231F20" points="390.930833 82.8292034 390.930833 30.9293069 371.00419 30.9293069 371.00419 21.7427897 422.029093 21.7427897 422.029093 30.9293069 402.105863 30.9293069 402.105863 82.8292034"></polygon>
                        <path d="M449.233159,71.6510793 C451.083148,69.3399414 452.00473,65.9329759 452.00473,61.426769 C452.00473,56.9785966 451.083148,53.5852862 449.233159,51.2434241 C447.386582,48.9083897 444.731062,47.7374586 441.263184,47.7374586 C437.79872,47.7374586 435.126133,48.9083897 433.248837,51.2434241 C431.374955,53.5852862 430.432893,56.9785966 430.432893,61.426769 C430.432893,65.9329759 431.357888,69.3399414 433.207878,71.6510793 C435.057868,73.9622172 437.713388,75.1194931 441.177853,75.1194931 C444.700342,75.1194931 447.386582,73.9622172 449.233159,71.6510793 M429.873118,80.8341828 C426.606623,79.0453552 424.080807,76.474769 422.288842,73.1258379 C420.500291,69.7734931 419.606016,65.8783552 419.606016,61.426769 C419.606016,56.9785966 420.500291,53.0937 422.288842,49.7754931 C424.080807,46.4504586 426.606623,43.8969414 429.873118,42.1047 C433.132786,40.3158724 436.931751,39.4214586 441.263184,39.4214586 C445.598031,39.4214586 449.393582,40.3158724 452.656664,42.1047 C455.919745,43.8969414 458.431909,46.4504586 460.193154,49.7754931 C461.957812,53.0937 462.835021,56.9785966 462.835021,61.426769 C462.835021,65.8783552 461.957812,69.7734931 460.193154,73.1258379 C458.431909,76.474769 455.919745,79.0453552 452.656664,80.8341828 C449.393582,82.6264241 445.598031,83.5242517 441.263184,83.5242517 C436.931751,83.5242517 433.132786,82.6264241 429.873118,80.8341828" id="Fill-16" fill="#231F20"></path>
                        <path d="M499.655279,48.4311414 L493.330498,49.0387966 C486.169468,49.7864172 482.588953,53.4289345 482.588953,59.9526931 L482.588953,82.8285207 L471.758662,82.8285207 L471.758662,40.4599345 L482.070136,40.4599345 L482.070136,47.9122448 C484.264866,42.8256931 488.797682,40.0571069 495.671998,39.592831 L498.962386,39.3333828 L499.655279,48.4311414 Z" id="Fill-18" fill="#231F20"></path>
                        <path d="M532.834607,48.4311414 L526.509827,49.0387966 C519.348796,49.7864172 515.768281,53.4289345 515.768281,59.9526931 L515.768281,82.8285207 L504.93799,82.8285207 L504.93799,40.4599345 L515.249464,40.4599345 L515.249464,47.9122448 C517.444194,42.8256931 521.97701,40.0571069 528.851327,39.592831 L532.141714,39.3333828 L532.834607,48.4311414 Z" id="Fill-20" fill="#231F20"></path>
                        <path d="M548.820977,49.8181655 C547.056318,51.6650276 545.977727,54.3209586 545.574961,57.7893724 L565.150038,57.7893724 C565.033987,54.2663379 564.170431,51.5933379 562.552543,49.7737862 C560.934655,47.9542345 558.685313,47.0461655 555.794278,47.0461655 C552.906655,47.0461655 550.582221,47.9678897 548.820977,49.8181655 L548.820977,49.8181655 Z M574.420466,63.5928207 L545.574961,63.5928207 C545.916288,67.5255103 547.100691,70.4374759 549.124757,72.3457862 C551.14541,74.2506828 554.033033,75.2065448 557.787624,75.2065448 C562.467211,75.2065448 566.740619,73.7010621 570.611262,70.6969241 L573.727573,78.1526483 C571.764946,79.7673724 569.293742,81.0680276 566.320788,82.0477862 C563.347834,83.0309586 560.357813,83.5225448 557.35414,83.5225448 C550.425211,83.5225448 544.950334,81.5596138 540.936334,77.6303379 C536.922334,73.7010621 534.918747,68.3311655 534.918747,61.5138207 C534.918747,57.1817172 535.785716,53.3412 537.512829,49.992269 C539.246767,46.6399241 541.687252,44.0420276 544.837696,42.1917517 C547.984727,40.3448897 551.551589,39.4197517 555.534869,39.4197517 C561.36814,39.4197517 565.972635,41.2973379 569.355181,45.0525103 C572.734313,48.8076828 574.420466,53.9761655 574.420466,60.5579586 L574.420466,63.5928207 Z" id="Fill-22" fill="#231F20"></path>
                        <path d="M619.213088,43.7504897 C621.694532,46.6419724 622.936961,51.0013862 622.936961,56.8355586 L622.936961,82.8281793 L612.10667,82.8281793 L612.10667,57.4432138 C612.10667,54.1489034 611.485456,51.7524207 610.243027,50.2469379 C609.004012,48.7482828 607.051624,47.9972483 604.396104,47.9972483 C601.276379,47.9972483 598.781282,48.9804207 596.903986,50.9399379 C595.02669,52.9096966 594.088042,55.5349034 594.088042,58.8292138 L594.088042,82.8281793 L583.257752,82.8281793 L583.257752,40.4595931 L593.828634,40.4595931 L593.828634,46.7853517 C595.269032,44.4161793 597.207767,42.5966276 599.634598,41.3232828 C602.058017,40.0567655 604.798869,39.4183862 607.863981,39.4183862 C612.94292,39.4183862 616.724818,40.8624207 619.213088,43.7504897" id="Fill-24" fill="#231F20"></path>
                        <path d="M659.582118,75.1181276 L659.063302,83.1746793 C657.329363,83.3487828 655.738782,83.4375414 654.29497,83.4375414 C648.345649,83.4375414 643.95619,82.0651966 641.130006,79.3170931 C638.296996,76.579231 636.883904,72.4895069 636.883904,67.0615759 L636.883904,48.6031966 L628.739853,48.6031966 L628.739853,40.4613 L636.883904,40.4613 L636.883904,27.8097828 L647.710782,27.8097828 L647.710782,40.4613 L658.889226,40.4613 L658.889226,48.6031966 L647.710782,48.6031966 L647.710782,66.8874724 C647.710782,72.5475414 650.338996,75.3775759 655.595424,75.3775759 C656.865159,75.3775759 658.196333,75.292231 659.582118,75.1181276" id="Fill-26" fill="#231F20"></path>
                    </g>
                    <ellipse id="Oval" fill="#231F20" cx="665.586735" cy="27.3103448" rx="3.41326531" ry="3.4137931"></ellipse>
                </g>
            </g>
        </g>
    </g>
</svg>