<svg width="253" height="227" xmlns="http://www.w3.org/2000/svg">

 <g>
  <title>background</title>
  <rect fill="none" id="canvas_background" height="229" width="255" y="-1" x="-1"/>
 </g>
 <g>
  <title>Layer 1</title>
  <path stroke="null" fill="#ea692b" id="svg_2" d="m185.794359,195.510599l-154.165344,0l0,-120.946279l35.514853,0c0,0 8.70886,-13.258997 26.373639,-25.710339l-73.747364,0c-6.547086,0 -11.858873,5.720887 -11.858873,12.855169l0,146.656618c0,7.066978 5.311787,12.855169 11.858873,12.855169l177.883089,0c6.547086,0 11.858873,-5.720887 11.858873,-12.855169l0,-73.361961l-23.717745,21.133629l0,39.373163zm-19.764788,-103.581705l0,43.007608l79.059151,-64.275847l-79.059151,-64.881588l0,40.180817c-95.61216,0 -98.823938,110.581378 -98.823938,110.581378c27.053053,-48.122754 46.941371,-64.61237 98.823938,-64.61237z"/>
 </g>
</svg>