<?xml version="1.0" encoding="UTF-8"?>
<svg width="64px" height="65px" viewBox="0 0 64 65" version="1.1" xmlns="http://www.w3.org/2000/svg" xmlns:xlink="http://www.w3.org/1999/xlink">
    <!-- Generator: Sketch 52.6 (67491) - http://www.bohemiancoding.com/sketch -->
    <title>256x256_logo-orange</title>
    <desc>Created with Sketch.</desc>
    <g id="Page-1" stroke="none" stroke-width="1" fill="none" fill-rule="evenodd">
        <path d="M51.6731311,46.9701346 C39.7725838,55.9166357 33.1844456,50.9695386 27.6372635,59.9937274 C26.5446802,55.7619139 32.5739445,49.5821755 34.2546516,46.0446559 C23.9082985,56.2988424 14.7272084,51.6928435 7.17304815,62.0210703 C9.4570503,41.9909972 14.261503,39.636944 17.6606445,30.6397503 C14.5131836,33.9376019 10.8525391,36.2115277 4,35.7154339 C10.8261719,31.4459027 14.1669922,18.0435589 18.1245087,13.9677998 C18.1314945,13.9606053 18.1384931,13.953433 18.1455045,13.9462827 L18.137565,13.9384781 C23.3703938,6.3793606 32.7472179,2.21181274 42.3502065,4.07844464 C55.3015822,6.59593704 63.7599158,19.1359323 61.2424234,32.0873079 C60.0273962,38.3380809 56.4777725,43.5422649 51.6740593,46.9710488 L51.6731311,46.9701346 Z M35.5985086,38.3685339 C38.8572603,37.9363491 43.7878723,35.59669 45.7158688,33.025974 C46.483053,31.9328894 47.0380124,30.6644378 47.309294,29.2688147 C48.3421114,23.9554298 44.8720258,18.8108164 39.558641,17.777999 C35.9961009,17.0855114 32.5094319,18.4172989 30.2795105,20.9867962 C26.3014526,25.9253338 30.381648,31.1364954 24.9830322,40.3597369 C30.7576482,40.3328912 36.466062,34.4860291 38.9569627,32.147137 C38.8319356,33.1138622 37.8431934,36.4322895 35.5985086,38.3685339 Z" id="Combined-Shape-Copy-3" fill="#BA4B2B"></path>
    </g>
</svg>