<svg xmlns="http://www.w3.org/2000/svg" width="60" height="60" fill="none" viewBox="0 0 60 60">
    <path fill="#FE7439" d="M29.271 36.586V26.342l-10.244 4.424 10.244 5.82zM29.271 49.756v-8.414l-10.244-6.22 10.244 14.634zM29.271 24.592V11.707L19.027 29.268l10.244-4.676zM30.73 49.756l10.244-14.634-10.243 6.22v8.414zM30.73 11.707v12.885l10.244 4.676-10.243-17.561z"/>
    <path fill="#FE7439" d="M30 0C13.431 0 0 13.431 0 30c0 16.569 13.431 30 30 30 16.569 0 30-13.431 30-30C60 13.431 46.569 0 30 0zm13.736 33.6L30.624 51.938a.673.673 0 0 1-.547.282c-.026 0-.051-.01-.077-.012-.026.003-.052.012-.077.012a.673.673 0 0 1-.547-.282L16.264 33.6a.672.672 0 0 1 .89-.97L30 40.267l12.846-7.636a.673.673 0 0 1 .89.97zm.105-3.25a.673.673 0 0 1-.315.414l-13.112 7.61a.678.678 0 0 1-.337.092c-.026 0-.052-.007-.078-.01-.025.003-.05.01-.077.01a.67.67 0 0 1-.338-.091l-13.111-7.61-.014-.01-.033-.024a.674.674 0 0 1-.102-.089l-.032-.034a.653.653 0 0 1-.091-.146l-.005-.008c-.008-.018-.012-.036-.017-.054-.006-.017-.015-.033-.019-.05 0-.005 0-.009-.002-.013-.006-.024-.008-.049-.012-.074-.002-.019-.005-.038-.006-.058a.65.65 0 0 1 .004-.075c.001-.018.001-.037.004-.056.004-.024.011-.048.018-.071.005-.019.008-.037.016-.056.008-.024.02-.045.032-.068l.021-.045L29.347 8.102a.67.67 0 0 1 .683-.314.667.667 0 0 1 .623.314l13.112 21.733c.093.154.12.34.076.514z"/>
    <path fill="#FE7439" d="M30.73 36.586l10.244-5.82-10.243-4.424v10.244z"/>
</svg>
