<svg xmlns="http://www.w3.org/2000/svg" width="98" height="70" fill="none" viewBox="0 0 98 70">
    <path fill="#ACACAC" fill-rule="evenodd" d="M5.681 0C2.544 0 0 2.507 0 5.6v58.8C0 67.493 2.544 70 5.681 70H92.32C95.457 70 98 67.493 98 64.4V5.6C98 2.507 95.457 0 92.319 0H5.68zm59.703 45.61c10.088-.501 14.21-8.291 15.808-13.158.128-.405.698-2.435-1.05-1.338a7.319 7.319 0 0 1-.603.43c-1.036.663-2.445 1.2-4.332 1.293-2.5.124-4.86-1.75-7.418-3.783-3.028-2.404-6.332-5.028-10.474-4.823-1.96.098-4.661.557-8.316 4.15-3.654-3.593-6.355-4.052-8.315-4.15-4.142-.205-7.446 2.42-10.473 4.823-2.558 2.032-4.918 3.907-7.419 3.783-1.886-.094-3.295-.63-4.331-1.293l-.003-.002a7.319 7.319 0 0 1-.6-.429c-1.748-1.096-1.177.934-1.05 1.339 1.598 4.867 5.72 12.657 15.809 13.158 8.032.399 13.56-3.224 16.383-7.218 2.823 3.994 8.352 7.616 16.384 7.218z" clip-rule="evenodd"/>
</svg>
