<svg xmlns="http://www.w3.org/2000/svg" width="46" height="46" fill="none" viewBox="0 0 46 46">
    <path fill="#FE7439" fill-rule="evenodd" d="M23 46c12.703 0 23-10.297 23-23S35.703 0 23 0 0 10.297 0 23s10.297 23 23 23zm11.373-19.75c.294-1.035.46-2.121.46-3.25 0-6.581-5.336-11.917-11.916-11.917-2.309 0-4.449.676-6.273 1.813L14.641 10l-2.331 7.583h7.577l-2.013-2.91a9.639 9.639 0 0 1 5.043-1.423c5.376 0 9.75 4.375 9.75 9.75 0 1.14-.207 2.232-.57 3.25h2.276zm-11.456 6.5a9.645 9.645 0 0 0 5.033-1.417l-2.01-2.904h7.577L31.186 36l-2.008-2.89a11.805 11.805 0 0 1-6.261 1.807C16.335 34.917 11 29.58 11 23c0-1.129.167-2.215.46-3.25h2.275a9.682 9.682 0 0 0-.568 3.25c0 5.375 4.374 9.75 9.75 9.75z" clip-rule="evenodd"/>
</svg>
