<svg width="102" height="37" viewBox="0 0 102 37" fill="none" xmlns="http://www.w3.org/2000/svg">
<path d="M5.4 3.26C5.4 3.94 5.19333 4.49333 4.78 4.92C4.37333 5.34 3.83 5.55 3.15 5.55H2.33V8H0.62V1H3.14C3.84667 1 4.4 1.20333 4.8 1.61C5.2 2.01667 5.4 2.56667 5.4 3.26ZM2.91 2.47H2.33V4.08H2.89C3.13667 4.08 3.32333 4.00667 3.45 3.86C3.58333 3.70667 3.65 3.50667 3.65 3.26C3.65 3.02 3.58333 2.83 3.45 2.69C3.32333 2.54333 3.14333 2.47 2.91 2.47ZM6.59594 7.36C6.0626 6.84 5.79594 6.18333 5.79594 5.39C5.79594 4.59667 6.06594 3.93667 6.60594 3.41C7.1526 2.88333 7.8326 2.62 8.64594 2.62C9.48594 2.62 10.1759 2.88 10.7159 3.4C11.2559 3.91333 11.5259 4.57 11.5259 5.37C11.5259 6.16333 11.2526 6.82333 10.7059 7.35C10.1593 7.87 9.4726 8.13 8.64594 8.13C7.8126 8.13 7.12927 7.87333 6.59594 7.36ZM7.46594 5.39C7.46594 5.77 7.57594 6.07667 7.79594 6.31C8.0226 6.54333 8.30594 6.66 8.64594 6.66C8.9926 6.66 9.27927 6.54 9.50594 6.3C9.73927 6.05333 9.85594 5.74333 9.85594 5.37C9.85594 4.99 9.73927 4.68333 9.50594 4.45C9.27927 4.21 8.9926 4.09 8.64594 4.09C8.29927 4.09 8.01594 4.21 7.79594 4.45C7.57594 4.69 7.46594 5.00333 7.46594 5.39ZM16.6583 8L15.9083 5.03L15.1583 8H13.2783L11.8083 2.75H13.6283L14.3383 6.18L15.1283 2.75H16.6883L17.4783 6.18L18.1883 2.75H20.0083L18.5383 8H16.6583ZM25.4481 5.81H22.0081C22.0281 6.05 22.1415 6.25667 22.3481 6.43C22.5615 6.59667 22.8181 6.68 23.1181 6.68C23.3915 6.68 23.6215 6.62 23.8081 6.5C24.0015 6.37333 24.1381 6.24667 24.2181 6.12L25.3181 6.97C25.1981 7.21667 24.9448 7.47333 24.5581 7.74C24.1715 8 23.6815 8.13 23.0881 8.13C22.2415 8.13 21.5648 7.87333 21.0581 7.36C20.5515 6.84 20.2981 6.18333 20.2981 5.39C20.2981 4.60333 20.5381 3.94667 21.0181 3.42C21.4981 2.88667 22.1181 2.62 22.8781 2.62C23.7048 2.62 24.3415 2.87333 24.7881 3.38C25.2348 3.88 25.4581 4.58 25.4581 5.48C25.4581 5.62 25.4548 5.73 25.4481 5.81ZM23.5081 4.2C23.3615 4.04667 23.1615 3.97 22.9081 3.97C22.6548 3.97 22.4548 4.05 22.3081 4.21C22.1615 4.36333 22.0781 4.54333 22.0581 4.75H23.7581C23.7448 4.53 23.6615 4.34667 23.5081 4.2ZM29.1445 2.62V4.32C29.0512 4.30667 28.9612 4.3 28.8745 4.3C28.1545 4.3 27.7945 4.76 27.7945 5.68V8H26.1245V2.75H27.7545V3.45C28.0279 2.89667 28.4912 2.62 29.1445 2.62ZM34.5106 5.81H31.0706C31.0906 6.05 31.204 6.25667 31.4106 6.43C31.624 6.59667 31.8806 6.68 32.1806 6.68C32.454 6.68 32.684 6.62 32.8706 6.5C33.064 6.37333 33.2006 6.24667 33.2806 6.12L34.3806 6.97C34.2606 7.21667 34.0073 7.47333 33.6206 7.74C33.234 8 32.744 8.13 32.1506 8.13C31.304 8.13 30.6273 7.87333 30.1206 7.36C29.614 6.84 29.3606 6.18333 29.3606 5.39C29.3606 4.60333 29.6006 3.94667 30.0806 3.42C30.5606 2.88667 31.1806 2.62 31.9406 2.62C32.7673 2.62 33.404 2.87333 33.8506 3.38C34.2973 3.88 34.5206 4.58 34.5206 5.48C34.5206 5.62 34.5173 5.73 34.5106 5.81ZM32.5706 4.2C32.424 4.04667 32.224 3.97 31.9706 3.97C31.7173 3.97 31.5173 4.05 31.3706 4.21C31.224 4.36333 31.1406 4.54333 31.1206 4.75H32.8206C32.8073 4.53 32.724 4.34667 32.5706 4.2ZM38.857 5.39C38.857 4.98333 38.7537 4.66667 38.547 4.44C38.3404 4.20667 38.067 4.09 37.727 4.09C37.387 4.09 37.1137 4.21 36.907 4.45C36.7004 4.69 36.597 5.00333 36.597 5.39C36.597 5.77667 36.7004 6.08667 36.907 6.32C37.1137 6.55333 37.387 6.67 37.727 6.67C38.0737 6.67 38.347 6.55 38.547 6.31C38.7537 6.06333 38.857 5.75667 38.857 5.39ZM38.917 8V7.59C38.8104 7.71 38.6304 7.83 38.377 7.95C38.1304 8.07 37.837 8.13 37.497 8.13C36.7437 8.13 36.127 7.87333 35.647 7.36C35.167 6.84667 34.927 6.18667 34.927 5.38C34.927 4.56 35.1504 3.89667 35.597 3.39C36.0504 2.87667 36.6537 2.62 37.407 2.62C37.7537 2.62 38.0504 2.68 38.297 2.8C38.5437 2.92 38.7137 3.03667 38.807 3.15V0.77H40.477V8H38.917ZM45.0199 5.39C45.0199 5.75667 45.1199 6.06333 45.3199 6.31C45.5266 6.55 45.8033 6.67 46.1499 6.67C46.4899 6.67 46.7633 6.55333 46.9699 6.32C47.1766 6.08667 47.2799 5.77667 47.2799 5.39C47.2799 5.00333 47.1766 4.69 46.9699 4.45C46.7633 4.21 46.4899 4.09 46.1499 4.09C45.8099 4.09 45.5366 4.20667 45.3299 4.44C45.1233 4.66667 45.0199 4.98333 45.0199 5.39ZM44.9599 7.59V8H43.3999V0.77H45.0699V3.15C45.1633 3.03667 45.3333 2.92 45.5799 2.8C45.8266 2.68 46.1233 2.62 46.4699 2.62C47.2233 2.62 47.8233 2.87667 48.2699 3.39C48.7233 3.89667 48.9499 4.56 48.9499 5.38C48.9499 6.18667 48.7099 6.84667 48.2299 7.36C47.7499 7.87333 47.1333 8.13 46.3799 8.13C46.0399 8.13 45.7433 8.07 45.4899 7.95C45.2433 7.83 45.0666 7.71 44.9599 7.59ZM54.6599 2.75L52.0599 9.79H50.4799L51.1899 7.83L49.2299 2.75H51.0199L51.9499 5.77L52.9199 2.75H54.6599Z" fill="#A7A7A7"/>
<path fill-rule="evenodd" clip-rule="evenodd" d="M26.569 31.5092H23.0781C23.1798 30.7344 23.2137 30.0269 23.2137 28.9657V23.7776C23.2137 22.4974 23.1798 21.891 23.0781 21.2341H26.4334V21.9416C26.4334 22.0089 26.4334 22.0089 26.4164 22.1774V22.3458C27.2807 21.4025 28.3144 20.9646 29.6531 20.9646C30.5343 20.9646 31.2629 21.1667 31.8222 21.571C32.1272 21.79 32.2966 21.9921 32.5169 22.4132C33.5676 21.3857 34.6013 20.9477 36.0755 20.9477C38.4988 20.9477 39.7358 22.2616 39.7358 24.8051V28.9826C39.7358 30.0269 39.7697 30.7175 39.8714 31.5092H36.3467C36.4484 30.7175 36.4822 30.1111 36.4822 28.9657V25.4958C36.4822 24.2324 36.1094 23.7439 35.1435 23.7439C34.2793 23.7439 33.4998 24.4177 33.0761 25.5463V28.9826C33.0761 29.9932 33.11 30.7007 33.2117 31.5092H29.687C29.7887 30.7512 29.8226 30.0438 29.8226 28.9657V25.4958C29.8226 24.7883 29.7548 24.4682 29.5345 24.1819C29.3481 23.9124 29.0092 23.7608 28.6025 23.7608C27.6874 23.7608 26.9079 24.4177 26.4334 25.5631V28.9657C26.4334 30.0269 26.4673 30.6838 26.569 31.5092ZM48.429 24.8557V24.4682C48.429 23.6597 47.9376 23.2891 46.8192 23.2891C45.7347 23.2891 45.1585 23.6429 44.9043 24.4682L41.6677 23.9461C42.0066 22.9522 42.3794 22.4132 43.0911 21.9079C44.0062 21.2678 45.2602 20.9477 46.9039 20.9477C48.1579 20.9477 49.378 21.1836 50.0389 21.5373C51.1234 22.1269 51.5979 23.0533 51.5979 24.5693V29.1173C51.5979 30.1448 51.6318 30.7512 51.7165 31.5092H48.429V30.7344C47.4801 31.4587 46.5311 31.7451 45.1415 31.7451C43.8537 31.7451 42.8878 31.4419 42.2099 30.8186C41.5999 30.2627 41.2779 29.4542 41.2779 28.5278C41.2779 27.4666 41.7016 26.6243 42.5149 26.0685C43.3792 25.4621 44.5146 25.1083 46.0397 24.9736C46.7006 24.9062 47.2089 24.8894 48.429 24.8557ZM48.429 27.4834V27.0118C46.9209 27.0454 46.1922 27.1297 45.4974 27.3486C44.8874 27.5508 44.5146 27.9719 44.5146 28.4604C44.5146 29.0668 45.0229 29.4205 45.9041 29.4205C46.5989 29.4205 47.3614 29.1678 47.819 28.7804C48.2087 28.4435 48.429 27.9887 48.429 27.4834ZM53.3433 32.8231L55.7835 31.2229C56.3766 31.9809 57.2408 32.3683 58.3593 32.3683C59.2913 32.3683 60.02 32.1156 60.4267 31.6271C60.7825 31.2229 60.935 30.7175 60.9689 29.8248C60.1047 30.5996 59.1896 30.9365 57.8848 30.9365C54.9362 30.9365 53.0722 29.0162 53.0722 25.9506C53.0722 22.9522 54.9871 20.9814 57.8848 20.9814C59.1388 20.9814 60.0538 21.2678 60.9689 21.9584V21.2341H64.2903C64.1886 21.9921 64.1547 22.5817 64.1547 23.5755V29.4879C64.1547 31.5092 63.5786 32.8736 62.3924 33.699C61.4773 34.3391 60.0538 34.6928 58.3593 34.6928C56.0546 34.6928 54.5295 34.1201 53.3433 32.8231ZM56.2919 25.9674C56.2919 27.5171 57.1731 28.5109 58.5118 28.5109C59.9013 28.5109 60.9011 27.4497 60.9011 25.9506C60.9011 24.4514 59.9013 23.3734 58.5287 23.3734C57.1731 23.3734 56.2919 24.4009 56.2919 25.9674ZM69.5774 31.5092H66.0865C66.1882 30.7344 66.2221 30.0269 66.2221 28.9657V23.7776C66.2221 22.4974 66.1882 21.891 66.0865 21.2341H69.4418V21.9416C69.4418 22.0089 69.4418 22.0089 69.4249 22.1774V22.3458C70.2891 21.4025 71.3228 20.9646 72.6615 20.9646C73.5427 20.9646 74.2714 21.1667 74.8306 21.571C75.1356 21.79 75.3051 21.9921 75.5254 22.4132C76.576 21.3857 77.6097 20.9477 79.084 20.9477C81.5072 20.9477 82.7443 22.2616 82.7443 24.8051V28.9826C82.7443 30.0269 82.7782 30.7175 82.8798 31.5092H79.3551C79.4568 30.7175 79.4907 30.1111 79.4907 28.9657V25.4958C79.4907 24.2324 79.1179 23.7439 78.152 23.7439C77.2877 23.7439 76.5082 24.4177 76.0846 25.5463V28.9826C76.0846 29.9932 76.1185 30.7007 76.2201 31.5092H72.6954C72.7971 30.7512 72.831 30.0438 72.831 28.9657V25.4958C72.831 24.7883 72.7632 24.4682 72.5429 24.1819C72.3565 23.9124 72.0176 23.7608 71.6109 23.7608C70.6958 23.7608 69.9163 24.4177 69.4418 25.5631V28.9657C69.4418 30.0269 69.4757 30.6838 69.5774 31.5092ZM89.7768 31.8967C86.3707 31.8967 84.2016 29.7406 84.2016 26.3548C84.2016 22.9859 86.3707 20.8467 89.7937 20.8467C93.2168 20.8467 95.3858 22.9859 95.3858 26.3211C95.3858 29.6732 93.149 31.8967 89.7768 31.8967ZM89.8107 23.3734C88.3194 23.3734 87.4383 24.4851 87.4383 26.338C87.4383 28.2077 88.3194 29.3363 89.7937 29.3363C91.268 29.3363 92.1153 28.2414 92.1153 26.3717C92.1153 24.4851 91.251 23.3734 89.8107 23.3734Z" fill="#A7A7A7"/>
<path fill-rule="evenodd" clip-rule="evenodd" d="M17.1643 31.8443C12.8796 34.9089 10.5076 33.2143 8.51038 36.3055C8.117 34.8559 10.2878 32.7391 10.8929 31.5273C7.1678 35.0399 3.86223 33.4621 1.14243 37C1.96476 30.1387 3.69456 29.3324 4.91839 26.2504C3.78517 27.3801 2.46719 28.159 0 27.9891C2.4577 26.5265 3.66053 21.9356 5.0854 20.5395C5.08791 20.537 5.09043 20.5345 5.09296 20.5321L5.0901 20.5294C6.97413 17.9401 10.3502 16.5125 13.8076 17.1519C18.4707 18.0142 21.516 22.3098 20.6096 26.7463C20.1721 28.8874 18.8941 30.6701 17.1646 31.8446L17.1643 31.8443ZM11.3767 28.8979C12.55 28.7498 14.3252 27.9484 15.0194 27.0678C15.2956 26.6934 15.4954 26.2589 15.5931 25.7808C15.965 23.9607 14.7156 22.1984 12.8026 21.8446C11.5199 21.6074 10.2646 22.0636 9.46169 22.9438C8.02943 24.6355 9.49846 26.4206 7.55474 29.58C9.63384 29.5708 11.6891 27.5679 12.5859 26.7667C12.5409 27.0979 12.1849 28.2346 11.3767 28.8979Z" fill="#A7A7A7"/>
</svg>
