<?xml version="1.0" encoding="UTF-8"?>
<svg width="150px" height="150px" viewBox="0 0 150 150" version="1.1" xmlns="http://www.w3.org/2000/svg" xmlns:xlink="http://www.w3.org/1999/xlink">
    <!-- Generator: Sketch 57.1 (83088) - https://sketch.com -->
    <title>Slice</title>
    <desc>Created with Sketch.</desc>
    <g id="Page-1" stroke="none" stroke-width="1" fill="none" fill-rule="evenodd">
        <g id="motorcycle" transform="translate(0.000000, 34.000000)" fill="#000000" fill-rule="nonzero">
            <path d="M26.8180915,37.4552684 C28.1761431,37.2730616 29.3400596,36.8797217 30.4526839,36.326839 C30.9199801,36.0942346 31.2486083,35.7739563 31.1677932,35.1984095 C31.089662,34.6431412 30.8988072,34.2035785 30.2838966,34.004672 C29.1172962,33.6265408 27.9235586,33.4139165 26.7140159,33.2666004 C25.8459245,33.1604374 25.1567594,33.639662 24.417495,33.9539761 C24.1798211,34.0562624 24.20666,34.2823062 24.1908549,34.4794235 C24.1640159,34.8274354 24.1497018,35.1784294 24.1228628,35.6525845 C22.8089463,34.7648111 21.5785288,33.9316103 20.2043738,33.0044732 C21.2979125,32.7808151 22.260835,32.5744533 23.2270378,32.3883698 C30.5761431,30.9703777 37.927336,29.559841 45.2734592,28.132008 C45.6808151,28.0526839 46.0192843,28.133499 46.3735586,28.283499 C47.8678926,28.9154076 49.3607356,29.5497018 50.861332,30.165507 C51.0128231,30.227833 51.2439364,30.4747515 51.3796223,30.1905567 C51.5436382,29.845825 51.1717694,29.8407555 51.0005964,29.7667992 C49.606163,29.1697813 48.2024851,28.5924453 46.7973161,27.8615308 C47.9704771,27.6298211 49.1439364,27.3960239 50.3176938,27.1681909 C51.2382704,26.9880716 52.1630219,26.824653 53.0815109,26.6305169 C53.2264414,26.6003976 53.5085487,26.6442346 53.4861829,26.3916501 C53.4572565,26.0704771 53.1858847,26.1930417 53.0057654,26.2276342 C51.0116302,26.6024851 49.0136183,26.9591451 47.0293241,27.3829026 C46.2301193,27.5540755 45.5290258,27.5150099 44.7673956,27.1753479 C42.6641153,26.2395626 40.5256461,25.3822068 38.2646123,24.4377734 C38.9093439,24.1756461 39.4604374,24.2654076 39.9829026,24.217992 C42.0641153,24.0274354 44.1026839,23.6463221 46.0759443,22.9476143 C46.5993042,22.7624254 47.0797217,22.7874751 47.6057654,23.0156064 C49.2101392,23.711332 50.8341948,24.3593439 52.4567594,25.0139165 C52.9425447,25.2101392 53.2950298,25.521173 53.5983101,25.9589463 C54.5856859,27.3760437 55.6130219,28.7633201 56.6302187,30.1589463 C57.0360835,30.7157058 57.6462227,30.9915507 58.2375746,31.2808151 C60.3832008,32.3329026 62.6761431,33.0089463 64.8840954,33.8985089 C67.3168986,34.8802187 69.6787276,35.9937376 71.5520875,37.911829 C73.2405567,39.6408549 74.3710736,41.7530815 75.6172962,43.784493 C75.7902584,44.0695825 75.672167,44.1641153 75.4186879,44.2798211 C72.8827038,45.4398608 70.3658052,46.6434394 67.8104374,47.75666 C67.0828032,48.0757455 66.2117296,47.9281312 65.4304175,48.1738569 C64.8503976,48.3563618 64.2638171,48.5114314 63.7049702,48.7586481 C63.2636183,48.9563618 62.8932406,49.1701789 62.9701789,49.7588469 C63.0277336,50.2016899 62.5902584,50.1855865 62.3519881,50.2950298 C57.799503,52.4090457 53.2389662,54.5060636 48.6796223,56.6048708 C47.8816103,56.9737575 47.0821074,57.3387674 46.2500994,57.7207753 C46.173161,56.9048708 46.137674,56.1709742 46.0261431,55.4463221 C45.7678926,53.7590457 45.032505,52.3553678 43.7075547,51.2096421 C39.3020875,47.4044732 34.7409543,43.7916501 30.2057654,40.1466203 C29.1143141,39.2818091 28.0168986,38.416998 26.8151093,37.4627237 L26.8180915,37.4552684 Z M42.7246521,33.5666004 C42.3095427,32.3991054 42.500994,31.8975149 43.4871769,31.4576541 C44.5043738,31.0037773 45.5305169,30.5668986 46.550994,30.1201789 C46.7045726,30.0524851 46.9309145,30.0217694 46.8387674,29.7659046 C46.7308151,29.4659046 46.5444334,29.6761431 46.4120278,29.7331014 C45.2937376,30.2114314 44.1706759,30.677833 43.0690855,31.1928429 C42.2096421,31.5951292 41.8929423,32.3645129 42.1434394,33.2865805 C42.2776342,33.7816103 42.5099404,34.238171 42.8290258,34.6347913 C45.2648111,37.666998 47.8315109,40.5858847 50.656163,43.2614314 C51.5275348,44.0883698 52.5405567,44.7706759 53.7709742,44.9135189 C56.6412525,45.2487078 59.3671968,44.6862823 61.9693837,43.4633201 C62.0970179,43.4012922 62.2819085,43.328827 62.1682903,43.133499 C62.0427435,42.916998 61.8667992,43.0198807 61.7090457,43.1111332 C60.1559642,44.0167992 58.4030815,44.2234592 56.6797217,44.500497 C55.6514911,44.6663022 54.5985089,44.789165 53.4316103,44.3385686 C53.6916501,44.2923459 53.7909543,44.2729622 53.8905567,44.2568588 C55.1412525,44.050497 56.4020875,43.8861829 57.6405567,43.6213718 C58.855169,43.3631213 59.2833996,42.3996024 58.6306163,41.4760437 C55.6312127,37.2241551 51.5663022,34.2307157 47.0552684,31.7874751 C46.2638171,31.3586481 45.3900596,31.3100398 44.5875746,31.8369781 C43.8897614,32.2902584 43.2008946,32.7644135 42.7237575,33.5636183 L42.7246521,33.5666004 Z" id="Shape"></path>
            <path d="M123.751491,82.6998012 C112.878429,82.6968191 103.624056,75.5296223 100.929423,65.1262425 C100.713519,64.2954274 100.71173,64.3010934 101.514215,64.4797217 C103.643141,64.9565606 105.767893,65.4554672 107.906362,65.8822068 C108.524254,66.0047714 108.841252,66.2895626 109.120378,66.8358847 C112.050298,72.5549702 118.367296,76.0607356 124.505666,75.6247515 C131.533002,75.123161 137.135189,70.3690855 139.029125,64.3064612 C141.949503,54.966501 135.807256,45.0656064 126.161928,43.6073559 C121.502087,42.9032803 117.293141,43.9741551 113.549404,46.8351889 C113.245527,47.0677932 113.035288,47.1158052 112.685487,46.9300199 C110.87326,45.9635189 109.051491,45.0134195 107.217197,44.0877734 C106.805666,43.8811133 106.8167,43.7430417 107.049304,43.3804175 C108.328926,41.3707753 110.321869,40.2402584 112.282903,39.0685885 C112.567694,38.8974155 113.413419,39.5636183 113.531213,40.0944334 C113.760239,41.1262425 114.728827,41.3856859 115.404573,41.9481113 C115.475249,42.0074553 115.655964,41.9734592 115.771372,41.9403579 C116.324254,41.7781312 117.311034,40.4188867 117.3,39.8251491 C117.296421,39.57167 117.456561,39.4034791 117.5666,39.2078529 C117.851392,38.7002982 118.207157,38.2210736 118.427237,37.6866799 C118.814314,36.7419483 119.514513,36.4502982 120.475944,36.326839 C130.916899,34.9804175 140.912326,40.5790258 145.117992,50.1662028 C151.044036,63.6808151 142.806859,79.4015905 128.31501,82.2387674 C126.767296,82.5459245 125.210636,82.7248509 123.755368,82.6980119 L123.751491,82.6998012 Z" id="Path"></path>
            <path d="M61.7027833,52.2524851 C60.7983101,54.7183897 61.1105368,57.0274354 62.7644135,59.0591451 C65.5058648,62.4265408 70.6285288,61.4242545 72.3158052,57.2451292 C73.5477137,54.1932406 72.2114314,50.0379722 68.4996024,49.0505964 C68.1638171,48.960835 67.9690855,48.8006958 67.9192843,48.4526839 C67.8656064,48.0614314 68.2115308,48.0796223 68.4095427,47.9868787 C70.7758449,46.8843936 73.1519881,45.8045726 75.5153082,44.6955268 C75.8841948,44.5222664 76.0666998,44.5318091 76.282008,44.9212724 C77.4149105,46.9607356 78.5746521,48.9867793 79.7382704,51.0095427 C79.9154076,51.3184891 79.9437376,51.6244533 79.894831,51.9572565 C79.5912525,54.0286282 79.0497018,56.0212724 78.1201789,57.9104374 C77.3481113,59.4802187 76.6347913,61.0780318 75.8973161,62.6645129 C75.8329026,62.8022863 75.7741551,62.9421471 75.7204771,63.0855865 C74.8848907,65.3147117 75.8531809,66.7822068 78.2394632,66.7971173 C80.7405567,66.8126243 83.187674,66.3149105 85.6312127,65.8398608 C87.3966203,65.4954274 89.1515905,65.0818091 90.9092445,64.7024851 C91.2,64.638668 91.4585487,64.5626243 91.7639165,64.7743539 C92.5741551,65.3317097 100.251292,71.4521869 100.914215,72.1333002 C100.45825,72.4037773 99.955169,72.4333002 99.454175,72.4729622 C96.3005964,72.7091451 93.1517893,72.4464215 90.0005964,72.4130219 C77.0364811,72.277336 64.0723658,72.0999006 51.1079523,71.9528827 C48.2105368,71.9197813 45.3134195,71.9469185 42.4383698,71.9469185 C42.32833,71.4754473 42.5230616,71.1817097 42.6178926,70.8787276 C43.6681909,67.5149105 44.7208748,64.1525845 45.80666,60.8006958 C46.0303181,60.1094433 46.0762425,59.4071571 46.1451292,58.7033797 C46.1791252,58.3604374 46.2870775,58.1630219 46.610338,58.0157058 C51.7941352,55.6377734 56.9725646,53.2464215 62.1539761,50.8607356 C62.2395626,50.8210736 62.3424453,50.8195825 62.5887674,50.7712724 C62.3236581,51.1980119 62.1205765,51.5182903 61.9228628,51.8421471 C61.867992,51.9333996 61.7701789,52.0413519 61.7057654,51.9387674 C61.3464215,51.3632207 61.0497018,51.8791252 60.7693837,52.0037773 C60.2382704,52.2408549 59.7357853,52.5426441 59.223161,52.8193837 C57.7583499,53.610835 57.1977137,54.6316103 57.3832008,56.2723658 C57.550497,57.7529821 58.1883698,59.0922465 58.6941352,60.4705765 C58.7949304,60.7446322 58.9923459,60.7741551 59.234493,60.7813121 C60.6572565,60.8263419 62.0803181,60.8785288 63.5030815,60.9190855 C63.6596421,60.9253479 63.9032803,61.0052684 63.9,60.7204771 C63.895825,60.4350895 63.6456262,60.5299205 63.4941352,60.5227634 C62.2491054,60.4720676 61.004672,60.4130219 59.7602386,60.4034791 C59.2878728,60.4016899 59.0224652,60.2695825 58.8733598,59.7984095 C58.5673956,58.8336978 58.1597416,57.9023857 57.9161034,56.9150099 C57.7848907,56.3847913 57.7705765,55.8539761 57.8340954,55.3249503 C57.9405567,54.4347913 58.2411531,53.6898608 59.1855865,53.3021869 C60.0029821,52.9672962 60.759841,52.4865805 61.543837,52.0696819 C61.5975149,52.1233598 61.6511928,52.183002 61.7018887,52.2456262 L61.7027833,52.2524851 Z M58.6699801,69.0864811 L58.6699801,69.1064612 C59.2789264,69.1064612 59.888171,69.1198807 60.4962227,69.0996024 C60.6861829,69.09334 61.0243539,69.2648111 61.028827,68.8929423 C61.034493,68.5219682 60.6909543,68.673161 60.5018887,68.6710736 C59.259841,68.6525845 58.0163022,68.6600398 56.7742545,68.6507952 C56.6096421,68.649006 56.3907555,68.7137177 56.3060636,68.5034791 C56.2350895,68.3308151 56.4095427,68.2467197 56.5127237,68.1402584 C58.7370775,65.8664016 58.8005964,65.8383698 61.9210736,65.7897614 C61.9977137,65.7897614 62.0746521,65.799006 62.1492048,65.7855865 C62.3039761,65.7581511 62.5592445,65.8774354 62.5717694,65.6144135 C62.5869781,65.2926441 62.3045726,65.3895626 62.121173,65.3824056 C59.1563618,65.2610338 59.1563618,65.2610338 56.8977137,67.2331014 C56.6686879,67.4346918 56.445328,67.6413519 56.2142147,67.8384692 C55.9535785,68.0621272 55.7090457,68.3096421 55.8492048,68.6800199 C55.9747515,69.011332 56.3185885,69.0659046 56.616501,69.0775348 C57.3023857,69.0954274 57.9882704,69.0805169 58.671173,69.0805169 L58.6699801,69.0864811 Z" id="Shape"></path>
            <path d="M17.3105368,46.4463221 C12.7410537,48.0119284 9.5666004,50.9692843 7.82982107,55.3822068 C4.47554672,63.9062624 9.24333996,73.4248509 17.9671968,75.7142147 C25.6562624,77.7313121 33.7413519,72.8239563 35.6668986,64.8784294 C36.9796223,59.4593439 35.7489066,54.6149105 31.9971173,50.4578529 C31.6878728,50.115507 31.5593439,49.8354871 31.7260437,49.3998012 C31.8515905,49.0705765 31.916004,48.7166004 31.9971173,48.3700795 C32.2109344,47.4539761 32.4253479,47.3230616 33.3667992,47.5544732 C34.4785288,47.8279324 35.2980119,48.5469185 36.0423459,49.3595427 C37.0374751,50.4450298 37.9902584,51.57167 38.9973161,52.6461233 C39.7831014,53.4861829 40.6750497,54.2090457 41.7981113,54.5612326 C42.099006,54.6539761 42.1735586,54.8406561 42.2358847,55.100994 C45.2027833,67.4105368 37.6488072,79.6350895 25.5390656,82.0359841 C15.4634195,84.0342942 5.37345924,78.2364811 1.6971173,68.4137177 C-1.65984095,59.4500994 0.977236581,49.4132207 8.27236581,43.3455268 C8.60666004,43.0675944 8.9138171,42.933996 9.36739563,43.0064612 C10.5202783,43.1922465 11.6806163,43.3249503 12.8406561,43.4609344 C14.8341948,43.7024851 15.9843936,45.1517893 17.3138171,46.4519881 L17.3105368,46.4463221 Z" id="Path"></path>
            <path d="M72.3667992,11.4811133 C78.6199801,10.8629225 83.3006958,14.3683897 87.532008,18.7983101 C88.5247515,19.8369781 88.7722664,21.2105368 89.0591451,22.5524851 C89.1187873,22.8280318 88.9756461,23.0358847 88.8393638,23.2544732 C87.3775348,25.6037773 85.9189861,27.9533797 84.4681909,30.3092445 C84.3002982,30.5812127 84.0867793,30.7661034 83.8052684,30.9083499 C81.6969185,31.9705765 79.460338,32.2592445 77.1390656,32.0138171 C76.5942346,31.9562624 76.1340954,31.6905567 75.6984095,31.3684891 C73.940159,30.0730616 72.1708748,28.7940358 70.4162028,27.4935388 C68.6806163,26.2070577 66.8311133,25.4093439 64.5972167,25.8996024 C63.8782306,26.0588469 63.155666,25.9270378 62.433996,25.6699801 C58.3252485,24.2069583 54.2436382,22.6851889 50.3260437,20.7500994 C49.355666,20.2708748 48.7076541,19.4630219 47.9549702,18.7547714 C47.6612326,18.4759443 47.9105368,18.305666 48.0751491,18.1437376 C48.6999006,17.5291252 49.4600398,17.1187873 50.2580517,16.7824056 C54.2388668,15.106163 58.372664,13.8954274 62.5473161,12.8185885 C65.6457256,12.0164016 68.767992,11.3126243 72.3644135,11.4796223 L72.3667992,11.4811133 Z M60.694831,24.5785288 C60.7079523,24.5457256 60.7628231,24.4544732 60.7833996,24.3560636 C61.0616302,23.005169 62.2142147,22.6007952 63.2552684,22.0929423 C67.8650099,19.8483101 72.5994036,17.9144135 77.5276342,16.4752485 C77.8684891,16.3756461 78.2054672,16.2656064 78.5424453,16.156163 C78.687674,16.1084493 78.734493,15.9969185 78.6823062,15.8576541 C78.6429423,15.7467197 78.5424453,15.7142147 78.4365805,15.7395626 C78.2892644,15.7750497 78.1455268,15.8299205 78.0002982,15.8722664 C73.2,17.2831014 68.5517893,19.0920477 64.0341948,21.237674 C63.2785288,21.5970179 62.5291252,21.9703777 61.7979125,22.3762425 C61.1096421,22.7576541 60.5949304,23.3111332 60.410338,24.1055666 C60.3715706,24.2516899 60.2940358,24.4634195 60.6906561,24.5797217 L60.694831,24.5785288 Z" id="Shape"></path>
            <path d="M85.359841,33.5785288 C88.8706759,32.2914513 92.2678926,31.045825 95.6630219,29.799006 C102.837376,27.1640159 109.720974,23.8833996 116.515109,20.404175 C117.338171,19.9836978 117.89493,19.3359841 118.25994,18.4756461 C119.204672,16.2530815 119.223161,16.2596421 121.522664,15.6014911 C126.296123,14.2350895 131.060338,12.8412525 135.850497,11.5327038 C136.724254,11.2941352 137.184394,10.7400596 137.582803,10.0819085 C137.977336,9.43180915 138.471173,9.25795229 139.20328,9.28121272 C140.674652,9.32683897 142.149602,9.25944334 143.623062,9.25884692 C143.887276,9.25884692 144.282406,9.16968191 144.387972,9.42912525 C144.522465,9.75029821 144.101392,9.84870775 143.904274,10.0037773 C135.608946,16.5083499 126.853479,22.3780318 118.302883,28.5351889 C116.841054,29.5869781 115.361928,30.6187873 113.868489,31.6249503 C112.214612,32.738171 110.448907,33.3641153 108.379622,33.3044732 C102.708549,33.1422465 97.0505964,33.3754473 91.4633201,34.4761431 C90.343837,34.6980119 89.2321074,34.9583499 88.1239563,35.2300199 C87.7529821,35.3197813 87.4625249,35.3162028 87.1532803,35.0424453 C86.6105368,34.5474155 86.0230616,34.1060636 85.3640159,33.5752485 L85.359841,33.5785288 Z" id="Path"></path>
            <path d="M31.9532803,42.0745527 C34.2766402,43.9589463 36.5621272,45.8147117 38.8473161,47.6692843 C39.123161,47.8929423 39.3712724,48.1607356 39.6742545,48.3417495 C41.766501,49.5879722 42.3372763,51.7371769 42.9796223,53.8491054 C43.1114314,54.2791252 42.9474155,54.3745527 42.5424453,54.3035785 C41.7220676,54.1580517 41.0060636,53.8058648 40.3550696,53.2977137 C39.1833996,52.3831014 38.2580517,51.232008 37.2921471,50.1205765 C36.5087475,49.2190855 35.7414513,48.2967197 34.7033797,47.6654076 C33.9703777,47.2207753 33.1983101,46.9413519 32.316501,47.1140159 C31.9562624,47.1849901 31.7642147,47.3379722 31.683996,47.7405567 C31.4534791,48.9080517 31.2011928,50.0797217 30.6635189,51.1538767 C30.290159,51.9008946 30.0062624,52.6497018 29.3069583,53.2607356 C28.6112326,53.8696819 28.2322068,54.8397614 27.7189861,55.6553678 C27.5588469,55.9106362 27.6906561,56.1530815 27.80666,56.3722664 C28.3383698,57.3817097 28.8757455,58.389662 29.422664,59.3913519 C29.8321074,60.1419483 30.5880716,60.09334 31.2417495,60.0208748 C31.9998012,59.939165 32.1253479,60.2370775 32.1408549,60.8865805 C32.2866799,67.4162028 26.8696819,72.5478131 20.3874751,72.0002982 C15.8385686,71.616501 11.9591451,67.9252485 11.027833,63.0921471 C9.93846918,57.4410537 13.522664,51.8182903 19.0893638,50.4483101 C19.2858847,50.3997018 19.4982107,50.3976143 19.6845924,50.3251491 C21.1321074,49.7609344 22.0058648,50.7086481 22.9297217,51.537674 C23.2350895,51.8111332 22.9753479,52.0514911 22.8763419,52.2843936 C21.6220676,55.2751491 20.3594433,58.2629225 19.0998012,61.2515905 C18.7225646,62.145328 18.8099404,62.3937376 19.6863817,62.7879722 C20.3326044,63.0808151 21.0131213,63.3029821 21.6369781,63.6357853 C22.3428429,64.0124254 22.7305169,63.7529821 23.005169,63.1085487 C23.6224652,61.6649105 24.2415507,60.2194831 24.8558648,58.7725646 C27.1437376,53.3868787 29.4307157,47.9982107 31.717992,42.6107356 C31.7835984,42.4586481 31.855169,42.3035785 31.9535785,42.0799205 L31.9532803,42.0745527 Z" id="Path"></path>
            <path d="M98.4244533,52.0646123 C98.4062624,52.4487078 98.7187873,52.4245527 98.9481113,52.4689861 C104.529722,53.5380716 110.113121,54.5994036 115.693539,55.6723658 C116.114016,55.7543738 116.399105,55.6857853 116.64662,55.2975149 C116.972863,54.7854871 117.389761,54.3316103 117.728827,53.8261431 C118.032704,53.3776342 118.006163,53.0290258 117.42674,52.7385686 C112.06163,50.0346918 106.706958,47.3024851 101.348708,44.5813121 C101.19006,44.5010934 101.028429,44.4292247 100.867992,44.3507952 C100.707853,44.2699801 100.640755,44.3841948 100.585288,44.4960239 C100.525348,44.616501 100.601988,44.6785288 100.700696,44.7286282 C100.858748,44.8088469 101.013519,44.8944334 101.172167,44.9764414 C104.135189,46.4794235 107.098211,47.9782306 110.055567,49.4910537 C110.232406,49.5823062 110.571173,49.5987078 110.519284,49.8817097 C110.471272,50.1500994 110.219881,50.2437376 109.927634,50.2416501 C106.498509,50.234493 103.071471,50.2374751 99.5442346,50.2374751 C100.227734,49.5035785 100.717992,48.6044732 101.326938,47.7867793 C101.799901,47.1554672 101.742048,46.6822068 101.083002,46.2727634 C100.516998,45.9202783 99.9190855,45.8057654 99.2651093,46.034493 C98.2592445,46.3863817 97.2483101,46.7156064 96.2370775,47.0472167 C96.0503976,47.1089463 95.8514911,47.1351889 95.6314115,47.183499 C95.6991054,46.8596421 95.9412525,46.7364811 96.1139165,46.5653082 C97.773161,44.9170974 99.4440358,43.2814115 101.101789,41.6311133 C101.630815,41.1059642 102.174751,40.8059642 102.92505,41.1975149 C103.21163,41.3484095 103.556362,41.3838966 103.863817,41.5016899 C104.645726,41.7996024 105.327137,41.6525845 106.010636,41.1730616 C107.088966,40.4150099 108.208449,39.7166004 109.310934,38.9922465 C109.372366,39.0387674 109.432008,39.0840954 109.493439,39.1300199 C108.540358,40.5068588 107.573559,41.8735586 106.64165,43.2670974 C106.409344,43.6151093 106.210139,43.583499 105.913718,43.4099404 C105.585686,43.2181909 105.245427,43.0431412 104.902783,42.8800199 C104.783201,42.8236581 104.626938,42.6781312 104.509443,42.8719682 C104.37167,43.0980119 104.558052,43.1794235 104.71998,43.2632207 C105.731511,43.7904573 106.742744,44.3191849 107.753678,44.844334 C110.949602,46.5023857 114.13837,48.1765408 117.347117,49.8062624 C118.530119,50.4062624 119.403579,51.3670974 120.383201,52.2011928 C122.6833,54.1643141 124.907356,56.2148111 127.266501,58.1075547 C127.326441,58.1537773 127.389662,58.2005964 127.436183,58.2596421 C128.2667,59.3364811 127.585288,60.3960239 127.372962,61.4484095 C127.223857,62.1837972 126.691252,62.5416501 125.938569,62.5714712 C123.794732,62.6528827 121.677734,62.405666 119.580417,62.0167992 C110.998211,60.4297217 102.423757,58.811332 93.8469185,57.2057654 C93.2493042,57.0921471 92.6513917,56.978827 91.8244533,56.8222664 C92.9176938,56.4274354 93.7965209,56.0308151 94.7934394,56.0251491 C95.5049702,56.0209742 96.2162028,56.0424453 96.9277336,56.0493042 C97.2760437,56.0534791 97.4841948,55.9505964 97.5014911,55.5316103 C97.5348907,54.7219682 97.7153082,53.9170974 97.6109344,53.1014911 C97.5363817,52.5235586 98.037674,52.287674 98.2944334,51.9074553 C98.3272366,51.9521869 98.3719682,52.0088469 98.4137177,52.0595427 L98.4244533,52.0646123 Z M124.756461,59.5258449 C124.777336,58.7379722 124.125149,58.0562624 123.342942,58.0473161 C122.572068,58.0362823 121.899602,58.7135189 121.903167,59.5016899 C121.907356,60.2666004 122.518091,60.9020875 123.279423,60.9295229 C124.069682,60.9593439 124.737674,60.3241551 124.755567,59.5249503 L124.756461,59.5258449 Z" id="Shape"></path>
            <path d="M74.2306163,40.6312127 C73.8486083,40.0986083 73.466004,39.5642147 73.076839,39.0202783 C73.2426441,38.7468191 73.5435388,38.7280318 73.7806163,38.6332008 C77.3454274,37.1910537 80.9251491,35.7852883 84.4789264,34.3139165 C85.2181909,34.0070577 85.6520875,34.1725646 86.0281312,34.7892644 L86.0409543,34.7761431 C85.773161,34.8653082 85.4952286,34.9321074 85.2384692,35.0439364 C83.517495,35.7832008 81.8003976,36.5302187 80.0833002,37.2772366 C79.2008946,37.6607356 78.3172962,38.0388668 77.4459245,38.4447316 C77.2547714,38.5338966 76.8074553,38.5100398 76.9544732,38.854175 C77.1322068,39.2677932 77.4086481,38.8356859 77.6427435,38.794831 C77.7635189,38.7742545 77.8762425,38.7020875 77.9919483,38.6516899 C80.3833002,37.6142147 82.7838966,36.5940358 85.1606362,35.5252485 C85.7173956,35.2747515 85.8644135,35.3925447 85.8885686,35.954672 C85.9088469,36.4592445 85.9875746,36.9620278 86.0507952,37.4651093 C86.2258449,38.8449304 86.2013917,40.2498012 86.5124254,41.6746521 C87.6653082,41.0481113 88.7770378,40.449006 89.883996,39.8382704 C90.0363817,39.7520875 90.3641153,39.7300199 90.237674,39.4562624 C90.0793241,39.1139165 89.854175,39.3945328 89.6809145,39.4842942 C88.7457256,39.9760437 87.8185885,40.4767396 86.8237575,41.0099404 C86.5559642,38.9290258 86.5109344,36.9235586 86.1718688,34.9508946 C86.1960239,34.928827 86.2201789,34.9064612 86.2446322,34.8823062 C87.0897614,35.8356859 88.0658052,35.7128231 89.1930417,35.4166998 C92.4166998,34.5715706 95.7280318,34.209841 99.0399602,33.8970179 C99.1813121,33.8824056 99.3244533,33.8955268 99.6447316,33.8955268 C98.8646123,34.3738569 98.2198807,34.7609344 97.5870775,35.1653082 C97.4418489,35.2586481 97.1233598,35.3069583 97.2647117,35.5658052 C97.4472167,35.9033797 97.6616302,35.5920477 97.8274354,35.4987078 C98.3355865,35.2157058 98.8291252,34.9028827 99.32833,34.5987078 C100.8334,33.6846918 101.404771,33.5668986 103.36998,33.8072565 C101.442346,34.8951292 99.5985089,35.9367793 97.7528827,36.9754473 C94.083996,39.0408549 90.4183897,41.1080517 86.7420477,43.1627237 C86.356163,43.3765408 86.1984095,43.7006958 86.1739563,44.0847913 C86.0418489,46.0863817 85.9356859,48.0906561 85.8128231,50.0925447 C85.795825,50.3549702 85.9225646,50.4465209 86.1483101,50.5100398 C87.8349901,50.9865805 89.4164016,51.7464215 91.0517893,52.3625249 C91.1985089,52.4185885 91.3962227,52.6088469 91.5119284,52.3738569 C91.6440358,52.1021869 91.3998012,52.0535785 91.2026839,51.9796223 C90.7052684,51.7911531 90.2156064,51.5824056 89.6102386,51.3366799 C91.0237575,50.1951292 92.1020875,48.7664016 93.8955268,48.2188867 C95.7116302,47.6645129 97.5459245,47.1611332 99.316998,46.4624254 C99.7291252,46.3007952 100.155268,46.3043738 100.578131,46.4907555 C101.287575,46.805666 101.298907,47.000994 100.888867,47.6513917 C99.8871769,49.2477137 98.6373757,50.6552684 97.5328032,52.1734592 C97.1994036,52.6315109 96.8379722,52.8417495 96.2627237,52.7916501 C95.7748509,52.7484095 95.2362823,52.6461233 94.8602386,53.138171 C94.7654076,53.2628231 94.638668,53.3651093 94.7988072,53.5142147 C94.916004,53.6257455 95.0245527,53.5628231 95.1247515,53.4709742 C95.6761431,52.9759443 96.3465209,53.3144135 96.9521869,53.2085487 C97.1680915,53.1715706 97.2035785,53.3182903 97.2104374,53.4840954 C97.2146123,53.5607356 97.2146123,53.6367793 97.2146123,53.7134195 C97.2166998,55.6201789 97.2166998,55.6201789 95.3239563,55.6019881 C94.5086481,55.5945328 93.7186879,55.7000994 92.9326044,55.9687873 C90.6065606,56.7620278 88.2709742,57.5293241 85.9243539,58.2611332 C85.3634195,58.4385686 85.1218688,58.671173 85.0693837,59.2908549 C84.9331014,60.8821074 84.8904573,60.8841948 83.3877734,60.6062624 C82.5978131,60.4595427 81.5624254,60.6175944 81.1097416,59.9859841 C80.694334,59.4065606 81.0369781,58.4630219 81.0500994,57.6784294 C81.0611332,56.8926441 81.1225646,56.1047714 81.1398608,55.3171968 C81.1565606,54.5305169 81.1434394,53.7432406 81.1434394,52.8363817 C81.5994036,53.1939364 81.9217694,53.5965209 82.4600398,53.6185885 C83.0075547,53.6430417 83.45666,53.4733598 83.7972167,53.0409543 C84.2889662,52.4170974 84.2481113,51.5194831 83.704175,50.9475149 C83.0671968,50.2750497 82.2978131,50.3308151 81.1335984,51.2042744 C81.1335984,49.5077535 81.1801193,47.8911531 81.1225646,46.2781312 C80.9955268,42.6387674 78.5466203,40.2363817 74.8977137,40.1188867 C74.6666004,40.1117296 74.1888668,39.8827038 74.3612326,40.4970179 C74.3224652,40.5477137 74.2777336,40.5924453 74.2359841,40.6371769 L74.2306163,40.6312127 Z M87.0685885,52.359841 C86.3481113,52.3416501 85.7871769,52.6601392 85.6234592,53.3472167 C85.4260437,54.1804175 85.3049702,55.0479125 85.2921471,55.9031809 C85.2769384,56.8413519 85.7460239,57.1082505 86.6388668,56.8112326 C87.1189861,56.6531809 87.6,56.499006 88.0819085,56.3460239 C89.2365805,55.9771372 90.404672,55.6416501 91.4997018,55.1129225 C91.8256461,54.9542744 92.1292247,54.7294235 92.1178926,54.3193837 C92.1089463,53.949006 91.8369781,53.7029821 91.5256461,53.5932406 C90.0703777,53.0862823 88.5972167,52.6270378 87.0703777,52.3646123 L87.0685885,52.359841 Z" id="Shape"></path>
            <path d="M14.9585487,22.359841 C16.2996024,19.1188867 18.4180915,16.4078529 20.7498012,13.8426441 C21.0187873,13.5465209 21.2976143,13.260835 21.5794235,12.960835 C22.4695825,14.3209742 22.4695825,14.3218688 23.8860835,13.5426441 C25.8158052,12.4819085 27.7434394,11.4202783 29.7032803,10.3410537 C29.7530815,10.5152087 29.7730616,10.6389662 29.82167,10.7499006 C29.8848907,10.8924453 29.8383698,11.162326 30.1151093,11.0949304 C30.3691849,11.0340954 30.24334,10.8435388 30.2332008,10.6696819 C30.1905567,9.96083499 30.4577535,9.32594433 30.788171,8.72117296 C31.0312127,8.27624254 31.2960239,7.84145129 31.5772366,7.42037773 C32.1909543,6.50427435 32.4533797,6.47236581 33.3408549,7.09353877 C33.5451292,7.23697813 33.4359841,7.30437376 33.3751491,7.43916501 C32.9991054,8.28190855 33.6793241,9.18727634 34.6520875,9.14493042 C34.7701789,9.14075547 34.9315109,9.17415507 34.9324056,8.9889662 C34.9341948,8.6361829 34.6094433,8.74771372 34.29334,8.58459245 C35.7846918,8.16858847 37.0073559,7.32286282 38.5335984,7.29930417 C39.4786282,7.28469185 40.3482107,7.18687873 41.0170974,6.18310139 C41.4405567,5.54612326 42.5293241,5.45785288 43.3517893,5.21779324 C43.5599404,5.15606362 43.7343936,5.4250497 43.8366799,5.63737575 C43.9502982,5.87206759 43.7955268,6.0304175 43.6517893,6.16640159 C43.1764414,6.61431412 42.5713718,6.81709742 41.9704771,7.02166998 C39.6414513,7.8193837 37.300497,8.62544732 35.138171,9.78936382 C32.0850895,11.4322068 29.4718688,13.6568588 27.5722664,16.600497 C26.4593439,18.3259443 26.7996024,19.5724652 28.5790258,20.6012922 C31.1770378,22.1030815 33.9861829,23.1480119 36.7550696,24.2812127 C39.4488072,25.3848907 42.1315109,26.5163022 44.8228628,27.7807157 C43.6043738,28.0228628 42.3870775,28.2715706 41.167992,28.5074553 C34.1654076,29.8562624 27.1628231,31.1979125 20.1635189,32.561332 C19.7612326,32.6394632 19.4248509,32.6093439 19.0675944,32.439662 C18.311332,32.0815109 17.5347913,31.7668986 16.7907555,31.3869781 C16.5187873,31.2468191 15.9620278,31.272167 16.1006958,30.7619284 C16.2304175,30.2833002 16.4797217,29.8139165 17.0880716,29.7471173 C18.8806163,29.5494036 20.673161,29.3478131 22.4657058,29.1500994 C27.8683897,28.5572565 33.27167,27.9644135 38.6755467,27.3736581 C39.4073559,27.2934394 40.1421471,27.2314115 40.8733598,27.1416501 C41.1023857,27.1124254 41.5037773,27.2135189 41.4894632,26.876839 C41.4736581,26.4823062 41.0809145,26.6925447 40.8757455,26.7137177 C37.9452286,27.0196819 35.016501,27.3429423 32.0868787,27.6644135 C27.6432406,28.1531809 23.1993042,28.6434394 18.755666,29.1310139 C18.1243539,29.2001988 17.4918489,29.2759443 16.8587475,29.3170974 C16.127833,29.3639165 15.5361829,29.1047714 15.0688867,28.5086481 C14.8210736,28.1919483 14.9478131,28.0971173 15.2233598,27.9745527 C16.2468191,27.5236581 17.3150099,27.2003976 18.3840954,26.8851889 C19.400994,26.5863817 20.172167,26.0695825 20.6806163,25.0681909 C21.488171,23.4742545 22.6854871,22.139165 23.8410537,20.7873757 C23.9725646,20.632008 24.1177932,20.4852883 24.2296223,20.3170974 C24.5117296,19.8912525 25.1114314,19.5002982 24.7702783,18.9336978 C24.4643141,18.4255467 23.7906561,18.5030815 23.2917495,18.5892644 C21.6987078,18.8677932 20.0874751,19.072664 18.5800199,19.7460239 C17.3534791,20.293837 16.5301193,21.305666 15.5582505,22.150497 C15.4240557,22.2662028 15.2892644,22.3816103 15.1550696,22.4973161 C15.0852883,22.4585487 15.0199801,22.4138171 14.9549702,22.3661034 L14.9585487,22.359841 Z" id="Path"></path>
            <path d="M39.9214712,23.7584493 C40.5843936,22.2924453 41.2276342,20.8893638 41.8479125,19.4758449 C41.933499,19.2802187 42.2683897,19.0034791 41.9358847,18.8332008 C41.5690855,18.6441352 41.5798211,19.1006958 41.4942346,19.2823062 C40.8653082,20.6120278 40.2515905,21.9480119 39.6670974,23.2965209 C39.5057654,23.667495 39.316998,23.8434394 38.8968191,23.8640159 C38.0150099,23.9057654 37.1403579,24.0823062 36.2850895,23.6543738 C35.950497,23.4873757 35.8249503,23.3877734 36.0298211,23.0173956 C36.4580517,22.2405567 36.8182903,21.4267396 37.2515905,20.6528827 C37.4648111,20.2723658 37.4063618,20.1071571 37.0189861,19.9073559 C35.994334,19.3792247 36.0044732,19.3601392 36.5493042,18.3241551 C36.6435388,18.145825 36.7210736,17.9543738 36.8326044,17.7861829 C36.9492048,17.6120278 36.9673956,17.2777336 37.2450298,17.3254473 C37.5503976,17.3776342 37.8477137,17.45666 38.0385686,17.8180915 C38.4530815,18.6029821 38.5610338,19.3863817 38.3466203,20.2437376 C38.1918489,20.8661034 38.2517893,21.5821074 37.3514911,21.7267396 C37.0971173,21.7666998 37.0413519,22.1015905 37.0538767,22.371173 C37.0681909,22.6863817 37.2503976,22.900497 37.5280318,23.0003976 C38.1498012,23.2234592 38.7823062,23.1307157 39.0357853,22.5068588 C39.7658052,20.7131213 40.6729622,18.9029821 39.5078529,16.9389662 C39.2346918,16.4797217 39.2621272,15.9832008 39.7013917,15.7470179 C40.1782306,15.4917495 40.623161,15.6143141 40.9034791,16.2426441 C41.3412525,17.2210736 42.094831,18.0050696 42.7798211,18.8209742 C42.9029821,18.9670974 43.1170974,19.1311133 43.287674,19.1290258 C44.42833,19.117992 44.9740557,20.033499 45.7166004,20.6406561 C45.8725646,20.7688867 46.0154076,20.9153082 46.166004,21.0515905 C47.4029821,22.1654076 48.3161034,21.9799205 48.9727634,20.5073559 C52.4809145,22.3094433 56.077336,23.9045726 59.8225646,25.1552684 C60.1583499,25.2676938 60.5096421,25.3497018 60.8275348,25.5026839 C62.4020875,26.2568588 64.0133201,26.555666 65.7712724,26.2285288 C67.0553678,25.9887674 68.2312127,26.5285288 69.2728628,27.2481113 C71.0689861,28.4889662 72.9390656,29.656163 74.5753479,31.0860835 C76.3121272,32.6042744 78.2430417,32.644831 80.2935388,32.4253479 C81.5865805,32.2875746 82.804175,31.8474155 83.9722664,31.3070577 C84.3014911,32.187674 83.8622266,32.5240557 83.1116302,32.755169 C81.8284294,33.1476143 80.5672962,33.6187873 79.29334,34.0452286 C77.7754473,34.5560636 76.2772366,34.4006958 74.8309145,33.8000994 C68.3722664,31.112326 61.9213718,28.405169 55.4680915,25.7045726 C55.3037773,25.6365805 55.14334,25.5617296 54.9781312,25.4970179 C54.8281312,25.4385686 54.672167,25.40666 54.611332,25.6115308 C54.5648111,25.7698807 54.6909543,25.8390656 54.8057654,25.889165 C55.294831,26.0991054 55.7862823,26.3039761 56.2774354,26.5085487 C62.3803181,29.0615308 68.4832008,31.6183897 74.5887674,34.1612326 C76.2110338,34.8372763 77.8744533,35.0069583 79.5688867,34.4206759 C80.9806163,33.9298211 82.3926441,33.4383698 83.8019881,32.937674 C84.0667992,32.8425447 84.3166998,32.6862823 84.5493042,32.9877734 C84.6781312,33.1535785 84.9924453,33.1535785 84.9515905,33.4780318 C84.9125249,33.7828032 84.6593439,33.7944334 84.4601392,33.8743539 C82.6049702,34.628827 80.7486083,35.377336 78.8910537,36.1240557 C76.9631213,36.8997018 75.0292247,37.6625249 73.1078529,38.4506958 C72.87167,38.5473161 72.7338966,38.6012922 72.5454274,38.3740557 C70.1677932,35.5261431 66.8776342,34.1803181 63.5326044,32.9317097 C61.6804175,32.2413519 59.8040755,31.6121272 58.0404573,30.7034791 C57.4833996,30.4168986 57.0578529,30.0280318 56.6967197,29.5091451 C55.7120278,28.0902584 54.6748509,26.7089463 53.6663022,25.3073559 C53.4939364,25.066998 53.261332,24.9342942 53.0078529,24.8126243 C51.1306163,23.9126243 49.1764414,23.1999006 47.2485089,22.4239563 C46.8515905,22.2638171 46.4961233,22.3863817 46.1424453,22.4994036 C44.300994,23.0880716 42.4395626,23.5771372 40.5023857,23.7241551 C40.3353877,23.7420477 40.1654076,23.750994 39.9238569,23.7629225 L39.9214712,23.7584493 Z" id="Path"></path>
            <path d="M108.486083,21.1968191 C106.672068,22.055666 104.712525,22.3294235 102.7834,22.7203777 C101.613817,22.9580517 100.436779,23.1465209 99.2671968,23.3749503 C99.0993042,23.4071571 98.7918489,23.3785288 98.8610338,23.6925447 C98.9170974,23.9510934 99.1589463,23.827336 99.3083499,23.7984095 C103.353579,22.9992048 107.495726,22.5694831 111.240954,20.6302187 C112.205666,20.1322068 113.207654,19.7045726 114.192644,19.2474155 C114.770278,18.9793241 115.652982,19.2846918 115.999205,19.8411531 C116.218986,20.1954274 115.912127,20.2163022 115.733201,20.3063618 C114.624751,20.8690855 113.509145,21.4142147 112.404871,21.9817097 C104.02008,26.2848907 95.1999006,29.534493 86.360338,32.739662 C85.7922465,32.9460239 85.1722664,33.1195825 84.745825,32.5646123 C84.2782306,31.9601392 84.3957256,31.2545726 84.7717694,30.6333996 C85.9189861,28.7475149 87.2150099,26.9403579 88.2119284,24.9787276 C88.9625249,23.5001988 89.9904573,23.0970179 91.5417495,23.0314115 C97.0267396,22.8023857 102.469085,22.1203777 107.886382,21.2501988 C108.077237,21.2233598 108.28002,21.2173956 108.479821,21.199503 L108.486083,21.1968191 Z" id="Path"></path>
            <path d="M8.48260437,42.4622266 C10.6646123,40.2739563 13.2843936,39.3384692 16.0786282,38.7667992 C19.0854871,38.1521869 22.112326,37.9359841 25.1683897,38.300994 C26.1575547,38.4199801 27.0858847,38.7667992 28.0321074,39.0465209 C28.2921471,39.1225646 28.4081511,39.2382704 28.2799205,39.5415507 C26.6248509,43.4323062 24.9817097,47.3284294 23.3200795,51.2582505 C21.8895626,50.2300199 20.6931412,49.027336 19.4591451,47.8687873 C18.4040755,46.8754473 17.2950298,45.9319085 16.3210736,44.8649105 C15.0584493,43.4824056 13.4510934,43.0488072 11.6994036,42.8621272 C10.6568588,42.7517893 9.61759443,42.6026839 8.4832008,42.4625249 L8.48260437,42.4622266 Z" id="Path"></path>
            <path d="M114.569583,61.5387674 C117.090954,61.9168986 119.497515,62.5607356 121.972366,62.7882704 C123.210537,62.9021869 124.447813,63.0826044 125.695229,63.0289264 C126.995427,62.9713718 127.513419,62.5577535 127.868887,61.3076541 C127.965805,60.966501 128.030815,60.6172962 128.122068,60.2743539 C128.440557,59.0633201 128.144135,58.1493042 127.06998,57.3757455 C125.879821,56.5195825 124.834891,55.4591451 123.691849,54.532008 C123.214712,54.1470179 123.380517,54.0164016 123.80338,53.8025845 C124.822366,53.2878728 125.831809,52.7576541 126.828131,52.2023857 C127.200596,51.9936382 127.49493,51.9861829 127.875149,52.211332 C130.942247,54.0295229 132.700199,57.8215706 132.052485,61.2706759 C131.344831,65.0257455 128.455765,67.8730616 124.844732,68.5228628 C122.730716,68.9027833 120.769682,68.2637177 118.762127,67.8763419 C118.66163,67.8581511 118.514314,67.8298211 118.568588,67.722167 C118.81998,67.215507 118.322863,67.1818091 118.108449,67.0291252 C116.262525,65.6961233 114.926541,63.6712724 114.574652,61.5420477 L114.569583,61.5387674 Z" id="Path"></path>
            <path d="M129.596421,36.3787276 C130.914811,35.6361829 132.190855,34.9171968 133.468091,34.1979125 C135.259443,33.1905567 137.056759,32.1954274 138.835586,31.1698807 C139.213718,30.950994 139.461531,30.9459245 139.723956,31.3142147 C139.899304,31.5599404 140.167396,31.7394632 140.340656,31.9875746 C141.17326,33.1741551 142.383698,33.604175 143.752187,33.7085487 C144.53827,33.7681909 145.324056,33.80666 146.112227,33.8239563 C146.300099,33.8275348 146.435785,33.8087475 146.561034,33.9894632 C147.049205,34.6992048 147.566302,35.3868787 147.888668,36.2021869 C148.026441,36.550497 147.978429,36.7368787 147.640855,36.9345924 C145.055964,38.4444334 142.482406,39.9697813 139.91004,41.5010934 C139.636581,41.6648111 139.442445,41.6997018 139.174354,41.4691849 C136.442147,39.1094433 133.320477,37.4776342 129.839761,36.5281312 C129.777137,36.5102386 129.723459,36.4565606 129.598211,36.3790258 L129.596421,36.3787276 Z" id="Path"></path>
            <path d="M74.3588469,40.4970179 C75.172664,40.5366799 75.9739563,40.65 76.7531809,40.8993042 C79.2077535,41.6859841 80.5917495,43.5161034 80.6862823,46.099503 C80.8464215,50.4441352 80.7629225,54.7857853 80.5595427,59.1277336 C80.5019881,60.3691849 80.6173956,60.522167 81.8147117,60.7589463 C82.634493,60.9205765 83.4611332,61.0625249 84.290159,61.1821074 C84.6945328,61.239662 84.9772366,61.2987078 84.8135189,61.8277336 C84.6345924,62.4011928 85.0631213,62.4811133 85.4654076,62.4611332 C86.6573559,62.4011928 87.8496024,62.3343936 89.037674,62.2228628 C91.8685885,61.9544732 94.6944334,61.6177932 97.5292247,61.4030815 C98.3615308,61.340159 98.8010934,61.0678926 98.9111332,60.0459245 C99.4899602,60.9730616 99.6578529,61.8050696 99.8364811,62.6585487 C99.5683897,62.6850895 99.4249503,62.5672962 99.3727634,62.4498012 C98.9913519,61.6100398 98.3167992,61.7982107 97.6315109,61.8873757 C93.1765408,62.4700795 88.7752485,63.372167 84.3560636,64.1573559 C81.8081511,64.6106362 79.2659046,65.0850895 76.7245527,65.5732604 C76.2432406,65.6645129 76.0335984,65.517495 75.9208748,65.0513917 C75.7488072,64.3398608 75.9152087,63.6846918 76.1976143,63.0548708 C76.9258449,61.4382704 77.6510934,59.8180915 78.4392644,58.2298211 C79.4537773,56.1826044 80.0445328,54.0238569 80.3499006,51.7729622 C80.3979125,51.4154076 80.2866799,51.1374751 80.1205765,50.8416501 C78.2749503,47.5425447 76.4302187,44.2464215 74.4402584,41.0337972 C74.3612326,40.9052684 74.2989066,40.7657058 74.228827,40.6312127 C74.2735586,40.5864811 74.3182903,40.5417495 74.3600398,40.4970179 L74.3588469,40.4970179 Z" id="Path"></path>
            <path d="M28.7385686,39.5248509 C29.6522863,40.2524851 30.4696819,40.9365805 31.3219682,41.5714712 C31.7069583,41.8583499 31.4645129,42.1082505 31.3580517,42.3575547 C29.8306163,45.9748509 28.2972167,49.587674 26.7614314,53.1987078 C25.4141153,56.3710736 24.0518887,59.5350895 22.7212724,62.7104374 C22.4800199,63.2859841 22.2459245,63.5302187 21.6140159,63.1705765 C21.0450298,62.8461233 20.4125249,62.6343936 19.8026839,62.3865805 C19.3696819,62.2097416 19.1973161,61.9619284 19.4516899,61.5074553 C19.587674,61.2650099 19.6723658,60.9957256 19.7850895,60.7404573 C20.0597416,60.116004 20.1799205,59.2395626 20.6594433,58.9431412 C21.0942346,58.6750497 21.8087475,59.3397614 22.4182903,59.5410537 C22.5888668,59.5986083 22.8038767,59.8204771 22.9091451,59.4978131 C22.9845924,59.2652087 22.7412525,59.2333002 22.587674,59.1644135 C22.5411531,59.1420477 22.4964215,59.1199801 22.4519881,59.0955268 C21.9208748,58.8220676 21.0670974,58.7940358 20.9114314,58.2930417 C20.7781312,57.8615308 21.2648111,57.232008 21.4905567,56.6955268 C23.8917495,50.9997018 26.2959245,45.309841 28.7385686,39.5245527 L28.7385686,39.5248509 Z M22.5459245,61.1212724 C22.5605368,60.5639165 22.1305169,60.0945328 21.5776342,60.060835 C20.9889662,60.0277336 20.4888668,60.4804175 20.472167,61.0631213 C20.4563618,61.6085487 20.8986083,62.0907555 21.4455268,62.1229622 C22.0303181,62.1587475 22.5304175,61.7054672 22.5459245,61.1239563 L22.5459245,61.1212724 Z" id="Shape"></path>
            <path d="M128.737575,21.6590457 C129.579423,21.0542744 130.238469,20.540159 130.941054,20.0922465 C131.29503,19.8670974 131.738171,20.0922465 132.166103,19.9428429 C134.414612,19.1516899 136.684592,18.4291252 138.947117,17.6853877 C139.183897,17.6072565 139.409344,17.4653082 139.761531,17.5628231 C139.761531,18.0730616 139.739165,18.6035785 139.76839,19.1326044 C139.788966,19.4883698 139.571272,19.6747515 139.377137,19.9109344 C139.019881,20.3478131 138.865109,19.8814115 138.654274,19.761829 C138.032803,19.4102386 137.384493,19.4713718 136.725149,19.5817097 C135.551392,19.7761431 134.42505,20.1978131 133.231312,20.2920477 C132.88837,20.3194831 132.884791,20.5869781 132.875547,20.7793241 C132.843936,21.387674 132.869881,21.9975149 132.866004,22.606163 C132.866004,22.7833002 132.936978,22.8802187 133.11173,22.9267396 C134.609642,23.3182903 136.097416,23.8058648 137.67495,23.5902584 C138.97336,23.4128231 139.262028,23.0734592 139.539364,21.4792247 C141.595825,25.4913519 143.597416,29.3991054 145.648211,33.4013917 C144.474453,33.3751491 143.442942,33.304175 142.439165,33.032505 C141.837376,32.8705765 141.355169,32.5055666 140.934095,32.0403579 C138.375149,29.2154076 135.72674,26.4733598 133.044632,23.7638171 C131.899503,22.6037773 130.542644,21.8880716 128.741451,21.6614314 L128.737575,21.6590457 Z" id="Path"></path>
            <path d="M72.3220676,54.8976143 C72.3387674,58.9971173 68.2696819,61.8471173 64.7991054,60.1666998 C61.5918489,58.6136183 60.5940358,53.840159 62.9361829,51.1601392 C63.3086481,50.7333996 63.6152087,50.3531809 63.416004,49.7501988 C63.3125249,49.4349901 63.5463221,49.2900596 63.7899602,49.1835984 C64.8202783,48.7428429 65.8872763,48.4431412 67.0067594,48.321173 C67.3640159,48.2827038 67.5328032,48.3885686 67.5626243,48.744334 C67.5972167,49.1633201 67.8706759,49.3255467 68.2526839,49.433499 C70.8411531,50.1641153 72.3143141,52.1531809 72.3262425,54.8967197 L72.3220676,54.8976143 Z M70.640159,54.9781312 C70.6335984,52.9410537 68.9615308,51.2570577 66.9781312,51.2907555 C65.000994,51.3223658 63.410338,52.966998 63.4010464,54.9858847 C63.3909543,57.0366799 65.0215706,58.7129225 67.0228628,58.7129225 C69.0208748,58.7099404 70.6520875,57.0250497 70.6431778,54.9763419 L70.640159,54.9781312 Z" id="Shape"></path>
            <path d="M137.582505,9.26630219 C137.010239,10.3932406 136.224155,11.0084493 135.010139,11.3337972 C130.485984,12.5427435 125.992545,13.8644135 121.503877,15.1971173 C120.758946,15.4192843 120.579722,15.2460239 120.46998,14.5413519 C120.311928,13.5172962 120.050994,12.5069583 119.793936,11.5010934 C119.682406,11.0642147 119.82167,10.9264414 120.23499,10.8536779 C121.511034,10.6276342 121.511034,10.6145129 121.775547,11.8974155 C121.916899,12.5928429 122.041551,13.2909543 122.194533,13.9831014 C122.242545,14.199006 122.162624,14.6135189 122.527932,14.5258449 C122.859245,14.4468191 122.643638,14.0853877 122.603976,13.866501 C122.440258,12.943837 122.238966,12.0271372 122.062425,11.1074553 C122.012326,10.8414513 121.918986,10.5942346 122.37495,10.5181909 C127.387873,9.68648111 132.436581,9.24811133 137.580716,9.26838966 L137.582505,9.26630219 Z" id="Path"></path>
            <path d="M114.814115,47.8628231 C121.671471,48.5818091 128.529125,49.3007952 135.583897,50.0418489 C134.596521,50.6510934 133.774056,51.2397614 132.729125,51.2418489 C131.080616,51.2469185 129.330119,50.6436382 127.815507,51.2042744 C126.340557,51.7514911 124.928529,52.6437376 123.544831,53.482008 C123.044135,53.7855865 122.70328,53.7593439 122.316203,53.3332008 C122.010835,52.9959245 121.621372,52.7367793 121.295129,52.416501 C119.397316,50.5526839 117.261531,49.0434394 114.763718,48.0587475 C114.778628,47.9931412 114.793539,47.9275348 114.811431,47.8619284 L114.814115,47.8628231 Z" id="Path"></path>
            <path d="M23.5410537,18.9363817 C23.8207753,19.0986083 24.2388668,18.9068588 24.3700795,19.2178926 C24.4845924,19.4904573 24.1744533,19.7156064 24.0020875,19.92167 C22.505666,21.710338 20.9764414,23.4733598 19.8817097,25.5578529 C19.6300199,26.0373757 19.093837,26.1912525 18.6235586,26.3567594 C17.3600398,26.7984095 16.0422465,27.0930417 14.8410537,27.7064612 C14.5422465,27.8585487 14.4492048,27.6852883 14.3194831,27.4735586 C13.6088469,26.3129225 13.8101392,24.0849901 14.861332,23.3466203 C15.6220676,22.8131213 16.2766402,22.1132207 16.9297217,21.4410537 C17.9809145,20.3576541 19.282008,19.8002982 20.7244533,19.5044732 C21.6659046,19.3076541 22.6091451,19.1227634 23.5410537,18.9348907 L23.5410537,18.9363817 Z" id="Path"></path>
            <path d="M36.7425447,6.87047714 C35.9555666,6.87047714 35.1685885,6.88777336 34.3836978,6.86182903 C34.0589463,6.85049702 33.7264414,6.77922465 33.4163022,6.67723658 C31.4436382,6.03369781 31.1809145,4.79791252 32.7229622,3.40795229 C33.9533797,2.29980119 35.3472167,1.41053678 36.7291252,0.512922465 C37.8727634,-0.229622266 39.649503,0.613121272 39.8430417,1.77882704 C40.033002,2.92395626 40.3819085,4.04671968 40.5265408,5.20526839 C40.6652087,6.31192843 40.3652087,6.72435388 39.2525845,6.82157058 C38.4208748,6.89463221 37.5793241,6.83677932 36.7422465,6.83677932 L36.7422465,6.87047714 L36.7425447,6.87047714 Z" id="Path"></path>
            <path d="M99.7604374,60.4532803 C98.9722664,59.5166004 98.7846918,59.5410537 98.3841948,60.5394632 C98.2684891,60.8293241 98.0821074,60.8982107 97.8104374,60.9265408 C96.1956262,61.082505 94.5790258,61.4087475 92.9698807,61.3643141 C91.6771372,61.3309145 90.3960239,60.8576541 89.1131213,60.5728628 C88.0511928,60.3357853 86.9895626,60.0921471 85.9318091,59.8392644 C85.7415507,59.7942346 85.395328,59.8741551 85.4791252,59.4996024 C85.5366799,59.2300199 85.4358847,58.8757455 85.843837,58.7457256 C87.5054672,58.2095427 89.1331014,57.5218688 90.832008,57.1696819 C91.6813121,56.9949304 92.6570577,57.4121272 93.5713718,57.5812127 C95.3409543,57.9077535 97.0971173,58.3097416 98.8759443,58.5557654 C99.6915507,58.6678926 99.9038767,58.9860835 99.7661034,59.7158052 C99.727336,59.9036779 99.7571571,60.1064612 99.7571571,60.4494036 L99.7604374,60.4532803 Z" id="Path"></path>
            <path d="M40.9294235,7.84652087 C41.088668,9.11093439 41.088668,9.10974155 39.9533797,9.08200795 C39.5722664,9.07186879 39.1917495,9.06411531 38.8106362,9.05666004 C38.6615308,9.05427435 38.5649105,9.12554672 38.5583499,9.27465209 C38.5508946,9.44493042 38.6785288,9.47027833 38.811829,9.47415507 C38.888171,9.47624254 38.9642147,9.4750497 39.0408549,9.47833002 C40.4078529,9.54512922 40.5524851,9.56540755 40.3640159,10.8879722 C40.1677932,12.2692843 41.2198807,12.4395626 41.9677932,12.8755467 C42.6122266,13.2521869 43.2960239,13.5837972 44.0645129,13.7540755 C44.8601392,13.9300199 45.2427435,14.716998 45.8564612,15.3715706 C44.9588469,15.3530815 44.1688867,15.2355865 43.4463221,15.6005964 C42.6837972,15.9858847 42.5302187,16.7487078 42.3289264,17.5514911 C41.854175,17.0215706 41.460835,16.5086481 41.1960239,15.8997018 C40.9338966,15.3005964 40.14334,15.0280318 39.5287276,15.3047714 C39.0462227,15.5227634 38.6937376,16.4033797 39.0184891,16.8817097 C40.2047714,18.6307157 39.3685885,20.2971173 38.8649105,21.9694831 C38.7223658,22.4418489 38.3871769,22.8322068 37.7698807,22.6371769 C37.6142147,22.5885686 37.4967197,22.5047714 37.4976143,22.3192843 C37.4985089,22.1764414 37.5811133,22.0920477 37.700994,22.027336 C38.0156064,21.856163 38.5040755,21.8997018 38.561332,21.400497 C38.6812127,20.3591451 39.1860835,19.3333002 38.6979125,18.2642147 C38.3290258,17.4575547 38.0167992,16.6183897 37.5805169,15.8501988 C37.1493042,15.0912525 37.2829026,14.4080517 37.5867793,13.6777336 C37.7564612,13.2688867 38.121173,12.8642147 37.5217694,12.4204771 C37.2715706,12.2329026 37.5065606,11.9725646 37.8429423,11.9734592 C38.2747515,11.9764414 38.7068588,11.9791252 39.1392644,11.9734592 C39.3074553,11.9713718 39.5329026,12.0068588 39.5096421,11.7342942 C39.4908549,11.5154076 39.2919483,11.5678926 39.1529821,11.566998 C38.6194831,11.5610338 38.0853877,11.5479125 37.5521869,11.5699801 C37.2059642,11.5851889 37.0115308,11.4966203 37.0681909,11.1119284 C37.0717694,11.0874751 37.0696819,11.061829 37.0690855,11.0370775 C37.0073559,9.35785288 37.0067594,9.3527833 38.5813121,8.7333996 C39.3536779,8.43250497 40.1349901,8.14860835 40.9282306,7.84980119 L40.9294235,7.84652087 Z" id="Path"></path>
            <path d="M86.5079523,47.1500994 C86.5079523,46.3133201 86.500497,45.4753479 86.5097416,44.639165 C86.5171968,44.04334 86.7462227,43.6359841 87.3289264,43.3297217 C88.9869781,42.4565606 90.6104374,41.5195825 92.2291252,40.5736581 C92.6579523,40.3222664 92.8681909,40.3687873 93.0954274,40.8080517 C93.6984095,41.9686879 93.1362823,43.2667992 91.8286282,43.4695825 C91.1436382,43.577833 90.9348907,43.8647117 91.0705765,44.4900596 C91.2011928,45.0957256 90.9760437,45.5260437 90.4413519,45.810835 C89.9630219,46.0643141 89.8398608,46.5444334 89.711332,47.0045726 C89.3964215,48.1276342 89.1861829,49.2748509 89.050497,50.4331014 C88.9998012,50.8658052 88.9082505,51.082008 88.3965209,50.8374751 C87.8525845,50.5771372 87.2642147,50.4035785 86.6815109,50.234493 C86.3609344,50.1411531 86.2192843,50.0167992 86.2526839,49.6568588 C86.3272366,48.8242545 86.3588469,47.9859841 86.4092445,47.1500994 C86.4420477,47.1471173 86.4748509,47.1471173 86.5076541,47.1471173 L86.5079523,47.1500994 Z" id="Path"></path>
            <path d="M108.247515,64.9473161 C105.708549,64.3687873 103.317495,63.8194831 100.922565,63.284493 C100.581113,63.2102386 100.468091,63.0065606 100.446918,62.705666 C100.370875,61.5676938 100.309145,60.427336 100.217893,59.2893638 C100.182406,58.8557654 100.389066,58.8483101 100.713519,58.9112326 C102.803082,59.3120278 104.894732,59.7110338 106.985785,60.0999006 C107.205567,60.1404573 107.369881,60.1738569 107.378827,60.4497018 C107.420577,61.9526839 107.787376,63.3960239 108.24662,64.9497018 L108.247515,64.9473161 Z" id="Path"></path>
            <path d="M31.2882704,4.63658052 C31.2903579,5.24045726 31.3079523,5.72922465 31.6729622,6.0999006 C31.8772366,6.305666 31.7531809,6.43747515 31.6309145,6.60924453 C30.9662028,7.53906561 30.3125249,8.47753479 29.9588469,9.58240557 C29.9000994,9.76789264 29.7587475,9.84542744 29.593837,9.93518887 C27.4312127,11.1089463 25.2775348,12.2964215 23.1172962,13.4752485 C22.8638171,13.6142147 22.5471173,13.8715706 22.3681909,13.4185885 C22.2304175,13.0699801 21.7535785,12.7687873 22.2333996,12.2925447 C25.0112326,9.52813121 28.0043738,7.02107356 31.287674,4.63687873 L31.2882704,4.63658052 Z" id="Path"></path>
            <path d="M115.568588,38.7852883 C115.942545,38.3424453 116.258946,37.9553678 116.590557,37.5787276 C117.263022,36.8170974 117.929821,36.0498012 118.628231,35.3120278 C118.807157,35.1238569 119.013817,34.7069583 119.330517,34.9580517 C119.620974,35.1873757 119.259543,35.4536779 119.136978,35.6695825 C118.522068,36.75 117.881809,37.8152087 117.261531,38.893837 C117.052783,39.2564612 116.907256,39.6143141 116.851491,40.0702783 C116.777237,40.6905567 116.184692,41.1077535 115.683698,41.4930417 C115.508648,41.6293241 115.350596,41.4471173 115.223857,41.3349901 C114.724652,40.8972167 114.190258,40.5790258 113.898012,39.8522863 C113.616799,39.1502982 112.921968,38.5786282 112.26829,38.0755467 C110.463221,36.6808151 108.675447,35.2631213 106.786879,33.7810139 C107.828231,33.6772366 108.671869,33.622664 109.464811,34.3658052 C110.46173,35.3030815 111.584195,36.1055666 112.666103,36.9506958 C112.860239,37.1018887 113.042744,37.4910537 113.351988,37.2229622 C113.636779,36.9793241 113.308748,36.7195825 113.216004,36.4905567 C112.821471,35.5297217 112.409344,34.5742545 111.986779,33.6265408 C111.856461,33.3342942 111.804573,33.1419483 112.19165,33.0005964 C112.521471,32.8816103 112.706064,32.8550696 112.884394,33.2329026 C113.749205,35.0668986 114.643837,36.8800199 115.571272,38.7885686 L115.568588,38.7852883 Z" id="Path"></path>
            <path d="M135.146123,70.0437376 C135.619384,68.5133201 135.149702,67.5390656 134.030219,66.795328 C133.188668,66.2349901 132.396918,65.5965209 131.555368,65.0340954 C131.224056,64.8143141 131.184394,64.6449304 131.393141,64.3204771 C131.778728,63.7267396 132.009841,63.0521869 132.262724,62.2956262 C133.212823,62.9144135 134.106859,63.5027833 135.008052,64.083996 C135.412425,64.3449304 135.82008,64.6001988 136.237575,64.8360835 C137.239264,65.4077535 137.475746,65.3835984 138.304473,64.6649105 C138.322366,65.7026839 136.908847,68.1539761 135.143439,70.0416501 L135.146123,70.0437376 Z" id="Path"></path>
            <path d="M121.422465,44.0397614 C123.608946,43.6359841 125.752485,43.8140159 127.903479,44.4405567 C127.748708,44.7274354 127.546223,44.6206759 127.387575,44.6564612 C126.780716,44.7981113 126.383797,45.1145129 126.36501,45.7848907 C126.341153,46.5709742 126.296123,47.3567594 126.294632,48.1407555 C126.294632,48.527833 126.212624,48.6826044 125.779026,48.6161034 C125.003976,48.4944334 124.219682,48.4073559 123.437773,48.3647117 C122.992247,48.338171 122.884592,48.166998 122.916203,47.7533797 C122.957356,47.2246521 122.95169,46.6884692 122.936481,46.1570577 C122.900696,44.7823062 122.677038,44.4870775 121.424553,44.0427435 L121.422465,44.0397614 Z" id="Path"></path>
            <path d="M28.2256461,16.44334 C28.756163,17.4793241 29.3570577,18.4470179 29.7023857,19.5304175 C29.859841,20.0233598 30.0936382,20.1924453 30.6095427,20.2022863 C32.0323062,20.2297217 33.4553678,20.3036779 34.8757455,20.4020875 C36.0172962,20.4817097 36.4532803,21.2827038 35.9185885,22.3225646 C35.3069583,23.5121272 35.6069583,23.3704771 34.4621272,22.8870775 C32.9677932,22.25666 31.4931412,21.5776342 30.0175944,20.905169 C29.6021869,20.716998 29.1999006,20.4963221 28.8086481,20.2625249 C27.1416501,19.2724652 26.944831,18.0855865 28.221173,16.4454274 L28.2256461,16.44334 Z" id="Path"></path>
            <path d="M108.104374,62.8031809 C109.002584,63.8185885 109.153479,63.8794235 110.41998,63.3858847 C111.528131,62.9543738 112.617495,62.4808151 113.706859,62.0045726 C114.03668,61.8587475 114.179821,61.8718688 114.277038,62.2705765 C114.461332,63.0360835 114.770278,63.7625249 115.189861,64.4308151 C115.36998,64.7197813 115.334493,64.8554672 115.027634,65.0027833 C114.4333,65.283996 113.852684,65.5932406 113.276839,65.9093439 C113.053479,66.0345924 112.857853,66.0086481 112.626441,65.9528827 C111.591352,65.7086481 110.557455,65.450994 109.512823,65.2687873 C108.930119,65.1662028 108.633698,64.8817097 108.512624,64.3261431 C108.396322,63.8162028 108.23827,63.3122266 108.101093,62.8022863 L108.104374,62.8031809 Z" id="Path"></path>
            <path d="M119.078529,11.0606362 C119.279821,10.9750497 119.307853,11.2195825 119.350199,11.4086481 C119.633499,12.6659046 119.912922,13.9240557 120.186978,15.1828032 C120.216501,15.316998 120.291352,15.505169 120.076938,15.5609344 C119.465905,15.7195825 118.935388,16.2542744 118.195825,15.7312127 C117.52336,15.254672 116.739066,14.9254473 115.979225,14.5819085 C115.53996,14.3824056 115.413519,14.0871769 115.416799,13.6374751 C115.43171,11.7837972 115.422465,11.7837972 117.255268,11.4274354 C117.821869,11.3141153 118.394433,11.1978131 119.077336,11.0576541 L119.078529,11.0606362 Z" id="Path"></path>
            <path d="M98.2962227,51.9065606 C98.4083499,51.638171 98.605169,51.5528827 98.8977137,51.5549702 C102.395726,51.561829 105.895229,51.5600398 109.39831,51.5600398 C109.124851,52.1522863 108.783698,52.8638171 108.471173,53.5848907 C108.305368,53.9666004 108.039066,53.7503976 107.828827,53.7116302 C104.989861,53.1829026 102.155964,52.6425447 99.321173,52.1042744 C99.0247515,52.0482107 98.7310139,51.9331014 98.426839,52.0646123 C98.3821074,52.0109344 98.3373757,51.9542744 98.2956262,51.9035785 L98.2962227,51.9065606 Z" id="Path"></path>
            <path d="M137.027833,15.7664016 C139.009742,14.2720676 140.983897,12.766998 142.97833,11.2902584 C143.709841,10.7472167 143.875646,11.6794235 144.540954,11.8690855 C143.198111,12.4282306 142.039563,12.9077535 140.886978,13.3983101 C140.700298,13.4764414 140.327833,13.483002 140.424751,13.7597416 C140.553579,14.1313121 140.843738,13.8512922 141.052485,13.7671968 C142.177038,13.3106362 143.296521,12.8397614 144.423161,12.3879722 C144.581809,12.3247515 144.751193,12.1040755 144.952187,12.3590457 C145.103082,12.549006 145.065805,12.7183897 144.989165,12.9220676 C144.655765,13.8199801 144.249901,14.4969185 143.113718,14.6657058 C141.115706,14.9636183 139.150497,15.4738569 137.170676,15.8946322 C137.125944,15.8499006 137.078231,15.8081511 137.030517,15.7664016 L137.027833,15.7664016 Z" id="Path"></path>
            <path d="M137.170974,15.8946322 C137.031412,16.4540755 137.363022,16.3264414 137.681213,16.2563618 C139.532803,15.8460239 141.387674,15.4404573 143.240755,15.0360835 C143.433101,14.9946322 143.62992,14.9713718 143.863121,14.9317097 C143.851789,15.4848907 143.570875,15.7192843 143.118191,15.866004 C139.680119,16.9848907 136.245328,18.1168986 132.813221,19.2500994 C132.554374,19.3356859 132.309841,19.449006 131.993738,19.3124254 C133.686382,18.1183897 135.356958,16.9422465 137.027833,15.7661034 C137.078529,15.8078529 137.126243,15.8496024 137.173956,15.894334 L137.170974,15.8946322 Z" id="Path"></path>
            <path d="M30.4681909,13.8399602 C31.167495,14.8362823 31.8653082,15.8275348 32.5559642,16.822664 C32.6725646,16.9908549 32.7870775,17.1945328 32.5437376,17.3436382 C32.3269384,17.4763419 32.2279324,17.2705765 32.1277336,17.1336978 C31.7197813,16.583499 31.3210736,16.0276342 30.9137177,15.4771372 C30.8141153,15.3417495 30.7127237,15.1270378 30.5000994,15.2800199 C30.2770378,15.4392644 30.4747515,15.5931412 30.5689861,15.7249503 C31.0148111,16.3419483 31.456163,16.961332 31.9219682,17.5634195 C32.2031809,17.9272366 32.1745527,18.1860835 31.7698807,18.4249503 C31.2483101,18.733002 30.7180915,19.3455268 30.2370775,19.3025845 C29.8145129,19.2644135 29.715507,18.3700795 29.4512922,17.865507 C28.3121272,15.6915507 28.3359841,15.643837 30.4681909,13.839662 L30.4681909,13.8399602 Z" id="Path"></path>
            <path d="M10.8146123,70.6520875 C9.57584493,69.3870775 8.77485089,67.8826044 8.1277336,66.2809145 C8.13906561,66.2740557 8.19960239,66.2197813 8.21063618,66.2293241 C9.16252485,66.9697813 10.0666998,66.6498012 10.9195825,66.0650099 C11.3442346,65.7739563 11.5276342,65.8917495 11.6627237,66.3122266 C11.6701789,66.3363817 11.6838966,66.3587475 11.6973161,66.3796223 C12.0426441,66.9408549 12.6712724,67.5059642 12.6572565,68.0576541 C12.6414513,68.6534791 11.6683897,68.7304175 11.1972167,69.1532803 C10.7352883,69.5648111 10.7612326,70.0836978 10.8146123,70.6502982 L10.8146123,70.6520875 Z" id="Path"></path>
            <path d="M137.153082,21.5725646 L137.153082,22.1039761 C137.157256,23.3463221 137.155169,23.3564612 135.894036,23.1357853 C135.247515,23.022167 134.612624,22.8429423 133.966402,22.7293241 C133.471074,22.6431412 133.256958,22.4439364 133.26829,21.8904573 C133.290358,20.8201789 133.247416,20.8180915 134.335288,20.5631213 C135.096918,20.3841948 135.860338,20.2130219 136.622266,20.0287276 C136.975944,19.9434394 137.209145,19.955666 137.156958,20.433996 C137.117296,20.8088469 137.149205,21.1926441 137.149205,21.5725646 C137.149205,21.5695825 137.152187,21.5695825 137.152187,21.5695825 L137.153082,21.5725646 Z" id="Path"></path>
            <path d="M26.7316103,35.3349901 C26.7662028,33.6104374 26.766501,33.6047714 28.4970179,33.9829026 C29.0385686,34.1024851 29.5687873,34.2739563 30.1100398,34.4018887 C30.5594433,34.5077535 30.6927435,34.8489066 30.7625249,35.234493 C30.8370775,35.6501988 30.5269384,35.8282306 30.2299205,35.9722664 C29.3182903,36.4151093 28.3664016,36.7431412 27.3682903,36.9444334 C26.8774354,37.0425447 26.6558648,36.9480119 26.7235586,36.3987078 C26.7682903,36.0498012 26.732505,35.6919483 26.732505,35.3370775 L26.7316103,35.3349901 Z" id="Path"></path>
            <path d="M35.1590457,65.0367793 C34.7567594,66.6444334 34.1507952,67.9291252 33.2358847,69.1690855 C33.7452286,67.8247515 32.6800199,67.6276342 31.9362823,67.2638171 C31.3007952,66.9545726 30.9730616,66.65666 31.4776342,65.9657058 C31.8244533,65.4909543 31.7329026,64.5784294 32.2347913,64.4516899 C32.6558648,64.3461233 33.2496024,64.8972167 33.7604374,65.1706759 C34.1838966,65.3973161 34.6013917,65.4152087 35.1590457,65.0364811 L35.1590457,65.0367793 Z" id="Path"></path>
            <path d="M144.032803,28.9622266 C145.425746,29.5643141 146.692545,30.3080517 147.327734,31.7952286 C147.435388,32.0484095 147.588668,32.2935388 147.766998,32.5043738 C148.577535,33.4610338 148.750795,34.5005964 148.163917,35.688668 C146.888469,33.389165 144.977237,31.5050696 143.930517,29.0597416 C143.969284,29.0269384 144.002087,28.9971173 144.034891,28.961332 L144.032803,28.9622266 Z" id="Path"></path>
            <path d="M47.1202783,18.6083499 C46.4567594,18.6527833 46.0034791,19.0106362 45.7884692,19.5903579 C45.6265408,20.0260437 45.4810139,19.8527833 45.2791252,19.6672962 C44.8145129,19.239662 44.333499,18.827833 43.8855865,18.3811133 C43.4609344,17.9576541 43.4871769,17.2347913 43.9553678,16.8265408 C44.4125249,16.4272366 44.927833,16.2966203 45.4568588,16.7323062 C46.0828032,17.2461233 46.7075547,17.7602386 47.3332008,18.2758449 C47.2675944,18.3861829 47.1960239,18.4965209 47.1244533,18.6068588 L47.1202783,18.6083499 Z" id="Path"></path>
            <path d="M148.440358,29.4512922 C148.699205,29.4432406 148.683996,29.6528827 148.740358,29.8121272 C149.069583,30.7422465 149.397614,31.6747515 149.742048,32.6000994 C149.861034,32.9188867 149.937674,33.1553678 149.492744,33.2841948 C149.176044,33.3757455 148.928231,33.6879722 148.647018,33.1702783 C148.164811,32.2801193 147.616998,31.4215706 147.054274,30.5779324 C146.780815,30.1658052 146.920676,30.0322068 147.313121,29.9042744 C147.697813,29.7790258 148.064612,29.6060636 148.440358,29.450994 L148.440358,29.4512922 Z" id="Path"></path>
            <path d="M26.3358847,35.2992048 C26.3358847,35.4781312 26.3686879,35.6624254 26.3287276,35.8300199 C26.2446322,36.1857853 26.5947316,36.7085487 26.1178926,36.8770378 C25.6696819,37.0350895 24.6214712,36.1392644 24.5815109,35.6847913 C24.466998,34.405169 24.622664,34.1892644 25.8295229,33.7905567 C26.223161,33.6599404 26.3910537,33.7028827 26.3567594,34.1588469 C26.3266402,34.5372763 26.3501988,34.9189861 26.3501988,35.2989066 C26.3454274,35.3018887 26.3409543,35.3018887 26.3358847,35.3018887 L26.3358847,35.2992048 Z" id="Path"></path>
            <path d="M47.4751491,21.3399602 C46.988171,21.3310139 46.0845924,20.5535785 46.0771372,20.1387674 C46.066998,19.5486083 46.6139165,19.0589463 47.2822068,19.0577527 C47.721173,19.0568588 48.5182903,19.8342942 48.5215706,20.266998 C48.5275348,20.8365805 48.0265408,21.349503 47.4748509,21.3405567 L47.4751491,21.3399602 Z" id="Path"></path>
            <path d="M82.5864811,50.8956262 C83.2109344,50.8845924 83.733996,51.4246521 83.7229622,52.0631213 C83.7137177,52.6631213 83.2034791,53.1993042 82.6321074,53.2145129 C82.0297217,53.2291252 81.4860835,52.6652087 81.4956262,52.0353877 C81.5015905,51.4270378 82.0025845,50.9081511 82.5870775,50.8962227 L82.5864811,50.8956262 Z" id="Path"></path>
            <path d="M137.594433,23.138171 C137.594433,22.1734592 137.600099,21.2176938 137.590258,20.2619284 C137.58668,19.9860835 137.691054,19.9142147 137.955865,19.9559642 C138.273757,20.0075547 138.525746,20.1554672 138.722863,20.4002982 C139.52505,21.4022863 138.928628,22.9321074 137.592644,23.1408549 L137.594433,23.138171 Z" id="Path"></path>
            <path d="M32.1322068,58.3300199 C32.1274354,58.9058648 31.6461233,59.3749503 31.0625249,59.3728698 C30.4565606,59.3707753 30.0175944,58.9300199 30.0205614,58.3249503 C30.0232604,57.7395626 30.495328,57.2609344 31.0702783,57.2627187 C31.6309145,57.2627187 32.1348907,57.7696819 32.1319085,58.327336 L32.1322068,58.3300199 Z" id="Path"></path>
            <path d="M29.6600398,56.8449304 C29.0821074,56.8520875 28.6019881,56.3627237 28.6064612,55.77167 C28.6115308,55.204175 29.0409543,54.7622266 29.6087475,54.7419483 C30.2159046,54.7219682 30.683499,55.1576541 30.6999006,55.7585487 C30.7148111,56.3430417 30.2436382,56.8350895 29.6591451,56.8440358 L29.6600398,56.8449304 Z" id="Path"></path>
            <path d="M89.2395626,61.7683897 C88.0845924,61.8670974 86.932008,61.9696819 85.7791252,62.0588469 C85.6112326,62.0719682 85.3300199,62.1369781 85.3001988,61.9628231 C85.2465209,61.6473161 85.2670974,61.2987078 85.3508946,60.9897614 C85.4272366,60.7201789 85.70666,60.8761431 85.8781312,60.9137177 C87.0044732,61.1576541 88.1281312,61.4224652 89.2511928,61.6807157 C89.2452286,61.7105368 89.2422465,61.7403579 89.2392644,61.7701789 L89.2395626,61.7683897 Z" id="Path"></path>
            <path d="M42.8916501,4.79373757 C42.8170974,4.87514911 42.8030815,4.90318091 42.7828032,4.91093439 C42.2060636,5.12534791 41.4417495,5.71998012 41.0907555,5.42594433 C40.6213718,5.03409543 40.9192843,4.09055666 40.5930417,3.44493042 C40.5474155,3.35576541 40.5748509,3.24333996 40.7003976,3.2138171 C40.8563618,3.1804175 40.9893638,3.22514911 41.1164016,3.33220676 C41.6949304,3.8167992 42.2794235,4.29214712 42.8907555,4.79373757 L42.8916501,4.79373757 Z" id="Path"></path>
            <path d="M113.797217,66.2087475 C113.85507,66.1347913 113.877435,66.0751491 113.91501,66.0641153 C114.549901,65.861332 115.094135,65.0233598 115.746024,65.3824056 C116.31173,65.6952286 116.680915,66.404672 117.178032,66.9802187 C116.617694,66.8612326 116.05497,66.7491054 115.496123,66.6223658 C114.932505,66.4941352 114.374851,66.350994 113.796322,66.2078529 L113.797217,66.2087475 Z" id="Path"></path>
            <path d="M111.736581,66.7425447 C110.75159,67.2095427 110.500199,67.8265408 110.900398,68.7146123 C110.199901,67.976839 109.734394,67.1651093 109.283797,66.2078529 C110.106859,66.3897614 110.834493,66.5478131 111.735089,66.7446322 L111.736581,66.7425447 Z" id="Path"></path>
            <path d="M30.333996,54.3518887 C29.9281312,54.2642147 29.5324056,54.3184891 29.0666004,54.3199801 C29.255666,53.9418489 29.4101392,53.4784294 29.7047714,53.4691849 C30.1163022,53.4542744 30.1371769,54 30.333996,54.3518887 Z" id="Path"></path>
            <path d="M139.112326,60.8230616 L139.112326,58.1689861 C139.353877,59.054672 139.34493,59.9403579 139.112326,60.8230616 Z" id="Path"></path>
            <path d="M20.1659046,75.5367793 L22.82833,75.5367793 C21.9399602,75.7455268 21.0530815,75.7365805 20.1659046,75.5367793 Z" id="Path"></path>
            <path d="M109.312127,38.9910537 C109.507753,38.8595427 109.550994,38.9281312 109.494632,39.128827 C109.432008,39.0840954 109.372366,39.0393638 109.312724,38.9916501 L109.312127,38.9910537 Z" id="Path"></path>
            <path d="M112.523857,36.3906561 C112.546223,36.3814115 112.576044,36.3793241 112.587078,36.3626243 C112.635984,36.2937376 112.655964,36.2994036 112.639563,36.3772366 C112.637475,36.3906561 112.567097,36.3885686 112.527435,36.3927435 L112.524453,36.3897614 L112.523857,36.3906561 Z" id="Path"></path>
            <path d="M61.5447316,52.0705765 C61.6073559,52.044334 61.7012922,51.9793241 61.7254473,51.9999006 C61.8202783,52.0798211 61.7579523,52.1710736 61.7030815,52.2533797 C61.6494036,52.1907555 61.5957256,52.1311133 61.5420477,52.0714712 L61.5447316,52.0705765 Z" id="Path"></path>
            <path d="M86.027833,34.7892644 C86.1005964,34.8205765 86.1727634,34.8521869 86.2440358,34.8823062 C86.2195825,34.9064612 86.1954274,34.928827 86.1712724,34.9508946 C86.0818091,34.928827 85.9347913,34.9473161 86.0406561,34.7761431 L86.0287276,34.7910537 L86.027833,34.7892644 Z" id="Path"></path>
            <path d="M143.931412,29.0606362 C143.91829,29.0030815 143.877137,28.9094433 143.896223,28.8939364 C143.964811,28.8393638 144.01163,28.8918489 144.033996,28.9631213 C144.001193,28.9989066 143.96839,29.0287276 143.932604,29.0615308 L143.931412,29.0606362 Z" id="Path"></path>
            <path d="M15.1538767,22.4970179 C15.0888668,22.5459245 15.0468191,22.671173 14.937674,22.5930417 C14.8309145,22.516998 14.9227634,22.4361829 14.9582505,22.3601392 C15.0235586,22.4078529 15.0888668,22.4525845 15.1538767,22.4973161 L15.1538767,22.4970179 Z" id="Path"></path>
            <path d="M52.944334,43.9681909 C54.4219682,43.7308151 55.9082505,43.5322068 57.3766402,43.2471173 C58.6025845,43.0082505 58.7746521,42.3832008 58.034493,41.360338 C55.3210736,37.6186879 51.6927435,34.9532803 47.7751491,32.6364811 C45.9134195,31.533996 45.3429423,31.6201789 43.7075547,33.0316103 C43.0303181,33.6143141 42.9894632,34.0106362 43.5286282,34.7153082 C44.64334,36.1717694 45.9301193,37.4755467 47.1527833,38.8347913 C48.5973161,40.4421471 50.0516899,42.0420477 51.7225646,43.4218688 C52.0744533,43.7141153 52.4203777,44.0421471 52.9452286,43.9705765 L52.944334,43.9681909 Z" id="Path"></path>
            <path d="M122.346918,59.5019881 C122.350497,60.0581511 122.809145,60.5337972 123.337276,60.5281312 C123.864513,60.5242545 124.323161,60.0360835 124.318986,59.4867793 C124.315408,58.9392644 123.846024,58.4570577 123.322664,58.4612326 C122.791849,58.4671968 122.344533,58.944334 122.347515,59.5019881 L122.346918,59.5019881 Z" id="Path"></path>
            <path d="M52.944334,43.9681909 C52.4188867,44.0385686 52.072664,43.710835 51.7225646,43.4218688 C50.0516899,42.0420477 48.5976143,40.4421471 47.1527833,38.8347913 C45.9298211,37.4752485 44.64334,36.1714712 43.5286282,34.7153082 C42.9894632,34.0109344 43.0306163,33.6146123 43.7075547,33.0316103 C45.3426441,31.6201789 45.9131213,31.533996 47.7751491,32.6364811 C51.6927435,34.9532803 55.3210736,37.6186879 58.034493,41.360338 C58.7749503,42.3832008 58.6025845,43.0082505 57.3766402,43.2471173 C55.9094433,43.5333996 54.4213718,43.7302187 52.9452286,43.9687873 L52.944334,43.9681909 Z" id="Path"></path>
            <path d="M122.346918,59.5019881 C122.34334,58.9446322 122.792147,58.466004 123.322664,58.4612326 C123.846024,58.4570577 124.315408,58.9395626 124.318986,59.4867793 C124.323161,60.0360835 123.864513,60.5242545 123.337276,60.5281312 C122.809443,60.5340954 122.350199,60.0599404 122.347217,59.5022863 L122.346918,59.5019881 Z" id="Path"></path>
            <path d="M85.7057654,55.6908549 C85.784493,55.0168986 85.8289264,54.3814115 85.9365805,53.7578529 C86.0710736,52.9959245 86.5362823,52.6810139 87.3116302,52.8307157 C88.6300199,53.0835984 89.9072565,53.499006 91.1833002,53.9105368 C91.3914513,53.9779324 91.6470179,54.0614314 91.6601392,54.3393638 C91.671173,54.5794235 91.4493042,54.6784294 91.2703777,54.7583499 C89.6484095,55.477336 87.9465209,55.972664 86.2476143,56.462326 C85.5796223,56.656163 85.821173,55.9762425 85.7078529,55.6929423 L85.7057654,55.6908549 Z" id="Path"></path>
            <path d="M21.5442346,61.7087475 C21.1407555,61.6619284 20.8986083,61.4645129 20.910835,61.0771372 C20.922167,60.6972167 21.1717694,60.4640159 21.5421471,60.4813121 C21.8710736,60.4941352 22.0914513,60.7085487 22.1024851,61.0675944 C22.1147117,61.4671968 21.8803181,61.6461233 21.5442346,61.7087475 L21.5442346,61.7087475 Z" id="Path"></path>
            <path d="M70.2137177,55.0109344 C70.2050696,56.833002 68.7888668,58.2763419 67.0133201,58.2763419 C65.2568588,58.2742545 63.8006958,56.7864811 63.8039706,54.9966203 C63.8087475,53.204672 65.266998,51.7261431 67.0264414,51.7291207 C68.794831,51.7350895 70.2202783,53.1993042 70.211332,55.0124254 L70.2137177,55.0109344 Z" id="Path"></path>
        </g>
    </g>
</svg>