<?xml version="1.0" encoding="UTF-8"?>
<svg width="78px" height="78px" viewBox="0 0 78 78" version="1.1" xmlns="http://www.w3.org/2000/svg" xmlns:xlink="http://www.w3.org/1999/xlink">
    <!-- Generator: Sketch 58 (84663) - https://sketch.com -->
    <title>Slice</title>
    <desc>Created with Sketch.</desc>
    <g id="Page-1" stroke="none" stroke-width="1" fill="none" fill-rule="evenodd">
        <g id="favicon" transform="translate(-1.000000, 0.000000)" fill="#3531FF" fill-rule="nonzero">
            <path d="M68.58,0 L11.58,0 C5.72806669,0.00551289421 0.985512894,4.74806669 0.98,10.6 L0.98,67.6 C0.98,70.4112948 2.09678251,73.1074463 4.08466812,75.0953319 C6.07255373,77.0832175 8.76870521,78.2 11.58,78.2 L68.58,78.2 C74.4342183,78.2 79.18,73.4542183 79.18,67.6 L79.18,10.59 C79.168979,4.74197231 74.4280355,0.00550143224 68.58,0 L68.58,0 Z M65.58,26 C64.7851816,26.8049383 63.8408492,27.4469484 62.8,27.89 C63.0241241,37.9179873 60.3730362,47.8005768 55.16,56.37 C57.4768792,59.6161115 57.381158,63.9998794 54.9247945,67.1417653 C52.468431,70.2836513 48.2372842,71.4342947 44.5280487,69.9691186 C40.8188131,68.5039425 38.5161663,64.7724012 38.87,60.8 C34.4866394,58.5173974 30.5099045,55.5272442 27.1,51.95 L26.26,51.13 C22.9688873,47.8403429 20.2002164,44.0667222 18.05,39.94 C14.0688084,40.3436766 10.2992329,38.0702688 8.79875548,34.3606316 C7.29827808,30.6509943 8.42731688,26.3961906 11.5696282,23.9185464 C14.7119395,21.4409022 19.1127331,21.3355531 22.37,23.66 C27.3363221,20.4795517 32.8771546,18.3019468 38.68,17.25 L38.92,17.25 L39.05,17.25 C42.9049615,16.3968874 46.8563142,16.0606021 50.8,16.25 C52.2492779,12.9598453 55.5176081,10.8478526 59.1126873,10.8780214 C62.7077665,10.908842 65.9397998,13.075973 67.3330567,16.390239 C68.7263137,19.7045051 68.0134674,23.5299914 65.52,26.12 L65.58,26 Z M20.15,27.91 C19.0711129,26.7889158 17.4707719,26.3380987 15.9653435,26.7311797 C14.4599152,27.1242606 13.2842606,28.2999152 12.8911797,29.8053435 C12.4980987,31.3107719 12.9489158,32.9111129 14.07,33.99 C14.6007745,34.5230255 15.263224,34.9060041 15.99,35.1 C17.4753894,35.5008628 19.0617658,35.0775749 20.15,33.99 C20.2712997,33.8706932 20.3848637,33.7437687 20.49,33.61 C21.8366314,31.8981012 21.6905852,29.4496789 20.15,27.91 L20.15,27.91 Z M50.87,58.72 C50.2080296,58.0517169 49.3426268,57.6225334 48.41,57.5 C47.2366351,57.3420363 46.0500547,57.6748576 45.13,58.42 L44.8,58.72 C43.6940073,59.8224778 43.2762582,61.4398183 43.71,62.94 C43.9241417,63.6493638 44.3247433,64.2882542 44.87,64.79 C46.2447267,66.1770997 48.3828131,66.4606633 50.0715829,65.4798597 C51.7603526,64.4990561 52.5735718,62.5014334 52.05,60.62 C51.8333594,59.8926719 51.4259165,59.2366199 50.87,58.72 Z M52.73,26.01 C51.3380986,24.6154931 50.442269,22.8027555 50.18,20.85 C46.7710513,20.7456219 43.362889,21.0817326 40.04,21.85 L39.97,21.85 L39.73,21.85 L39.55,21.85 C34.5099291,22.7634724 29.6883618,24.6228805 25.34,27.33 C26.8105548,30.7400231 26.0538169,34.7020019 23.43,37.33 C23.1186007,37.6320755 22.7842671,37.9095724 22.43,38.16 C24.5174835,42.044866 27.2189631,45.5669199 30.43,48.59 L30.52,48.68 C33.464399,51.7689824 36.8801811,54.3713223 40.64,56.39 C40.8975698,56.0355981 41.1817227,55.7013005 41.49,55.39 C44.0856374,52.7842219 48.0056438,52.0200186 51.39,53.46 C53.6840271,49.7835374 55.372224,45.7622523 56.39,41.55 C56.39,41.48 56.39,41.42 56.44,41.37 C57.6580551,37.2236454 58.2049653,32.9091318 58.06,28.59 C56.0573513,28.3471714 54.1943512,27.4385627 52.77,26.01 L52.73,26.01 Z M56.08,16.58 L55.98,16.69 C54.3231459,18.3937985 54.3612017,21.1181457 56.0650001,22.7749999 C57.7687985,24.4318541 60.4931457,24.3937983 62.15,22.69 L62.15,22.69 C63.2710842,21.6111129 63.7219013,20.0107719 63.3288203,18.5053435 C62.9357394,16.9999152 61.7600848,15.8242606 60.2546565,15.4311797 C58.7492281,15.0380987 57.1488871,15.4889158 56.07,16.61 L56.08,16.58 Z" id="Shape"></path>
        </g>
    </g>
</svg>